<mxfile host="app.diagrams.net" modified="2020-11-30T16:14:32.204Z" agent="5.0 (Windows NT 10.0; Win64; x64) AppleWebKit/537.36 (KHTML, like Gecko) Chrome/87.0.4280.66 Safari/537.36" etag="CspADemmQx9VdgAPteAA" version="13.10.2" type="github">
  <diagram id="fEFl5wwEsLyW6jNZMckH" name="Page-1">
    <mxGraphModel dx="1422" dy="762" grid="1" gridSize="10" guides="1" tooltips="1" connect="1" arrows="1" fold="1" page="1" pageScale="1" pageWidth="827" pageHeight="1169" math="0" shadow="0">
      <root>
        <mxCell id="0" />
        <mxCell id="1" parent="0" />
        <mxCell id="AE_BiF9xxwOe74FV2K3E-3" value="Deployment" style="rounded=1;whiteSpace=wrap;html=1;verticalAlign=top;align=center;" parent="1" vertex="1">
          <mxGeometry x="40" y="40" width="300" height="140" as="geometry" />
        </mxCell>
        <mxCell id="AE_BiF9xxwOe74FV2K3E-4" value="" style="edgeStyle=orthogonalEdgeStyle;rounded=0;orthogonalLoop=1;jettySize=auto;html=1;dashed=1;" parent="1" source="AE_BiF9xxwOe74FV2K3E-5" edge="1">
          <mxGeometry relative="1" as="geometry">
            <mxPoint x="330" y="130" as="targetPoint" />
          </mxGeometry>
        </mxCell>
        <mxCell id="AE_BiF9xxwOe74FV2K3E-13" value="" style="edgeStyle=orthogonalEdgeStyle;rounded=0;orthogonalLoop=1;jettySize=auto;html=1;" parent="1" source="AE_BiF9xxwOe74FV2K3E-5" target="AE_BiF9xxwOe74FV2K3E-12" edge="1">
          <mxGeometry relative="1" as="geometry" />
        </mxCell>
        <mxCell id="AE_BiF9xxwOe74FV2K3E-5" value="Deploy Helm Chart" style="rounded=1;whiteSpace=wrap;html=1;fillColor=#dae8fc;strokeColor=#6c8ebf;" parent="1" vertex="1">
          <mxGeometry x="130" y="100" width="120" height="60" as="geometry" />
        </mxCell>
        <mxCell id="AE_BiF9xxwOe74FV2K3E-10" value="" style="edgeStyle=orthogonalEdgeStyle;rounded=0;orthogonalLoop=1;jettySize=auto;html=1;dashed=1;" parent="1" target="AE_BiF9xxwOe74FV2K3E-5" edge="1">
          <mxGeometry relative="1" as="geometry">
            <mxPoint x="50" y="130" as="sourcePoint" />
          </mxGeometry>
        </mxCell>
        <mxCell id="AE_BiF9xxwOe74FV2K3E-15" value="" style="edgeStyle=orthogonalEdgeStyle;rounded=0;orthogonalLoop=1;jettySize=auto;html=1;" parent="1" source="AE_BiF9xxwOe74FV2K3E-12" target="AE_BiF9xxwOe74FV2K3E-14" edge="1">
          <mxGeometry relative="1" as="geometry" />
        </mxCell>
        <mxCell id="AE_BiF9xxwOe74FV2K3E-12" value="Read Helm values file" style="rounded=1;whiteSpace=wrap;html=1;fillColor=#d5e8d4;strokeColor=#82b366;" parent="1" vertex="1">
          <mxGeometry x="130" y="200" width="120" height="60" as="geometry" />
        </mxCell>
        <mxCell id="AE_BiF9xxwOe74FV2K3E-37" value="" style="edgeStyle=orthogonalEdgeStyle;rounded=0;orthogonalLoop=1;jettySize=auto;html=1;" parent="1" source="AE_BiF9xxwOe74FV2K3E-14" target="AE_BiF9xxwOe74FV2K3E-36" edge="1">
          <mxGeometry relative="1" as="geometry" />
        </mxCell>
        <mxCell id="AE_BiF9xxwOe74FV2K3E-14" value="Retrieve all common values" style="rounded=1;whiteSpace=wrap;html=1;fillColor=#e1d5e7;strokeColor=#9673a6;fontSize=12;" parent="1" vertex="1">
          <mxGeometry x="130" y="280" width="120" height="60" as="geometry" />
        </mxCell>
        <mxCell id="AE_BiF9xxwOe74FV2K3E-16" value="Target S&lt;span&gt;ubscription&lt;/span&gt;" style="rounded=1;whiteSpace=wrap;html=1;fontSize=12;align=center;verticalAlign=top;" parent="1" vertex="1">
          <mxGeometry x="390" y="330" width="140" height="226" as="geometry" />
        </mxCell>
        <mxCell id="AE_BiF9xxwOe74FV2K3E-21" value="" style="aspect=fixed;html=1;points=[];align=center;image;fontSize=12;image=img/lib/mscae/Key.svg;" parent="1" vertex="1">
          <mxGeometry x="458.26" y="360" width="13.49" height="21.75" as="geometry" />
        </mxCell>
        <mxCell id="AE_BiF9xxwOe74FV2K3E-27" style="edgeStyle=orthogonalEdgeStyle;curved=1;rounded=0;orthogonalLoop=1;jettySize=auto;html=1;entryX=0.5;entryY=0;entryDx=0;entryDy=0;strokeColor=#000000;fontSize=12;" parent="1" source="AE_BiF9xxwOe74FV2K3E-28" target="AE_BiF9xxwOe74FV2K3E-29" edge="1">
          <mxGeometry relative="1" as="geometry" />
        </mxCell>
        <mxCell id="AE_BiF9xxwOe74FV2K3E-28" value="Azure Application Configuration" style="rounded=1;whiteSpace=wrap;html=1;fontSize=12;align=center;verticalAlign=top;" parent="1" vertex="1">
          <mxGeometry x="400" y="390.25" width="120" height="75.5" as="geometry" />
        </mxCell>
        <mxCell id="AE_BiF9xxwOe74FV2K3E-29" value="Azure Key Vault" style="rounded=1;whiteSpace=wrap;html=1;fontSize=12;align=center;verticalAlign=top;" parent="1" vertex="1">
          <mxGeometry x="400" y="482.5999999999999" width="120" height="60" as="geometry" />
        </mxCell>
        <mxCell id="AE_BiF9xxwOe74FV2K3E-30" value="" style="aspect=fixed;html=1;points=[];align=center;image;fontSize=12;image=img/lib/azure2/security/Key_Vaults.svg;" parent="1" vertex="1">
          <mxGeometry x="448" y="508.5" width="24" height="24" as="geometry" />
        </mxCell>
        <mxCell id="AE_BiF9xxwOe74FV2K3E-31" value="" style="shape=image;verticalLabelPosition=bottom;labelBackgroundColor=#ffffff;verticalAlign=top;aspect=fixed;imageAspect=0;image=data:image/png,iVBORw0KGgoAAAANSUhEUgAAAggAAAIICAYAAAAL/BZjAAAgAElEQVR4Xuy993MkV5Im+IXIhAZKswRVNUWT7OlutuBsT8/s3O5N9+yd2Znt33s/nNnZ2pmd7a3NzfS1HDZZVMXSBQ1kZogXZ5+7v4jIhEqgkCgA+ZIGApUZGcLjxfPvuX/+eVRVVYXwChYIFggWCBYIFggWCBZoWSAKACGMh2CBYIFggWCBYIFggVELBIAQxkSwQLBAsECwQLBAsMAeCwSAEAZFsECwQLBAsECwQLBAAAhhDAQLBAsECwQLBAsECxxtgRBBONpGYYtggWCBYIFggWCBqbNAAAhTd8vDBQcLBAsECwQLBAscbYEAEI62UdgiWCBYIFggWCBYYOosEADC1N3ycMHBAsECwQLBAsECR1sgAISjbRS2CBYIFggWCBYIFpg6CwSAMHW3PFxwsECwQLBAsECwwNEWCADhaBuFLYIFggWCBYIFggWmzgIBIEzdLQ8XHCwQLBAsECwQLHC0BQJAONpGYYtggWCBYIFggWCBqbNAAAhTd8vDBQcLnCcLHNZMNjpPJxrOJVhg6iwQAMLU3fJwwcEC58MCFfQ/yM/wK4L+d/DrlMHDvjhl5M3olI95Pm5DOItggQMtEABCGBzBAsECr8ECFZzAg3LfY9MVR4jl//u75XgfWDHmZewDBqL6vTZgqXh4xS9yEno+x36d4CvHPkb4QrDABCwQAMIEjBp2GSwQLHCUBQgQCBHcPtEDfYsAYQ88EEceAVF0MoAg398btWgAAj9vn5NHBzxmAAhH3dXw+eWyQAAIl+t+hqsJFrgwFqiqCqhaznhkpa0RhP1edNb2vvffPgLQXvG3P4sAHg5EAnLMJowwfNjR8EIdPgCQWAThmCGBY25+YW5gONFLb4EAEC79LQ4XGCxwTi0gfno0z98K6VcEAspSaCL76m31W3ujDxZ6ODAR0HAeho97GFVSD0+4EgPVQaDlEBsHgHBOB2A4raMsEADCURYKnwcLBAtMxgK2kCdGGOL/mUOtEwGjDlbyAXT17kga42iAQcHFXjig7yjzQV/cimkM/l+THXF1FHHyADMFgDCZ8RP2OnELBIAwcROHAwQLBAvsawF6ZQsCDEcJzEUzLSB+2zv0dlpgJD1xHBMTjTA64SMRtQMnIGi8eRtGxJVRFA8KNRxW4RAAwnHuTtj2HFkgAIRzdDPCqQQLTJMFhILQlAi0HPZeQDBMLLTVvO5AFv17MhX7cRGGjOsBgvIZhr9vn7UcexNbqCDcCXtFBgz872m6f+FaL78FAkC4/Pc4XGGwwLm0AB1tWVWWXrB6BXHKlkIwRyw+uO2UNeA/JJ9A3qEvUGCxgX7HMgZtniHfthSFHEl4DhrJsKBC80cr4+D/5Dk7p2EPgoI4juV3eAULXEYLBIBwGe9quKZggQtgAXG2VVlHEehn5cd7+joHoH80K3c65bR1hZqLaNb1xijY47cVNWhpJYGJlUoamNDDeoZCk4IQcCA4wo7TAisECB4sXACTh1MMFjiWBQJAOJa5wsbBAsECp2MBjRIQIPilfu3PzQEPV0C2ShsRCT1RAwMRorghD4p7Nycvft8DDnPw6v6HSytrWmLlJFBB4NCmKipwiBBFXpehxVPgsaoqRBJOZ1CEvZwzCwSAcM5uSDidYIHpsAAda4nKESDQ+Vr4wAgB4qjbOgiesCgiSU20QEGAzycQG2jVgazqPUDwZMQqghMQoNUPAgTM1/t4Qf2ZRRMMG4hIUoTEog5NyMFHNXRfIdUwHWN3eq4yAITpudfhSoMFzpcFZPWt4X6JJ8i/tZJAVu1xbM6/WfMLT4DgQcIHTc1BO/rgjPwoQGGIi9A48JpeYJv4f9d8h5aIk7wnxAamE5oiSQEEltc4DBwE2HC+hl04m/EtEADC+LYKWwYLBAucogXEB/t0QgR4x871PeMKhA78IZGxrPS3cwQRnrTIFEWFyun7Gh0wj92um/RRAvmtK/146AeII/7494Ek1r+9c+fvBA4sd2TYQdIa8nkTrTjINAEgnOKgCbs6UwsEgHCm5g4HCxY4LxZQDsDBr3qNfcg2h+2j+f5+RYvi/F2FQvgCKkhEAJC7CnlZYVCUGAwG+u/KYVA65IVDUZTynbwgIKBqcoWydCidgytLBQieUOjP3P+bEQcBAQliAwAEAgwEJFGEJAY6SYIkidBNE3Q6ifw7TRJ04xiLaYxOzO34E8s+PF+BYKJ1uCE1BYmJjFZS7GPVISAhoZKh/MeRA6d9NwMoOdJcYYMxLBAAwhhGCpsEC1wcC+x12gc7jtFtGwa/Mva9oJDP0FuOX/7p4/y2j1rMqPUdqRLQrot05r41U+kqZKVDv3DYyR36eSFgoD/I0c9L+YxgoJ9lKB0EEBQEAk6BAKMJuj9zotpkwVQP2/yE/RysT0to7kFrENRCdRQhBlKCgCRBJyVASNGNIyykCbpJjJlugtlOB3OzXcx0U3TTGDNJrN+JI6QSjdAzgnOInZ2pvKnnKVaziIaOrUqiEwI0JLKidiQxsnmZzYdwXdO4yt9Nrbg4Ud/JizPMw5meiQUCQDgTM4eDBAuclQWGnf5ojKBZWba30620AbNvsEwHRedkDkqLAxQX0JMJIKB4gH/T1AvE68VwUYSy0lRB4YDcKSDoDXJs9/rY7vex1S+xNXAYFA55niMvCgECAirEkaqbU5DRAil8b7j94rGMu+/qWkzQlm1qgAQdblxVSOjABTxAgUInxmzKnwiLsx0szKRYmJ/F4mwXcx2NRCSo0Km0zZMCAg8PmKZQW0sMhZUQnuhIG0gqJUYSpy0d6lGAwJOmrRpQ5AMV7UqMYxknbBws0LJAAAhhOAQLXCoL7AcQ9rpEpQE28EHLA20tW2/eCpvXeQKrGxSxIL9yV0fOdTIhRl4B/dJhq++wnWXY7g+wtr2Dzd4AWcG0ApAVDllRSoRgqI1ypA5PgIEXMTKQoO7VqhhOGEM/FFfUGgh7B4RyEMTNA1UpVxpXDklVCjehE1foRBW6nRhz3VRAwvLSAhYX5rE838UM0xMRHb6u7ImxuDeJWsjl+kSLRXGEoJEgirmVB23DcK/Wi6iBR1MwqqTJExrpUj0P4WJexQIBILyK9cJ3gwXOnQVGHf9BjmLY2ci37K2oVhps7UtS+x4IGJCogKKsJEpQRbE4/Z1BifXdAV5sbWNjd4CtLEcvLwUwFFWMKOkgilMlFboSiUgg6qran1FdfUCwYO6xAQcWSThhSeFJAw++qEE5DJY+YLmkpA9Kfc/+Zjtpphm63Q5muynm5xMszs/gyvIirs7NYaGTYCaO0Y0idMl/sAoOiZnEjMswlaLlnxJB8NUYLVvUWR7TdbC6DwNtvuIigIRz93hesBMKAOGC3bBwusECh1ug7Wp17XnYSrIODNTxBAUFMeMBPn1g1QZ8t4w0fUC3SG5AP3fYykusbmd4+nIDqxvb6AuREMgIIBgFiDuIkw6qKIFzsYAD7ZBYIokKRJEKFBns0Dy99EdoRzgswFGvjE/m/E4KEGqAIqt+rV5giaZjCKQC0k4ifAMvw8xtROehKoCkQBoX6CYpFrtdXFuYx82VZdxYnMXyTIo5RhckQmGZGwnMMBbDnEbV4iroNbfjApqI0XNoQAI3k/hEiCKE6eKVLBAAwiuZL3w5WOD8WcAocHZirTTB0KkOuRMrKfQtlEmY07y4f5VVjBwRMhdhUJbYyQqs7g7wfH0bz7f72MpK5CW0mkBSA/xRJ6XZfOuf4HsoyK4JEJw5Q3Vy5BbU4kO6VJfXKJeicX7HDKNrkcOxX9I3oiy1ckH6L6jzbTCUll8KX4GiSgRSdPFlAUQF4ohpCfIYNBUxm0RY6Ca4ubKI60uLuDLXwfJMBzOsopDIAY8jRZ51N0sCtFFY5K+lvptiKE9uPBmIOrZxwhcurQUCQLi0tzZc2DRaoIkINBS/xg57SAbqfK0ngQP7IijjnstWyYqTaFgRFFTYGuRY28nwbGMXzze3hFMwcBGyOEVhoXAvRmzKR+LZlXzn6wUUAAylE0wsSU5GE/LiaGW7VmOlYf1EBR0nc/fHHRlWNsGUAs/HRxDMPrKGF5JhLOChTtewCoHvVyWkc4T0l6J6ZAFUubyfoJQIwvL8DG4sL+HGyjKuLMxgYaYjRMg0cogJouxKBW6ZHLRehQcBlnqp32k0Go57tWH7YAFvgQAQwlgIFrhEFmgzEDwRUX77pS7rA30dXH3dumXhCBAY3k9QRhFyB/SyAlu9DKtb5BXsYnW7h53MoZAUA7PvEYo4hjMyncQJRJ9AUxTi0BgJ8CwDqd7zYkcEAqmVU/rKCJ9aILIQpNKKHzSwwqh+ZwYQeC0Syh8KPxiRkiwEATnUV2gVTlZqi6g00CXwi3GFUtIqMT19VRpQcFJKOT/bwZWlRVxdnMdV8hbmZzDfTdFJYrFlGhFwNOkfzwvRgs1YWY81mLhEAztcymuxQAAIr8Xs4aDBApOxwB6AIH0HPEBQpUHpYtgi+RE7MC1AQMCtyR2gPsH6Th/PNnfwYmMXG71MogUEBc47I8t6uziC8wtZTZsLIGkqJVrOX/wXnaSyEFAx+972uv4KRnQW9pjrjCMII1Uf3gn7HtFSjMHrESzUaiwlUQSPcTzlkr+15kNAh9wfRicUgFC0iaWUKzNd3FxawPXleVxbmsfiTIKZJDK+QimkSP0ej5vYj9qylZ2ZzEALe50KCwSAMBW3OVzktFig7YvUQfviQ9/l0FbvXsRIQvlKJuyXETb7BV6QV7C5i/XdPrYGBfoUK2Ixn8+7M8QuAEBX+DU4kOiDWbpNOrS3Gua9vxtcEws1b+RLo+CgTaWsg59nmGLwBMnhJMfQmLLc/95x1m4prbwOSREIIZFgTe+R8i9MiUEqSSskrsJsHGFxpoOVhS5uLs7i5tVFrMylmE1IbCSngRUUjMRoOWQdICJPYloGfbjOiVkgAISJmTbsOFjg9VhAuYUeKlgZoZH/irKUUkOtSGB/Ay1V3M5KPHq5jWcbfaxtbgsJMa+rFqhNQICgK2OVDtaVr8r8NBUG8rc4Ot+dUd+Q/2xDcZDeoQ5FM9pUxP0iCO3Pz4p/oPdQr8uXXe5lPhxUHSE1JbS9yUeI7SRQoPZoqKJWudEaMhRLil0lRM5O5DCfVJJ2eOPqPG6tLOLa4owABVFuNDoovyNVKImwHvZ9ha6Tr+e5vIhHDQDhIt61cM7BAgdZoGHI1RUB6qQ0liAyxeQYAEI83OxleL62iaerm3i+laPHSgQSFMUZmpqh5NWZRjAHLaI+WprYdnBCbBQinic++lC7vhlJuN1y5G06wT41Cry8oRTFyPW2UyRnMRjM7RoyUOnC8Vbo2nJKO07oq2EJWBWEJxrKB81efTWH3AlHrkKBmZhRBYflboI711dw98YKrlCIKSZQMOloCjhJJcX+ZxgAwlmMmMtxjAAQLsd9DFcRLNBa6voWyrq658qf7kmIh1KRwB4IpaQRHj1bw8vNHQxcjN2CpMNE2Pgs5+MSVxakRjH03m2Pcx6KCPgIwrCzq8V+2kEAX/d/gKttePkjX7IoxVne8kaEeTxYoGt6n1JgqSIjOU1UpY6ytCMt/oLqdIVFH4QkwnsaW0fJEqkrMRdXuLYwgzdvXsHdawtYmu1a5QPJjEqQ3O8VAMJZjpyLfawAEC72/QtnHywwbAFpcajNkrUigcCA6QSCA4jS4ZONXXz3dBVP1rfQKwCXdCWq4BxVAlmqR14CKxrooKhroJRCZcjrT82abwkV+GiCcg3avAHG1K20cci/GvPeOhce5Hrbegyya6uEOMmtP8BnHrErT7jUdE1bqsi3e5LKkFZ8oE3GUCKi0hi9VHQNttpdG9vxAznRAq4q5E7GcYo4nVUJq6KUBlBUoexWOTpugGsLHbx79ybu3VjBYreDeTaOakVmGrDFIhZ/H09iwfCdabJAAAjTdLfDtV4IC9Q5fe+OR7xarSKg1YONup58kaF/ivMwJUCxnhgZKuxkJdZ7Azx8sYlHq5tY381RxinKKBWCIhsD0fkJ1S1WFUAh5Ut2oH0CXAXH2idBqhBaXAO/YtaQQ6PEKHX8XhFQ96WZBgKExP9jvJA9v/4KAMFO7ZjjwJItviKkBQT0atodF5u/FQxIDGf4eENFGyPOuk5d2H1kYighBySVe+msgZZAK/JASgKEHClyzKUR3ri+gnduXsMbizNY6KbSYZLllKZq0SKXWo8HUXz091jqMPZTpWrerE+3DTmGoNExbRs2P88WCADhPN+dcG5TaQHvUvhbFQ2Hef6qd9hayQrBoKkqqKISVRxL74O+q7BmwOCb52vYzEoMKuocqNOhg6afada/DTxh9GCv126iCLWnt26C4gultt++VvMM/D49SFBQ07iVMcL2o0v/Mb5yuoPHK0vuPZHhlMt+J3ZY3OKgCzGbKdFD5aeNGyLWq+kg2jRKS1lLISwupjHevrKIN28s49rKLGY7yk8gxAC5DFZiyoQFNSoEvtX7M/Lk0GlZKWZ969uRpAZPtGHS6do+7O11WSAAhNdl+XDcYIEDLCCuwZor+oC+LuLVwUro32Z06QnAtIKWxLOIHi7WPgib/Vx0DBgxoPrhxqBAmTKdwL4I7VbO2nS49jr1eR3k2E7inU9zX69r6Jz1NYyLinSwiMYFSx9djnkUuLU0hzs3lvHG1SUsz3VE3jk1VUfKLglhVPinrd6eIu6k93eYA1LXZtbdN9stuEPS4nWNyckeNwCEydo37D1Y4PgW8LpG9k2dr615j+Ty1SFwJUhQIM2PyDNgxDmKsOsqvNzu4fsXa3i8uomNLAeD0C7uoPBhfR8Wt9W/FSYe/1zDN86NBRQ0UmmxkJRDWhVYSBPcWlnCm9ev4NbKApa67CRJEEA1RuWGeIDg1SmlBNNjQIlgtICKFKZYH4qRKz8JbDw3xgsnsq8FAkAIAyNY4LxZoJW2lilfcu5Ofuq1ngCEWEoSRQrJqhO2sgIPX+7gETsr7uyiV1bIyEWIE0QkI1oNvqcVqI6Bjy8368bzZpJwPkdbwAMEkXIWFQuHtIowiwgr3S7uXl3AvesruLUyh5mEySWCBBJaVZdB8EXS5pT4Y/qIQru/g6dq1nmko08wbHHhLBAAwoW7ZeGEL70FVHlXJ2xPyIs4kesKUdL8EkSg44+1dNE5vNjawVdPVvH9al+qE3L2AowT6ZsgKQVWKMgObeEo0KIVrhiRYL70dr5kF1gDBHJHkkpaTycuQlJW6DiHxTTC9fkO3rt3AzdW5rA0k4oAk28z7SiilVoGQTo/KHRounGa4JXZrZWYaDWNumRGnfLLCQBhygdAuPzzaQGR2RcpXp6fEtB8GaGABzZJimIUUYStosT3axv4/NuHWO05ZNUsyriDiFUKnoBGsSM2VfKkR/ltBDdbBEpXR2v2cz6tEs7qMAs0AKESwSq91xGSKtaySJejGxVY7lR48+YK3rl1A9cXZ1WNURCnQxyzAoYlrl6b0apVpAl1m5swKmTltwv36DJZIACEy3Q3w7VcCgtIhoGtjo10xkoGEhEVIDBwrFyDASKsZxk+f/gED9c2sdbro4xn4eJZRLE2QRLmu+j8q44B90vRHkk9i5QvQYJGFNh0KQCEizuEPHFVAk8JUJY2hqIECfEhUw9ljtTlmI1K3FlZwP07N3Hn6jLmOwlSUWAkS4WxJzr8pCGzEnFIm2v/GmnGZdtfXOuFM9/PAgEghHERLHDOLCBljBUFijhZR4hJRCwcIrZUZsogirBTOjze2MGXT57j+7VN9ERCuQOXpqppYMVsIn/sxY0kheDL57TrooCEoQjCOTNGOJ0TW6Bml0iJgaaSCDalRVZZYMYVuL44g7dvX8fd6ytCYJyPHVJX6LZJKk2gRHtLuIwkL3JnTdlqna+S8abaCuF1eSwQAMLluZfhSi6NBRyKsgDJZqKpTyJiJVXsKABs5gW+X9/GV09X8Xh9GxlBQDIjfAQfddClnhAYZOWnTHUDC1KxZvXu7Uo62/zSmHGKL4RjRsinJLdawyi764hcLL0dmHLoRCWW5lLcvrGCt68v4/bCDOat5bRWM1jUQMYJ/90WvFIpaH0JlB1P7GqK78tFu/QAEC7aHQvnOwUWoIpeibLIEbFtb9xB7mL0K4oeZfju5Tq+fraG1d0MOXPDyYx0W9SuiXQIDBGz6qEtamR/1w2TTGFhqKHP2B2IpuAeXOxL1KZY1ihKlCyVt8Jy2Jhgk5EjIakyWpBhtgPcWp7DJ7dv4PbiPOY6qcYDqItgjATVa9J8lG/rLa2+5cXtAkC42KNm79kHgHDZ7mi4nktgAYfKlXAECSxRjDrYLYCXu31882wN373cxOagQB4lqOKOpBSiSnTxTGaZ0QdX8wm01bDKIktHRYssSESBUQdPhGx1HLwERpzuSxCs53tg+JSAEQmFl2LRARISK9a5FJiNHO4uzOK9Wzdw+9oSZjsJOlGElACBgILdIr2sp3UHVeEujU0EgHD5hlwACJfvnoYruvAWILnMoagcMsQifPRso4cHT9bweG0bPcfqBe2hIBEGMtWZinAVSpcLuUBlkoela2qQYCtDRhjYr0G3UzndIHZz4QdP6wI8MGi1VxBvzugB01Ekw2r5bMJ20XDo5ANcneng3Xs3cO/mCpZnUsxGkCoHNn+KLRrBgSJFspa6UoDQJjFeJjtO77UEgHDp7v1IUvnSXd/ruqDTkNkdTzqXW+WuFP2C7aLEty/W8NXjVbzYHqBfdeAkpcAwsTVFkpyxNmpybNFsRMTa2deZA09Y1JCw4gRV0JeOiW3FvNdl5nDcU7KAiWi0YJ+ARimZdUpLkUoZjoREGkmTwAiXoRs7LHZj3Lu+hPtvXMO1+S7mYqBbAwTddwMQfHeHfVp3nNLVhN28HgsEgPB67D6ho7bZxe38sx5ur4tr3hnF/sPbDv9rZF164LXIt5p5qj6H8Vaphyi01Z1lGkfnT8KXeum/W5KxI9dfa8c3iyz/lTq/2lx1u6SrPQmOKND7xOx+FvHVA+3eiFJt0HLW9mdZVVKVsJWX+P7lOv763WOs7mTII+ujEHcB6hzIXK+TPeULSrYG5pvUPBASojYY0gyCERVraWV/kkZWlE0OAkETGq6XardjAEjN9ex/1fa24LxDNvPPk3EGD7SgjA258WQQaPWKKmbyp5TxIqBQcgSaotI5oEQUlYhcjrm4wlvXl/GD21fxxvIcFpJIhJV8+22CS098ZRRLR90Br/q6DZiObDbenHCpBsyFuJgAEC7EbRrnJP3Db6sEeVS9Zro9lEPOug0mGn319pGaCWUEIKh8uy5GTKJVS6C8s9NvkgjFOSimw7IZwMv62teHevr50yPNrlb/HQmTyzRn3XOVnO+dtB6LAKGBFnZO9bENr9hkJmc7unA2AhbJV9ak2KZYL3PcQCmd81pOfg9A8NJGPBBD/gznkoCodqqctVn2EkjUIUAljZZe5A5fPN/Et49fYLufsZ5B0gES6JUezDYdi5iSHYetntun5CdsiyC0ncoh8GucwRa2GbKA7/S41ywagm8DwRYobz9Hqn6lBanSopnf4VjXe6rAt3GjKkugY9/D12YJ4L9vBYmG1JuyRz0Hft30kfS4AjhZJ1PJOZAHM4MCd6/M46N713F3ZR4LaYwuNRXsEVX4qeqejEPsYwHDwD6M1T5f++gwYBFG2mu1QAAIr9X8p3lwXRm0JwnffMVnlpuu9OK+G11/K1EaPRsPEDz49/6v/rc5ZJ1sPEDgJKFHErEf5iZF4lemu7oLoTChzbkNC7DoWbSBxOi6hAQrea8dQ6/nXb9CaSSE/apMuiL7XGm71E8PWE9k2vtA39K2ys4Y377Fskcc7QiCLykcjtQom5ynW9YAgQhHBIwIEJBikBVIOl0RPyIw2SkKfP58C395uoGNnT7iNJWzFsAlzkLZ6PXL20MMYg14TnNohX0dYYFxAELbeZqDNoAg3Ti9tnbE56UpL3SOJEL/PGgUSICBDD3fAtoAhEfd8lEi3BTfGpw7qce0jD8F1CX/Jgjhv6XbFyMIkY5FnlOZYy5xuLcyh7955xZ+cPMqljoxoqJUdc8oQpJoiSMBwtBSQs7HZp8aifuoQ/OcHBp5CGPvtVogAITXav7TPPh+AGGfCII4K5+L5Oqzvd5un49OIL522qY0dd6teKDkMVHaql5XOX5lr5OQOlWdKxQ4cFJxItrjj7dfgLF1XiMfl63z8pEMzamaL/bH4sTbhCKEUFWKlHBbU15D7Iedia6QWjv3K/6hcH1N526EZHzFgG9+QHhi5ySuvAKyvETSmZFqhUFVYXuQ48HjF/jrsw2s5hAiYsxGS+IMaE/PPm+J0tQAwZBOSBWc5oM15r680x9ykXUfgwOD7wKUrfGGH2K1IJFf4jfPioJsW/7XETsD37YSl+7fjr0Y+JuCWw6lVMUY+bWglPLwoBc3LkJKsQB6VsE4afrECoYS3arA7aVZfPr+PXx4+xqW0kh0FJLE9D0JSLwgl53HUMwjasB166nU+SBEEMYcY2e/WQAIZ2/zCR3RP3Y+TuBxeRPmVh/nA5LDK81WMFzTnOaEG5fLbzahUp1eFBzIqrU1uSmI0FbE0lHWJjxd/apsMAGCk8o7v+L3vryONezJZ2pI1U8p3s3r9+p1iausIZ2fXLXngFw7S/ok+WqhV0ZO2mCntXdPGdCPGySg0QVrU9NKXehXfaxG78Xw2fqcr/22iV4q0eMEgyrCxiDDd89W8cWjF1jPK+TxjHZqJM/AeAUKwLjn/SIIASBM6OEac7f7RRL0Xh1YH0LH6QeKreprkasR1+mfH40caDMmgfoEAKWTf/P90lFoy6ey7NG0CIKNEB2tclzNFahsQqQiSrJ/PteMeqkEUlI5BQmLXXz24T3cv3UFS2mFjuQayIPh93xFzCjc9k/RfguB9hM9ppnDZmdmgQAQzszUZ3GgVuveet3uXZeG+/KO640AACAASURBVBqA0MbxjfCJZelrTK8sZ+//Deu3cg0SPZCwtn7mSUtsP+z5CRK55ITGkCZXNVWFvHAYlKWE8H24U/72q/52BsGctIcSacJVToQ0jpEkif6OmQNVNn/KsCdBic6oysZo68h7x17PVz7525qs5C2LiBiRi58yBdBOQTTrMC9o7L/HTyxi4s+fq3/hHdjEHGtSqF8Bm1mBB0+1WmFjUCKPWa2Qiq2kK1+SNBEdrvDaC9UQQTiLh2vMYwxHEFS8av81sj6t7cjUKI9Gna5yeHQ0FmWJkj9FqWqb8lzp9xgp8DycUp4jjTT4lIQH2P7Jb6C4XZroZMR13w8hNkoaMJYy2rgsMFdluL2Q4Kfv3cVHb17DYidCXJVIYg9c22ZqZL6VwtjEUVrLghA/GHNkvY7NAkB4HVaf0DH9qt67uSG8bs5SmVCN81JXRYDQxBBkOvM8QYsk+GlPfJE4f2W9C3nKmgFxTiLFKS+AQVkhK0v0swK9PEcvL5GVTj4rygpFUSIvmrCnrogs3LqvfSx1wax9AqRxhE6SoJPE6KQpOkmENAJmux3Myc8Mup1UCP2cvDr8IXAw36ygwR/IT6aeSKW/tRUyL1TDp3UtA7kMdVChiRZIzKZFehTgZI0O9H0VKxL+AasOIm3JvNof4Jtnq3gg4ADIWcLIvguJ8g4kgiAAx+egA0CY0CM0kd2KOJVvmNU6gn+GvCPnYPNNuoSWYM22BJg6J3wBtmRmEyZGCYSfYOPZs4Z1JFs6qk1q9AzI+vgtUrE88AZiCGCJ4hkRkOZeHmSzJ4hDh2WQro83FlP84oO7eO/udSx2+WwRnDcxRj0tD4y0N4h/+aWEB9CeTD0R44edvpIFAkB4JfOdry+3YwJ1eLv27MMRA1te153+SErS9bI9rrL4tYnNwpF0inRqEgngZEbnRWfvgEFWYbc/wHZ/gJ1Bhl7usFsQHBTo86fkBBdpQkJnRiRCpDICVl2B4E94OBxpLAaZdpJYG874Ej6pyJYmNEA3TTDTSTE3MyO/Z7oJZme6WJjtYmW+gwVKyMYqLMRJTelV7SAwJ0cG9ltIgqsqa0QzHD1owIHAB69UWJMr2HZXw7TKEG/CzdqNscJmnuPzh8/w9dOX2BxUKKMZIGE5oxIkZWVIFTsy2wkafA66nYAJEYQzehD9E7L3cPUnBv7aWyg4tC1aQFxGmPeh8r49UwIGKgXSfG4kfVAKSFD/r8623b2xOV7zHDdpjeE4l28LrYDTogwGLBit4DNNWq4HGhJ9YytoPieMFlQF0lJBws/ev4v3713DcjcBE2JeltmnLuTJogy4/G4AudIZ96ZDz+hGhsOMaYEAEMY01EXYzBc4qmv3k5IFDKz8T0vifKzBQpJxjFLqpLktV9kMG9rsZflJ8gUyVOi7CgNXYjfPsbnTw/pmH7v9ClleYZAXGOQ5sqJAwVwoowJeEZ6TGjkAPtNBLTdjWjfTRlPeuMfeLbzQcBEs52tkB5GWNaCgsrBchMdIE4KGBHMdYGEmxuLcLFYWF7E8N4eFDsu2muiCQAFPQGAelmhG8v/G0B7JsgxxDXyfAwIKK2avWFNuORpJn0S0dYwMEdayHF89eymcg61BJf0WEKXyQ46GVHqYvQgQGOr1k/sQ6S0AhDN4PHWsNf0tmkNaEE2TekLw8wRf65Plw/32Fe5DxrCVtTIawJRA4QoBA0whEBTyPSHk1lUMOtr0UWgF6W18aS7QPrXI36hhJFLo64R94KC1P3JdJJpHOGCDj8+Sj6b5hEniCnRcH3eXu/jp+3fw/u0rWGE0D07SfYZs9Tw5pglu62ZgWhkkz6u8fIRheFFwBjc1HOIICwSAcImGSBsgKPPeWAG2gPB5a05I4r9kMtNYu6rvGfHPh0SZMqCjB/kCDhtZiZc7Paxub2Njdxfb/Ry7WYy8Yj8AP2EZp4DHP6g8QJbTnBTSY+cfVfTFEzCtlFEurCnbVB/eVGp43kUs3RGdpBvYjGZxdhZXF2ZxZWEeK3MzWJrtYI4RCK7Wef6OgjGWbpA8sB5PG9YY0LIcrQ4jFZ3Rdss6a0uZpPzJSALPIBJwsJEX+OuTVTx4uorNvkPBVs0CznRilrNv6UccOkxH9RdCFcMEnuqGgDgKEjT/by57SLdDSxblfkq5oo4bkceWKp4IOcF0yR+HXIBBQzasNRRG/eYQIGw/Qh69nkwUsx0d0+icAnZLKCpJOWILaHJpHOKyj1kUuHdtAT979xY+fGMZs6jQJSdIQ2bGKYoQpR25dkbGJNomUboAECYwUE91lwEgnKo5X+/OGoBgoW8PEOhsrOyJoMAT7eRvW0Wo8InqFvDz3FXoFSW2+wWer23i2fomVrd76DugiGLkQjxkvXQHTkKIfhljDtRPMEN5/ibUKepth2uv7WtMVW8brpxu4hStmmsjZDYrbjGC/JDIyDQFyYyiPw+H+U6C60sLuLWygmtLCwIWZkmGFA16oQNImNVmzHpf3L+SyHwdxXDCQurPXSnbuDjCwEHkk79+sY4/ffcMq/0SVTqLqkrkHnWkvTMLzMhzsFbNr3dYhaOLBYYrFDxIGK1VaZNHZRur2pEIEMcA72tJ/k2BPC9QSPTAqg9aX9ZIny9vHEUIdQKxdW9a25xQNVt0QqwvB1MJLG+0KxdQzlRBxEgAFw1FIZwfrW5w+MH1Bfzt+7fw5rUFzEYROnzOCNoFH0WIEkbG/PV4gNBOJwY1hPP4oAWAcB7vygnPySv/WWywiSDIU64TjvAHZAHvQ5zGO/DVBa7CTpHj5e4AT9c28Gx9C+u7A/QL5kVJnOuomh+z9zHJdE3KQk9bZyftGNjmPVgphLK1GlJUDSyG4qQtwOEnPp/l1ThlvWiWrxm5UUrG9HzaiRQJ1FNPQHKpXqxJgQxZEYwUxFUBXtlckuDK/BxuXb2Cm1eWsTzXxXwaYzZRgqOmbmgsytVadKEu1VR9By+rpOVhRjAjAx0RdkqHh6sb+PPDp3i5W2IQdYB0Bk5KzAokliJRoKarzPA6DxY4DCCQH0JCKVf/Ok5J8PM5fFElZNGgAYMsy1EUhaQQlIxoKL1WBrUIw7BawT5GGAEKLfxd63Ycw3QeIMgIrgohJXKIU8HTCXHWni0BNA5plCCm5HfhsIAMP7g+h08/uI27V+cxX1WYTWMBGdw2TnwEQZ9zffZ8BIHvBYBwjFt1ZpsGgHBmpp78gYTUVj90lmJoySA6Idtpgx4hHFqqkA/wYOCw1cvwfH0bj9fW8GJnB7vMhyYpiihBKaFzTgjsE58KV4GvMirhmGcfujwLdRqnweOGZhMN1wsVUL7onf9Bv4e3aWVfazaFdZ1pOhP6tEpdiaCHiX0HxIRgyTQcLD3BaIGQsUoSsRzmZ7q4fmUFt68s4tbKHBa7KbpJIkCBBEe2wUVZCEXByx0LuVAiM5orpsMnKTyPYuyWwNPNbfzpm8d4srGLLKJAUgLEmmrhsSNOzMLXSCTlMMQ1GB1CIZUw+YeqPsLhAEGSWuI4jfTHkJNUrJBoWCIvC+RZJmkECUR5pU7PFTB1REtu6VF9tdEBfIKh58n+ofi7DZCbrdoQfD/D6dygoD7mcyDKnSKVJOku1WnlyC7l1LS9c1ece1L0MR8N8MM3b+Dn79/B7aUuZqsSXaYSXKURBCEqGkeiBgg8XqPZcoY3NBxqDAsEgDCGkS7KJpRNGQIIQ+6FDpFBP2nHItyCvHToDwZY3xngyVofqzt9bGzvolcWKDkhxOwSz+eXBKNUyVJSucfQuzGp6eiV0Whm0r4LjdBSo1TYRFAjVNKS2L5znEWy/wrVIIdKMY1D4WVo7WA+iKFrFJ3ShFQmE7RCKqFkxYlEGKSkUBy1XizTEAvdGNeXZnB9eQ43lxaErzCXxBpKZUWFpVNkfxYaloIF2t+VyKsIgyjB850Mn3//At++2MJuwQiBTpqy+qxUT0K5nNZzQXZykHFOGEe+KIP53J3n4QBB9QfM8YveB8WKSinnJWnXp++0V4jXLZARYloFjeqp7ovh+VZ75QO0FNRMTEu1DWbP1h7uQiswt8e+7fJnjv+m34eP1gnw4NuMCkikhM8MZcATVGWBBBmuzFT45K0b+Pn9W7g510FHInMq/dyuFdIIQjvFcJxJ4NwNjkt7QgEgXJhbq7PP0DzgVw32WwGC78fQlmcxznAVCXcgcxW2egOsbm7j+eoGnm3sYL3sImPKwNdr2/PqhXrotPgjLGbxrlqSpauCphlTbc6h593+UZ88y/9syqwjHH5yJcPb2tCOzBle+rmpG9SjqZhTCyCoa25pOWg0RQhjvjysnpt8MmI4XOvXTko2L9kxAd2owpWFWdy+sozbKwu4Pj+LhQ7jKQRNNuH5CgirQCAgyxHhZa/Evz96gQdPN9BzHeQVyV7M53L/DDUXIm4rPDAJ5SYQqckAEF7/Eypjpe3QvAJoIwQkBDwDBuQW5FmupEOr5NHbKPT+mqwoehjm+L0KoQcaChAcYmnyZSawiNLQY1FHF9rvKkDYU9zSitXtNaqCfF0ScBJoUomaEmA1jgIEciiUlKldIFmNxIqlClrZsJIW+PXHb+NHb97EchpjRtpED1cq1ADBIi6HRspe/wiY2jMIAOFc3vo6Pt5amTdiRk3TJS1L1Nw6me9chRZtvqA4ITpw8g56RYWN3RzPNrbxdH0Lq9u72M0L9MoIZTorZEN58H0Y0JbonOQk0Chyqv6UfDrASvq8HUfSosPrGo9ovHduRx7GvxHDcix+8hwGCD4FovwDEzBqL8hHDq3zrJaf6aRtS0L5DhvTFMYRcKKlcGWuizdWFnHn6hKuzM8IT6ET0a37EKwTsaNBlIpK4pePX+KLxy+xNohQJKwY15WXhF+FzKXgropUPheiba8A4sDJM6QYxh80fpgc8o1Rx+vpH1VphcEyFnxoyA8mhaYs762jBhI58PLeDajXIobmAamfAntf0wt2y0WjvJbmai0FRhuzt6aI9jXWJYXNBdfX5x/dkaiDHM9KIAWgSqqMiwJfcaCCXQQv8owIaaHpKkklx8RAwp3lDj69/wY+uXsTKwTRcmFK1FTypsYTJPho8ufHvpnhCxO3QAAIEzfxcQ/Q8lzNbKE18Ww2xBSBPaDSSa1iFzWvfOiEDyChe/kuuQYJBgXQz3M8XtuRn6ebu+K0MgIH5r9jlfHdZ+ppTt5KtJpUQntVM3KN5y1a2J4Ihxdae29OI4xff6Y+2kocqwopiYQux0wM3FxewO0rC3jjyjyuzncxSx6ny4Xh7eIUm2WCr19u4S/fPMJaL5P+CkXcRcXQrIRxGX0wUMGCUmkJrTwRFY8+b8Y87ng+X9vvi7da46N23/bsqVKoB+ftEkWVDGd5IlMJvX5fyb9DkN47+8NSRaP2qcMFr8Fw/uz3O9/2Q+QRRhMZlG+IzAdXKgN0XA93lrv4h4/v4/71FcxLdY6SiKXqh7ONCIBpxCwM89dwu8c4ZAAIYxjpbDdpA4ThyULV9VRhz/usuljQyhRd5KxVK3kGkVQfPF3bwcOnL/Biu4/tQYV+xQZBqQj2VHGiOv9epe1sL/ZCHK3BafoX0wni1MsCnchhqZtgeSbBvRsruH1tGcuzKWaSCFkV4eFGH//+3TM8Wd9EjhRl0gGztSD7WyZJrYownrtEK3SxxXs/LFF7IYx1zk+yBghDq+cDVtleAckAm6yajePCaAFTCQMSDwumh6wqSHynlSjKMbwzPeeGecXTi+t2LOQGFUDZl74NH7xxBb98/228dXUJMwQHUhasVR5lXiFJ9e8Ag1/xBkzo6wEgTMiwJ9/tCECoS+h0j/qpiZDUoX+BC5IeYCmdKPWVFdZ2M3zz5AUevljHVubQ5+I07Up+W+oO6g5sQ81fT37ql/ibXC2qlUnSUhKjNIViEJaqclWJxW6Cm1cW8Nad61henEVWOPz+wWM8ermJArF0bWTVAu+P7++gnA4fStYUgzLcPUAIU+dpD6t9I+x2EM0iaPWBJ/yIoBijd+QYMGJQFMjyHDnTCpJ7NwVFAw/yjI6KV532RZyz/WkFEEMIJNpWqIocqcuxEBX4+M038MsP38bN+S7mTCZd0hdc8Rg48Nzic3ZZU386ASCcxyHg6f4j4MCfKhnEbMcqkqlW+8/IQlHFyKoEO1mBx6tbePDoGZ5v9aQzYB51UKWqeKicAnIXYKVM2pxFtBHC6wALKLmM1Q7asppzm4oaUVQm5WK/GFh5ZIo3795Er5/j4dM1EZdiLFVbXFtu17r81aFZaZhl3f2EWxDqwic6FEcX9r4BmdwqDbH7XgdePplS4v0sF3DAbooaLFCtCiEZ2jpYQfxRuayJXt0Z75yqoxrbFD4USbclK4OAuMxxrQt8ev82Pn33Nq7NqBwzx7dynmwe2kMyPuNLCIfb1wIBIJzHgeHDn0MdA+1EtQG86qVbQx8pkItj9IsKL7YzPHy2gUeMGuSldAbMWIbEBkAkCEmZQl3dLGV40tKVjisAhINHg7TSNUEcW1wSINCe7PdAKWWWeol4UpmjQ8RAxcmCJAMqJvB+aa7VO4+a5laXXTb9F0LQdTIP5n68zrpDqQFyAdA1YRV1qeJgkIG3UwGiJy62WblNLt1XJ2i75APyGZO5xNewVwqHERzYFEKDxgkKKjFWJWarHPcWU/zqwzfx0e0rWKCooqiFJqIZIr1fWmfdEDlfw6WEQw5ZIACE8zgghgAC/6F1C8KTMyYUZU9ZkFTEwKCqsJUVeLS2hW8fr2NteyDljAVFjoyoSKESZcdzQqNGujKTFSBw1cSVbYggHDgctLxDUzlWWincDVHI08nRN4QWnOWZ3lbKyElPuCPyvqYoBC9YWanmxn0FReBsTeqxbKoGGzVOnzzSRkbq+PUeq8hRlmUaNWB6XdJy+pzUDRrb5ceWWhiqNJoGgCDRAxUi0+gAtT0iaUDVRYHFaICPbi3jbz94C3dX5pBCtSFUfySx7+ldDwBhUqP/+PsNAOH4NpvsN8SH+AZBZEqrYIoK96hQkTyAjBg4YNc5SSN8+3IdT9Z2sMXGP6KYSDEiXcVKZzav3GaBUFnVyKpY0w36UAaAcNDNbcom2/LH6mR0RenDq5zgLMQgCCCR9rkMvTIt5EFExbJJmQ31f15gqRbOaYv6T3bETdXe6y6lNRG0ht8qYGTpgtyVGAwGGGQDqVRQ8GbNzYyIqO2SvaS4mVFkwD2AMOgxDQDBqnwoRcZmZVzHsEGT6LK4DLNugGtphZ+8fQs/uX8bV+eoyFpIX5SYmiAsp2wtUAJIOB+PZQAI5+M+1GchqQNxKFofLI7EVqdamh+jdBGyKMJWQV3/bXzxZBXPtnaEfwCW0JkgSyNjXHeBHQpvyyrIQEEIaR8+EBQgWF+7oUiLhZolwNAimIr4gjaW4j0T1yLVCuQsqIKjNcuw3hLDojsn0dI/Z0P5XJ4O76MPaMtdsGidNuBUlc2sLKU6QXomlOzCqYTeui9GXQrRvsR2qqH9fntMnEuTnMJJeRVGjnHyclQNRDhNIsNO6fICM2WON+Y7+OWHb+HD21ewmFJlkX1QqLWoAMH/nMJJhV2cggUCQDgFI57mLlTh1yYVmXOawkaVCE6Ea7DWy/FwdQtfP9/Ci16OjJ0BmCZoZNdU4McL/tQajL6ju1dSMccXAgiH38aRvgjqV9pyxz4vJAVv+qkABGtsZSxv6dJAgGCNnurwtnyjZiUcoJl5miNtOvel0tvDkTKN3kA6K7JkkWRE9k7Q581XNLQbjE2n7Y54QDRKWXdp1b4OlcxBEsNEWjrMuALv317BZx/cxdsrXcxJdFTnpAAQzt+4CgDh/N0TkTBm/3gJs7GpEnkC0ks9xqCs8GJzF18/XcP3qzvYLmP0467p+vMJ9S2JfSbVN4FuiA260PWyySYiy2hFyDAcPBqs94S5fv1VRwy8m29nntWu2go7Vr0DaxksbATDZ8M21zxQiOZM7qH02FusLII9+nxl1DSwFswsXaz5OsYLaXqLjJ7bOATE6XiwVCFRQa5ALq8OaloQfAaSIseVToWfvHMDn71/B9dnU+l4KmWSIYIwuYF/wj0HgHBCw03ya2wLW5PWKgboKhQR0CsrPFnbwlePnuPZVh9ZlaLvYhHgidhOtabQ+Vp6DXt7lQOZplrRQF+DL6uk0Fr40FvqUwyNkqQPHbcdhP1tfRg8t0B7VzQZBR6IFSjydou+LcTFeoUb1OUm8Yx5sSPh6IiuAcFBjr4IHpWiayDAwYsdyUlo+JtObPjVpA8OBddHdeWcxIWe+T6VoyFzkHWhjKRbqo51AWbUBnUlZooBbsxG+Mcff4gP7yxjLgY6ASCc+R0b54ABIIxjpTPcRghvXMFoaYHk8jJWKQxKPFzdxJePnmF1d4Ay6aJwsQjw8MEU3X4JW/sIAidAZRTLy/suk1oShN9udVi3Yp2O1c5xb6knKQ4Zs26t3Xp3hJ8gKSJx/BqxqWsdRIq5He22rpAqbaEOKlSVHPc2Hbm92FS6Z0I4BuxmSoDAqF1NFBXb++6KCrvlSarFk+qHqX6wAkBQYrQSdPlX0zROo2X8XEXF0jxDNx/g/ds38Y+f3sfdxS5mhIwdOAhHDuAz3iAAhDM2+NGHM4CgXdeRA9jsF/jq6Tq+fPQCa/0MOUsWhTRlHRYp2uO0hXIpYT1rOlQlpvffoHvtzEYvpNwGz+HW/HcQ5zno/uxPRDcmQo2pmjJFtWeJiCRTXynSLgGjE2JnPPuu3CFrM02NegUI4X4c/bwcbwvf9SIv8pqIyBSDdNY04CBdFo2YKA28vNqlKWgqwdSOO4Kn97Qw97mkS10hpHOH1kMpKdGvSDSqEEHKFajzWlJhsUKcFZiLEvyHj97C331wHYuJBwda5hjSbMcb15PaOgCESVm2FY2sVxdtTpsuTOoyOf2np77pY1ZUlTRV+vrJJh48fokX0uwnhUs7sgJiCSTL50iDo1OR5moStvYtmS3/zQnPx7ItykBJXwEKPopQg4MQQdhvSBxWqebv77B6Hu3IyAGbPasSkmZmFdg1aR0L71ClUbYnqLDRIAAhvPa1gDf60I1peDaj3xE+CNN1VYVMiIiZSCbXgkame+BTD5rpaTHr+XxSLbB+XvavCtbTkhBQcwpTkWLwYFYh2DBAYMpGOVExKxoIAHKHqKhwZ7GD//Wz+7h7ZU7aqTNmmlgPEgVmw3dSALVxfwy6hQdkghYIAGFSxrVIf72AsHHtB7yHAiVlSU3rgGpkdCQVUuQRsN7L8PWzDXz+3VPsVgmy2Df6oePXngy+VbCv15JVZ4ssVDMP2xNq/dQ1OdSGQT8pg0zPfsU90N5DZY+ePW818i3dfsOKtfNpAMVJbXYwyBuHUnfso551nX9La8CXg1oBqpFsrBqEURhG1kSkioqIDr0sk86m2ltj2JF7qql38apJYa6+nVWogfy4lpoW0K2geGjcD4EjtbnE2Wx+nI8cfvTWCj778K7wEiiq1JEIArudEipoLMGLUilvRyOfWrAaomzjjsKTbBcAwkmsNs539gEI4gjkGVH5VU5STqYuPjI6A1GThdEDtgb+68MX+JaSyYVDkcyijKli7qMC/kFkukDlklXpzz8w405KB6+6xrnMsM3hFhiOKoxnLR9J0lzuSV7tVMcR5+fndNnsJEcbDYud5HyP+Z0aIGijK+90mmbLCgiEXBhT77/CIMulfDErSonM7Q+UTnL9xzz3qdi8bd1Rm9pnlqWhPsKtuRiffXgHn9y9gqXUSa+GmGXbVYJEIm9WnCXgoNIf2Yb/GRicCrue/UUGgDApmxsQ0IV7PeXbqsVWL9Qqty6MKk8aIa+Al7t9fPH9C3z7fBU7RSnNlkoKICVdSRUwR+rpbjWPwJ7DOuc3qesK+z0jC7SjO8c9ZDM6jvPNplLjON96DQCBpzfCCvQRBHX9BpBM7pcphV5/IFUKsvYMqqHHucET3LZC4grMVgN8cGsJv/7kHdxeNG0EuYuMIJDJ60MIwhSFE4DAz7WPQ3hNzgIBIEzItlpcqCIgfmWmeU2PfkkiYJMT/luaBmMAYG13gM8fv8A3z9fRK0uU7Kcg7ZmZOkikRSo7x5nOjp29dgIMaYIJ3cxX2C1FkY77GvJ9x53/ROXZi/oc48ji50+yGntdAGG/eIfycBQgaKWCdGAcsJeClg6Hct5jjImJb1ohYSdUl+F6t8LP37uHv3n7Jq50Y+mKKvMc0w1cEFmDOc5zBHjCD9HarfCaoAUCQJiQcRUeaPpA6+BViMhZ9YAS0ippvuSiFHkV4+XuAF8+XcUXz1axTToCO6LxwSBIkBbPnpZDgNAwfYPA0YRu4ivv1nponGA/J/LVHi4K/2HkoB4/jvDnmli7jdNjr8heD0AYlaJWUKTXTHDAVJ1EDnqZSCfXcsl1Mu8ENyV85ZQtoMRcLoE6eQ/3ry3iVx+9jbevLWJOqraddpm1ElOfOJIKLsYOWLF6ymcUdjdsgQAQJjQiGoDAga4F77rK5w/LqoxzUEYYlMBG5vDlkzU8eLaG9aJCxvCo1cFLJ0DR8fekHNunNfnx4Vb1CxOhoU3ISpd9t68IEF7FPB4gtIHBofvzqk0nCFmcNUnRwLW/nEb8iPSeCHnphGtA3kHOyIFpH2gp3vEjOq9yG8J3D7OAbzvvEGV9XO1G+Nn92/jZ/Tu4NptI+iFKiBS4D/Zs8PyFRCTnjecbTDxBCwSAMBHj+gSD8aININQyyJykWAPPkqsqwmZW4cHTNWm6tJYBWZyisBp43/1PG/00Ijpe0pRI2iv2aVnd61nRTcSMF36nJwcIshL27aAteSSjqRUBMH6hkrjq1tGNKJaYb8Tf7+vLZcetboWi0zQuUHgd4803vtJzVIEjJeeWrsIuuzAOcom6acMsAmwl8Y59WRd+7F2MC+B8FbO8kb/zHt67uYS///gt3L82jy51J2KCAc6nJeJIeyXRCgAAIABJREFUezrApdRk9N3XL8aFXtCzDABhIjdOIwV1ZQGjB6JN1NRRc0Ivogg7iPDVizX865ffYbOI4TpzKNFR3QJh+lptvK18PNXAioXkQVHFPXUXASBM5IaecKfGMxlxuDIujnDCzL9qekr1LjgWKIGlFTC+PbeeVtuZK5+riSI1DlGd6ZDbN8ThN5cOfHalfp+a0j8MLJw9QFC1UYc41hw19Q14jgQEjBqQkCgpOc/FqFhd720VImwnHMwT+RpHFps+8p7GVYGVpMTfvn8HP3/nJlaSBEnMJloFqrhEEktTaMSOAnAUtjph4c1EruRy7jQAhInd14aFLgqttQqysawJDqoK321s4fffPcKj7T4G6KKKZ6QGODaAQHU9qfm1CIIADy9d2lo5BYAwsRt54h2LI6NKnzlZ73TVIRtI2HfvxsKn2rYIK6lGXRM+8Cxu/46GD8hLaUSbPBgw+VtR5bLwgwFPjwYsgGAr8eNe7tkDBA+KGBXwICAvnJIRiwIleT01sGm30fby4se9xrD9pCwgPCzpf5HIszIbZbh/ZQ7/08dv4Z2rC+jELP0u4KIScRxJ2aMHCIKhAwlhUrdGFxRVe7kx0UNN2841DKquwPrOy1xKdnWMPHZ4st3Hvz74Hg+3drAbpXBJR8k3jvW/MSt6lL1rHRrVRbAOmF0CddXkleA0dGygZNzo8LTdkjO+Xn20VEVRnzb9tXeFb6v71krdl7KqcJYBhBavQFx9+z6LuEzTSqp1OD20iGdVKMneG6l3UeCiHJnRCII32cHTxOsBCL5Phagjlg69QSYNl0qPdvw11XXygXtwxsN/vMNpxyyAc18cSUXDSlzg1x/cxU/fvYHlTgK4QgFwzCpHNs0iSVujRwEgjGfmk24VAMJJLXfk97h61M47nH4ZJlaN9wSZi6Ri4c/fPceD52vYJecgodaBVSm4GBQLo9NXkKB1wBI54J/WmtmXdPm8ci23FADCkXfnrDZgqkDumYS8fdTAyhAlrDQUGNBtLGTeJFnbTEPKZmuIvYkR6J860jQFoSCgYfbLO7KA1nOQs6qj7X7ASBJDXaoB0PMIEHiOQtmNYhRlif6A3RhzFAQ/I8BZr8aDgxr+nNXtD8c5wgJe6Iol3EgSRGWBGTfA+9cX8OtP3sS95TnMkHtAnoLv0eA7o46M0WDs07dAAAinb9N6jzqJ63TGhjAszymjFBuDEn/69hm+eLyOftxBRqJhkqKUNILmm2XKJpdRaoCNjFXXcbfbBFcCJpqZfY+GzASvMOz6KAuwCZDcHilTVectuXNJvHqHrZ9pKkr/poSWuDUDhxpOV6deRyYsJKGAwFJXMngs5eA/t5OUunFOwnUEoUGSnHx5Sp7jIF9pcRkOztyffQRBTEJwYJyDfj8zzoGZy+rn9bKbrqVNhCXEpY8at2fzuUZHNdjDaoUUVekQlxmudh3+w0d38ZO3ruNKGoHN7LWXCe8o50jVSYhDQ7OJ3qoAECZkXh3I2iuBuTVXlVKZsFUAX7/cxO++fITtsosymUPpVDBU1kWUTeZ3LKesegdWJmlljdppjk8MuQnaqEnJiao7H3QRJnRTj7lbX8SlvlZdbHsNW0cWKgfnCCI5Vvh3JfoXTcsb76wNRLSc92i1ge/9oeRWjwya3niJOU8FBLoKZ26Xf6exKtvzpUEIU+w8ZyRFphVYyjgoCmnZXIiWiJY4aobBkzjNACay09g/AIRjDuUJbW6RsKpEknSAKpWVT+VydKsePrg1j//5p/dxe66LOUWF0gG1lDmyREqlRQKLY2t3TOhyLuFuA0AY46Y2qyc/4fips16ajagP6EpPA7ZKMKTI624V4eH6Dn7/7VM82shQxAtA3FWdBFdqV8a4BP/jhCfTM3NtrTWfFDv6FaOACAMIdgZBKe7wG+pD6Efe9tElszGtvfcczfePTlJtRT/fUUFAANUx7ceVBI4+KqCjxYMJ34ib99M766Fz9qv7UedNHkE7ddFONVg0QhJZNr58a13+O5WuvJFEN5I4QZxonperNAII9b2j+asxKmfqc1XQIf9vUTMOuxd1EKPmX2i1wlavJ+kF7Wrqi4EV8DTIyNIoAqTNtvIrAIQjx/+ZbNA0diKvQBprWfliUvVxtZPjv/z8A7x3ZQGLXjUxjeFihc4yLkMpw0TvVAAIR5jXRwJq6WSb3GIOZq7uuWKnf5eIsboCrTyApQzIwi2RI8bzfoHfffMEX7/cwQAzqKKuTmjS3Yw1vqp14DjJ2wrOQgU2u1mqoZ6jzfV4VrruKQDqA+5pbZsR59/WBlAyH1WwtSTVE6EkqlM7OjohW9Go12zl7JUjoI5LxwA5WM6VKIpSU02l7muU+Od9r18Fyxio6QctoYO2t7Pz8OejbfKOfnlOQuOydWDLGtxHFwwQEFB0khRJmiBNUvmpsxqyOlc406Q+WjwGX8IzRKo0QiWfnVa4a1Tki5CJXxe2hZU00oYkJPYydmT0Oz2qOdU+aO9oE4UtzsoCDUFGc6cUQapKzGGAH99Zxj/88E3c6nakooHVjdqqnmPMA4SzOtHpO04ACGMCBEYAOM1IZY2ULKp8srC/CRD4I3It1BdvwskkJ7LQbSMr8fnTNfz58TrWM5auzWjeTQLJ3MLZ3G7VCTUIGF2xTd8gPa0r3gsQmtWsd5QC+KQ80bggdEwkUns+iXxuKQNrrS38AGPN8286saIokNODCUggQNB9+pGh+dSDM/vNNR/3/o+zz30sahUMqvbZgqXGh5E4VqSRhZQ/BAysU09iJAIsSiXSCqjSSIOmMLR6gnwc8jDUlVsUzJop+bX9UEszi9hIhIVyu9Q7cE50Dsg5yHzPifpsT2uUhP2crQVM5CriHMgxxPGeCHDsuBx3Z0v8px/dx0e3lzCT2DNjvAWmF5rk2dme9bQcLQCEMe60tGVulYARIDCC4KduYgXfYYwAwVce8P2CDWOqCt+82MTvv3mCp7sOeTqHirQbmXy1XbOsk6y/woma7YxxHWGTZkEutjig4YGshE0zgOIsUcLYjtN0gHdIni3PMjvnkEs+vECe5/Jvv3sfAve29yF6EhXPT4Wxhno1ctEAjHaUQVIMAnJMrIkNeSWikKCT8u8ISaRpCSE7igEUSOlqr4l2SaxN8ZelBHTjVhbBf91uQ4ySLZvzHINBJvwDFXVSgB5eF9kC+wEE5VwlLsNiuYNfvHsL//Cjd7E4w8iCza+scJToa3hN0gIBIBxlXZvk6oCBTzFIaFUntuYzJYZpcyYlmeVRgue7A/zp26f4+sUGdqsOXDojWgg6F3v9Oi/6IrN0mPiOui+n8fkeNqcvITQnSNKeVRwIm0RSB7pK5m8CAUr7MlrAWnyW2fG3RCBkIDBcqnJvQ9oHcouH1RBP43JebR8eJIyKMqkWh2fdMBKi3l3PX9Z7SSQAQSILaSKpCE+G1ByBqT8KPYDPhk+x+NSBhinavAQFD+o8yDnIDBywx4IXQQoA4dXu+Ln5dp2v0nHlcWricnSyHbxzbQa//ewT3F6aQ6dScXmOr4ANJ38HA0A4ysZG7PIgQKdKIwfK36w4aJWUW3SBk1deVdgqK/z16Tr+/dEqNrIKRdRB7ivRbFKUidEvaIWSEADCUbfl2J/70tF9vqhNrvg/ruqVS6I+3CAg0wS+YNU5FHmuin3kFBAsEBRYikH1CPRVr5BbM1ldzcCVUHzeVkAtXQa7hnpV35ZvHs1iVNp8TNIKSYxO2kEnTYS3wAoJ33dUrtanHIRAQFKuV3ocvjECU5iCQCQaB5RPZpRGhJDq+vcQPTj2c3Aev2BcG/1lPBhXISFx27GJU4W///F7+OTedSxRTEnmT312QhBhsjc0AISj7GvhZjoAJSIqQNCQqA3m9j4sgsAIwa6r8GhzB7/75hme7ZCo2EHBkDQnVAJgK2VUlRsrTwzcg6PuyIk+92JTw2HshvSp7HcL+ws+01U/IwISHXCMGJBboJUIzKkbTaFuBOSFjdpkw6bYoIkYCAFy34qAE13aRL/UyhY0x2kDBLlAU/WyuFciURfydUhuTNDpdCW6QL6CpCqE48FflM/V58C/6r+syRIjBr1+hkFWCClRGzNZRCPgg4ne+zPbuYWOWM0lAIF8BPbacCUbd2M2yvHRWzfw6x++g9uzXXRt0Sbg8rxh7DMz2tkcKACEo+ysM5lMTNJLrK5WUHUiIRfWqVsjLTIsigir/Rx/evgMnz9hamEGDl0JS8cx91cIG1emURFD0r7n9Qo0TH5H3Zljfa6S1SOOyOtGmOHrpJG1LZDqk7xALqRDLanzu1CIqC+NwCvxro46GAOfxETfXKkmQNZkvvOVZvCCXPsZtnHcrYHpxZtkUm/iJjLf23PDUHCadNDppOh0GFXoCEdBkxO0jVf5avNDFHozOtOjSuIgQ8mqIYvwML2jEYtjDYGw8bm0gJU6sgGTUMCVkxVVhUrMs/S2ynH3yiz+48f38eHVJcxbakseuQAQJnpXA0A4yrweILREinQqJHBQcqGX6rAaBg2LugoPXqzhD988xfMeOzfOw1UdEU1KEgcX59KARAECpZWVkeuJYkHs6Kgbc7zPfQSh/paPElg1gaYWVGiKDoigIMsHyDOSDlWEh7ORKiDaKradWvK8EXFazbrbA4T22Q73Yjg/Xk4Bwt7zGRqL7Y9lsBpUqksvDShY5E33qJEDaiwkaYqO/SRsyBero6+VJikjLm2bHXq9AbKcpaEsMtXyN2HsWGllO/JwvNEQtj4/FmgBBC6SOCdGBSL2X5DGdIxDlVhKS3x2/zZ+df8elkiK5cwp6anzcyWX8UwCQDj0rnpClmXGuIKREKdOjFqWwzCYrSSRoqgYPQDW+hn+7cG3+HZ1B33Mo6hmUVVk4XLVVMCluUQQuD/fnYyyyrLnWgfhMg6513RNcit1NS9hbokIkWzom15Rr0KJhgQHku8ucy1PFOdkvWVbM9JoKn7f2aoVtXhNVz72YfcDCApYW7vYd0JWHk4riNBKwVlUTfIx1NSPpTySZMZOh3wF/q1PkFRIWBkp7b+9vSOcA29/BeAWhq7JvWNfXtjwXFpgvwhCjriiWiKrwFhaG6FbDfDxrWX8p09+gFvzHUhbO1MAPZeXdUlOKgCEIwGC0dOYHzPSlE8DUMxDQmG2anRVggFi7JYVvnz6En/4+iE2ixguWUDpVEZURJWjEi4hQFBBJOlMxgZNFFSQCdkLJV2SUXZuLsPAnaawa7BHx5SXpcj2EhxwxerVCDXdaQTGg2jTbaWl0WvdgyLOjTH2nMgoQNg3irUvQGjTMlu5F2scJZExVi5QMcoIuiRokn9AkNDtdNHpdISjQDyVZeQcZFLSqPEJrixJWNT+vipD7qt/zq89w5kdxwIamZOULSMIAhAiWXAxUtBxBe4sJPiPn7yND24uYz6h8idjUyGEcBwrH3fbABAOtZgpxElBt01OdRqAMxcnvEJWpKKahwR9xHiy2cfvvvoOT7d6GKCDsqLyHNuNWItSAQCFdeTzJ6CpBpPoCyU8xx3JR2xPRyPaAxa+FjXiWLsBEhjQIZFnoBoUwpzTVa0pIiqJcV/K3pB2wJ7TuEAAYSwZ5H3nY+Wft5s7DdnBExn3BCKU4EgthZmZGXRnqCwaYdAfoN/rqVKipH38s6cRBM/9adUOnfJoCbs7ewvowGJUtlbmJBisKJpE8bkCVzsVfvHeG/jZ/Vu42o3REfnlABAmea8CQDgCIIjErkx+2jSpEilQ/RL5BAIQYgKEGHkUY7Nw0qnxL98/Qz/uCmjgijRmv/N2XbxTpm6Tw/WTX81EmOR9n7p9y0rUs5oizXFT2IjAoDQdA6YbBAiIiJEvudJ2zcPg4AivvydPf0HNfazr2F8b0ktUe3VFDbaRlCtPkPzHqg4hM3a0LJLlo9SWUMKnF0RScKcAwQTGxlKivKC2n6bTroG39q0xBTlre04ZUyrXlpiPCvzw3hX86sO7uL0YY44NxmoG2DQZ7OyuNQCEQ2yt4IA/RLVc4VMIvKHNatvRQsYzw5+DKMajzR7+5a/f4vH2AEU8KzKxEjYjiOBPlKBiOsEBiZB0tXuji2NpBy2rV9bIh8nvVJ8CY4zAMdrDqEFOdnwuJYuK+LzFNcrjSxjFSTWNB+yc9gMI9t7oguYisU1PmCqpUxP7lStKTkFt01R4NLdWahkELHuJBNGltooQvRdeEEl/+z4Y4/WcONVBFHY2AQso6NNqFo4DY3hJUEoXZZJ6LR3SKsO9qyl+/fE9vHdjHovkskgMIUQRJnBj9Jmtzo/e66Su8cT7ldVNDRAixEIybNQPhEXtSiFXlXEsokh/efQCv//2CXZciiLuyoSWkowYVyhFSyGBczE6JaVEKRvq4CKHMuFnynPgbgNAOPFt2/NFCWRXQE4t/1JLFxk1EAKilEx5tUMT/DXiosr7aeS8XY63/5k1jnDo8wsjemVKijbXHoYV2ten2/m+JMOERk/mHWqlaJuqMJUVA5m2vipOOrlZ2j3SNx7zDkCjCPq6ULmb0xvMl25P0r1Ge9KQe2BtyiXaZwp0rFmIihJxNcDyTIG/++FtfPruLaykKVJhITRdPA6FCu0hEzDFWCMpAIRDIwjagEmLrFRGWYObhnr5nhGvmF54vN3Hv33zGN+u72AQd6SVM4MMwruOVJJZogQuRuIIODxAqCy6oPlW0Rsf6/ZN6UYmNFRrD4i/sGoEWYEYG944BCJw5Cr08wIi1dsqXdUaOx/KtnI7W+1G0kzLOyPb74EmvwQAQcbpMegvtTqlOfOWbZq5WO025M5r5cqmc6ZPQSiXoRW0qffZ3KOapzOlw/9SXbZxu3Si1NJGfeQ0WuS7q7Ilauz6mEMfn757E3/3w3dwY66LjjQKG+7LMTQaR/izI8PpUplyEhcTAMIRAMFPbwILyKylk5fGzIk0ZaLaF1nuuw7486OX+MOjl1grHIqYgjBMFyipyr98uFTr8jXDWrd2btXVB4B7wI0RaWNK+1ovAIu4eGKhNlTywlYQFcSsyFTXgCqIJmute/dWPszaRsCbxNMX9rmPBfyzEp6AaRgeOg/qHFkx71rrafiutjZ/uhxJ2cNsmeH9W1fwD5/cx5tX5zEj6d+GyOqfar+b4dLblkU9H3wajPwK1xgAwhHG85lOKWlEoVGAGiBoFIAdG1/uZvjXB4/x1do2drjyTLuaG7swIeZXGEVn+VWR6SVvQPXYtWEQQ9NeZMprHEC0DAYFSxcpdkSp5Fr38izPOBwrWCBY4AALCAyUOdKnuIyv4lO5DC1xneVypG6AmXKAe0sL+PUn7+KDWyuYi1gW6UnE6vXln+2QlY90td8LAGGsMRkAwhFm8oFlCncwTya8a6nJNuXDCugXDt+82MC/ffUEz/oFsiRFxB+r2z5G0HasmzbdG1k5nZGZfPmhAATeLBOyysoS/cFAWgSXkuNWfodoGgRS03QPoXD158oCQnKVduMqrexTub7bjQAEFEhdga4b4Eoa47MP38FP376BlQ7TsV4/htUxpq44SlEZbdYWpoGxxkAACOMCBFNN5ObSfcGayRQOWOvl0s75i2cb2CopjJSwB27Njg8OaayxOPZGJIdSFVE1+SmkokI6pBZQv5+dFnsDyvTm2hpYQpD8rfX04RUsECxw3ixgHB5rdufLWznXRgmjg4VoIXRcjhlX4G/eegO//uFdUVVMBBRYm3Ljt4wKmI4mrIJE83j3PwCEIwGCxhCk/EZqdH1DpQhlFGPggG9fbEh64fluiTyeAbvRRElcC70EgDDeYBx3KyrwsXaePxQ7iqJUogeUSWZr4KzIUQiAMO0DEkudtiMO92JcK4ftggXOyAKekOVTA04rEwgOOONyLqX6bEzNGaYaihxvXV3Eb378Dt65sggqdTPVK1TFukrm8IVAYLiMd28DQDjUTlIgpy1IR0jsfC+PEmwWFf788Dn+8O0z7LguqqSjmvNEvdLCOTil8Ybi+FtJIYjjfVFhIwKBLKfoUS5RA+U9Jap5IJ0TPa7zAj3jHytsGSwQLDBBC0hqQeP/ooXh+IwquVsJ4ZxDK0RJhcjl0sQprRyudoH/5WfvCQ9hViXsZBEn0UWZchuSQRsM+HqaINE83j0NAOFQO5mKIkGCjGHVKOA/+EkWJXiym+F3Xz/BVy+2kUdz4phY2aDyXwkqdv8Lr2NbQDr27RMH9DhNH3Qtb6JEcm+QaUpBWnObGmKrZZCvGBm3vv/YJxy+ECwQLHBMCzTERD7HrApjTxoFCNZZVSK2lXT9rNjhsaI2bSWqir/9yTv48ZvXMUcVTikN1yqIBiB41U1fGKtgRJdsASKMc7MCQDgSIJgSAsVbWNoo3eYq0fDvxwm+Wt3Gv339FM93HUoRRkpkAIuAErcNAGGccTi0De3LH/ZOECU9+7dsFMVSkeDJiKxU6A9YxlhIONK3bOamqkfpIzgWggz6Ose+H+ELwQKTsYDqw3ix0diiBwQJ2n9DO9vqYou/KW2vjbrmIrZ/volfvX8by50OOlWFlGWSVSmaMhpB0FSFRCa4FwrW2YygbfPC4u2o+xoAwqEWUmat6ClS2MhEjCi0k7sKWy7CHx+v4c+PVrFTMlrQIS4QXTCOURmOYQweNQb3fO7FPb3WwZDYZxQjL1TnoCgL9PoD+e2BQSPA6xUvA0A49g0IXwgWOBML7AMQnMyeLRVNbZinP4ruqbY5E5X45I0l/OOP3sTNuVl0HdCJqMaoCzPyw2RJJ3LNii8EIESqm6AAIRCWj7rNASAcARBUapkrWq23pzQyy+YyxHi+m+N/fPkE328OkEUdbUfLzmMxSxxVpjm8Tm6BWru/piTryiArWalQSjtg4RzI240Eth5xRARJ5pYQPjj53QjfDBY4bQs0AEFW+ZxjDSAo4GeaUbs7RiKLripnnFU7KPDOcop/+vQHeHNlAbOuAmdgRhm0540ChLiKpO+NLNiiUkBCAAjj38cAEA6xlQS32Mde/I0i0ZgDkLK9iPH16g7+7788xEaZwDF64JykINi5UUh0UnoTXiexwB5wYAqIfLwHBdDrZ9Km2csa1JGaUd5CwAQnMX/4TrDAGVigJY4kf8YCECQ1KNUI1C/RrresUlAVbhVES6ocN7ol/unnP8SHN5cwR9BgWjUiZsfSZ6aEXYTEFGtdzL43PoJAHZsQQTjqJgeAcCRAqLTenqWLBhBIQdzOgT98v4p//eoZBvGMkBOp8EekWsVdYdZrbW7wUEcNwv0+HwIIXDWwqZVzyEugl1WSZvDgTfOYpsDWBgg2Mfj9B7h2kjsRvhMsMCkLmPaBxP8VIKBKVNBMAAKduQcITiIBSkUkr6DAcjLAP/zoXfz07VtYiiN0DSCUEi0gAEgkxUCAoPLrjC5I4aTwyQJAOPq+BoBwJECg+A5D2FZGY4mD570S//LXR/hqrY88ntUwd0WiHJsypdp0qdVE+OhbEbYYsoAUNFvOkYHDgl0YqXHg0MsYfkxlc1W2tJWI1UHbB3UNQ43R6tbBwdbBAsECr98CLYBA+oD0ZFCA4KSlLaFAgYiRWZKWhYag6QPOtfPRLj79wW1p3HQ1TTBDOXx2xo3YOZedd/cDCFzekYEQAMI49z8AhDEAAqMBZLmwHwOhLvUPvtno4b//5VusDzooo47KhFKKmYMTiaBcSTeMcxfCNkMWUFKiVz9UCeWCfRUGOQY5OzNyFWGWpYYKHT+jCCaWIsjMVg0SwfFBnAAQwkgLFjhHFvAdUK2DZx1B0GefzZskgmAAIRJKl4knVSVmqx4+uLOM//zTD3FztotZlBJfEEqjLDA8SdH3bC+1IZQAhKCqOs5ACADhCCsJaLUOgRx8VRVjuwJ+92QVv/vqCfKyC9JjpN7BupGJFLMW2IRSmkPtS++urGSJtiSJpBEIBqTVMoWOQBGkUhQS85y9MDQPKXXSMl+MiqyPHrBJLIQUwzhTQtgmWOAsLdC0SZeeDKZ/oJwin6KlSJKhfGvrzsVaWvZweyHCf/37n+CN+Vlp3CTl5dauXXhjOknoBZHTIHMNw72+WuIsr/XiHSsAhCPumQ5LK7ORToIJNkuH//bVIzx4vgVXqvYBQ2J1LrxuOOL7MVy8gXEWZ+wdNgFYEkeie1CSZ0CAYP0VcsonS+SggLNKklAdchZ3JxwjWOCsLFCH+A444F4eFx19WvRxo+vwX//xJ7i7OId5AgABCIzeKgesXlBoS0iTZGaHyBBBGOfuBoAwJkCoJL3A1W6Cl/0c//sfv8DLPslzXSHW1ABBuAp+pwEgHGReJSVr6E/KjhLtwsYIAjkf/EfBapEsxyAr9D0CMYnmhPLRcR7usE2wwOW0QCXl5kmZYSXO8L/9/Y9x/+qCAAQWN/qYQQMQdO4IAOH4oyEAhDEAghDhRD6ZLIMY363t4P/4wxfYjmZQgREEDstK8lsSAfNDVEg3odBxPxNLIyXykKSfghpN9SYUHHAdQIVEAgQChUr0KVVVMVSGHP9BD98IFrg8FiBAqJC4ARZcH//82Uf46PZVLCQQyWXJIAhheSSCwBoIphg4SYcIwljDIQCEI8yk+l0KEOiaMgf8+eEL/PcH36OfzALRjAEE1wIIpt7ni/THuhXTtZE2xjRwYDbW6IBQPZEXxjsorSsjyUlMMUi5aYt4OF1mC1cbLBAsYI2ZCBDmyl0pdfz5D+5iOWVJYyXkcGnzZABB4YKSmgUgyNQTorvjDKQAEA6xkgazKwl7a7emGFt5iX/74nv8+dk6BlLe2LWOjYwe+AgCV7pB6/vwAahyp3wRGPikAVUqB3ku0YOSnA/f9lVKpY32KRUl4wzvsE2wQLDA5bOAlZyXA8xVPfzi/i38/cf3sdJNpNMjJfE9QOC1a8xRy86HSYqXzzKnfUUBIIwBEMpS0wtU51rdzfAvf/0G3673BSC4qCOfsbjRdxKTNW4ACIeOVeEdsCWzq4TCmvLQAAAgAElEQVSYqKA+QVYU2On1Mcgybdgi6Qf9XbIG2pVITNXytB+GsL9ggWCBi2ABBQgoM8yhjx9ZqeO1mRQJuQkyP0ijaG2YNwQQlPOkzZzC6ygLBIBwiIVkZcuogAQQIuQAvt/Yxb98/g1e9BzyeA4uTq2fOQPjPv+lNbiBf3DY8FNFdHIKpEUzUwvOYac/kAZMkiMUcMCaaIs0KFFBFSpDBOGoZzt8HixwSS1gnVldiRnXwwfXZ/FPP/8Yt+Y74Gys8QL9UYCg/9JeOr6sMgCEcQZHAAjjAARxYDEGDvjqxRb+3y+/w2aWIKeksuSyOOgokqQynqoI5rsIjnMbpnEbc/5GViQ46GcF+tlAGjFFBAXSgMm0EixUqGHCgA6mccSEaw4WUAsYQCBFvOjhvWtd/ObnH+P2QhcpFw8UVuLMIaXnNocwoiu6CF43JZDHxxlNASCMARCYC6fD6pcV/vjoJX7/zVP0yi4KdOFi6oar4pcHCCx7FJAQlrkHWldKHPnwWne2LC+w2x8IOdFXMjAMWIsbKbNIwVgACOM822GbYIFLbAEFCZ2ih3eXE/zzLz/BnaVZdGuAQC7CfgDBTBLwwVhjIwCEYwCE3dzhf3z1PT5/uoHMzcGxwagABO1DrvX5DIMHgHDU6NPqEC1YLEQMKRNBJAFjVoKk4KD9JPvIQYggHGXf8HmwwGW3AGePtOjhzQUIQHhrZQ5dBh4lgmAAQSTbKZLkIwgBIBxnXASAMCZA4CDbzkr8X3/5Ct+s91G4OdFAYO9x6SISFTVAiBwbCdVyise5H1OzLYGAdq+AtG0mOCBQ0MiCVzkbBgdCOpoaC4ULDRYIFjjMAqQoJXkPd2YK/PazT/DutUXMxkDiGNFVgCC9GwJAOPFACgBhDICgZXgx1vsF/s8/fYFH2wWcmxeAUCUECBpBYCWDFOK5VAl4wk0ILm0/ExMg5BVllUsM2GdBUgtE+wQFvkZZiUTKOfA/FqQ58ZAPXwwWCBa4DBYgpyDOe7iZ9PHPf/sjvHdzCXNxtAcg1CTFujdD4I+Pe/8DQDjEUmwiRAllcf1VjOc7Of7bn77E012+M4+qSg0gMILgUwx0aKk0HZlucKDovf1S6oAUGaFAhUFJUmKGPCu1ksFHDgQk+EqQABDGfZjDdsEC02QB8sLifBfX4l38l8/+Bu/fWsZ8QoCg6ikaQeDSwqoYZEr2jZumyVInv9YAEI4ACIwdFBGdWYzvVnv4f754iLWMg64LV8WoYkosN21L6wFYO8fLzYYZ7ZCorAKtU5aKY/ZuZ393R0tqq1WqIWalw3avj7xkNMYkUVvKkyK/XNtw+CghJnPyBz58M1jgsliAU0RcDHCl2sVvf/kxfnj7ChbSWOSWZR6qO0L6/u82FwuB/LJYYbLXEQDCoQCBkQInq92ei/Hg2S7+9cFTbJBuELHiVl0eAQLzXNp5uB0Ov/xynr4aQckBrfasWopgKQMt+xTLGHDo5QW2en1rvhSe1sk+5mHvwQKXzwIECGmRYanawW9+8RE+unMVi2kMla7TpKTOOiqapC+/8Ag6COOMiAAQjgQIlUQQdosYXzzZwu++eY6NnF2GOAwJEBhBgOghcNU8lQBhaKXfRBA8QCC3QHqzSwohEinlnUGGHtUS6yiDtbiS0kc2bQpxgnEe4LBNsMC0WoD88KQYYIkRBAMIjCB4gNDAhAAQTjpGAkAYCyAAOznwl+838MfvX2Ijp7/rANEoQGgQq+LXKYkgeH2CJk6gKQZJE8SoOzcm2pGx1+9huzdAIRkHIyLKthphCK9ggWCBYIGjLCAAoexjyfWOCRCCyu1RtvWfB4AwBkAoI2C7AP747Uv88ft1bBYRkjgVEuJwBEE1wFUPYZoAggdGbWN6kiL7J5hCRByjLB12ewONHoicsgIEDwz8b+UghFewQLBAsMD+FiAJMSkHWHI+gnBNUgxWZG5JhdEUw+VftJ3meAkAYSyAEGEzr/CHr5/jT483sFPSsSXSVpRVDoygCwdB/jNwILyYaZBb1qRKk+NrGdQrJTKEECtRsS2IRIDg6YejaYUAEE7zMQ/7Cha4fBYgQEgLRhB28ZtffoyP7lzDUhrXcVtfw9BwEDSiGRiK44+FABCOAAha5hhhY1Dh918/w58fr6OHDiokiKVXgDMOAkmKXuvbqhqmASDUZUP7pAYEIHjIFCEXOeUe8pxlobGIJMkrRAvGf2LDlsECwQJ18WJaDrDsdvFPv/wYH9/RCIKPEQSA8OoDJQCEMQBCQYDQr/C7r57g86db6EUMYqXi11igpyRFCiRJo2fTP2hC7K9+my7qHnyrVaBwlfRa6PcHwklAnGiAJdQbXdSbG847WOA1WcCI0K5Ex2W4luT4zS8/wYfUQYgiAQjDKu2epBgiCMe9YQEgjAkQ1voOv3vwBF8+38Zu1BUCogCEyiIIrO+vVD+RIa3KZD6n2QFKTQfTMBUwyHwzJqkRVQLjkNbBcYdu2D5YIFhgOi1gDdtcgW6V4Y3ZCL/95Sf4wbV5zJKX4JOeXLR5XRZ7L6QYjjdiAkA4wF5KlnMoowqMIBAg/H8PnuCLF9voRTMq+CPkuukGCKNK0j7joOE9bZSSCzGxB3ZsrKJEAIOjXnoNEo43aMPWwQLBAtNsARVig8vRRY57Cwl+84sf4e2VGcxFFMX3c89egEBVRdVyDa9xLBAAwoiV2mV2IoQ0AhD++mIXvagjvRZk+NUAgfyD6YsgHAoQGD1gWWOWY2enh7KKkCQJSlehNIAQyIjjPKZhm2CBYIHGAg1AmI1yvHtlFv/50x/i7mIXc1GFuFKOE6OUoxEEAgQv9x4serQFAkBo2Wi0Bl+VEivkUYR1iyCMBxC0smEaXocBBD6gRVlhp99Hv8+yxkRaObPsUVMvQfNgGsZIuMZggdO1gAKEyOWYi3J8+MYy/vHHP8Ct2Y4AhEgAgkYvfXWVn459C/kpmZ5f2ewBIBwizuOsWVNxLIDAe0KAMB3O7yiAMMhK7Oz2kJclkKRw7Ngo6oli+FcewGEHwQLBAtNmAQMIFQFCgR+/dR2//vht3OgmmI0cIlmBsE9OAAivOjICQKAzH/VT0i9AHT1TDD6CQJLiFy920aeKooWqJOoQ21pYUgweIHCQXn6cKv0nyBnyfVD8bzI4KqA3yKV6oWTKkGE/Ke4IWcBXfXDD94MFptcCKmkfV4VEEH52/w5+9cEdXOtGmKmcRhBYWkadlT3NG1WbppmZfbXZ6O+2df1n02fxqQAI3v///+y9Z3ckR5YsaCEyEymgdWnFomiSLaZ7etSb2Z3Ztx/f+7A/efecd/acnmELNtkUpQW0SqQK/Y7d6x4ZQKHIgiogUZHdYEFkhnD3cDe3a9dusZuHAyQ1Ln7G7se8mXoCsgAcYCFFikGCPz9ZwaP1Dvqs5OiqDsEkOuaFitQfyTopXn1TDmOQbBCS+Um0B0AYJ+gNQgRxbMql2HoLNrpw9QHUhzellHdctsB5t0ABICDC3390C7+/P4dpz4GfJnCyRMGB57Los1yMQgLNfuD3tGnW17sABPveD8H47mDffTAAQTNnhxGoAwAhNTUVTAVCOiQqhUCnRAUIW4MYf326giebXXTTChK3Cser6DaZVkpErlwWHZviyM9bgHBVF8JhSVW5W6L2jA+lIyZI3UGAXhCAVtUmc3noNvkhmEid9zxZHr9sgQ+yBYx9chah4ST4/cO7+Ps7M5j2WLyJOWcJHN+TEANN7lRQTmzAWSmF57jigjsECG9rxIOAQKHEhwUSPhiAQLGhliM2eJKuhwZB0gKYhZ1NvWb5vSsVBSEpjoHjYnsQ45vna3i6vo9eRoBQI8ml7+WSmHEoKjjI1z4umFc5zCBMiQVezOLwJNbAdonSFJ1BgH4UCsiSgo7m4ZIUJQPAPsj5rbzpsgXKFjhFCyhAgBOhmkX45PoSfnlrEddbvhglVeiFINVjZdKR72WWYsYZOQUCBG7e7D4wF0tT23CYLSCTPJRTq53+h/P6QACC5iMMu9nYIpsRYoYbEhlAmdQPcsgEZA7C1EEnSbG+H+CHl5tY3Q8xyDxEqSvli4lECSZUOUuAoIuhEllXfCiZUArbjAanbK+MaMDxEEQxOoMBwjQ5CBDEjvrDecDKOy1boGyBs24BbuY4n0dAOkDL97HQauD27BRuzk5hvlVDq+qh4jhSuKnqEizw/YmEk5VRUH0CM61UcWbYZf3WzNyaKikbHHML3PJp0OLDeH0AAEHMkFVnwAVc5C1m8ZbFil4G2tlpliFMEiT06nQdhEmK7W6AFxs7WN3uYLcXIXAriB0fcaYolHSVCmY0c+EgQLjqg0gBlTxcRFUZRYjkUVz0g1BCDLFkdCiSt5C9BAhXfVyU91e2wHm2gLK9rpMgiQeS8ljzXYw5Lpq+ixuzU3hwbQ6LE3W0qj4anrIKEnBIEwUADq3e1dFVQYKZogw4cA3DKZtHs+njHZUA4Tz79cKObeklu7u3eFABAmsocGUnLR6kGQIX2AsDvNrcwerWHvY6IXpBgogFmupNZJ4v+f2e48FJTcqN4SdyVCpr4tXeKkuhKmovZPHXEimO4yOKE3T6AwzCSGpUEGwJSOA7DEK/sKFQnrhsgbIFRrwF7JybUIuI1NVNIFlcN4oEKMy2Grg5P427y5OYb9XR8h3UHaDmMhw8DDULQ0D2s0D2SmaWnatMvR3LITBsceWZ4cLo+AAYBL1bNUFi2iL/a+sImoGSuEgzl4QVdgchnm7u4+nGFnZ6A4RU2BE3uj5S1xOtguP5YEmQLFGNrO6IlZmQ44tEVrmKq/xSZiaVhzRJCA5cuH5FSjrvd/sCFCgUUslw4Qm82s1ylbu8vLeyBS5FC6jVMpmADPA4J3MuSpBRpJikLKUHHxnG6xXcWZ7Dw2vTWGrVMFX1MSYhUdVPcWNDQyVZHRw5ZA4ObKk51aOp+ZIwpR9QDZkPAiBI50uGC5e0RAdVph4HXMbDFOgGCTbbAzzf3MXKbg/d2EHMugEmEyERvwPuhhVLUrEvEkXJXuAJOMgIEBwDEGwFsUvxPJ3LRdjQjaB4ebI8qdJI34NutyfeB9by9EBJ5xIgnEt/lActW+CDaQFZzY04wIsBl5lksW7WaINAZpjzdZag4sRYHK/i3uI07s1PY2lcQw/UKLhGgUhmQL8VXlRAAGd0ggM3NanwZIt9X1Ior7T4/KozCAfrKWg2gpJQHC8pPJcVBlOwrmAvSbHZ7eHV1h5ebOyiHQCpV0eSVZBmii456sQZMXcF0hWOcSr9le6QVdCiA+1DYBBUGZzB9die+kUNBwFCEEaa5SHo3LIH5l8rQiiBwgczn5c3WrbAmbaAZEtJYWc4DnPNCA4UIIiujByB5yLOOMsn4rDYAIFCHQ+WZ3FnfgazzTrqngsvy+Cbug2a56Dmd7If5LdphjROJaXdqTK9/cNJdbxSDIIoVLlACyVkvmeHm59tHiv/jdIMe4MQr3baeLmzh41uH52I/EIVrlcnSkCWGAGLjBTNUiA8ldCBAQdEA0WAoBqEYkrlmT4Wl+xgxniEgIuPKHUccSz6gzhWQSjFQAqX5FHW6y8BwiXrx/JyyhYYvRbICzsTIDDUyVmIvjTi7Oog8zzDEmfwuc8LQ/hJhKkxDzdmxnFvcQY35ycxNVbFmOPAkzBComJzM2OJFD1lDFXIYrhVsqRXPDvtKjIIB0CBSUsQsGCslIUxkLCCizBOsdXRcMLL7TbacYbQcRFT58rQQebDoyBRFPnKCgiUlAiVDVHYVY8xB4MoDXMgQCL3H77Kg2kIEFipkRkLQUSBYh8p6T9jUjJUAA3ZFeNcMnqzUnnFZQuULXA5WsCEBPKKjbILsQCB0U3jdWA0YlzkGS7w0gA1J8Jss4a7S9N4eG1ewg51D/DdRECCprYxiOwpQMi0eq/sd67ylH6oZ68cgyBDpAAQUrokZkDiOIiyDDu9ACvbbbzebmOjG4jWIPFonUy9gWYzqCzRGCnLeNOBpqoYChwLWbG5GZKCEUf+bgUwloq6qiPKlF11HZCBY1ChF4QiUpQ2k7YsACgjBMpZhLJY0+WYaMurKFtgFFvAGLXZS8/rwQh7bPwMWB+HKY3UNKZaJM51UrhpAC+NMF4BlifHNOywNIvJMR8VNxH/BDFUEndYUZ7LZ+3XKDbXSa75SgGEfKAUFh6CBS7Z/QTY7IX48eUqVnf30Q5TRA4dESvIXOpdTTxLaHGTvmdpcdkNGwYht1K2MTC6B5ozs9SoE4swRl82a/YKA4Q0E1EmfSSDJMZ+f4CEMTsJvSjqHlpLaqso4aLsQ/kqW6BsgbIFjt8CNsabz/p5JgLDC2KGlDpwCQpkkc80HVK+VVt8n94IWYhKEmJqzMGD6/P4+MYS5ps1NH0HUm1HAMbw6tTS5arO52/2wpUCCAfEicYqmb3bi1I82dzH441drG7vSXZCDH4xauWr0p6DwXXhcjRQIJvFkjYji5x8GaMlCR8oq6CgQrSuqktwVEkrASt56d+vLCelqSFqo+z52B/00ekNNG2ITxLdJkuAcPy5r/xE2QJlC/xkC1j7Y1mwpYKjMaqTDYiLLPXhZZ44vDITIUWCxAmRMNtB5iQXjpvBkxztAG4coOUDy+NN/OrebdyabWKq5qNCYaLEJnQzI943x0pzHHrujGKXjh5AsDb+4tA3ZPtFb8BcO/N3Ec0xSyGK8WKzjW9fbWGzHwOeL6mLMeMOjouE672rnU4xo278laJKE8aiGIVSakpU+0cABLMvll2xAoRhjq3Jqh3FsfGz16whPz58bFYfu52OZDAw1ZENljF2x7Y7VJhJM0JM7unPnqV8Q9kCZQuULXCwBaydvUzXUixPheFqyEZHVx9OSiM7IohUwEDqBEh9rhGGVWDowXrrsgpkHKCWxbg20cTnt5fw0fIUpqoVVJDAd7hhzOB7VbVp5okFnJg1yBjBFes2SCabTYM31zVq/Th6AEGyTZh7oosMxYfS4UxHTOnqR6EhRYcOtvsRHq3u4PHqNtrMUHAlspSbGskiZnJepePeAHsmWyGnlOwgNKPDmCMNO92aI+V2G1eXPbBBF+kLAq0M7c4+4iQFBYuKqIohFkvL2Sdq1B6V8nrLFihb4DK1gNUcqDNiASCILkxjmbo50ZAmN3d2g6e/IpAwajPNgRdeuYIQExXg4xtz+MXNBTFYangZvJjbTk/Ej/TQESMlHl4q+lKjoIJ2/k3T3FO4ht0QdeMIKhxHEiAoelOjI+aeKAp0xKwnczyEWYbNbohHa7t4vrmH3UEi4IBag/wl4+YksaSfo4yKcfWTHP8yPYI/fS2iypBnw0GUJNjvdJEkyiho6IVA4bDzWKk9GJ0eLq+0bIFRaYF3nXeLfja02aeGjEwCw6I8RgLPCVFBgJYX48HiDD67voCb0+NoiWeC+iQJU2DEkAQhrAgsm1T52xAgSBE/WWk0lH2yNefi+mDkAIK0tzHQkqXI1PjmRjZMMxEerrUHeLy6i5ebeyJOTBxPvlJJe7nai/b7HEoq29TUxSAM0e0xvVF/Z62nS4DwPnukPFfZAmUL/Oy2Jje8I0Dgim7tljmXkYWOJcuhkg7QRIJbMxP45f2buDM3jqbrgD5JBAN2KZF5MGXxKDLZFhwIhaFEhpg5SaB65DpnpACCaOIMQJAQNvUABiDQS2s/TLHeCfEdyzLv9jFIxToDjqcDgKmOJUA4uzEqj4IjEh70en0MBoGxmzZhHHkyDoGyMnPh7DqgPFLZAmULHLMFcoc7DT9IWoMBCFK4iaGIGG4Ww8sieFGAupPixvQUPr05i0+uzWC8SvGjpsFLWMGQ0Ub9IKJIBQOmNo/JfBjFMtGjBRC4IInPttmfmpRDev53kxQvtvfx/estrOwFCGmVLKiNX8a222QoHHNElW9/SwsoQKCdaSbhhTCMckAwLFVVAAglOCjHUtkCZQtcaAsU0iPlW9VJaYjBLujciYptHpwkhpckqAGYr3v47YMl3F+cwWS9Il4JEkKgqN2w054Y7VGcqKhBnXX1hkfRgHEkAYIpqiChBrICu0Ek4OCH1xvY6EdgBCmRuJIP36nmRZoyBpDK15m1gIAA15Uy2Xt7FCjSZZJxONUfKB6wJlNl1sKZNXx5oLIFyhY4RQvYLCrjaSArOIWHZkE3UgGRsCeJ1GpgPYaxNMJSy8OnN+bx8PosZhs+fAIJGi9xzpMNqfFfMKfQzAq1/R9F9vpSAoSin4HgMJtCwpQ6E+sRA6QsQy8Fnmy28c3LdQUHrg/HryBl6iqLfma+sg50OKSNZvk6sxawAIEFmvb22pIyqlZjpOyMUCTPGS6KE39O6Hlml1geqGyBsgXKFjjYAnZqsou4mY5ES2CL7anBgoQK6H2QsshfEqOBBDM14PM7C/j0xgxm6y6q9L+RXSuFiHRtZPaEtU5QylsqS0q4dbQ649IBBC78tEe2oED2oERntuBSQsd/7lw99OIML7a7+OuLDaz0IoQ+nRGNJSZVpaR7Ul84nhIgnP3AVP2Bi95ggP4glPTThCjB+Eooe1BIbzS5yvowaSLQyD0xZ9+M5RHLFihb4D22gPVQYHqk6AIkJKC+OtbHQIo95a6J1ClolUgvzeBFfczVM3x5dw5f3lnCdI2uiyktmQDHF48dESzShZFZdmmia5inqZCj9Lp0AEH7yywgpiIjf0fQQCogJUDwfPRiByt7fXzzYhNr3RhdZrD6TGVU9yRSQoLiaLUpsXJ1QixfZ9cCFiB0en0EUSx9RB8ENZ56W3rjUJ1QAoSz64vySGULlC3wbi2QAwSuE8YNVjQDpsrsECTweOqsSzGjOOdmFbhpBD/ax1IL+PLOIj67MYepiou674nOQJhUMddzkEVkF7hn8mjDWAKEd+uit7/LMgVFoED0ldDpiul0cYQgdbDaDvHti22stAfoZz5ShhU8U57Z2iEJSKBZhXJJVixy2mssP68tQIAQZY7YK4dRJMBOwwxEyodTSm2IoQQI5fgpW6BsgYtrgSJAEJMlKyqUkIKoBvK1Qp0ZdcGnpi3L6KQIIO7CT7pYbPr4uwc38IvrM5iqMqidCEgQvAEPWaILj+tRm6Ub31FiES4dg1As2yysgWnQJEnEx2CQZVjdG+D7l1t4udPDgOCAJkieK6Y9Qg0J6iPFo4bLpHlUUTqKiSYX9yD93JnZzmEKKdAUxbQiVfTMB0BUvQcCbiVA+Ln2LP9etkDZAu+nBUQ4KLscEgdm4S6wCLoBGl6Lfs9Qd1XWljTluhKhlga4MV7Dr+4t4tNr02h6GSoULRrtlZOxHg8Z1SFDYY86CkDh0gGEInNQDDUkaYrQcbHaifDdqw282NgVcCAGSMaxj7tWKdRhLJBZlRGgQ4K1Ph49J6v387ic7Cxs5yDJ0O718wwGOinalJ8SIJysXctPlS1QtsB5tsDBSpDqh2B4AitYPLCgW0ZB2QCqDZSUVu1BJe5hqeniHz69iXuLkxj3MlMpkgex4daj1VaXHSRcIEA4Wsn+ZkXGTAWKrK0QpPjq+RaebuwhjGNhFMTJT5Ad4zuSmaoAwbhliThRet9UFhw1Gel5PienPDbbPohTAxA01UcZBFPM5ACdpgyCsRWRM5cahFN2QPnx99wCShyXr1FuAet0OFx/7Dx0uKic3KXUcLDvVT2BENtOBSnLSTOQkIaoJl3cma3jNw+v48H8JOouUHG0Go3QB6aIIEHFYVBwmUHCBQEE7aQjFwnJVtDQAkMMsqQ4DvpRih/W9vBfL3bQFeFhIupQNevzBSRImokc1hzbSVlxWPNQpShH+XCf5aNNgMB+2e/1pViTFDExIQYpgpVXwbRdonDOvkqAcJa9UR7rPFvAVgsshiqVdh5S1WYPan9TGOsn918RJX1hLzU8kqbS6cvGzk14Nf/dyc97nm15scdW9sCGFXJLeJNRpcZJw5cWorXids5ftmIwQwfUJGg1STcJ0HBD3Jlt4R8/vYNrE2NoiC6RG9RUNrCySTXMg3Va1Gj44XXJro2CLi501boAgCDZplpkidUYTcU/W3WL4CDLNK+UAIFFlvqpg0drbXzzYgNboSO/E4AgQELLNpPKyYs02P6Vgk7Dzr7Ypr7Yx+LMzy7lsYHuIEY3jCTFUWxHpXqTyUShFuGNExcnrRKwnXm/lAc8hxbI4DB1TZhMTxxaxaFXA9jDkr7CZGqYUyoJmop+usAcf7G2e13OjfT4Z+0ZBSXckXq66RFWTv1dhPoWfz8uOlH++3NokBE+pNmcFrKvzT7f3NNRc1JBo2D6UdYV14A0SZBL4SNGw03xcGkav7m/jOsTVdTcWGo7KPPkwWNfcoPLAWTNk0y2t+LNYfjDnPVCQcIFAAQ+LAQBOtgV+3JxV3TF36Ssr5AlwhwMUg8r7RBfPV7FajdELA9nEeVZ2q9cbN7nU0swQIvr/UGIQZiKyqOoGbHfX2b67H22V3muUW4BBQh01OMirJVhmfmWGnDAf3l/DHmaEufCWNLPRee7k7xygGCWl4ybIllMXGSpL4WGpJywHJ9sKwECTYG5yIRwZPdavt5sgZNtUrQOExd2LRudCx1NihzXez+NMeGm+PLOPH59dwGzYy48NzT8hCdeCW7KtY5Os8Y46YDJogKEIceuHMJFbW4vDiAUKl0JQBAzIyIrRcrckVJeuNmN8JcnK3i21UUPFWQsvPSGQr58CN53C+QAoR+iH3Li4oBXvUjOIIxYSs/7bsPyfKPTAkJJWxBA0xuXsTRlQg8T+6p2VwZBkcMJs6fMOXXrU0y9Ix7w4BKEkNkQZsGWudXSxXDt70anjUfhSgnCyNgoKLOhbOFsNO0hiVCJB5hvePiHT27i0xuzaFYUXArHzRRw2Qyr+ZIeggxRQd5yJEC4mNa5AIAgy78WCjaNo3E98xikZBBYY8FFO4zx3cs1fP96E93YReTWxEFRKLwRc6S6mDimisIAACAASURBVO49v7NagNDuBTlAKAKD8ztzeeSyBS6mBXLKNycrdZEoCm8tiOAibSCCSbs+boiBITvOkbbwj1lPZCEhTW1+TwzCUC1/Lxa/BoyUvi9nPkg0hZ4LewpPwuBS+9Gkz2vtGTI6FC1Wkh7uzU/gtx/fxp3ZCTSczOgRqFzUbDoJHYmGoRBjGCZU5Nd/kdz4ewcICpqMP7Upi0mqxipFibzTzEUvyfB4fRd/fb6KnSBByFIKlTGh+Bh6KAHCmY//Yx2QACHOgHZ3cAAgHOsg5ZvLFhiRFihW5dMEKbMQywKtTIKABSEauIhQME3xNBeEVBmHY+kQuHIwdh0bX39TcVBUbcPQhrLeLGVvwrQptQnWjOy4oGREOuMCLlPaWeyXVffBCo8uQ+FG52Z1J57oEmK4UR8NJ8JnN5fw2wc3sdSoosawhJshNniAXIRvNAnq2KhpDycLgJxPo1wQQOBTxEFuIismnqPyRQdh4uL1bg9/ebaG1+0+ApJo9M12aYpkGIQL1XaeT2eM0lGLAKEXxgawDbGuaA8kXFS+yhYY/RbgDr1o4844smqnLE9stAbGs19nepN2rZ7vSkHLTv9Qe9jfCboYpi1kTgx+ubKI0O/FM8I2zp3cwepzR7aVughqE9zEGsSdTPcw+j11PncgaxMBgksNQQaP9RUEIDCUY4CDhJbI/BDXhfDjAHONGn5z7zq+vDErTosECCm1K444JChAsENIKuEO87wukjmwrfjeAQJPTGJGawGr5kBieRJ3yRBnLrZ7Mb59sYkf1tvoZh5iiduIHZKoiNUR8TI03/kMxlE46mGAIHXPCmGfEiCMQi+W1/iuLaBV/jgPJca+XTMJ+NLMgiGDAIlRk03Q99gkxGPNWRIiMEI4EbWZ7Al5xshR8DrIMED8YKRIHaPbtKQ3vjHvem/l+36+Bd5gEKSdaf9vAAIDBRSPUksnnRLDTVPUsgTXJxv4t0+v4/ZsC77nwHVZzElzTqTXTKhdmCczhw5TWC92qbsQgCAVGwUYSMVtYRO45CdZgl4CPF3fwzcvt7E+ACKvIo+boGVBZ0TRJUD4+SF9/u9gFgM1CGQQDgOE8z97eYayBd5fCyhpbzcqlE9rkF+V7EYIIGiBPzO1LTQ7Q6EecjHam1dsNjqa43ZgNRhmMWimV8oFSA5FRiGRBUj1W5mwG1KnLuG5DZg4qTjy/TXriJ2J21SOAU0t1fRSSwepgy/bntGmYY2HFHUnwS9vjON3D5Yx1ayj5oFyezNO2ARW5qoZMMNS0YVxdUH74QsDCFLYRwAC21jTHhnTXtvt4uvnq3i1H6Hv1BHTHVHgFMtmxnBdjbUdC42P2DAclcstAcKo9FR5naduAWEDZBsDkPYXrwNuWCI4GVMKVXQtC4MTwnUGwjQIiLC7SklrOxhGEGGhlhIsAIQiUJCEewEnqaumcbKkMERLW3NJknCERYAYxlWQiPahaszjLmhlOXWDX9IDmD4Uh15juKTYzgjtrVDU2DcTvPmIMFeJ8evb8/jl3WW0qh5q8tkYjqsuwWr058r/SKhrXSctMqh+CRfTHhcDEMQhkZkKZsAzpTFNZSf67fNV/I1ZC6ghrTQRywNE0kDrakuVQE0GvpgWK8+at0AJEMrB8KG0gEYRmMZLtbQDN2Np3wSVbBdV7KKCLlxEqmIH895D1Q5kXNgZd5b9pTKmh4QI/J3kxcuiYVkJdfDTWY7e/+oWyxi2ZoDplywjXgVBVkcvayH2FhClDeMqW26kznJ8qlaAbA3DOobfMZmsGv5WVklTGHWdolSFILIad7HccPHff/cpbkw0MCaWVgoQqG9RZoJGSvS2sAWkLEAwfglneTPveKwLAQhpqtQM42Yk6/joREmKV5v7+Prpa6x2A8ReHalfM+ibgCKFQw6N9E0JDt6xe8/3bSVAON/2LY9+WVrAlH9jCjYnINeDm3qopn3Us5eYa2xiabyLmtMX4ZqDiHZKcBOt5EdRWuoebVpUrD0zvFu76lDMlgFp1WREqAYCjsa+CSC4uMSoYTds4eX+OHZwFyHmxCeh3Eid7fixYQMRrLJ5hclRFsf6Ztr0Rdv2iWC0BD6tmLMAv7yzjN9/dA0zZBFErCgLmgEIBAcGIOQ+Cya74YLS+i8MIKTiCsb0HBdR6mI/jPDHH17hxXYHfVCYWJEHkaAgZQiC+Jle/3w+zrbfy6OdsAVKgHDChis/NmItYLz7ZfcodCa8FKiFm5jB3/Dx4iZuT+2i4bQ5c0kYgguHm/rylXlq/nbkS9wZD7+srsHsIFlimMcyWiyht3WbKZ8NUMV2PI1vNifxY+c+et4dwKmZkEg5W57NYDuYOiq+E0ob6HpUYLVzOYl1yHBZ3RHwkgDjToh/+ewePr81g3GX8JFhc8v0qIGSBN4lVMXeNX/7cACCovAkVX/qxPGxH2V4sdXBVz++QCfxEbsVjakZExICBBYCUneyMrxwNgP+9EcpAcLp27A8wmi0gBb3UZMbLtCc7BvRK9ys/A2/Wt7A8tgqxtKuqNNTsyt0E6bEeaJaf6sHgvgmvJkMrLOc/j7NKGlzRfUuWiyTT29rzyQMcPiz+G5/Dl9t3cZmeh8RJkWHUG6nzmp8FYo8ScadBV5WYHiweJYxxDAnd+BQO0eXxaiDu7N1/MdvHmKpNYY6WMPB6lJUa5JnxEjmngLSE7txnvL2T8kgDAe2bbDDeNW+Y/h72ijrF8UFYeZhZX+APz9+jZd7A4TuGB2RlDVgGo/J96A4UUS7R5TLPGUblB+3LXBQRP2T7SJTVZnFUI6dD6QFdGdHNoAL9ABetIOp5AU+nXyCz2fXMO+soYpA1mPSymJnwHLAjEjkAOBNIPC2BVxkawJKWIHBRZIxS0EN5axpEy17PT6EmYeB28KrZBF/2FzEs/5t9HATsTP+FkG3fdCLs3WRxyhZhzeHtbXN1naypaGFVxCRoabsD+21ta9tnS72IfUrHCPjXoB/+uwOvrixiJmKi6oUuNNQAjNV9EPWwluSV0cRIGh6onqEF93IrUJA8a/9Ei2uEXloIaZUwgvdBPj21Tb+8nQVfWcMMXy4roMkjQRZSz69w1ADncmGXv8fyLx0hrdZBHMHNdNykmERsaFLpc0yKVyFdKE8I6IKQbs/QD+Kld25IBrsDBupPFTZAke2AH0IXKYPijlRF9V4BYvOM/xqbg33myuYwqao1SlKs0XNZVoXK92jgEHhNEc8N7a8NP+lgC0RIbt9SJVfsLFvfj9AHTuYwXf78/huZwEb6QMEzjxSp2YqPHKBImubajqkZGSYug2yCYskVq6sRClufBtAsNxBESDIbGiM4d4KEKQf1ftgDAPcmWviHx7exv3pcdTFojkDfFctsyV1lkZMJoTBUPsFBdZPyCAYoyMDEES0Uag2oTnCpOIkKUgeDxmO4olE0Q0BQoKB42GtF+IP37/E6n6MiKk59Bl3Ey1tKqiKxkhUhGgOcvk6fgvo9ESwZb87BBCsV5W1+8xPoX1o6i8Zv3f9I30skiTFfhAijNlf5a7j+D1TfuLytcDR41g2OBSTpbQ+7mA8eY5btef41dwmrldX0XL24LqRPCMClrnjNwmKBn8f61Zt0mMefsjTG4eiOGEXhLHwEGQ1dLNxbEez+HpjEk+CB+g4N5E4E0hQU4O5lCWgI7kPR7IiNHTBkIXjDAAnUndIMYAqn+cjQYIBe0NR4lHdejikZEp1c0wQaGYRxr0Iv76zgN/fu4bpCrMXMmQ+sx6kRwQwMAuGS6zreRe2+TodQBDOn2katKA0Bh45/XIQIHC4UdgjSCkle5ChnWb4bnULXz/bQDetIOLApF2oQwHj0MISrHEutc8Pb3WP9cx94G+2uxgjfLKtYcay3Y0oCzBkf2yilc4XpoZZmiKOEwRRjEEci39FOaF84MPrytz+URonU5CJO+wshp+0MY2neDj+Cp9OrmHB20Ddpf7AlGM2AEGz25U+/hkO4cjWy59Ywx6IAsuwsAogCgDBIXndQCcaxw+7M/h65w723LuI3FnETh0ZRd9ZBIdeMnI13Mua1EkBCCHgRiY9rwQIZzeci6EJGlz5kq7PDJg70zX8t8/u4N5MCzVbDFIyVLRmpNh58+N0ybwgdvaEAEHzQVUUMAQItlGJfLQ2usbirBZTKqQaUU6IDKudAf744wu82O0j9MgeVAUgSLawrc8gaJeoVn3NNc/xJI/b2XX5aB/pMLotNCfZHVMIS6JppsItBTZUb/PnKIoQhiHCMBbvCqFTy/Lboz0kyqsvtMDRO2fWREAWisdBLdnFovcMn8+u4k7jFaadbVRpjmRFZQYwW/ubkzAIxS7Rw6mPgvXOEXggZnNqtRwxq94dQzeu42V/Cf+5soyN9B6CyhIitwU4FXVfpOCbfg6G9c0hDO+PxaFyQ6iSQTibx8KIG4VZoncFM1JSeEkfM9UUf3dvGb++s4TJqgtPxKfU3lFvQjCh5aH5/UVtwE4BELhWmxzOQ6VFBSAYYaYJo2jugcRa1Km8kyT428sNfPtiA7tRhtivAp4vZhFsIFXrKpOgxhMV+VfqnpcA4URjN2dgfnK/YjS0orJSBW1CI6skRRTFCKMISZJI10tYyXjUn+iCyg+VLTASLcAFlYvnAH7WRwubuFN7gc/n1rBUfYWm00YlS4QmdlPDvnGC589mnT3Rlsbm1yu9p5qsAvPHMJ8kgJtqjplXRT/2sR4v479eL+F5cAfdyi1E/hQSarsScgaMSZhMCNmE2TQ6/Z3WjyjBwdkNS60xJFJTh3UYqnBYUCsJUM8C3Jmp458/u41b0011VxRtHlP7OZYoS9AaD6MJEExw2o4p+xBYJyhFvgerU/EjIYD1biC+B692uwi8qniPeb6PjGwBHzIBAqxmZqo+ZqTIqEcoAcJJB+8buKoYbZBOU6c3IYfoAsafswyDIBRwQDMrqaFhvcNl0jJlb096UeXnyha4tC1QWNY5F6GParKLWXcVH0+8xieTK5jx11FzegIOGELll5SsN+64pPNPut6KmF10Qere92Y6JGvaDMsQ0zeGlXB30nl8vXkN3+3fwrZ3D2FlDgk3WDEBAudXpmJSbJmor4MUgtLJQO2iL22HjOCFKTwg1+p7HvX5okNg9okb9zBRjfBPn97Ar28tYdynboWsEMWwZHoSeGQQpLzAxYC2UzIIRvSqhIGk4PBFnYGqcHWAq9hQfyJ7sB+neLS6i2+erWEnTJFWqgjSDD4BQqpWlRYg6H6WvyNA4O/LEXzcp+TwA68KXPOS9T4zZi7Se9LiSZohimP5YjiBwIC7jdwupNQdHLcbyvePVAscmmcYG84GqCUruFZ5ji9n1nG3voJxbwe+E8jO2+Pkb3TU+oipUNHOi8e9/QMAQTb2b67ckiFnCt9xp8l0yN14HI97t/D1zg28xkfo+YsiVBSAIPpy9XLI6O4o1vVUz5cA4bj9887vF+rcrJUxxYdMTyVQC1FBB58uj+NfPrmNG+MNVBgycjSbQVw5RYMwclkMhfxFozOwcTKRKtpsBQsQ+EdTaISJNlu9CF8/38DjtW0M6CXl+lqpTGIvxknKGIJYkCFhBn3cTozI37lDR/aNxQlkCALeZA6GMS2tHUPUSgWphgxEgBhG8sXQgkwiQnspXJOKYy7TGl1kEmsotxwjO2TKCy+0wKFxfODBoaFNH83kCe7UnwhAuO6vYczriq0yXyLCtjorIdY0Oe3EACGPz5o5z4QZ9CrNM0zgXnA74BzaTsawGt/An7av4XH0AG3vBmKnAY/FnehuJmFBfpnjkEFg7JsK+pKgPfsnwqTAsMQAQwaIHWQ00XJSuFkPi40E//zwBj6/toBmhaOJzC1TIikeZXeNIkBgM5rnKZe9GVcIea5kNRH4o1IFnzXLHQxSdU3889MNrO13kXg+EjFGYp4xMxVUMaxuYYbCFlWw1QLbgX32/Tj6R7Q9YcGBdZ7UvrJmcNpvmr8oUxjBmwcRHVKEGIQaUkhMOVlxj5N0KO0PjYTqObTufQkQRn/sfEh3UKRri2P3bewkd31Unncx4z7Cx5NP8OnEGmaxgZobImVVPseRNG4xLpIHo+ANc0LO/sDHjDSgmOit5jz6bMsG1TyHAWrYwgL+sncNX7dvY8e5gxATQlcjIZjhs2zSx/lJTtUCEFhCWlM0y9fZtoA6MZuKn2KWob4+TC9tOT18eWMK//jRbcw3WWiLYV6+N4HvEUiMYoihABB0rVGXL7sSqd8BG4XMACuaAZHrYD+M8bfX2/j2xZYIFTPGZdyKVCvT6mdEExQnqvhGNAnyIFAvb+uflwP46OGbQ7XhAi6gyySdqHwgt6uWVjRltwkOBlGIIAzE30DeStbAgAG72zBla8zxzU8lPjjb2aQ82jm3gNXNFJ8XM6EdJdRhQmAaop7uYrn6Iz6feYa79TWMp7tSkU8McFht2YZXjUm8DcdZ/5GT3NRhKFO84mH1QFuaQf+aOBXsOZP4rruMP+3cxGp8BwNvQQIenEeZRJcy7REatpVMNGYw5Hqvcn49SV/99GcK4FPSFwkQ+IkQtbSLGxMe/u3zB7gzO4G6Zzx/qEEQpnbUAYLx1ROyy4IEKTam6Y4ECJELhE6GtU4ff3myiufbfURcgITWZhpjRQGCpDFqPrHUY5CG1N8PAcLZd9/VOOLB3byYTpny2Fb/LEBOFn+tZ59Sa8BS20EgeoPUlOK2NciVdTCMgRGcHrTVNjXpr0YDlnfxQbTAUQDB7vwPgwY2SIpq0kErWcG95hN8Ofcay5V11JOOWXAhAIFAQBlQ9YQx7gnmUToBilYEb0oIa8fY1HGT8Wj+pkyCeMzwmXY8dL0mnkdL+OPWMp71bqHn3kDiVA15SA+EKrKsZsIgseoRjGdDySCcx0OgI0I2WjLEKMhXZxk/C9ByAvzjJ7fxy9vzmKr6qMjEq5kPo5nFYNswp5e14qKIXZRNUbEh2YOU4AAYOCkeb2zjr8/WsRO4iEVUwziLpnI4jMsI48UQAwHC0NVLGQQ9dsmAvW0AHw0Q8l2/YRAkMCBOiIkIEOmE2I8idbE0f7M211ok69D5jCj1hMzpeTx95THLFjhGCxwGCIdDC3bA238T1OItzGaP8cnkC3wxs4lpdwvVdKC0vtFgEyDIc5OHXjn9EzkMebdjXKSZ5xQg2NRxqeCYCxbVm4QLeg4QZBFyMXDrWMM8vt5ZwPe7N7CX3RE/BJlTGV7ILEAgzU0HxeJDXjIIx+mnd3mvtc4WwkZjOqZ+A+A7ZKgG+GhxAv/6i5u43qpJfQZPvJathf3F9MnJsxh0qS4Et7U2uR1mOmhdSeugzi30HOxFAb5+9hqP1vcwAOsuqGKecRYhHxLmDbuimBclJ815DEVONsI+gBeU8fEu4+CC3/PTACFj2IdtSmJLRIjUGiRqm0wWR8JBGeR9pg6GAoTDFtflZHLBHV2e/lQtcDyA4GQxGtkrXPP+hs+nVvCwuY0m2vCdyIjTFRTowq128vqzFt9RLuF4ZuTyBBYYBA2/mjmXIMEUhFJb52F6IpcdnjNwKthxp/FjbxHfbFzHWngHgT+LxKtp2FZ2sGQQ6NzHJHOe0OiLSuR/qtF1+MO2f7TQFkPnJvwueg9q7xj8iTBTS/Efv7yHX8y3MEaRooQXCgzumV7Vux3sFAChQMXJFtMCBLXzkBpUHHAxy06QPaD3QQd/+P4x1rsxQreBhDm5rgNPTEViqRXCeEuaUlVLgKANasGGVdyXibrHZxBENJU5iFOToRAECKXIEpVVBAfVXG+g4mbTvyI0NaxQERSaSygKFt9tyJXvutwtcFzwl28JLvdtHbi6nwIIh9kDzj8RJpwnuN/8Fl9MrOG6u406enAp6uP8REBgQwriJaBAnYJezmOnAQgy/7EqJIGASLC0porOjVoYSh9PvkdFw+o142PPnZQKj1+vL+FF7y763hJiv4XUiOQyeiM4kdosE+qkFU151vzK8pXPd8WmOP5OPgcIYmqlfUcBopOSNfeRuSxQmKKW9fDbO/P4j4+XMS7iRBvdHYrC33ennAFAGLIIlkHQx8WVAUsGgUxAJ83wdGsPf/jusdZdcGtIXROHyVgMkykfHPye1j8XfYKpIiR1GIzYzrb2+26p93q+Izj9t55/+N5i7FCQquwLNEVR4qFphkEYoj8YSCqjGmWbyKPL+KTSWbnttyk3a3khfTQOxmhLgPBeB8b5nsyAQqVDdVJSDxNl+KzNr65H/C8RvXmvyrTP9/rO5OgFA2TZfEhS2cFURO7s8kwd1pftYNb9Fl/MfI+PW5uYSvZAazcBCBJOJfOp907WQJtRq9zKz8OWfOc7+DkGgZOrzreWttXzcA6lyVmYOei7TWw6BAjzeLx/E23vFqLKNNLYVzBAJsGlGV0ojILD3zGbQao6fmAv0bmZmc4yN0VNnTSHdZk83jjPD2dTXgWAcWFUf5+M7oquAz/u4Oa4i//ndw8xP1aF75LdMXqxCzKkOwVAkGQMW75HHw6TAidThpRmVg08iTgaItH74PtX2+jTTtn3ldK2n7T02ZC0O6A1GC5+h4oNXblx/GbaYLFS5sHbPfheUbuaMIEYG5kBz+HIUEI/CCR1UdzX8qXe7qYO66V/qmGPu8u8cp109W7Ixs9N2qqwdZKJ7Q/DfBYXyDxJcBBqiWDJR6bSegRcNenGKml+nHlZm4D0ulrGy39SaqZcuCwQx22O00c9W8ey/yf8043nWPI2UEsHkr3ATY0nIMOUsrdhAbOjl9kxL7R0/CFjQUIeQrCHkF2+/mCCgSYNXH/H55t+M6zNsI8Z/LC3gG/3FrGR3UTfWUSSNICUZaA9ZF6MlAuRAATOHyoSH/3XTy3iVs9mQK2pHWQ0mnmrqllfwRhC+tXEdo4NhocpqSI1JRCTRma6KYtmAV7CZNQA//PvP8GD+TrqBKBZCtfVEgQX8To1QLB6XZUW8uHTGLdSXUTnQJA52OzF+MP3r/FyL0TkVCTvvrBVPXTvx0NoF9Fw53fOkwIEUzvOlJtl21I/QKBAvQHBAUGCehmoUYpOMHamOcxanN8dlke+hC2QC+yY86/25gIOWBJYvOAJ+gtCYUmL09Q4BQjWyOwS3lt+SQQAnJCNl4oY1bDIkqZVK81ON1eGBRinz+Bl+5jAM9xvfYPfLb7AjLsNL4sFOnG3ToAgzKddrc25ctXB4T8cs3ksl/NTHyu+x4IKBQkV9LJxvAgW8NftebyMb2I/W0aaTQHpmGQ7EBxkHgECnf1YVthmMxzzQi/d29/GaClveqAAQD5+hyRYnrJviwPKOD8hQBBqQtkH1sPgM8NQg2gRKOI3hcHdNEE9DfAvH1/Hb+/PYKpK50uCUKakXgz4PkOAwPbTemY5QJBSIsAgcfByu4s/fPcCW6GPxKuIyObYIOzSDcLzuKDjAITCrGQ82YUd4BikrgCO6AwCozcQ7aFYeRrSU34uAcJ59OJoHpODRxc+hfgECNxJa668TUHWQmqHmLyRCDFwktaJRwVj3KFx1iLNrgZCKt5TRQHSGJV4C3OVJ/h87gU+G3+BcWcPXiEkaviIg1OZsC9Fi/n3B74tQJAAUOahnzWwli7g291ZPOouYS+7hRhzyLK6MgiiZVDNwdVKb7SbzMObTRNYVUGHoWCKISUDHfKPGa51mJpysoWL8yy1JAcAgkloMICUar1aGuCj2TH8+6/vY7npoUYQK+zBSAIEuwfVB8A+FNqk+r84y9CPM3zzZBXfvd5Bh9kLjl8ChLeuIG8DCPII/9SnCmED1RvQ1yAIQrFLZp9o7RdTbU7k1oVjlm6Io7mmn9lV24mQo0RDg0xRBgFCHj7g78kaDJ/34cT1/hbB09yyLoIsUZ5oiJS7ZtFSRAqWGRMWi9sIbqy1F27Un+DXS1u4WXmFRravoQVuhwRcaLmy4Y7UJHYVWLqDKYSnufp3+6wppis7U7oq7mAGP3bm8M3WLLZwDwMsIc1a2reivzBUukzidud9FVjco+6hOM6L85/9/vD9F5kIgV3v1gmH38XDCEDQOF3qWQE+dXpkrDTFv5IFmKtE+L//7hPcn2WYgfqWEbVaLsKCIkBQjKaVxlgDrT2I8P//+Qes9TIM3IZoEgyQP1ljX+lPHQUQ7A0fpM20/YdIWUMHaplMYMAva5esOwsTWrABTBtuMOrnqzAlXOmhcZ43Z0IMsljQkN/Q5lpqnQsJKXeCSpY9trn+xqfE7MbP8/LO6tg2sKbaCe7qqiZHMDTZV9QnxHBYJSZuYzx9gU+mnuPz+R3MYh1jGb0PVG1lv4ZLShE4vW9YUGghc0FML4/gY9+dwOt4AX9an8Lr4C72nduIMQ2HxZ/FXImUtwV+Nlx01WaDAoC1bMCbcaFcnGu1BgqSLd1N4Eh1xwnAsKS/qnkg2ascIMjj5mpGg8fAVoAWevjnT2/hN7fn0fJc+OITdDH9caoQw1GKdiUiCQ5UTUsLjrV2D//rj9+igzoChwyC+vqXIYa3TXsHB2Cx1oEVLA6zqs2OyDAEBAch6ykEgWQqUIfAnRHtk2WHJOVdNX9GytKaS7AVFs5qIi6PM2otYDUsurvWuqsm3CCGZwYkiIhRXU3F58QYAY1OahwzpVRFLtefjhlgQKMwfURSJ4SHLqrJJmazJ/jN0hruNjcwke2hIoXpjTDRViYxZZIP9/gJlpGzGTRFgJA6GHgNbLuz+Ov2DH7YvYEd5yFCZ0HYEsGDosGgmyLbhaDvqsV/36yxodk5uq19Y8GXEJOGo9Tqnxl0wqlJ1octWXfczlKxqQpX2dYECmxyN/XEEkDSHxGKa+fn16fwH188wHS1gmoxs+y4Jz3l+08BEN5sWBtisAAhlnSbDE9Wd/DV98/E3WuAKhKpDlgChHfru0PmRzKwbXxTndTUk53MgaYxBlEolsk2PS01RkdWmKiNrw6JJhInu6Hy9eG2gDAFmM2LPQAAIABJREFUFOgRvEtJPwIEMxnK5KjRduvdr8I8s2M2BjCXv/XsQqHgh7u2LBtT3QF/lkmbO+kQXtZGM3mNZf8Rfn9tC0veungfSK0943UgeeqWaTl08xf7NA2ZjCgBIr+KtjuBR715/Hl9AWvJFwjca0izMUlFdzO1WhbR3IlV+pet9w/1wAHzJwOGJeJqg6/GBVNwgG6iFCQY5owgQf50QgbBZABZgKAp/AQIGdyEAQbKXhl2COHEbdyZrOF//P4LLDXHBCBcjAJBxvdJg89FgGCnCgm0yKLDxSp2HPSiFH9+9AqPVrYxcGrif5C5VBJf7CN02YZz8Xpsy1g69ACDYMOEMmEPdR+RLdEcRSAgsOGHA7bUeWjhICkqvXfSYXCZG7K8tnduAUnVExW7GVc0MHFJqaaSrixlVWTCVCYhd/WTXHEjWnzns13UG03KGosSparcV4DAYnEO4BEcDJh3hWrWxozzHA8nXuHL6RVMpWuoCLNgBH1G33sYIFyOWc3kMZMbSIHEZ22GBlbTRfznyhye9X+B/ewWUpaAluh3gpR9SGGz7Dguqn+Oe97DtHvxwm3q6hG8jmW+jLGHQ0+JNFFxt7gX2voXRaBgZuMTrVsKBoSFkHMzm9b8TgAC1SDMKHGQSlZNF0t1D//9y4d4MD+JuqsA4SKCDGcIEOzlc0LJwCgeybjtQYSvvn2OV7t9hC7ZgyoysVAemVF43FF76vcfDRCKig/DIIivuiu1FEJhDiJEUs5VX0PGIP+FDjM72edDrgQIp+60kT6AKTJE/3cx9nGRJBkSeml4GRzWMc6V7hQtGuGi+gobgDAK7ntqApSHCAQgEBxoNVnxdXC7cDMawe9g0XuCL2ZX8VHjFSaxC9eGFwQr6Xz3UwDh4HP8ngeIAH56OjjIPAd9v4bNbBZ/2ZjDd3sfYze9j8Sb0NQ7J5UaDZLOalxx3/PVnvB0hwWEtsXfXrZbJ0bdZWmYwWx0hYTl59QwSfvW/muLzyhIPp5ptjlhDjrUg0NqFjFDwQAEcR2WdZHOlgGmvAT/8vAOfnVrHq2KZ1w5TthMp/jYuQGExHHQTx28bgf4z789xXY/Q+zRzlcbqAQIb++1PD5maFwtgT2cblLGq0iBeXSdBPqB+hxItsKBZ+Yw5hwKGg/i0SPicKcYVOVHR60FdLIiW8CdtaRikUx3KkhYi4NMAqXF1B5QTCWUfNVoWSyDMCoAQSlltS9WAVqW1pRFcAM4Xhtu2kUzWcfdxlMBCDcrKxh3e0CmQr6itu1tuzqzBuULzfve/cn5CA4kYwMIXB87mMTjziL+uHoL29lHCLw5xBlZI2qTKuJ7odqTEyr13/uwfxeAcHgjyr5Xr1+pMyPBJe6zOKcCaaK6LQkjFdb24a1ZgHCcHjWAxRoymTRbzRZSHYKIF0W8z611gKYT4de3F/GPD29hltUd7fW85zY+E4AwtNvVh08ZBBe9BHi82cEfv3+JTuqJ/0HM3pDg3Xu+0xE5nQ0NaMBLB5BWjCsyCAoQOKDDKMWAhZdYV0FENIW2PVIJelD8ocC2BAgjMjzO6TJ1fGVZDD8LUUkpLXYRMSTojSHzKnCyEF4ayuSqqYBVw0apsc5oVFgtVJuVkIqJM4vtsI/MH8Bx9+CnuxiPX+GL6df4dGoN894mxpy+gCcFCIWqdKZHjuJD84jeBZi/2mu0m43IcdFGE6vJEr56vYiV4C667jWEjhomZQ6dFenYxzlnlAFCvu0/omcsOIzVYlu0cGpUJNobo8uyLIIN8eZ2cmQdRO91XAHdECAoS0M9g6YTy3iykS+GGbIYrhejhhAP56fwf3x+F8sNI1Q8p6f/pw57ZgBBHxu9aQKEKHPRiYFvXmzhmxcb6DsML/hCW0oHHLeNL6BxLuKU7wQQMlc0HkEYYxDGSFLSwdYdrnjVRcbAYoyjkNkhL/qLuPHynBfcAtxZBRhDD/WsLWBh4DQw8KcQuy11DUxiuCn1LR5Shw6LvOTYVFm9qCjp8ZpNqV0WPtIvDQUbCZg/ANw9VJMNzDsv8Zv5NdxvrGLc2UFVYsPDUs5F5wOrBVK6wF7PEDIc9pQ63hWf9N0qYJZLYuqz46KHMWw7rO44h8fta9jBTQTuNGIyRVkNjlMx9XVHHCAcCF8Xwg7SGszMCeCmtAln4zC0xPt3hU1xGbbNI/5WiGtMwk4JEHScUL9DFs7oeywjJRVAVQPi+gn8bICbU038n5/fw92JMYxRG3HSoXCKz50QIJgdJ/+xufQGIBAkMMUxgoO9MMMfvnuJJ5tdhH4dsVRqzERcf0FpnadoqvfzURnOubvh0QxCnJA5iCW0EIkJksYPVXNwxF7GKnLfegtmB/l+brE8y3ttgXeJhKfCDtSSHSzU9zFT2UYYd7ET17DrLGDgLCCLx+DR0CVl/NRH7JGS59aHT7paxr6729vhMXrSqc9MQMdoT3ERZV65AAS1fLC7ZmEQvD3U0xXcrq/i19MruOGvoJrto+pI7VktQFdAApZ7y+PShwCCMoAnvb9j3NgbbyVAoJ0v78+RDUQAZjPM4qmUgJ7BWnxbKjyGGJMCeY5bMS6aPxUuKvbdRdzX4Q1Qcc4z150DhAIzKmFa/j+GmzAbZSDjlkDX8RqIUx9R4sHxWQJbXWhVX8JjqG5FVQrFfIKfCjBZtGiuwZo2mjRSag9EAKwDEFnCUAPVPwwdJ3CSAZbGa/hvn97GLxYm0PA0i+J9v04IEHiZw8YfhhiYG80shhQRPOwECf7fPz3Cq06MxG8goRDGPNNUil7EDb/vBj7J+Q5On2pkIgOU4hYAYZigPwhFnCg+3kIRvl088056UDHKKV+j3gJFWtvmuMiTKvUUbMlg+/zyN4nspsbSHcx5q7g3tY/l1h7CpIP1wMVaMIOtwTyCcApZ0kSW1iXsEPmsxqp54RqhkqltmAxz5A7ATpbDDYZS4UonDrU3OulbiveAXinXi5nR+ha6V9vBHMdOVaa6os1rF4AgExJZkAiZ24fn7WDCeYlPJjbwees15tJV+Oij4gP+Ae1bkYA2V3tgQhs+TZI9+N5fDEGKyYH6oKRUkVTQdSewnizhL2vjeN6/jX3/BlgiKMuqapx0lC+Aufaj/jac+w/f4Lvd9LCfdEnRUVAM4RhmVA5fgGZSLXNoYGTXI35+CIk1XOKQts9ozxeh4gQY8/toVNRhthPytxOIsgnETgPw6qrvGuaBmfPazDBLEplMh/xarUWzrUCs4y8HhxSCym2pz4TgAoeppSbbwtbIkux0loIOMNOs4B8fLOO3FCr6nkKTPCRsx/fhaH0BFJ2Bl8ApAMKww6RbBW1piIEEVQAP670I/9+fH2Fj4CBmLJOmPbkt6bsNoPf+XF2SEwr6N9eSf++6whwMBqFkKzC0IP6cFhwcY6dyGJyVvXFJOv6UlyGTEDVnpCql+AZ3KfyvZh6IQMuor1zauKZ9MQSadl7hk+lN3GpsY2qsK8xAN3GxEzWxNZjGeruJ9mAS3XgafWcSod9C6lOLwJcpbmRKisvvWFlUshwsI6bmSuJgKHUPuJmgOEsnTGHBhAmzkyrnE77XhC1NSFLBjske0BNJ1sWBXb0txiRTlO7gcyt9y/eb/HaX6ZziAxDD8bqouWtYrj7HF1PreFhZw0S8hdQJ4FcceBKSGAKDYlf91PNzIRshs5Cw5o2o5kWz5KGPOtrOPP62O42/bi9gz7+PAealuqPLrI48HjJcpDXNWr/UN0DvNgcH7L9hjXiz0hdbxOwKD4xtrQUsZpbGF4fiWPHXKJTbtu+xu0nr/CjnF88Ojr1YQmLy2QK2ICjwOL7RRS3bRdPdx/RYhPlmgFYtFI3casfHen8a7eQ6AmdRKmCyDbi7F085Iwg3pAKQctwaXZiMq2IlUzI2FLJqiIb3IWW0JUOB9T4IMpRpU9CooV2Z6fNxqufm2G9UgF/fnMG/PryOyYovlVG0jLg81QLGPbJheeMcLkRlAdTJR+CpAEKO1GTMGNEF6y8wgyHz8Ho/wP/65gl2IlcanvMVFbMKJMol6W1rgaBgcaK0e0BX0CdzmgdBKGZIgmcLuzSdNK1JwskHxCnXp/LjF9wCpNCZT02tADUDXGBTUWub9MQkkYmPU0zFC1FNtzGOF7jTWsFn05uYdXZkx8xdFyf92KlhgHHshJNY7Y1jZb+FrWACPcwg8SeQkZ4FxcdqpOQIS8gdK4cnFfI0I1Kgogu+LvqcLHXhtrnh6q9gKxuoW6Mq6kVnrpWYc1Mw0Q5ocRHNRDCy84J9U8ElZJgEJM+NZPNx4uaCT0GmnsN199B0nuN+6zm+nFrHbWcD9XQfsUvhGNtUNQuj8OJcoGAxQ8L8esFKjLPX0HGm8Gwwj/9am8Zaeh8D94ZUd+T9qUeNRWNDFscq7nXlM4t7DhIKi5RlIA7Q/Ecn8et05SBxOTZ1zNITQDbVZkJTgsg471qzodQsrNr1uqBmVP+rAVaWkr8O4add1Cg4dXcxN9bGQrOPuXqAmUoPFfTR5yY2GscPW1N42bmOjvsAgTMuzw88VlHkxtcXllZ9C3TZ4nUKSJDrpKaAQFlQuRopuZFZ8F2aUAgzoxbmHGsFtswckCF50+Lm2eTETx1CjC+vT+DfP7+NWToqynNEzwqGRtQJVwCCYTwE2MhzZkNERT3FyUbtmQMEXiS7qpc6eLrVwX8+eoW92EdMkSLbSASKRRrkZBd+lT9lNnhgtplMro4nNS0GQSQZC7GJpx3ZBsdW2F7llvzw7i0ToyNOGswjMpktwjBxQTTSOvlbiBraaDkruNZ4iY9nd3C9uolG0oaTRMz3UlGex4p/FbFI309b2I7HsdLhVws70SQG2TQiZwqR00BiS0OL0ItsBVdis6GUXLIsX+RtqrOk8BoWwlr82tivkra2sgsBglkRODHSfU587a11re1rCxE03Glu2lyGUaqTdTNCMTelYI3CtRTVbAsT7lN8OvsKn06uYT7ZRM3pIa0QPmTwubO9gIyEk4xiaw1Md8SE61TOIlQQYBwr0QK+Wp/Hs/5NdL1bABos/4iU2QwuFzW+yK4MIZfu2g1IGxZC1KCAODIO+2CYlv3TV6+ljk05YwF9er5i5VC9GP6WbBOrbdLeiSK/QNkD3a5rKm7Sh4891LIdTFb2MF/vYKHewVyjj6nqALW0h0o2gO+kiN0K9lkOuzON7zdnsdK/g553DZHXAp8jOy55zwohWTjJN+XQGbog46Hsl1yfNAKBtQJzTQmuSBltHThSqangpWAYNtNuGnYnwMmQpdRKRPjF9Qn8X1/exeJYNQcIBBvsTwI+qdMgAEHBoIIk2xHFOhInGUWnclIccgBycVJDXh3VqJjtxsD3q9v4y/NNtBMChEoJEN6xjzSWK+avOkWmjugN+oMBQhohcXC8zXuzBAjv2MpX9G2kiWXSpXUwdyymBoeh430RRPVRzbpopCtYqr/ER3NbuF7fxGS2iwpTGYs7GmPGzWkncqoIvCb2sklsDCbwujOGtf069qNphO4sYqeFKKsicuoi9nI48QuxqDsulRswrYw7KmZCDK/Rxp3zBfjAQmzqhpi0NBUXUk+hb+LuTmlhVRAecAYVtqIgpuZ5RUnORS2Bx91mEotIs56uYX6MhZnogbCCiXQbVQRAVeP5urM9HPO9nONImRkKwjMkDhDRhEfmFaZI17EeL+CbnWV8t3cde+5tJG7T1GapInO4YPNl5nR7i4axVJBgdS0KGGSxpL17/t6jqBazBbdb8bxjuMhpmCgPVcj23NY9sMcyu3Ux6uL5elKvkhbZLHLkZF3UnD1MVPYwU9vGQrODpUYf0/4+xjICA4JBFhtL4Hlkx7TaZSebxYv9WfywOY/16Dr63jXJ3EkEjOjCawIsslnjCCYwEZbLWt0Li2UqY0otExY84xglmCGAyPn2NwGCYUaEKcsSZCI8T+GnMT5eauHfv7iD680xjBnQJq6XJqzs2bEsf+MzoGnHOeg+pQfjKRgEywIYRCSNpQ8qG74Tp/j6+Rr+9noXHVQRoyoZDGQQ9CkeEa7uIp5/ptNI2M6IEgUcBKI/yEs22/DC4XYsAcJF9NilOScXBrENlsfSxPCFi9fnlXHaatJDI1nFYvUF7k+v4tbENiadHdSzAD5Fxia0ZeUDNpJJD5Mw8xB6dfS9cewldWwPxrDVm8BWdwI7QQO9bBKRO4fIn0DqsBASJ0fuRLnjsgs1QQxBAndcLLNsd6q6RS0KFzUewPdbElbnDx32FBfafHKzOIlD3qHYq43zygTOj5tdl9DaNIZiqKWDlvMStyZX8PHsOpb8VYxn++IJ4fnmeZTd7Yi8ZAXXLQaZFwkz8OIFWPnYjqfxqHcLf965jg3cQ1SZFo2COC/agLsBlflMLY0+tDC28XRlEDRtL1+c3tBD2f4rsAzyuQTUgdiFVgCkYYUUjRXYZmEpNCTF81Ff4GVd+FkfdWcfrUobs/V9LIx3MTvWxri7h3rWQS0doErK3hTXItVB0ESGltCC6bz72SxedhbweHcWq8Eyus4CIqclWQ46aGieRHApjQhXsnd03ObAxhoACrgRoYDRKDAE83aAQMZAORK1NSeg5n1Xshj3Zuv4t89u4tbkOBqSkcIUABbX0rAa4YplEC4pQDD0j/SlGpFQg9COUvzl6Wt8v9pmXTQkpK4s+rYU+cg8be93UuAEb4cMlbb90OgOBJTq5D9MqzoEtEqA8H4765KdLa/bYZ4ttY/lljsB0hheEmA83cWc8wr3Jl/j/vQ6pr1t1J2B7Fik0rPMbUrf65quC7IuD5yiPKFnQzIKWR37yTi2++NY745ho9fEbjyLnjuLwJlEzNorkmWjR7IZD5pKprseFRMUawCogY2O8WGBqJwZEGGbBIPNLo78Rp6zoMtArnA3GxKZe3gepWBVk6E7Oy/tYixZx1zlOR7OruPu+DqmsYUGARPbzNSWG5VyJbJgCUPChYygiOBAAYIy3Y702YvkJv68fQ3PonvoV64hTutITSqrNqix0VZaxu5Rc5rcjjVRJPzkRuUwOBiCBAEITIqXhZZjzoSB5Hpt1V+lzllUSlmfBF42QCXbwZizi3Gvh9laDwuNHubqXUxWOqh7XelXNw4Y+EJVNCREBIbJImhigTt+OR5Ct4l2OotXvVn8uDONtXABHcwjdielqBVDBQwviPxQXEcJEBjeMGmKIobQMasgVGMwAnfzrAhbGs9mnOlcnpIxoM+ISf9XDRoBUIxbkz7+9dObuDs7iabUZCC7QB2CvtkVwaNdSG2l0kLY7uIZBAsQlNKyAGE3iPHnp6/x41obPacmNRg0vUhRkth7lgDhyOXF7oCSVF0SKUoUvwORpw/Bw5FMTAkQLtmS/T4v5+COS+dsU3zJCeHTKifZxUy2gvvNTdxnnL26hobbRYULp1IHuRunLqdDwlIOlwuNZZUWcxnm0Q/cFjpJC+v9BlY7TawHE9hLptB3JiSmm7o1NVeS3Z+axWh6BSlYPbBuWOUCxJdePAssHS0LBCPWjAarYFHFmKaORD7uTaKbsG8mayqfqPlJet2LokB3yg4n4h00s2e4UXuKX8xv4UZ1S9gD7jqFTs5Tst90UHyfvfsu58p3s2bDxiWLwEDbMpeAohePYQ1L+GZvGX/bv4G2ewdBNgskdTXykbTPyMTU2V78PAWotuy3Ai51XWQogK+CWVahP2zc3V7/EEtYAGLi5ka0qoushso4DjgKGQzwRD/A7WYfNeyi5W9gttHGQiPGbLWPKbeLptNFlRoDsSw2aw0AhtZygMC/OK6Y9sk44h1Q5+U0sJdO4UV3Go/aU1gJFtFzlhFjBlnahOtUxeNHwLboDIYCWsumaJVcjcHYktECB4T6P1qDYBkEgjntJk1t97IY11su/uXj63iwMI2mZ2s+kkFQPw/+T8NJFreZ7J8D/XHyhfYMQgyKVvXpVnUlI59bgwh/evwST7a60p0ECNpkhjI6+TW/y3MyEu+xhTQFLOX7Ke14ztVBGKHX7yMityuFmWwl8iFifCNUUwKEkej787lI44jpmvx+oQK0UqHjdFHDBiaZsTC2iU+m2liqrGEs3UbN56LJrBk7sZk4vllc7IJsyV6K0Tyh53WnxPLtsVtF5I6hm9WxE9UFKGz0G9gKxtFOphC6M4iccUSoI2XBNoomOTvTnMZuUE36lki5pbKd/YNN3zLCQ0788ggYEZYUXbJ+CrxKVbPnz4akgmnaJSXUXNBEdy+AgwXoyRg8xp3mS/xito05miUxXm12h+KVIOcbEYCQ77x0WVfQoPOzQi4HYepjz5nB494svtmZw3p8E91sGSmmkdJGWwQXKrYzwSkDDih2pYiRYReTZSI1KqgnOQogGP+NnOi03+hRuaFUaKhCOxVXmhoZsrBKEAB+0kYt20LTpfiwi6laB3P1HUzXu5iqcFQxXZehhAi+0aPkZ6JeIU+NVQDKUIqAX19Je7kCx8MgG8MuJvG0O4VH7RmshzfQS68jSmfgOE1d5jzdxVuPZKnnIOnDCn5z1itnDgxA+DmRos3uM6EhL0uw3AT+6eE1fLI0J2ZJUm5cwkY6HvmbwwDBphCLI+Epd+FnChBEWOcAoeNgqxfij49e4PnugF0n6ljDNZhc1UPU+PnMmJf2qAQFKW1rJXeXE7jxkmCaEfFyHKPfH4ghkgxej5ag+p5heuMRWo4SIFzaPn8fFybTLf0NeDIpHVAz8doNjLvPcaP+DB9P7eJOYx/NZAd+1gX9EPg/KqNl/jO7z3ynZ7IP1OhFp3KuHyIUlDiubgxYETASurZKw2bshQ1s9ptY7zJNchr7yQx6mELgjktWE9373MyXXZAuX3YXxHEumd76iwMpc0blLnFbzc7IhERWEzbd1XL3aPQJWsNX/UJkUYvgMCadMqTSQzXbxWRlG8v1VdxubuJWcx8tpysTsZ1bJb8+X17fRy+e/hyWZM4FhTZUZKI5ZH4Cvylpfs/2p/CyN4vNYA4dzCJ2x1Wo6DDFT78kJGPTUNnvNv+e/UThHxdlDpw8FjFc6DW0ZOFlgeUy6wWBqQgdhbwSRYMJHdHYiOCA+pgNzPg7WGh0sEDhYaWDCb+NMbfPJFv4BH3C+LytrzQMoiEu1TFI6jgZBEe4CsnC4BH67hi2sik87c3gx+15bAQ3ETi3EGXjYKE8pvJaQ0UVMKZSLtp1Dd0v7JiFYgKv83CNZVNyTY1FcBqcMOJGbSuGGJYawD88XMZn1xckxMDe4HDWp8OBJ4ycuizqPt1mgZhxfzEAwXa2DmRB70Z5T1QWOcBmN8RXj17gJQGCQ3qRIQZjcGJu5JTXfvqn6AKPYAGBBQj2UohiWWehOwhEmKi1K0xczj5+ByyVFWjZwMNQzHWBN1ee+sJaQJd63c0wwErzG9Ky9ew5lsee4eO5ddwc28SMS/FWXxZSYaaMLa8ChGIBGfOMa0TBLORaS8UWmREjL7OBl5r2nit1V/pJBb2kjm4yhe1gEqudFlZ6Leylkwi9ScRMJ8voj6JW4Y4jVjDqT+A5yEzp8uEOWGPUfJNHIZcoyDXNjPtMq8vxOOFTDS5MAX0fdLfn0E2PNHW6h0a6gylvH/ONAAuNLmZrO5j0dtFyu0JPa66/Tuf+ECuMRFEqZalVe8AFMGcPZG12xLKGbRWzj7Ia2gnTV6ewFkzgdb+BdjKOIG4iTFuIMYnEaSFhiMjE18VgSweNglC2vZzHxthVCKqtZ8M8RYBg8rPMNYqJl6zcmn7rZIHRGHTQcPYxVdnDwlgHi/V9zFX3MeF2UAfBXQBRBRhjIxXpKYq1y6SOkRx+6pJjCCHhmgiOGc43aZr8O8MNXaeOrXQWj/Zm8GRvEdvRTfQxT/siXctc1iJRVlfrQSqborrKoTGXVe4M921mrbSqmQMAwWpxhgBhgQDho2X84sYiWgQIuS5Ej+xJuM5w8zmA18/LHHDK1wkZhKMBgmhAyCAA2OgM8NWPL/Fqb4C+CJUsQGBMr7BbOOUNjOrHbVjBhhny+3Bc9MMI3b5mLYhvvKtlnZU8KNQhzT80zFUuAcKojoizuG7dnYmgUHzdaQ/cxxgzFmrP8WB6HXdbG5hwtlDnDtqJ1S1O5UMFe1krHrd2sjkyNQCh8PyayVbmOSMrMPsgxOLeV5GwQi8bx24yJQDh5X4NO2ED/WwKA0whdppCa/OLnguiURCgoAuJpo8pOGDlQbGqlTjtcLbXc5pdqFCvCghY9MbN+qwtCz/rYAxtTFfaWGp0sVDvYbrSFVAw5jJFjv6vdFW0cXtlU/xELaq5A831YGfRXed0DG07vQfxP7BJLZqzJ33N3S43duwjZphFFOllDWymTWwFdWztV7HTa4pzZuDMIvLGEbkUm1vXSk72LG6kLJAsbVKowqJI9QawGpIhgzDMdlDRKNkdhi1iOGkXXtZGxdmj3yNa7h4WWxHm6j3M13qY9DpoZB1UJHvBhhJ03ObrrGlTFXob0aDuoIzOxc6QJhxnBLn8qxbu0gNQsdNBS4pbPWnP4IctamqWEXsLiDAuxa04XoXZJchIGaaj2FKBqwUiCgws1LTtcVCkaMdxbiBo2BYyCPN14PcfLeHzm0sY9+h7oGDE8u+WQZBWOAAQzFpxyjF2ZgBBLB4KAGF9nwDhBV61AwQ5QODkpaIfIUHNWDrlPYzsxw+DBI4LChM7/QADpjTKk23V5IaysgDBSKpzTYcZMiVAGNnhcAYXzqfK5K4n3FdHqGWrmPGf4+H0Gu5P7WLa2UUt6aDC6oQm+K/TF/3hzURrJjUBr2Ym0j2KjfMPWQWJAJj5VxMOrdiQi5DuVmM6+DmUltXRcSaxn0xgveNjtU2dAkHCLEK3hdidkHz8OK2A5IFPylY0A+qvIo6QAhKoXyDlzRfL9qqLHsVelmvjAuImXXjJHsacPbQqA0zWBpjnTnSsjZmxLloexZk9OAQRDtPgNK9dAhUQjtOrAAAgAElEQVSFid1T6Xq+EJ1BR53rIXRxMm57Bvzpsq4Tru7zFSjYkBGrGYaph8ivIvKb6CUNrHerWNkfw9ZgXLwC9pMmBmgi8RiCoCUx/RKqxiqbe5liiMEWPLK3qjS7hoBk727SXx0Zh17SRSXdAqWT0/4OFlt9LDcHmKtHGMs6qJL5kVoKQ/ttriP8rJoc6r/CGEgf6ljRsJn5wwEm4bA+Qzl6s0EXgWvoVNDzJ7CVzeLxXguPtlrYy24ichcRZS3EWQNwCRK49hmAUBhD+bYtj5IdHyDMjaX4+4+W8eWtJYz7no7RAkCgUZN6SAxrVuQy9jOoiHhKgKBDjcrkgwAhw2qbAOE5VtohAq8uDWnNlHRXUAKEwwAhSRIRJnZZa4GPMPNuTfqPMAk5ZTTcPZUA4Vzn2hE7uFLrTANTOp20+TPcn17Bw+ktzHnbaEhOOHdfdHpTDYxMosypNpoC7gRl1263KVZ3kIuRtVmGi6iVxZjRKAxGJmF/+p5wDLOaYOpWETo19LMq+mkT3WwKr/cbWOtS2NhCB3PoZdMIswlZgKS2XV7jxS54VLYPwwmSky6mNdQWRPDEy4GLzT4aThvjfhuzYwNM10NM1QJM+R2Me/uoiZ10oJoEpkt64v0owkkRX/Ke7Tf608iYJBW6zajpFTDI+mjWKFmepTCQqwI+5vxJnzL0QGhZReg30Emb2ByMYa1Tx2aviXY0Kf0WuXTP5CJZgzgMsAEl48B8iVjPUu02lXVon21yB6S/aIdcS7YwUdnFtVYX18e7mKvso4l9VFNqDBgmUuaZnSDjzqABfusJMDTha8OQSGqngARBS+beh0yrbYqcCxccIZaJ4o4oFTBZMsD10fdb2Emm8MPOOH7cW0QH1xGm06pJcOoyHm1WQ9HmWLNo+GUCHmpuY9Ug+v3PhBhmail+/2ARX9y+hsmKAgTWDtGPai2IIkDgLSjuN+GWU85gZwAQ1ONb9i45g5BhZa+Pr354gdedSIxVWEpUAYLmLJcAodhziuzDKJSshSCmFQbjcsZdTEw6TFGmQ8xBDhCsU12+nzvlyCg/fsla4MC0n1O3w/wmvVyCAz8LUcn2UHNe4+bEKzyc2cC1yiaa6b4IukTSR7Yg0ZofCZXcHgGCTi52Uj0KIOT7MVv90wIJce1z4REVpBmSWCf0HATbygoUh1EZQEEjaui5LWzGDbzu8msK2/E8esk8Buk4HFbXAylsZS7Ef14Eh/zRGNWIR4PmxdM0h/bRNMiZqOxgrraPhfoAs7UBGi6zFQbwmS7nxqBCXBMih77+on1IKfzil1WeF3bFBbubSzY48ssZ6jV042yFpHk4xiys1IqwviGLHclyGLOcdcGLgPoFhw4FPgZgPY4W2tE4NntkFprYCSYEKIRgZkpTWGK65Wp6IsNA6nNhLZ81Rk+mR6sq6r8h6tjBrL8idsiLzQBzYx1MuntoCMvFkM/QalvpeusDY25ZtAMmydCwBxqOOhjGtgxD7uhZoK/zAlVCbChI1PNkiD0HkcsiVw2spQv4ZncRr3vz2A+mEGazUgmSehtZsI2Dogpn7ZeaJKn1+U9ZLR8tUpypJfjd/SX88s41TBiAwGMNAYIpGCWsl963zQo6AwKBAP0k9h8WdynUtgBBKHLRIGRY3e3jv354gRUCBJ+pTVpK1OHuxtDmH2yIwQZpc8ZW7S8GYYBefyDmHSq8UpQoslXb2/k6od8UGYQyvHBZp+3jXpcNhmocVXcgJsVPZgCj1RYHQlMV0eRfM3e6mjF6+gpLjZf4aHYD1xqbaKS7GBOvetWkC0AwpkgJKVKTGmnPZh5sc+EmBS1/YHUXp7DWOMkZfYyI10hvJ+p1wli3zhG2+JiNWhCUMOOhgl5Wwx5j3+EE1nsT2OhPYjecRj+dQpzRkbHB0lK5L4JS2QNJfyML4Gc9jDkdtLwOJisUHvYwW2X6WwcTbh9jLNeMUDIT1NhmmO7HOcsWPpNHTACCWXRyFabZA57FjHvcoXDM91uAILCmCBBMX8m9S20Ghn4UcNmUT8leMSZsWkFWwxDUfdAYi7bETGNtx01s9/WrHVCn0EI7m0DXHUeCOjKa4knmmtUhcCZj+/e1gBI6aHg9tKoBZit7uNEi09VG02MQiknxASqsxCjMgYICo0bJcY7ZZRaYHStRzT2KDrIHucZAb/IA3LYrqtHuCEgwrojCprkscuVj3xnHi3gJz/ansbI3gd1oCQNnEZHbUBbB1QCbVk5l+IVhMKuOITjSyqJ25j48pw83e3wwM/FBIED4/YMlYRAYYtCyUOpOYjDMsNR6bqBnntczCOGfDUCQFCOTpEGAkGVY3bMAIUbgjiGRym588OjuZYiYM7iBYz4/7/Xtw8FwMA9Z/elVZSqp6o6DIEnQCwKEMUuXWhGLQoB3exV3Ou/2ifJdl7UFFCBoXFF952XHRTAguxuqxjkuOFZIrWvJY+6OPC6W6Tquj73AJ9MruN3akh01GGfn1CXvIUDQuUvTEw8quY9qlcOjMJ9gC9YAuZ+BAQRFfw+7PhUnZrIWkhqZAFHmS8GnTspqkePYGExitTuJ3XganWRS6jskknrHCnacgmmx20YN+xiv7GOWQraxPmaqfUx4fTQzLjQDAwwoxjQ3/IaVgQnS5zdtQwlDWlph0HGexYsdVxYkWKfiN2YQ0wZqG6yv4owjv1BPd40jSSqgCh5DlpyngyYa6CcTaPfq2O7WsBaMYyuZRC9pIsoamvngcWNIRoGLPQ2O9tBydjFTbWNhrIe5Rog5gjjsiPmRAALxplAHyMPiQ5tFc6B1TaGiQ0u+qg4KN57vqvO+PNRHOdVf/OAwO4dzMjUJbYxjM57F0/YMnu3OYzu+hsCfQ+rVJWOEbZYIe0KxLaGXZjeY/MrCfG7DMcMLsoBb7Jv5jCLCvIQYlvD57WU0XY8y3txN0QrWc0dqU59BRy5Z53dfPd42Yk8FEDS9gy9jVGLikgoQBpLm+LodCf2kJT1Zv1p3FiaN+WKfpHM+ew4QcjrW0D9m9Np6C5Rh0U65FwaIjdI4T7Q952ssD39JW8AUgSHzRgqUtKxMnjEnH1/AJQNRKX9v6se7TGfEJma8l/h4egP3m+uYcXYw5ga6s/nf7L1nd1xXliW4nwmDgPcgaEVKlKiUMpWV5bJMl1nT0/2hv/UvnrVm1cysrprMVMpTpEjCexM+4r13e+1zzn0RoEgVQYAAgojQQpIJhnv3XbPPOfvsTXW2gK6EpipnNWdhnxtd7aLsjCWu6ksXK3E7FLMnaihUMYW97jQ2mmPYrldw3B1BOy1K6a0YdjEeHmMirmKq0sJMpYWpUgPjYQMVR8e+DgqU47XatSc55mxyO1Su6J2/tK+llRzNCMk8EE5K75QV4UtmHkL2esToupLck3ZaxnE6ir1WBXvNIg5bZdSSMbTFyyBGGHZQieuYLFbFXVGAXKEBUh4rriGlHy8AlPMk8lF4qbTWj3Zerrq9w5GT6gMCyUXVwknsdefx08EsXhzP49AtoRnOICFIIDgwXRvfuSEy1P575+P5KoBg61DOAM0gCEBgF8PdG6hEkTg6kjvE9J+YknqSsKSbFVJ5I6d+E+63HZozAoQ+0oVdOL8nlRS3q2388ckqVo5aaNHqWTgIlLzU1Mh1AQgSfXiA0I8fydsw0ko7S0X3oJV0rVVLEeDwcU1HQPYT5fWwVs8Iny1U7DKIkghBwqWv7nFpmCKKWd+soZBuYCZewYOpbTwYP8BCeIARssODTDMFkr0DYpK6bHNVrKobmHdUvIhRzwGCZ6BbjM59gS1mraCERjCBmpvEfruC7RpwUOMmXcTESIT5Ul3EcsZKHVSKLZSDJopZR7wTmCVR0poPgq2lzVPEBqFX8SJuwkufQcEgkR6WTK8CBOEwGJNOpowcSprk7mbqy8HWVN6XdjqCWjqCg3YJO/USjloFJClQKqSYHU8wW2lgqtjAWNCQe1VwKYrSlktOQq9EcDJpenUAAsely2wvymhkU9hpz+LZ4SSe12ZxiFvoFG+gK7oeyl8RqedcLtyqxK8FCD0CpXBjJMuXYKGc4W8/WsKv7tzAaBTJ2qUVO8ts0iXky2VXEyD4GWYOcpaZIkCgUNKfnq7h+X4DTaqmhapjzQgmz+a8afb8EhbLeXykR9+vAgheaYtCSJI9aLWtoUvTVNrFPnxcyxEwsRVJV4YR1YhF/10c7JIQEQ0QafomXLAEUdRGIdvBhHuO22Mr+NWCgoPRjLr0TNuqcx03K680Rw5CHtZY87dsZhcclWmdWyvMLD2qSlyAjmQTYpFvbrsSmkmMZpdnVoyRQihSyGVGngE7MggpEunMiDxJS65Djx2V8z15ue/51nPqZeOBoigLKhHFLLV9g6sX4NK3loyUr3mbWJXqGZbQSotodIpoJ3RCBIpRikqpg5J4fqjWhPL7KRTMN1Mn4JMUj9dMxEvMIEgWQbIsEVqcjyw3dGfw4/EMXjRu4DC7hyZmpf1TzckSIPIy4H0CuDKCPoNgp6GUEX0hi7oK6sWwNOLw+4fLeHR7UUoMsm5pqhbqWskBgs9K97XFX4EMwqsBAlPme80EXz5dw7O9Ghr0YogKolfNBSzN0edRIDn1MrjYF7wOIMg0MLJZN0lQa7bQ7lKgRdTfbfoMAcLF3q0r9GmyOesBTgIhfxxJA5mK9oSpkn0FNMQdxO4AY24Dt8pr+HByCx+M7mNUzIYSRDx0RV/DGM7WcqVVhTzvKfvVRQMEjriZ65kanvUVmOkeM6nMowYhm7tIFNOvHIXMonA8VCUxYjQlkSh/x41WvRw8CPcS0bqwVEhqCBB+Pt99BkGmhbUBeFVATf2bb4LVyP1OJSTCUHsUSFgHNSqyGGFAM2LeNLLuu4giygRrdMyzgBBBWkt9i+KJm3K1AEI+WgKinawnwtJ6PIHNZB6P92bx7OgGDtNlZMUZUVsUFdyIlGAFAScdLxUg6GzV0oJ3x1SxJZqIqRfD7x/exCeUWqZQUkbwkCKIuC6UEsmHX8++vCBlDhvbs+xsZywxnAQIvFB1xgqw30rw55/W8HS7hrqUGIo5QLgubo5elas/o+mnvScittptISdSXtlbnZ7lhg5f+x6MgGwOOlO48TKDwNKmKOBRvU7ayinM0kQxPMRotoEbpW08nNrDnfIeJt0hCuJop9uPN2mUjUT6GL1iXN8GdbHJg95+a3BY+N92QCg7W/X7HVMf3OxIaBRAoeRNyYVI1GmbqwVi+qy++m7eEKrb8M/IeO/BdDm3S+ibAz6WlfcWSWTLwvjOqfz8ZiSrrosJY5oMoLBUlOjB7x1+Zf4a51FKq+TB9IxD+w6zN0hh9eHac7v2N3gjm2qa8YqUk9AOSqgF09hozeGH3Vms1OZQDW8gKcxLNsVJN4PXJWcXTW+S28y1OekBgv1pds83x0P83cOb+OjGvAIEznmV1IUTnQ4PEHqA2Ld5XiJAkDvvNdN0ytiCFrYrgMNOii9/UrtnAgSaNXFxC7DnAAsL+z1/+Lned6k5QCDtLEmktNDumoUtlwnbZYwF/p6PzvDyXjcCXCeZKo5ql4HK2Ep/eaa6AKFroRjsoeJWsRCv4+H0ER6wXQwHKCVNidqky0zIicJpls1aRHHsUBaQasQ0/uqiV6Q/xq3cbbkNPVRYQpFso6j5MCOgmiDepMa0odWDyR5yhAkK8FdiV5qbLV38NQ7SJD/hiWVgwSQojOSq8ykU0TbjtYpVjHbCSJc/7xsPfyOCKqBjl4y/h1TXJEDQbgVvVGdw4nU9Bj8fxrxOfYEjzGsRATAtW+nxHKOTjaARzGCtNYPv90ax0l5AI7qDTjAH50bM5CqFE50Eg6h+fC274BVvRGlYABQ7jlLcnojw9x/fwv3FGSEpxj77JbLf+WowQG1ZCcMKlwoQ9LabTaYyV1T/W40wcZRk+Pr5Jr5bP0CDAIEMT/ZGy/q9Hjm+3M7Z03z04uWHgVG92RSAoBGeVodDdnsYSeUCp/7wo67SCFiUoJleRgqsvVPzoABkdGd0iF0Vo8EqZoMneDi5gweTh5jCDiqs8ZoTIjcx3yvtrXN8nVNSwcJ4VstdCXIueFnq8a2RqQAha3+WQ0ZADQ8cz5Wwf7eTideYp237DjN9x1405VX0jN99KWWUqzS1fum7CECwblAVUbBKQ66N4HtdPMTU0VazJPu7IQofKWtA5O9hD6CpQ2Z+2l0k9eWMt0MzXdJyKZm8CC4toBOM4Dgex7P2BL4/nMF6cxkN3EXmppGl9Gswr4pcwCkvLJiLiIH31AS8Uip/pPhgpoT/8ukd3J6ZwIi4qFpuRzIyev7yoT4SJs2vjONzAfxvWWLw+QMDCCZNSfTD37AWVU0zfLOyjW9W96UDNiVIMNvP6wQQBCFLTdVuJcklFIhJM9QbTbTaHRkXZZwQmTPsyxXtzziZhy8fzBHwaUZTDhRgmcJJnjZGlHVQynYwGz3B/bEVPJzYx3y8j5GQvgJsh9QNTNjoxkhnarK3C/ci7B5A0E38IkGCBwii0G/MeLH9NWc9FSzy5wuDD/NI8I6TwmXqVRRkhYklukVpcknW0WB13svgWQzMHMzJsabD0We9oaDLwy0/7AYOfNnBwJkmvXsqBsoxsAPVkux5lSAX97n6o6S0DCNnWtUgpDR3Gok8dbNYxmYwiWftW3i8t4jt+i103TycK2kGTE0jelTEXLDJRNDET0JDRWbOCBAezJXxL5/fx43xEZQMIIj+gdlU67uZH4Xx2vxnnEdG8BwBgm5qmkEIUMuA79d38dWLPVSzmDYbdgga2szzWVd/YpzlG8pNEu6UoT0SrKIQrW5HPBfo2OiFLRjV8T/m6XoVv7N8+vC1gzkCtptKCcA07b16moPYFU8Eq7g//gIfT6xjOWapoYqQngLMCHCumfMgo3CmfJma9Bt8/8bhAQJTwK8V1nnHg2i5gJwV778HBZ3yCoJp8HuxHOVh9NVF7KJ6FWwtqfiknd+W+5rp3vFVDebb53YBesbbPvTzGqklsy1K9eyO/oyDXr8HnD1bC38HfL/+YIyT5wt44C06BNbpwVZQylI3ohj7hWmsZR/g640FrB/fQgfzcCHLDOaCaaBL9QpsjIQXlAn5UFa7CKIpQHi4UMH/8cWHmC8XaYtlsuNStTD79ZcBgn/T8xnXMwAEnnsmBiz1JnXqYlqdGYRGFuDpzjH+9GwLh52Q4pkSOauCYM6SOp+ruKrvYtEQr1k2bWGZRXBRiHqrKY6NXdZYZaaoja1IfFq19ape1vB7XcQIeN1bv+BZYuCBSf36Xdwor+JXs2u4W1jFdHaAUtBFyvSjkBnTvGwgdsVWE/acA9v7jezEjcYTBC82g2Dbo4/t80GVg98zs2Wv0MxBKroPmjsV3whJILwcJ2mqVmPdfsLbyQj4Iu7goH2GHDVSW/ejamZL+Xj2xrWXFfB5IC0TeR+P/LZI0NwH1voHxfgimvl5abTegKt4keMrYyN+IHQTpVy1WEGpsZdjQ2OEWlTEXjCLp43b+GFnGXudu+iGM3A0KmR/ZB//QDpr/NIW38IMLk2MgKwdOsUgxac3xvFfv3iA6UKMArlHvlxtehV5Ac7kwXP+zXmkD7S75G28GBSP+zhXTE5EK55kO80g0IF95bCFf3+8gr0mDS+KlkHwHIQrNgPexWzzdSpL70p7D93S4FBtttDJUmTiPmaGG0OA8C7uwkC+p0+FSzQh/gGZpChD18F4sIW7Y+v4dHoVy+ELTKXHiMVngM9UrwGfgWJEIqQxg/DSx20peqYzZcs3uW+frb/YAcuTzRpxeqKh3x6s/dJHbuzT1+/vy9+eLe/PGM/m0cPMg5B+MHKx1zcYn6bgQKNSbXP0nSS9coIvGuQ8ljxfrvdQlDEN7tnN1PnVd/rnvf59nTQ5ZeRl8HDFhk4AgiglihSprSjdvynDXCtMYL0zh6+257Fa/wD14C7SaFR5RFx4ZgJ1Ypylk5fjlhpx08F1E8kglGOH39yexj//6i6m6MNgYyZKxJ4fYmMk2Qzrbugf+7MO4fkDBLOPbQURthpd/NtXP2GnCaRhWSaQBgTXI4PA6xTGrmeRB+zldqKYWG02ra9bjZgCTjxTLVORDa+IcNZbPHz94I2AKtRpLZ4mNwnS3C8hRcVt43Z5RQDCndI6JtJDFLIW4gJb/5ip0k2Zm7EY8JgeK7X0pRWNXnPSKaEWuUpWPCdW06kH28havkhtrG5TM7AzXgnQcvx4USffQy7kSgUCOX/CcIHvO+8R5oyJeerv+P6/wAMEC3Q991C7EYxL6MdZCQVGoLXTSJ/j49meMJXPKJwo/di9ytU8fwmZXqE4UisB1vljfAJeMtdqmyTFaB6Pq/P4ensRu+l9MXLKIsqip+KXQmUzk5eQTISMTX4WqqCZMNC6VE3NMFaO8Lv7c/jbB0uYjKmBoMIhNEBjSdDbZfAWXEmA4OMU6VkW5K/uchyLdhBjt53g//7yKbbqGdKoTGV0T+J/83aWAV6bUg9muxo3epYWglDIic12G7VWS1N50r6l0rkyifwG6fOsA3z9w6/+9iOglrlsZ6TqXNcMlZhXzFBMdzETPMOnsxv4aGILM+k2RoOWcBAMHeSEQ1/D91mCLvFoqG6OPk2ve/xLNrpv/9VP+UoTR7J2y7w26/PO3DSNrCgHVB/ZN0/R+k88od/eV4u1QybfkE/5Da/D0z1AUPtrmRB2dqmma47f9J/y3IznhPAlEsEaGPVjpjLePUaV7zDxO51oXQwIQOhPjvj2T4byVJBshJPYypbx1c4snjU+wHFwCy03quUwnt55pljHQwoUAhI05y6iX6G6nzpab2ddzFYi/M3DZfzm1gwmo1DWgUscwtgAguExjzPyDMI5lRcUdL9licH3MeQJKFmEvP1qqcq456iT4f/7fhUvDpqoJSHCYlntRH8mq/l+LkH2cacsI0gjuipqddIUtUZTuAcatXFAtOUs907vW1Dv58gMr+qNRkB2Tp7o2vOskUKCOKuinK3i9uhz/HpuB/fiTYxlx1r0cxliEg51OZpZtK1My3JKW5rVT4kplD5lkdG5NEe90dWdeFLvgHr5tb6r4SV64SuEnV7Fez4RgJ7jxnn6K7z6r/D3oP+b9mdlfAGhf4r0j68/qH7GKegbd4/vBvFWSF7XhLpkRQlKIL+uiONoAY9rN/H17hJ23H204jmk0t2notIKjFJE9J2QUjPVQWnERlDAojPTeaGWnNMUhbSBW2Mh/uXXD/BwfhIjBA+Gj9WKuq8p6R0695wJICia1xYl+ZukAclMyNB1AaoJ8Kdn2/hh4whVGjQQINBg4kRV6uovnNN/Qy2QiqQ5J4MASPUra3W7qDdbDARz960eOMiLfwPUF3z60Rm+4k1GwBcJxPzWACRZzl2EYmO8g7n4GR7NrOPTyiam3T4CStpy29EuKHv0qSl6AqxOTBNX8dsXQcjl6gz+UjZ5EA+UN7nLV+05L9+D4bjrHTLKixBlBX4bQZbuja1oAlvJIv59fQ4vWvdRj+8giStyEgbidBzJGg7BzEBbFULZoyCeDQHCgFLUqVi7y1p3DuW0hgcTIf71Nx/hzuQYih70X/CEeXcAAQHqaYAfNo/x52ebOGqzhbvIfItFzVeouHTug65QTyUxVQFPyIkuEGGkZov2uxTA6Qm6aPZgCBDO/VYM6hvm3D3OJW4arE6a7XPQQRQeY8w9x52RF/jtzBaWC7soZE3ONKsW6Jbm34atWHkvu3UtaPbXtPDFec78GAZ1zIbfezgC72gE8gyXAIRQuAipC9ByBVSjWfxUXcQf1hZwGH6MdjyPlB4MAaNihswUv4tV48C1LRMQSxZBt/3UeHkKJLhSK1kdn86X8U+fPcBipYSCeCtc/ONsAEF4ByczCMLwZKtjEKKZAs8PWviP75/joJUhi4sIZODI/HyfAYJGaEgpSs5wLpIsQjcDag0aM3U07fQzgGBo9ZpoRFz8dB+cT/TkLu2J5nwqmiYQHeIS9WHINjEbPMUXcxt4OL6LseQQJUYjPuIRLwb9iXwbAIFCvxeykdA8WcrX9QdnpIbfdDgC734EPEAQt1FpBWLDcYzjYATr3Xn8sD+PZ0f30C5+hDZGrBskMdCtAmdSbMg6Gji6ArKAgSO/O90Z+QnMNiiJf9Q18Ls70/i7T+5iphAjHliA4Lcg4yDIRuM7GVyAzVoH//7dM2wdd5DFJSDStEquLPju7+3lfIIYzXjXrUg6FujY2GB7I4FDEJ3QFOvxD07Wli7nyw8/9bJHgCZNkjGgtSu1Q7KSZpiCLlxEbfsEYXqE0fQZHk48xW/n9zGfbmEs6MiKVGc+zWBxY4qpf84fQwAiymgxCbMLQ4Bw2Xd8+PlXfQQ8t4JGqggLaAQl7GIKP9Tm8fhgCbvtD5AWbiKRbgXll4lEuiwvdiUxC8AOBbY+RMgYOEotkK6klikUN9IUE2Eb//jJTfz23hLG40hyEAOWQbAo2fgHmhCw9kUDCG0X4qDdxZ9+XMWz7Sq6rLnEJW3xeN+r7Ga4IRLKUYQkY/dCR6SVu+Jx6wFCb1nkWeWrvlKG3++dj0BGFyJJSSaIaO/sClaWSqyjgRtKG+V0EzcKP+CL2S08KG9h2tUQu0QAQqoMRPVuYAttrrPf63nntiPtjryiXDDpnV/e8AOGIzCQIyDbOrPmYRHH4ThWkjl8dbCAF42bOE5uwEXTCFwsGQMIp4DMM4IEb79MjQOuZwouMYvMU1P9F9jFJuJfQRezxRT/7bcf4aP5CVTYwTCYAKHX8qJ8Ra17auOG+rfXkgzfvtjGt8820USMLB6Bi3g4vucPGQrfwhMhofdCq4VOkoBW9gQOr5J9zZnC7/nwDC/vl0dARGekvS8zvQLfN02AoJorJAMX3BFm3U94MPoMv5s7wFy2jXJWFzEX2kQLUcqUBy2hcEIQR0qgZr0rEP8ywlnUMYIAACAASURBVJThZBiOwACMgG/1pKxyEyXsBXP4ob6Abw4WsZPeQjuYRhBWEKGILKHNM8WReRAkPVMR0URgZpAAQct90uZouiSihRB0caMC/I+/+RS3xssoksg4iADhZR6B31w4JHQrJEDoOODFXg3/9sdv0KZYUnFUdKslBfOeP4TMQl555tBOEtE/6CTUiVBCogCEl9IGQ4Dwnk+KN7w83y8eyg5ixgOSrmRMIsIa0hEUpA2MphuYxxP85cKOZBHGs33EIYGExC4yx2Qm9rUXq0GYYnoVWTnZ3/6GX3P4tOEIXJ8RYMDHcy2McYwxrHWXNHvQuoMjt4AsqggZMSAwSEtwrmjeCSkQ0u6Z6QECBC5jPQPVwMksntMMYUqJ5S4+Wqjgv/3Fx5grF1E40ZV0scN9BpKitvDpQ//0h74KPqmmN5Mn27Um/q9//wrHSYy0NGY9oJcEiS5wfD3uo0Z+q9NBo91GQl+G/uzBECBc4B0ZnI/yPdbi4ChyCB3ZXHS1maogeQpZgkJyhGms4JPxVXw2tY7FcB0ltNUmWoRr2Gutr1MpZkMNljkQgHAtpMsG5/4Pv+kVHAHtbkSL3INsBo+rS/j+4Cb23D00wmlpU9TFFQOZlhnCJDJOUAonymQsL5i6KVekLT4hLqYp4jRBJejii/uL+IdPbmNSCIqXwz+QXeJthZJ8MUEFI/oBgtk2iRUrW0GA43YX/+9XP2L1sIVOYQxZWDghE3kFp8K5fCVu8qSIkQNGcqLoH3C6RJTEfemuv/c1l3MZ0mvzJjJ3HEtxrGXyBG8D0qEQaEuUqQYKFyppYQx7WI6e4PPZFTwYXcWoq4owi1Q+jTBFY8gUqVqsUaWRNU8DB2zBGpYXrs30Gl7oKUfAdzFkcYQjN4a19hK+3lnEi/pdNOJb6Ibjqo5ovUaSFciYESggyGJkoXqp9AzECCTMcczyySQv0sFxKuzinz5/gE9vTqESBojIX7ikjPu5AwQ/QGrk5JDSeyB1+ObZFr5Z3UHNlVUgQvQQTnmXBunpfX0xBAW1Rl00EERekxwMS+nml+RJnvkv3ufBGaQbeQnfVVL+3EpipDzVJTXZEk13pgXE0c1AuXAMnEPJHWEqe4ZPJp7hV7OrmAr3UMjaJlNsQmZxIMRFZv74/gIQjDrkSYqXcLXDjxyOwJUfAWEShAFacQl76TSeHC3j+90b2E3uoRPPIwlGRPxIjadYCmyThYeAAIHlBumM7LHOvN8O25i9hQUl0UouwXI5xP/5u09we5r8AycA4bIOy7MBBDnkrH6Sm3do3V1MY8zvsZOFeL5bxf//eA37nUhqODwk33eAoFkC3nagWquj2enAhbzunjf4yZVhBk2/KE5+5dfS8AuedQQsBSkCW1QepXNcQAU2rjW2S5npqyQSUpKlEWXKRbhVeorPFzawVNrCqDtGOWUXhCYcgkKATATdjXfQb5csCGGYxjrrrRu+/v0cAa6MdhjhKJrAWnse324tYrV+B/XgFpJoEpkrS4lBNEbCtuiUUNk0yIpAVs79K7SdnSRjbWdkloH+RfTkYUah7Lr4bGEK//zZXcyNxpDepfcGIIieuyfmMb3JjS1AxwXYqnfwH9+vY73aRZclBg7I+xwkSwSoyC/NgKNaXToYtD/WM9JfXkxDgPB+bi+nvCoBCEpiSsWOkWuJ/dM8w1nfZF1TFdcybi5FHvotlJJ9zAXP8XB6Ax9MbGA+2sFo2kaBxFi+1gACMw5KTDRBd7P5lZrjKb/q8OnDEbgOI0CAUA9L2MYcHh8t4IedRRy6e2iHi8iCUfYTCbdOFmnYQAAF9BQ4c041TIR7YG6QBOqhS8W1UbyJBCCkqKCDf310H1/cnsJ4IUDMAJyt8n3i6Rc53m+dQZB4QwIO9cUWH/G8BmP/yM0rALoIcNDO8OWzbTzZPEY7KCCla1W+G2nk4gUEld3fq9b4ARmozcuMdsSgKUlRrddF/0A4CHJ5r2KeDAHCRU7+K/tZYp2r6yMz9nOYpWoOQ/JTxq7oUMsMPOkLXGcdhJ0qJrJN3Kqs4ZO5TdwqrWMqq6KYMIUgQm0WuWTyMt8xI502gmV71r5XdmyGX2w4AucwAnqWqBqPKvvSDEk5AiqI5G3IFUST7HscTuCn7k18szuL9foy2tEtdINJpCiDngyaQUgRhE3RMtA3L8AR1NOLQTmK2tkW6bnJ7J7IB4kwWgeTUYr/+bef4t7ECEpBhlB+NOt8GY+3BwjW5y+d1oHquMvhp1jJPMQ58EASBGikDk+3D/DHxyuouwK6kQomeWc5uWGJetmTcq1WmHqYevSlfxuQNGheXghEIKnWaLAb1jIsTBv10sR5areHkIax3GWshiv1mbaFydpitMETnq0IZsloHgp5jyKzDEkbI24Xc9EKPppex4cTm5jL9lFJ24jEE4REKUXislmZa2jKbgdpeVTHuIEC4lfqng2/zCCMgFbTzHaZaoe2rmJL90tHcBRKllt4dFmAritgP7qBP+zfwrPaDVSTWR7n6KICx/Z9R3BADgIXVlcIxcoT4prVHyECi2iSdS9wvaWhCiTRyClo48H8GP7HFw8wV4wQs7QoJYbIsggXP7pnAAgOTmQhVdaVBAzfhCUml3LRal/JOmrLOWweVvEf3z3BXjtAJ64gjehRYNGMSlSpuFBINOZvkG5Xgp9k8xoMgKBZkFC6ONi9QJEkzR7oFRAVivSmkROVtGK4YDAu8eJn67X9xP4J8brjW2uaRXeEcazh9sgKPp3ZwXK4hUlXRUE6IEyDQ8CAEaaouEhbcrZCWkJiCBCu7US7FheuW622+1KTRm2ZA3iAILEvwUGk+3fXRWgHE1jp3MT/2rmHneQW2tkIkqyIhJoHIb0XVDlR931p9JcMAcsGss8z6yfnZNes26mcGMsPA+MoSFCJO/irh7fwDx8sYkyOD3qu0O1xIAGCKADJqe1136V9yn48QHAiKQl0AmC/3sRXT17g2UEDzWgULi4gSdVcRjYsSsqay2EOEHoy8QMV2XiAQIOmRqspGgisJIOkMyJHSREPAcK12JEu7CIzRGhixG1jLnyORzNb+LCyiflwH0XXlg1L5qBfoxJFmUWDtEP2AYcL+87DDxqOwMWOgM8gqH+ZtuWLgqEZm0kJQKLSCF0XivlSNVzA13uz+P7oAQ7dEqF4/sPMATsYSCo2hRLjDZkSkNCIIkskJFKGkDWYEiBEcEkXpSjF3AjwL188wKdz4yiRmxDQxCnUDMLAcRBkFAVrCQAgK1P9r9UcRnuslbRIW8wkBOrdBD+u7+DrF1s4JOuzUDLTJusPpeCU4S7NpGrErcISg5X6zAFCmqHWbKLd7UqUlte7hgDhYneFa/FpnHVdxMwiZC/wwdgqPp/ZxO3SNspJDTGzBUaelXVqWQS+SsC9WNkOH8MRuAYjIC7EzJx5y3Mn9X5LVNthQ4BQQC2axkp7CX/anMJG8x5a4byWFUJ6LSg4IAdB/XVMu9w8GAR+CDlRDZyUU6REhMjKCy7roIgOHt2Ywj99dgfLlZJkM9i9FLIULT4Og8hBME6dLzEQIPDKBUf1AQQtMwAtl2HjoIY/PFnHej1BVihLKsc/9DXEHcZpkHqpNJbmIGFQdjDdakNxbiT/gH8SIEgHg5HQhhmEa7ARXeglEqxzQ2qh4rawED7Fr+fW8OHoJibTI5SDxNvCCBhQf3o1YNDuGl2/w8dwBN73EZACgGQPgCiXINcgl7+jvTJD3RZGsRss4su9OXFsPE6XkYZTQERtA4KDGJmLlMcgRELLP0jnUaIlcQMIas5EQTJ2N4SgsKKSjzsouzb+8dN7+MsPFjFOcybPPTKumiqWXPzjDBwEn4dRgpNcuAEEUjtIghIxRVpaygYEdAPgoNnGV8938MPWMZpkZ8ZEYUq+ikxcSjQUZCCVk6UHqYKEQVF787kUtjZW6w3Rz5cMAqfMECBc/Ey/Jp+YSriSoOSOMZE8xcOJn/BoagNLwR5Gw64Sp0zzQNapYYIeQLgmAzW8zGs9ApL8N2I9AQL7goRCKMRd1v0ZqBZwHEzhWWsRf9hZwGb7LtpuDgjHVFaZXDkCBPFVIECwA8ybDIg0umYQWGr3uiY+6GWLY5Qx49fEfCXAf/31h3g4N4WiEYkJVphBUIbEIAIEa9nwB7k18WnsnFvLqqwwn8PBr3czPNk6wp9e7OCwkyGLYyQmSRyHrLXwTilzOyfumTSsliwGY157gNDudFFtNCydZQBBrmfIQRiMOzlY31L85UMnm04lWcdy9CM+ndnAB+UdTAZVajMiYJaBsDwvMWir14AsrcG6IcNve/VGwDwV9Igi/0BbHCXQtUWQZQE6KGMnmMdXh7P49vAWqsEDpG4cCMpWSCesiJSKR3AgrYq6ttQmTbWAtGxBgBAjY1BsQnhi5c51ijYe3ZjGPz68gxtjFFWyfkiBBRHCS1ybb59BsGINAxIPEHS4zadQ+AneP1ZTmCxFtFOHjWoLf3y2jfXDGjpBjER8s0NEEZ2w+Bp1rfMAQbYuyyIMEkBg5qTd6aDWbClatQyC6XEOSYpXb+sY+G8keTyRZ01QdoeYTJ7iwdgaPpvdw2ywhUrQlPSl7Gqys/kuLM3SXU6lc+CHfXgBgzQCVkqTrjIBB3pq8XxSbZAA3SxCPZzEs84C/rQ3i7XOB2iFd5BlI1QcM4BgjDtflRN9G9/B4MGBFd6ZYaBWgivIgpPSQ9BBAQ3MFzP87f3b+PXNeRFHokaCGKwJOOBzL+9xNoBg39uPj2ogKHKg57UUX8xNjr+1pg8cdFJ8u7aHH9Z3UEuANC4JyYPlCLGkNRMLqdXk4EATLf1Zhcsbtv/8k+UqMoi8Mj0YBE8KwlRugrr1eXGovmyJztDhYzgCbzUC4rDKlGlI6lQDI8kGlqLn+PXSLm6V1zCBQ5QoXZY5uFR1EZh1IICX9uQBIwO/1SANX3StR8C3yusJ1UsbaPBJddIQLTeCPczjm+N5fHd8A4e4hw7m4VDSgz7v1/NDSb0CPeU0a+D/9KVyXWguK2pgKGdcE8WwiYfTFfyXh3dxZ3IMhSBFImqMhAexdrtdIkI4V4Dgh0rHyROeTl4dD8qGA17s1fDnZ2vYbXTRDktIggIiskJFb159s/UEJcrjgapISngOlzhgb7qyXgkQzFVPmjn7eBVyVUMdhDcd2uHzfmEESPTVZcMNqo1SdoQprODDqed4NLeFOWxhJGsiFnDqpFOI2S1p3x7qIAzn1jUYgX4tHc2Ae1l8ZdElLsaxm5LOhS/357Ga3EU7uImumxArZ+Hr9D18UGzSiTlRMf8c4aaHYNkCWcH2frb31zEWt/HXdxfxd/dvYapIxcVEOv609BEiZoujBJaX8zgjQNBQ9+WAVyJ9c5t7+TwntuoEAfabHXz50xqe7RyhEZSQRqy9MIPgSwweIDAgMoMa4SDkYffljNgbfupJgNDSDEIOEDz/YKiD8IbDOXzaG46AdgJxh2GJroNC0MZItoGl4mN8vriJe+UtjKZHGBHyFAGCmonxIdvkYODvNxyN4dOGI/DqEdB5roDAl355tqQI0XYl7CQL+P7ohmQPDoK7SMN5pFnJuAYmxOi7fkzsride7k9FK1kwOycAgR8WKzGYTquoY2E8wD8/vIPPluZQNnIiM80sT9P+ObI2x8tKI5wBIPS6Fl6mNwkho08YsP8W8feMWOppih83dvHls3XUshK6URlpFiKM+FpVfVO1qwCO5jSmdjVwAKHdNpEklZxmTyvHZ5hBGG5d72IENIOgACEIU4RhgkK2jwn8iA8nV/Dr2T3MuB2MuJbJN2t0colByrsYhuF7DkfgtSPgA1oSE/nwAEEF/WLUskk8by7h6/0bWGvfQSO+hQyjYpQmZW9f+rauPfUX6G+x+3nEz30/E6Vg8groP9BEJWzj0fIk/v7hHSyPFhFL5x5fS02FXrlP3Rwv5/GWAEHLB9oxqt4LPgZR7KTkj5cfVuJBigwd57Bdb+MPT1aw1chQT8mvjhFyp7ISg5YTBhcgpCk5CO0eB8EyCGqKM+xiuJwp/55/as4YzhBGlHbNELkaKukalqKn+N3irggnVdwRItc1eWWBrJ7u854P0PDyrvMI+IyB8HSMSdDrOwjQDEawm8zi+8Mb+OH4Ng5xF93CLJKEZxNfoV4K+ngNWcxIjxr18zwzCwG2/ktGgC6OTSxVAvz+w5v4/NYcRkO2NAKpgJZIMgc8C0VheLABgsoj60M50Nrid9I1oVdid8iyVFLutQz4buMA367u4rjLWqi4X6uJjKlayfgOaAbhZwBBhojtLkOp5eu8Sb3LazfdI9lsSISSjJtropQdYiZ5js+n1/BwahuT4TZKYRt0k44S7dUWMD5sYzj323MWzvHlxY7nPgxX4g0lLy1ZXAUInP/W9IsE5B6M43lzHl/v38Ra9wGa4RLSoEK7BA2GeWi/FiD0B8pKRlcSZM+WQOdCF8WgjY/nxvEvj+5hebyMmJw7UhQywgNVT5RMg5g1mbHfJYzgW2YQFAZoBsEDhN7geMHWvDTTd2F6zcwhOLSCEBu1Nv7j8Qp2ax10RJGKmtW6Ucnr2R5iddW8iyG/QZcwYm/4kRyDNHNotLWLQfgp3KtFOdIyCOZ6OSQpvuGgDp/2n46ATyBoySBRB8c0QcF1MZ5s4F75KT5b2MRSeQNjqKPoaDmbwWW0jOa6Gx5J/+kgv+ETOJLGGX39K3qtXz97jpBG7beva+/2VHBNc2vEKdvmG37H6/Y06aRjpB6qgmIskgMEDDFaroytdAZfHy3hx9o9HLgHSIIJMXPi83lqRaHaASi3ro+e6NPj+eD3PUfIvyyTOyToIHBNTJYy/PW9ZfztvZsYi5kxUPMoFWlSOr62TPLX1Ae6nDt6BoCgIKGXZjlZZvD/2j8B/RhyMyK86IYhDrsZHm/s4vHKNupdJ5oIacgftXuW25D5XlWt9QyCFoJIZWQO9VYbzTYBgjFlva+32H/6MbMuht7/vW7rdni95zQCChA4kVTqVTYasZUNUE73MRN8h09m1/DxzBZmcIhy1kHkUnVmleV2ORvROV3+u32bE6mAV49TP3NdWuZs09cw6s1yCb0aucag+cOCUZ+11j3Wvkffpqi75pt91rsdsKv37jxy2SXAA58kQAKEiIaCroA6pvC4Pov/2F/GtvsYDdwG2JaIDEkMpBHXkmbbVIFUgz3tgrCstwWvfvzVhyFAjCJUIbiJMK3iweI4/unRR7g7OsrGSeUAiVaOeqLkHDwTS7oshZIzAoS3mwDSf81qThih4Rx2ak38+cmq+DR0qPVGXYSQhBDFz70bYiSOAdjDCBASZhBeAghMF/VLLesIameGSSP0SlxvN7zDV13jEVAF0h541w0qRJhFKKQ1jOFH3B77Eb9e3MFyYQ+jaR2RS2TzukzFtqt+y14OhfJw6KU0aY7x7S8CEHKDrJdDe5OifSnk708qnEiWvmrfy8vhHj1Y9mDYjvLKKcXhkmyAuDI7xJKhjkT34AAL+PP+NL6p3sZh8ABdLMq6oSpiFgdIzT8gb6TzXAMBCQTmfpZYgd06JYQ4jBiBSxEGdREr+/2j+/jt3WVMRxEKmirvcYCkRdm6+Awg9HJJF7tSLgcgsL0qI7qm91yAWpLi6da+WEHXskhaHrPI1KqoF0CFK+e1AgxqXew4nfrThgDh1EM2fMGZR8ADTa2wimIbox2W6LIYUdZEGS8wX/gOv1pYx/3RfUy5IxRdF86liC5R0vXMl/4O38DzOny21O9Ar5MukePBB/Y5/tcD4MTDt3rJ+aBpZd8ql2cG8hfYv/m36S8lGEjoT0DKuw1AIPUOb9trAYKnBWiShW2NRVSjabxozeHPO1PYSO+jHtxG6iYRZlxDGbKQP313JW8H7g1yr7ij55V/6DyheGAXRdfA7aky/uW3n+DG2AgqIQsIvP0+w6zcIdUC0nuu2YPLIQddDkAgimOZQZA1XR6d6CL8+/dPsFHtoBsyg1DUdg9LzfXQ2RAgXPSiGn7eoIyApAvUxwQx4IoSJTGVGqYhwqCLArYxGX2HD6ee4tPpfcwHByhlHVANQROmw8fLI/A6gCDnup0DmmY2wrqZAKnRHFPYlpL249ufIuhhgryN3mcSeyDjZ8ii7z71HUR9ZYXLqlkPwuyxwrVkcpMgQhUj2Avm8cfdSfxUW0Y1eoAO5uDciCV3mfFmRG+cuBzM2a8scaBz4efnk3gUBQmCpIm5AvD7T+7hszsLGI0CxMI9kLqCgABdgwoQVI5Zf39tAIJUV6Trgz0fev2sltazDN+t7+K7tW0cddjRwMoMlaVUHEn7Tz0svvrb2DCDMAhbxfv2HRUg8FTKuHayIugYFzpayvLI6KIQ7mMqfIz7E0/w6cwe5t0+SmkLRbKzh3Xr10advWj8ZGyvO5GBA8sWeN6B7lfKlOePf/wSO6A/C9ADJi9/rf79z6cPfA+9fRvxGHjf5vf5XE9egWMZOCjgMKhgNZnD/7M6iV18jCaFkUBTJg1QuZ68iJh0LNrvtEOovwSuCrlsGvaOjarbkwCugUJSxxe3l/GPj+5hvlJERE4CgQe1f6yzTfsVeDbyXcxqQErt1ySDIDUg6sCbkhvrnmT2tx2w2+zg6+ebeLZ9LGmfNCxoq0ifcdOrENr5TJvzfZchQDjf8Ry+25uMgAcIPJgiqa1K3VPIipyRHRSxi7niT3g0u477lU1MJ/soph2UIpby3uQzrt9zXn9Qn8y49KeVDTf8DBX0n9k+Ja0Utx5Ay/kNEg8pyfQkuuhBOR+09ngn/jt5ldbrd7/e5Iolgx+QV8Dywiiet+fwbysz2HWP0AruSGuj8MKso048SjjIEtdquZvnkgIHJdKrv45ZP1uLo5TH2bmQHWOmmOK///bXeDg/gYpAjxQp2xuls02cUKxbwQMS6xD0egpvcmHn/JwLLzH4NJx4LkhaU5EvUz2N1OHZ7jH+/GQdh212NBSQiTiFojhdBINTYkgzoN5qnehiEJKipCbNsElu6JCkeM7z+pq+XW8eqd26RiPciFyQInJVjLh13Kqs4teLe7gRrmGse4RiliIOQ+koHj5ePQInQILUDjQ74HX5vZq/CNvkpRqFAL6zRKNPfbwquO/f2fKtjs/09W65n/7FChr6v5cvTfD3w+zB62eyVQSkxEDtnU40ho10Fv9rcx4vGvfRCD9EilFkAXkHambG9gKxhZYxZzfCywBBHM/Uq0HOKw/7mMFrYzRs4NPlafzTJw8wUyqiwLJfmMpnyHmQZwn0E+Sk83PpEhfmhQMEmdRWYhBBJFFEIGExROIiHDa7+G51B0/W91HLAqRRQf6NVtB8ndeNv+obGSdJ4iBdDI1WK29zpGOlgIR+Qa4hQLjqt3Ngvp83/aKMLMsLUspjxjMkQWoXM8ELfDy1jY8mNzGLHVSyBiKWIbgJ9YjwA3O9l/FF/QGjrct24AdWKZbUsKb5vda/ggSqy9reZ/kcTz/w+QEVt9KHVlMtKPIiPULYJkhQr5uc/5ATEn3NWjfZYULo1bNDEvfWfkrdnW5QxAFm8EP9Fr7aXsKB+xAtNynnDtP/grVdjChg2U5cdZBFqaiU6kHODAL5A7GEvITkgRouIMwSFF0bd6eL+PtHd3F3agJlBCgIL0HLgZ67IBYFfcZRwj6QW3p5d/JSAIIgb1F503SN/i8NKiK0M4eNgzq+fraB9eMGuiFLDTECtj3KjeoxhC9jc3jTzxShJAKEdlu0EJTiwgVOlSzafvanAIcZhDcd1+HzfnkEfDaa9c0wS/WYkv2ljkq2irvlFfxqmnLLG5hw+ygGav1MtzmNeoaPV41AL15XJT6ViPOqfORVqVw11e+4qUueUAazHwb0Xif3RUNHzTjYczWLoHdBQqccNPjsQd/Bn58b1mYn4jrGijAAcXlHy9WdR74sQ0MkOXeCEDWMY6VzE3/eXcRK8x4aWEQajACSwSbkox4Cy3YJXJgYQNCzywMEhAVxbKQ8AjVIQpcgdgkmI4e/vL+EL+4uYrxYEO4BYUQUSK+R3nvjLqi7qt41+WQBhZc3lpcEEDRrYCWdHDEzl5MgQLXdxZNNIyx2KVBRQsqaqoGEQYDGAhAQoNnuoN5qSjZBCS8KEFQd0t/4IUC4vCXwfn2yVS9FujVMRfvNIpk9TLmf8NnUBh5N7mAu2EQZVVVw83rvBAiXuRtd4VvhAULeYSAHixLWBChYGUAP+F4pQM99tawXACavUVKaRqZWYcy56qrJr4ls7pM+StVXKWHO61nZBkLAYoeI75wQkDJ05nztjJKzxziAvGNsAN5zC/jueAnf7N/AkbuNJJwBUBI3YQIEhW7MHCTS9igZBNFT0DqEC6gEHCCMtaUxSluoIMOD+Un8/uEt3JqoIIrUayhzdB4CCqKmKyIKudQ5AQLvrLISLreofkkAwbIG1g4kd9GkK6mPwCzCfrOJb1c2hZNQz2Jk1EYQ0uJgxDgeILS7CWqNBrpM9WquV7cP61HXGTwECFf4bBior6YmaQEi9mxTIVEUO1sopRtYip/gLxZ2cLe0iUm3jxhtTXb7KHUIEF5/oBi+9zmB3p+aCSDfSHrZyXwXnpGBAMcUdozUMf2sgIK0UQ/kpJnLKgPUoZCoUUAAo8yECXBJRYeMOqUbhWGHcreYxvbZBr3tHiVouWOolfTLS5dkedMnQpdKivEMfmou4g/bc9jq3kE7vAkEY8hS3pXY7qvyeTIaoXkpZO7lDG6zAFEpRua6iF0HxW4dy2Nl/NVHd/HJ4jQqBAeRFtV9+YAgQbIE9lWJIzVDpTBTnneJ7ceXABByiogtEmNGGdoVhUUHtLIMq/vH+PKnNWxUu8hGJtClnnVfCu4q79w+ddVJEhzX60hYD86JKIoae+zkIUC4yvdyoL6bAQStgaaCPePsGFN4jvujz/Cb2W3MuU2MBg1ErKXy4CFTECOQ+QAAIABJREFUuy+LMFDXe0Fflpt2XjIwBqGP/pko5uHArisqTXSDEhJXEHda9o00sxjtrCCGP0nq0E2d/J3BEAGd/MezIwgQs+zNvyNDuZCgUkhRjFIUgwwFUBa7jShrI0RXeuhDyVMa3HiJw3CJmekLuitn+5iURHmxVZaCADohyYrz+NPePH6q30IV95BhGikBAgM7rhNJCKloknaYEIix9BCKZ0NUjJC5FgpZE5NBF1/cXsDv7t/CXLkoJYU05PmmCo6a5SEgFMaJhop90tzM5l1DgOCrd5pEkbYQQ+dakyOkztB1DsedDN+u7uC7jSMco8jloTaYv5hF6M8wXN4S0dpviE6a4rhWRzdlakojC9kQhgDhbKt7+Gofc5wYCXbH+NbgLFA/hnKyjeXCE3w2u4YHoxsYT/ZQYjGPxDrPA7IIeFhhePXEsmpz386jcTwzA+y26qCMhhtBLRvBUVLGcaeIeidGM4lR78ZIMlWGldg/0Lo29wdJLMrJoDkHHhjSSe9SFIIOylEX5UKKsWKKsUIHY8U2KlETI2EL5aAlu2LMiFWOOFp7q6eG9t8Pha9evpt61qgFs0byaoVE7gDB3EEwh+9qS/j28AZ2kg/QcbNIXUFQm/cGktslAME0EFKqltJkkHeQNusdjKCFD2fG8PsHN3F3YhRlIxvQB4J8lSiIEPkak8idKkiQHgbh2fXKfdcsg6AAQWmJdunk85httjBEXSa4mPpue40O/vTTFl7sN9ASp0em8Hz07Rm9vq/Hk0aUGORvqCZ0LpbVmwOELMNxtYZuwn5XbdkUIpGP9DyRSTo6ho/hCPgR8HPE5xf9EZXHGjarTxaapR7qWJNmlMODo47RZBX3R55LeWEpWkPZVUWpjZFqTJEWpuwu2Xf+wu57nsvt1f7ls1/RwdFTy1XugG/MJihgexy1WugA2MhGcNAp4rBTxkG7jKNOGfVsDB2MIsUIuimjyhgulISy7AOBlSJySqLcXpYQWL9WUyBmCSJHd5omCmhhJGygEjcwGjcwOdLF3HiGimj7N1AJWii7NoqOu6Yy7KUHX8oVnrjYo0z2bzbGkdNh6I+p3mRD6h/PC7uJb/9B/dcqpwRJpWK1G8p9Oo4n8SJZxFd7C1hp3EXdLSELxxFEMdKUYxoLuUN2a59BEAKIz22niIMOFioh/vrDZXx+YwaTBOIEJAx+2Y3Hp0rbZK9bhYtRgaEnLAYgYZGPawYQhNLTkwb52SR0Us+TZpKQXQ3AJrsafvwJm7UWGlEJLiohdDFCOmcHRPEUtOBo81Xmba/DrQKyVIkzZP72U+t0rxQsGEVod7uoSgaBoMeoJwQ5kj3pa2vq0+72rWqn+8Ths9+rEWDaUshRWkxWSptl30TBzRPU+hYQf58GyFJHPi+CoIUCdjCRPsNv5/bxaHwHk24LcdjQA4RMaar85bLv70kXwy8kDjUw0Q1auUB6SChp2pdaRJ1FSgDahBAhCyK0pSWuBFLPqskY9lsj2KkXsdcqoYZRtF0FnaCCLoFBVoYL+FMUVUv51Lyf3TvVnpyxOWlZ9gXdJ+ESMdOKsi7irI0oaCMMW3IPi2EVY1EV85UmblbaWCw01MI7qwNBB2GYIKSYjwWoeVXb5o7wVXxw5iNif0gZajq5PfdS4YapeijLKwwOyCIU+qctrygNBCSQ8VENK9gJZvDD0Ry+31/EcXAfSbiIrFtGkjiEBQI9bXUM9TSHy7TMwxZIlobGogyf31vEXz24iZk4QBkpIgaHAgo1rdPz8bBmWG/x7NPpZhXux/mycuGXwEGQ1WkAwTIJPoq2ZcFajjSCCFnDodFJ8Wx1E9+tbeLAxWgHJURhyRQsQgQR0R/bT5TAoyRgBQiSzpOMg2lbX9AElqkTFdDpdlGrNaTEQIBA0hi1EHKnSk8mylei8REu6HsOP+ZqjoCw3nN5VWOuW0uwyeNoVizPPOkEUkY1QxZuSscYcS+wXFrBF7OHuBtto4IjhFFbrGu5v8WZU4AgS+Z6AAQdp5c5QJrUY+ubFpZ1JxFuQVZEK6igHo6ino7goFnGdq2M3eYojrNJtKNJtIMRJCghC4pAUAAyuvexrKD7z9t3h3iCYoYgI72RXCZmI7sIgyZid4Sx8BCz0RHm4yoWSl1Mj7QwUqijFNRQdE1ELEEYx0FvtNXO1WrS1AIZ4Rp5Lm+77J8PP08t6G96UY4SZAflQT6ABv4ECMRiSRCiFbLMMC7GTd/vzWOze19tn9MJZEkkro5CTmS2R0iKKmgTE2l32AuR4qOlGfzVJx9geaKMSkB4yHOJH6YaOIP0uBSA4LUP/EbXL1FqFTg53CkQmzA144Bqs43Ha9t4vH2IWhIiDSKE7GywzgCWJSQ6sCyClhgYpZuetiz3N8mZnc/tE4AQxgJc6vUm2M3gWcy93lpLTJmet37yECCczx0Y5HfRyKTXsePBgmepKzDoK2BbajiAk7CIPJc2CsEOJoIf8XB6HZ9N7GM225G6dSAKbh4gaPrzvQII/ta/4rzyhTzlANkQW3lBOAHWMpgEVHKNhFvQTCZx0JnCemMUe80Sjpsl1LJxdIIpJNEkOlGZxQAJaHTsI7UJlnvh68mnn48qlKSCV9rFoP41/vesd0cUwAqbKKbHKKZHGA2amC41sTjexFz5AFPhAUbDOso0CyK4EMth+kMQGFLgR2hgQroTt0JmlPKv2l93+QWA8Mpsw+mv96Jf4b0UVHWSar4BOkGMeljBdjKH7w/n8LR2B8fZPTghK7Kbrjc6sv4YeIYpwqyDYtbGjbES/uHzj3BndhyVkPCQ4IBjHiMMhgDhje6xJWb0wM5T/8ob0OSaqlGxdCAq8pK+ctittfHtiy2s7FfRSBxcoQRH50ch+pigxAnfBpO/NMnZPuGBN/qeZ3mSlpLIbs7QaLbQ6nSFnKIqW158Qz8h9xf3AGbIRzjL0L8Hr2WPtZbLtBTF+UJfBb85+SZaPTB6D6bI+VyHKGyi5NawVPgen81t4sORXUxkR+Tba72dhwRLornToEbNFwehL+A2vTKgtSs0J9l+OUKuV+qtdFyAdlRAO6rgqFPBdnUSm/VpbLUn0XSTSFhKcBV0gxFk0QgQF5CIuL+m8wk+Qml9U7AmedK30D7W9njjI/BglxZH3UMo7qN7CcX+CB5aQNpAnDUwggam4xoWRw6xMLKPmeIRJuMmyiFLFGRyJSi4DHGfmiszSgIaT8g09wCCsRjsplm2qu8WDtS88Sl+q9TJrKdpoEj+h+gEJRy6STypz+Pbg9vYSe6j62aQOpa3i0IiFCAoGD1BjC6K6GKuHOIvPlzCr26bU6O8rw4ywQFL4sMMwhus+x5w97VU6+e1FJVJgki7o6BbAwndzGH9oIHvXmxg47iOVhDDxVLhETAngy8YQ+MEqTHm9dUTYfobfMuzPUUXDOWjnXgxNFsdqyL7WmRfqkm+mo2KDxLP9vHDVw/0CBAg8CDnzI/gyKJ2RnCTc5y/T9QzPiffmlGMRKwJCqiikj3Dh6NP8PnMBm5EO0Jkk5KEzTECBFX908dAbfJvfX/1KpVEbGx/u3iCq05WQjOo4Bij2G6PYr06iu3qFI6SObTiOSThmHALsqAk+44qEhg4sCylV9YLeM/YpeVFdU75nXP9HEahfRoIWq7gZ6swD9vvaCcM10Xguii4LkppExW3i6nCDuZHjrA42sBcuYGxuAoyJkpU+WNmwrooJG1u22feVtYPPX9BdMmHdqe8vMt9Oq9Hla4gg0CAIO2+EJBYj8aw2p3Hn/eWsdK8j1o2jzSYAIIiAiomynZNdYQUhbQDUlJ/92AZXzxYwHSpgFg0SEgWVeBNUir774YA4Q1ue19mL9cUz2MX4wUJRUdungEECbUD1NspXuwe4rvVLey3U7SDWASUUqb0BCC8VOOx9iHJQVxgiUznj9YxW52OZBGUBc3rUKGUHkXRZ1Ku00b9BhPl2j5FDxyZr8wIECD4xK/MYbYoMrfGiNI3TxvxVcBDC6VsB7Phc3w2sYJPxtYxHeyhFCWq/ic8KbLlFUTnbOprMN7m0KsmPDZ0ihhCdLMS6uk4dpNJrDXGsdGcxEEyh1o6i5YbQxqTdFiQHzHlsRZtseyVe6H8J3Hlk24SBXXiRutP4lOMsZKV5STzuotGTtV6Nv0BlPzIA4j8pq58D6pjRgmJjVWUggOMBvuYLhxgeayKmxN1TBcOUXHkJ1BXQYq0J7wjfL9X/3b5OtEl/YbKwL/A7fUUo/iap0pwb9+YAI6cYD5VhKsCdOIydjCHbw6X8d3BLRxkt9EN55BlRTjpZCD3PUXYbWE6Bh4tzuAvP1zCXKWIUkgjJiUVM2ss4njsXDGp/bN/+Yt7h0viIPTabWT8RM/ahzGc6F5gVDXixe+KtUESRV2AaqeLHzf38HhzF4edTJTKEi5GUVr0Ykp+uvbVcy9wBnuAQLTf7nRRbzYlIyJMiNy+s+8LGbNYzoSLu//DT7qSI+BnAFcGo1BLVcsi4anO7ELXNEOYBfAgghEKmetHGM3WcKe0is8nVnG3sIFxVFEoZpLRkrS1XbevxUsG/FqYNVl/gCYXzQMmRtexNXEc281JPK+NY701jSO3hHY0jw7GRQSHfUhK9uAewzHXrgdZ1WbOI/hfE/VWGrIVfeq9p2/f8rwkk2nmfAhkXsQiFyygxLJKnBc+9CAvPw7aiLMjFNMdzMR7WB47xAfTLEHsgXmSkuugIJbgugd7+Wi9jrwJ85WqjH4W+dn6y/o0V2yhCSPVA4S01zBkoJlnylE4iZ+aN/Hl9gK20o9QczfgshHVO+A4O+oddPDR7CR+/9Ft3JmsoCh4jVoIlnLxYlgMXOmYOmBCI5cCECyjd2LGnAAICulzhqzCBa25EbV3MoejTgffr23hh/Ud1NNQxEpcyPpQhDiIERFYUPPaay70B+wXNFcljUk0mqQCELoZEaXOS0019QME/VJDgHBBN+eKf4z3lvf+8gIqJatA9nSiUamUGHgcFZUxL2FQE8VgF3PRc3w8toZHo6tYdFtgcx414hVsez97nZ/CQzBd+ovMsp3pFvTj///0jfTJ+ZFrrX2UJmGpoJ1NoJrOYK0+jmfVCnazGRwHM2gFM0iiMUC6EXg6M1NgAMELvNk781DwvfEn9FfknOjvmPhPv6yPlE6UHTXzwyNYZX+FjyIKfv4gJ3ghEVFLU45lB2n5JnehI2qaJXeIiWAPi6U93Js+xI3KAUZxiBESWq2zgZ9DhUHun4SlBEA946neBuUzB/1XM0gAwe/Ncs9EM0LH0dukk4vQCCvYyujNsIgfqw9wkN5FhnEZ2yyroxh2cHtmFH91/yY+mpnCVBwKAVQ5PrafezKsfMDgKVddCYCQH5MnQmdF5l7vWtehtj+mGTnaDjvVOn5Y28HzvUM0M6qWR4iisthucoMlQJDeATmLTw3h33Qlv/J5PoPAf0wyh1qjiU7StQyCGre8GiDkndpn+vzhiwd4BIQ46P3lmXGy8pj8yYPA9yVqOpQtdciYPQsRBw2UszXcLD3F59NruF9cw5Q7QIEHh7eOCxQoUIiFoDvmErkGAEGSvozoTEKScsgtN4Xd9gJWqwt40ZjETjKBejSBTlhBGmpJob82qbwmEtSspCOngR6XslcZSVr4A1zmwoF6G4BgFBRfQRLZFFNfFMJqj4BNYST11CA44N/tGiUroN1b5CbEZNqnVYy6bcwV13B/ZlcyChM4RkX8AzIhKhIgUH6bQlqhOH36EoTtob4MnMtP61obJIDATLRpisl4CfQymhrBQ+Jo4FRALZrF88Yy/rh9G5vte8ho4BQyCG1hdizEbz68iU+X5jARBajY+d9ra1UZZwH7lxCgnscOeGkAoZdIf93BzVKDLjj/kGVorUNknLbTDNu1Jr55sY4XO4fohgUEUcXct9THm+oDQWw1/wvM3Yv3uyQ+tDRSazbRarfVY9wkl0/cQCuAaQZhQGfTeczI4XvI0hBegM1XyRb0gQQVTjK+DV3kUrY3kgJFd7hjjKXP8dHEc3w+u4bFYA2jWY2aXZbe1MNMIkVJs4eI2fLmBXMGZfxf3jZeubZPPolrUvaEgJa6MZrBODZbc3h2THCwjL1sEc1gEikzkXk+zyJ3H/zJhq/lA/4puiZ5RUhBggIFzdIoQb7fufUUA+y1MEwOuyegZruEfK52tOg+6RnZ/DX5Dz5vYt0VNBPKUhQyyjptYK60gjuTO7gzfozZsC7ExiiiWgvfT9tfWcOgoJ/2llmGUwSlVDejvx46SDwEDxCktVMyBwYQ1PtU3Hfb0s0yjj23jD9sLOFZ9RYa2SzCqIj58RJ+8+AmPr41j7EYKIeBaE2Yebd1OdD+u2+MLjZGPcVEe/1TLwkgeD8GxZ0nIum+GryUFgQk6ArU+WpeBmxJcQ6tzGHt4Fg6G7arTXSoeR6VAJIXbSNkSuiiD90eQNDealo+1xtNXWaR1i9PsHosChkChHOZ1wP/JqL8mXe2+EPHEwzVCJaRiSP6ZJ+v9MknKLs9zEcr+NXsBj6aWMNktoNS0EEk3F0TxjEwkBMWPSAZJA7CWwAEDhV73bthCU2MYbs1iR+PprHSWsIebqMVLiBBRQiGtMrm+JOFzkyLehvwnniA4P/0mR6bcgIMDCBY+1zP1v0009IfyZ503aekKRkB6/ySt+xT2JSNsieypeRIPp+sTOoz8Aijz8MRSuka5gqr+GDqAHfHqpiNj1EOm1KSkL1XuhzoG6AW1H4X7RkK+Tml1zVIAIH7L42TZKio/SCKogxKjW4aslgTiPlWLZjD48MbeLy/gMN0AaOVOXx+/x4e3b6B8SLz1SzJmIS+nGh6Rkn2IJ+nA4gOpCFQWTYX+DCiVQ49+7FpD/Mq9vVAQrMIsiSYFzJON785udzNLMPmYQ3fr2xj87iBNmuGcVHbJC0DKKJJF6hi1Z9B4CxptjtSZhBNB+rfS/7RD7tVR43XctFg5gJv/vCjTjECChB42DCio82sAmpu9tx8CAyYOo6CBBGldV0T424Td0Y28OncHpbiDVRcFQXyFkzXXYRxTAPAG/rY4rroKtwpRuIVT/1FgPDSP9oOJ/4uYRH1cALb7Vk8OZjE09osjuJlNONpdDGOICshTENElKsmZ0hEhEL5U3qQTOtAYkUjuqlks6f0Weon70DoNaKe9oKVc+AzFL1ygaol9QCCifUaAJR4WMsMIp+se2cObKTrgS+nx0MDlWwLs9EKHkzt4YPJI0yy28U1EGTaRktwwMg4ZOLT9uwefdIynTa+gwQQeoJT1oVhIEEBgpM9msJXaRaimVWwmy7hu+0JHLl7uHP3N/j1/YeYLJYEVAjtlXu6rDGvmegFOXuE415D8WlnwuU9/xIAQj8S7sedvtmmHyT0gwkqKipJkfdBVMVEulgRXyMNsHZYww/ru1g/akhng/QoC4rjzX61/vk7G3pZw0pM4VXQk4EAQVjk0m9rpJX8C1hSM9c0H0zE+c7G89q9sc4bTR/bj+5qCJlFyyi9S53+lijpRWEdMY4xHW3g0fQ+7o8fYjzjZq/ZA0/TU/KjL2GpEIJn8w9UYeuUAIFjSUmbWjiOje4Mnh4s4Hl1CbtYRKswjTRmy2ABQVoQgKCt8eqewrY2IQfKFpX3PtjBawX5nzX59UjWvQT9aSax8k6khdACh1xxVlu/ejUojZ7kvhI8SmZJagQmyyz/rt1dUqqKmFsNRSW4kFUxmq5jobiCe5PruD+2g5moiohzixbTkj3QGr1vRT8JEPx3HKywRrM62kosVyfiVnqnhIfB34uRWYBuVkQznMbK8RTC2b/B8vJfYG5sDgVXZEoKKV9bYBcdx9zTDVQhozdNPXAbrH39EgCCP/Q9t8DjzpPDaUWFfu6xAQRzvZJ0H9OAehAnQYyac3hxUMf3azvYPm6I+Yb0Cwv2J8Ij8/fkRNdV3rc15jRuk59VDPN2D9uIuc3QzbHebIn9s0qy+hKDf/O+RE6+gb/dxw5f9S5GoD/R9rqk26uOWL+d+u/08+fIfv9y0GtaGcpKZzRnkq2S9k3VvMc1UHA1lOIaRooNVAoNzJd38eH4AebCY5TSOoR/T89739ooX11BgkTEIYlpHrBa1PMuhu8dvaedi1aO6S1W7TpQ4WMNIkK0gjI20mk8Pl7Es6NbOEjvoFVcRFvIf9SWIPiKzcRJ9yk5FFMFD5TZ9doEQu/0su7+wD5xjf2RYz8oe9OBUP0DeZg6Y/7KXBq6Nw9l+vCeCn5R/QX5fiKgxH/lNbD6kMBFiQKehII+GUruCCNuBXOFx/hsegt3RvYxEnRQpOBWZDLPMn9y6UHlIPiNMc8gvP1W+aajcl7PU9AlPT3aHWIAQQmeLCuZNwkrLS5Gx5XQCBcxefdfUa58iDicQJCNIuuWkKGIiCZOtIS2TJOdOH1JYiv7WBbQX4ck8E9kkvVfNA/R93iTPL9Ogr4Xve3B1XuLSwIIPQzao3ee5MD2LrO3wcrvVD3GhEG0Tqi/DkUitZECKwc1PN3YFQJjOyXIo+IYFwh7hylDK4k7ZEwh8sXMn+V4zxC7AQlFmG8DErSvmN+LYhlEmSwz8Ifyy0oN7j8sLIOQ3+Kz39zzWkzX/n1kDljngO3YPxMlzkGdRQo2TzX8Y0tin/yMhKK290tWTCPTvBNKkkuaOKaUK0FCKCzzFmK2V4Ha+nXR2B8vNDBZbmGi3EGl0MVkdISpkBt+A5Gj1l8Pi56IZnQxyTpSwaBepDoI91vXPSWHrZ1dIwWLnpVoFvHAdyGSbiDg4CCcwrfH8/ixdgf73ZtoB7NIozEtRZrolFA9c36Q7S8kgprVvMYPuiep7NmrFFpf2s3lRac16fHv2yM69vJAfj/qWcRrRGzGzvnn+Wxt7/NVMTGVYCtAQUpVoWsjxiFG3QvcLjzFB5Vt3J7sYgTHGAnbiCkIJAGZ7cU5e9Y+U/q2NfoelIfPqNkqMDJpviqVd2K3WmigWYQkmkBp9mMURu8hKi0hCBcAzEjrI6KyZobNwImvlj4X6zbJ8ytS5ra9X3R9dF8Rb5UTR7sKK9l20/vz5anltSpezijJrTl7TvASAIJfYP7PX76In025nG3Nw10VxnLyjKP1c4hq10m54cfNbWwcVUH18ZROay5GzP5eptnojCbdBEwRcX54Uye9KZ4k5vf90/WH2wbCP6SLQfFkq5Og0WyjkyTmCd9ftXsZIAzKUrsG39NY5B6d9zZCD049gpS8pJHEbB4xhe8SIXwpABD6Up4SzuOYXOiGKV2t/bKEgLSNMKO2QRMjQQ0j4TEminXMVlqYLDUxWWhhNGqhzF52dISQSNMY8Vywc+R9g5q5yZJY4rJdra/WbnG/qNeJY2OMdreEI0zip/YMvq3exnrnA7QwLVbMto33IgCtI9jBbwDADl/vwHoySuvfz/rXwksZhLdaJucRDfZ/D/8lrKc1D125C3ZRzA4xlT3HUryKj+ZrWCofYCzYh1pRqZOkZrpyspSCEhMXukivm7cazlO86OVzh/8/pbByNIagNIuotIi4fBNR6SbC4gIQT4ovEG3BVQyJPCHzTzF/FIG0Yvnck033xoUU2urtK8ozkrG1qZjbu1uZMQeLHsXI09Ud2T9YWs9Bximu/QRQuXiS4lt+0x6406hBexT8dmA9rIzW6QIZoJqkWD2s4unWLjYOj9HMCkjDkrSdhEwpZRlc6hBFsSAtGkMZlOsDbX6jOO139hGG30pUv6GdqHFTp0uhG0WRvSrV4KDv047G4D/fmtrzyNHulXl++FpxfzbMp/EJQkVu1VHhMBfb1u4D/zYEA5IO7iIQJbwO4rSDQtJAjDpGwgYmijXMVVoCDCYKNVTCBkbCFkohSYpdqoPIJk7p3FjIi/31z8G/Ayc3LZVBVOdFb4RkAlDcEaSlU+vHSVpG3c1irTGLbw4msdq9jWp4C0k4amqHHhDYn3kmqD8zYEDwrWuNgzD+bPNroZzuYdyt4lZlEw/njrBc2kElOxIuizSOWzzXv1sJT8IoEe8bGO07dhSMUosnKCB1Zel4CeNplEZvoDh2A9HIAsLiNBDSs2FESg+ZK6jqpu0VIUw2XcCDHd+y/k8CBK+9oUkAYRbnGY3ePqOdfYZfbcuxLI91UxAinOVxSRmEs3xl39TjAYKm8rVvXCM4pvM7AdB0KTaP63iysYPV/RrjKyErqvtjKDKlAhiEfWpKaCaF7K1bNZh4m81Wbzg/S9wb2ZaZOskgkLDIrIXAQ/ZS/6x2dLbxGb76fEcgVzW0t80X5CvSy6re6rNiKqijS5s17lTtYfM2Na59Kt01xWUvjpqk26qGflbHeNzGTCXDTKWL6VID4xH712soUz7XtRFkXdWDjwIJSiQznmTi0vg67fzzHZlLejcjWnJUM/an2XhKIUi6+TT5H6CIRjqOzc4NfH8wgyfHczgObqAbzYrqqsohe4DgTz5/735eOni/Ibx3jWyi7PYxied4ML6Fz+YPMe02MeqqiEMjbfYdOhKiWXmq3/jrkmbGO/tYmWW+I87a7ZOUgWUBYTgCFCcQl2dRqCyiMLaMsLwARFNAOAoXjIjwErkhQVgU5VNyQviGOd/UrLYJFKQsYYka3Up6bbPyPXobkLEojLPgy5K52Ldqo5zlMYAAQbfbXELZNMTJOhYlVNmQNbJIo0BaIHfrLTxe38Xafg2NLlm8RXSlbhaJ14OGI6pGpoe12qnS/lX+31sBBL4yE+U2AgSmPAkKhIfQIg/Bk1N0Q3q/N5+zTNHLf63Hbwr57EARaG8lLiEQWiuu1cRl7lDGWNzGUtXx5yZAorOUD1KEKSVwmygzQsMhyuEhxopNjJfbmB1tY2qkg0rckRRvkWWGtI2iuPUpcUz68oX/5hnvuqtIGaOf+3T5Q3ju30BaNY1MJgcTe9gJw0jO55BL59Io9tM5fHe4iB+OFrDnbqEtpYWSbtB97Ym2VwTsAAAgAElEQVS90Pi6AgSh58kYFpiZ6m5gKXyOLxb2cbe8hinsoBi2ZO5qVlv3LJ8T075/XR3v40OvlUtZM808ej2/QPQ1xHk4RhaV4IrjCEpziEeWUKzcQFxaQliYA4JxZCxBiiOkliNYEvelBK5ZLeV4d18NZHlOKeeW+4gRK/M/9fvYN1Jy6on/znY3BgwgaLTg/9cfqsoDC+QuOdYducbZosJfBQ5t57BT7+D5zgFWtw9R60BcIJmY5fOEEMY6sbROenIHgYbdPPvE0w21KkFq5SISvgMXU7ubiGBSN+WN7rU6vk2O4nTfZ/jstx8BP+N826oeIp4Jrd00rM/a3OR8kqdQuU7BgCPRkNG+EA5biDKWDpqoBFWMRUeYLjYwM9LBRKmjv4/qKEckiCWqdJglCFMCA9tA8syhfTf+IWo2g6f3ftr7YjkDPdAih0ixl2iMiBCSiSE1MImV5gL+vDeHjeQOGoVbSF1Fu0ZzcKABwUmAYN/oJeLY+w7ipWQjAVMHpbSKyXQNH5RX8Gh6EzdKmxgNjlEIuWsaAdvaKcVymtPurQOp086Ai3++B0MsDfraPkWnNEWsnuma0yabg6u8BBeOoVCaQWFkARH5CsU5RIUJBMUJBNG4ZBboBZIJJ0EXtCpf6PhqAaLX/eB3oR5I8OOg8EBaXPMzq1+k6e3HawABghKHrAEpX9iShUmd8ArE/pRC4sRbzCRIVTdArZNidecYTzb2sNfsCEhISCL0HQWc4Py7ZBf7FR7fJhzrBwghwki927tJhlq9gW7CViPv7Ohbhvqil7e/p8NXnvMI+PqhShxrlO61BExgT+eMb3sTMpca5fBgjx1ZMbTWbaCAuhz+Y4UqpkpNKR1MlZuYKDJT0ELR0TinC8JXRhMEHsqbISDxMV6P4Z7PGF96NGDyvh5mmurV1iKvbih+AdZ2RyZGR9TvRrGbzuO7gyn8WFvGUXQXnWhOjJcogNSrzNrfhq3FmhGIdN+KXRej2S5m3QvcH13DR9M7mCvuYgQNxJzXqrVsolvWxfB2kpHnvFrfzdt5gKDLX2N0idVlQio0EBcdOc/1mKfIknbPlZEGFQSFKRRHZhGNkOC4iKA4K+RGRCOSVRAbaXlX/pgZl/U/e1UUn72RrHNfi528Jn+uzWm/OZxhSAYIINgOaFG+9G7LVm1RvmQRGK31i4gYT0HS+6RxhaiTvLh3hJ+2D6QNsp46dIMCMvIEiMP4ZyJ/s3SZvt/puhj0EGFrm2YQAgEIwhVOMjRbLfVl8K2Vdi3S/Ujm6Xu80M4wVy/tpR7ISX2QpQLJCFj6T4CklqIodRwwO8B2RPCHJQQSCTsYiZqoFGoYK9QwJaCAZMMORoImirSFCQgIqNxBUJBq1kCmkaYQfWaAm5BPMp4wiPM50As2JbuMm+JrwXrK+/ZGDhPvDj0WxrCXTeNJbQ6Pj2awnd5CI1hENxiTjVdX4kuPfIGfjdR1GeNxnp8peU1RTeyikB1jNNvEYriKT2b3cHd8B5PYR4nz29hxJIJqAkbU687zq1yp99Ir05g+z1xbeJqLEYuApa5X7+jJJ9NckCs7oT5FUEYYT6BQnkVUnkdYnEFYmkZUmkYQjwtngc8hwZFGYdKar4VKk2/2ZAgr8/hYwWcOxcXzugIEggMDCN4xi4esv3Ea+VtuQQ5Z36dMzQOKYURIA4dmmmGn2pCSw8reEY47QBKVxMAFrCOlmRnf2VTwKeNTTlmJ9zxA8C2VaZqXGcT6mWjUyg/UZeDqNFXcU37a8OnvagR4j8htEe5A0JWOBBFZId8gJcmVC5jZghbitIoijlFmS2LAFkSWDbqYZPdBuY7RuCoZBArRlCiTLHa8Wp5QMpLOWbFgtunnNycLXjS1/nLvtFf47VPee1fjcenva8BAALjwQixrGHATLqKKGay2F/Dl3hQ2kmXU3ALabkIiOSn3vXwB/YD8RCbBgwV/LLy/B6BGxhYdiyp9C2HWQNEdY9xt4IPRbTya2cFSYQsj5MxIqzipW8qDkTLt+0pAsPmi086fCb2g0Sfv+tdpf0TJ3zOxzf1epdJjhGEJILmRgKAwibA8i7himYXSnJQnsmBEyhDAiHIMhKPQc/EUbRXphtISh0g9iyfE/2bvzX/suLI0sS+Wt+W+Z5IUKUoUte8qlaSu6WpUlbqrG9MejzHAwIABwz8Y/q/sQXsZ/zSAjbGNmZ7ealGVqmtVaRdJbRTJZO7r2yLiXuM7596IeMlMMjOZXDL1XiGLYjJeLDfuPfc753znO3pvWsFwd4D3GEUQ3MsRMqFTufIymW4QdCh88qH82tjDwZU+CaHECElxrZ1INOGrxXUsN1N0GUkIYhFY1fpTjQKoqNHBZ7/cgZtQEv6RMhkgzTTNwHJHhetMP3hpZpFweuA2uH8DxQhI/w/KGxMgRHxnCQKWfQXkFSSIsg4qhm2WCQo2MCLiRQlGax2M10g0bKMWd1AJW/RvJbLAaAG9MN+10acuxIZIPvdW8RRvgPw2pRujWnYfOBAdnMN2DzwuL92VhHFpGcONiblzdQK6toEVewqfbUzhk80ZrOA0umYExg6IURa59lxAphjJnhr+HtErb2C9PTkug3Tw+5RqnYx1/AZWKmo4TxM0siXMRjfw3MQNSTcMYxmNOBNw4HR+1L8+uIk8+E0+4G+U5aaVONgLFDzOylMADtULWV2ocUwXquYO/UGmIWzIBoMNmHgEqE4gqs+h0phDpT6NoDKJIBxVYiPbfDP+RaKjOLxKl9S9xd+LpiQlzV7m1hxy3I4ZQNB8jwpCuLKTXRFSL6bzwE88c2u1skD06SJsdQ1urDfx5fwabqxtoU1fMKQ/yFAu/8cFEys34YAfDxAE6ZVk8vj7re0WWq22rCoSgyRV4iaORklOuLdywLF8kIcL+YcbEWdMJUUYdQCziSjbQB2baJgNjMYtTBAQVNsYrnZE1ZDAYJB9EliSKCRFgyBkzEsjYb7SoGjtXLQFzktf8xS5SzV4BJHLKChI8AI2hW7/3XkOD3K873RtVQ/R6AEBAtcrqxdSG6FlR3CtPYcPV2ZwNTmLLczC2AYCW0MYVsV9YFRcPyU7sWsUoeyBfRsAAktAmPs2sHFLFBeptFhNtzBqruHi8Jd4dvIapisLGAjbStBzwyj1PSc9vZULppWtc3mdFdVEBZh3kt9UrMxrDJRqTxVFiSpI9CUSfYUUdZhgGGE8hqg2hUpjFtXBUwgr/N0AEPCnDlimISoKFliNlzvJTpBNVgj3rjKX7k4r69Z/P14AIffIi80zV466jT3M/QQpR1OZZdoDGpfUBGjbAKvNLj6fX8E3y2vY6HaQhaSJMWxTkVyQbt4H+5QjCB4kSFllGAo42NpuO+YrKy6IBLUckiShvKLiYJfsH30PRkAWNiNXtoMw3EIUrKFiV6T6YLq6hVMDKSbibQEJA5SmJcwMlU/AngmiiqidYFyI0gmv+uhSLpFb8Ol9JFNL/guSrMxlpwOglRTOFJU2uJMLDfTlyjPzsV3UIAvZwtmiEzC5M45Plifx2fpZrAYX0DQTCFnWmHENVzXaIGRSnsAD8V3kknO5Yg8STj5o1wgC8+SZAASJtJgKqibBYDaP0/GneG72Oh4dmsegWUPMniCcn04/6aSnRlWUq4wttaOng+6lfyipdSt7tsQfKOkplDJYKufMPckpLQZVma8Z+QiVQVTqY6gNTqMyMIewOo0gZLnuCGwwCGOoqRAhYnqaLyFfHyRI+jLKw1mFYwUQdMMt0L/3JHzpY7E3lHOHTtPecRJUQtklhYSIK7QwtI1FMzOYX9/Gx19exVZi0LJAOwsRxA2pcT3wR8on9YZ9ySPb7rLksZuweVNH0gxqrpzugshj8sb6aYYDj/c9+YJq7kfsimjJL1jEYLiAyfoaTg01MddoYTTYwrBtoc5aGZtIyaxli+UAqLCMVtKEru2u7GsuT6gCaUWm0AOBcpQgJ8i6eaRbZC6fplUU3n/whNqTHX1Smgbzruy3GCKNgC7XajSAhXQS781P4mrzIprRE+hkwwijWNrEs+5c1Ut9oyUfFXClajvnj+wG3gO7NSp5T6bbAzypbHYsE48MTNTSnIGpIc6AerqKUfsJLk5exdMTNzGBJTRYcSPRMBchfYD3fj8urSJoGiXwazAHCHlZoh4jUb0chDpgm9dAuUSFi7gomd1FtoNQ2gFIB2ILJAZIRB2YzaAGRYypNngatUFKPM8iqkwC4bCLLFRU+ItaQDLXqeJYRBB8lcNBxupYAYQyhteaW99AZOdm2quOpvZWUEFukDn64tARJDPUI9W/rGGNsNpJ8PXNVXy9uCoExq6NkQXkPnvOx53IH85AS1RAEZ2xvDav4l++Nm9ih0dpAS3d+zSCUACfg7zK/rH3ZgS0coElig27gNnGIs6OrOJ0YxkT4QqG7BYqWVsMpXaHc1XKnraSGkH1zD06pJjXONMYF+5HUX3TWzHjwUAJ/moYIW+w5E2RhwUnvQpGAAKFkZhWIEgg4GYPlmAYX2xP44PFR7CQPI1ucA6prSOQDoZFOyaFU44Y2hNJcHYifwFqR9hiXsbUNyu6NxPtwZ9VMFAACktkQRNBTDngKoIkRCXdxqD9Cqdqn+OFmSWcqy9iJFsX4S5Gx3Ku1oN/int2B27Z5cS/Yl/xlyxl/b036z0AZm78YXl5ot9QnIqvSzeoqSBfjfuGluGLxDNVdynfHDQQhEMIK2OojZxGLDoLMwgqEzDhMGw4iAB1BEHNqTIW0YODgoRjCxB8725dtGWA4Dfv3k1cNmevAlaAPNcVkrkgyrSSfxAJgbGZZJhf3cJXC2tYaiZodjMkNErigbA3vC+WKg2+z2nKpOCPzwHRnmXS/0EdQE0pUCxpc3sb3TTTHJTv8rVX77c7OoY7QqU+9iWU90L7v3cF+X8TuHQLo0NP4TO+/s/iDDloyq+xx7U8GpP70Gvd8uk5Zo91fsdjSs+z2zPvvI87HkNIl0plwnh0AxdHF/D4yE1MBTfRSNckasD2y7KoSUIVvTONaQm3VcixRSWYAkbd4LyWQv6kThHRE+b82Gt1jvdC3NE81hkUP5IiWKNb2j0zkg/DieUVyloE2LnCRAQIVSyaKXy0OovLa49j1V5EAkoqkz/UBvWnfVs3FZTxYKC8Zsrj5sFbucbZRxHKo3DU8+3BrR8vKW5DgyxoI4w5nyKYJECYdtHAMkZxBc9NL+C50SWMpjfRkHSaD4UdnKf1MMyn/d+Da6ctZYw+kuD/dOuzXGVfnk6uF6BEC/LiOt+LQcnsGm12nS2cifQ9e7R1i4JVSRvQabVVmLCBkDLPA9OIB+Zgq6ek2yTiaYTBEEJp/V0CMAfkiRwrgLBj+epT57Au95+8Be15715/MS/78AbXd8ASe60MZwkqWysb+Eqri29WtzG/soHl9S20Uqq1UVKTdaoqfkRegeZFNRztiZQsSlHGtLtR33DDXYepje1WC812B9ZxEzJlrfSSInduDooySs/vH7UcKs3Rga/W1V4VPVW8tx6j9XOlDiB+Q9/tz/w+djnPLRXDd3OMf9H+/nf+6cfjbq5Rnj/l83Ck2SFxFTPRl3hu4jouDM5jLFhCjWWNhHVaZafRqDL0KYka5jCyoBPcgpFysFVOF5Ym/W5ZxPKa2LkC9m/4jteRvshAKoKMtqnqhIP4unMKf1w6jW9aF7AdnEMSsaac76cjNaO5THZpOum0dmnHW4ZBFTF7ZUn2mif3c04e9Fr7XD9MVRmS5RilZrWOcrYoyEMZ5Qq2MGSu4lzjc7wyu4ZZXMOAYY8Guja7zc7jNa/2dbc+ulSaFHvtSz3LuOyvepy5c8h8tCE3P+4Ar5OTu8J8H76BXCjkXBIcGT3IKnMYPft9xINPIwjGJALk94rDEBaPFUC4/Qu8vXnMxSx2PUnvd/3f+GfXQMSVVrdauLm2iRsrW1hrJWgZ+pXUVSDp0EtlOolMCQ0xhCmKIwWOcWFhNXDMnwId9mZgmkEUIDXvpBLMvWj8luXngUc+O70ntIv36Cbc3vpLzpu97Rrf5zF3NBR+9u9rOR7yoP1cY7/HcIPoomqXMRddwfMT3+CJgXmMBqvSXlnktTz/UCIIJYKSz2wd8in6X7t1BMS2OmOrOiIRuraC7WAUl7dP4YOlR7CYXkArnEMa1mGFLNpxa9C7cXdbHb7zvvY7l+60iR7VeQ45c5izYUkvYQH1q0WTWtte0QGiANiAvYHZ6DJenl3Buep1DJtVVANHVtzF9BzyTvpfK4+AM70c3szZfS2RVmeW5EaCZMOuLfEcRs+/jXjoBQTBJGDZd0Tn3bccINwBPhTsxn1PPr4QlkSSI5BYi3ZmsbLdxs31Jq4vb2CtmaBtWIMd5ykCCRB5O+DbrotR09VTENC1k1eaZmi3O+i0uxJ4kDAoeQiiib7LZ7fAgbz9YnXeuk7V49gbIMgJbhOaLlIMO93e3OvdK8XQ4+yUohN7BjPuxzG7hIVLgZ6cnOLyzgQINbvkAMJVPDFwE6PBCirCWNkbIMgp+0Zz3+ttPwd6gMBUDZdXZiO0bR2rdgIfrU7j0/Vz2LCPoRtMIyFAYP+LgGWmfBUKEGQbLntpPmJ2z+bkQebbjhTD/Vw/jCCwbE6qtzJY6iFIdIUeK4m6HdTsIsZwBc9OLuCZ0QWMmiU02HKcybU+r3o/U/jAx/jgrbR+UIEexKJ3ohsKuxdTKdgEdSThDEbO/zni4Zf6AOEgI337CMJeZ1JdcqYbBKkFDOcAzcRgebOJGyvbWNxoYqOTopUx9aARBaYLWK1gRNPJ5fXdblFEl5xUtA3Q6SRoNtvIMl8XS1KUu6edTkcOEMqNpfRYlQSWVh97Yos7+TB7bmi7RTUVV5zwPZAAoIOaWewDhIMsuHt4rOd4cY11sxjb4TCudybxwfIUvmqeRxNnkQYTSFneGDKSxwgCV57Kqbss7z28w2N6aglCOsckSGFcWoYAQRU/u6iYFSErnh/5Bq/OLmPSzGM47CAS76aPhu/Fm/emVwGCXiH2SqskMRIgCJW6hq4AhLdRHX4ZQTAF248g3P0r2Rs8sPREW2yyNI38AIomEa2RsNhKMqy3utJG+sbaJtbaXbQytplmaWRFVds8ccxxFHRH9X0kqIcZSX+G7WYbnYQlcq5hVHkn39X19+2FiwO1VNIDhL1Bwt2PWHGGk28SNIdd7wOEo5w2d3UuDxDCIETbxFgPx3FlewYfLE/jZnoeHTsLg1HxqOgFB2HHEZSpMVKucLqr2ziBX9a6fonNBImIxAnJ07CbaCK9RkK7iXowj5nKFbxxegmnwusYDZuIDfuQHHXq5gQO8SEeaSdA4N/ZLIvdJLVnFkECndcautEMRh57G7Whl4Fgug8QDjHet3zldtEFwoNM+juo0KU030gNIlYdhAE6mUXbGKx1UixsNDG/vo7lzS00OymygCUprj93XierXbikfEXaTVN0N0Sr20Wz1RZNhluWWR6r3m079twDJa0I69URaXrL5Y5ipL6N5yBAaPcBwsP06h325aps2wqWg1l8uH4Kn2ycxoo5i9SOA2ZAcrI2ZDVJR4CCNNPt0TZ4mB7qYbgXtT30R6nnIeV1LJUzBpEh34ZjyBbkKxi1l/D63HU8PnAdY9ByR3JxTnodw4N4SwIQhABtJcWgwm0ECF6eX/eSxFTRCWcw+tifozbcBwhH9q5uBxAY1pHImet1rvoLirJFlY1EKZYsUqjFWGwRKKytYX55FSvNFJ00EJ6BpCkkT0+h3QCp5IwofhFLNQSjEaKJYFhuWRRu9sYBiuSBr+XOB0Fyqp7ZWhS65alWlw44skG75ye6YzJkjzs46pgGc6/tXVMMVen83ucg3POpsNsFAkorA200MI/TeG/1LC5vn8GmPQ1jhgBbhbWMIDBKxyohRwjyZWJ3JNM+kKd6CC5Kh4Yui0YQMgcQKqbrBJGo67GJIXsFL058jmfGbmLCLqIuQmJaJ9L/HO0IKEDQOjwCBFEDJhhzAIF8HKYYCoDwI9SGX3ERhHqfpHi0r6P3bF61UjdaZRBQDEfwnIv9SCcz8U40MpAag05qsLidYGl9Cyvrm9jYbqKVJGAfQIKJTBpDVWAi/sk0A9DuJmh1EyTItNTI4fl8b/f19DmRQTdDDTBwq/IUb32GgkDo6/J3X7774U7fyzHe9dwHrNfNn/io8YFgc6YYljEbXsLzE0pSHCNJUVo0c6F6AmpvFUOfpHjvZg1XIVN9zWAAX5tH8LuV8/iqeRZNzMDaBiKWfjH/Kpygbs7GlyjCblG6e3erx+7M6o+mQuokj4MRhJgAgSlWcV/bGAq+xsX6B3hpZgHT4QIGKUNutLdu/3O0I6DbjOotqJqjdnoVzCtOp5IUE1tFB5MYveAjCLMCkvtVDEf7PnYghELeWcUxylI43tRQB0Hzdz6MyS2jJZUPGZqdBMvrm1ha38BGq4PtboZ2FqBNYiO3mKgKhBV0uim22h20TYpMogg6G3ooCD5VIWBBUYSKbCgikN/5+vvSJitsZFm+rmjfQQinJ1k8814bbK6DsAszPycwevGfXV7IYY7ZGUS4pVKiVKReDpXc7l79rR3geQQgWAUIz5UAQpXdHAkN+wDhXq7AXc/NVcgo3DbVE9NH8Zvl87jWOYduMAXYCkLpdldVMEAlRVGs8nDaiVbsa06WynsPszYOMd92B8xu3eVCY4ddY7d7HpWGF2lx9mMg6ZptiTMjHUul/TijpuhgKLiGx6rv45U5VvfcwIBtIbZ9gHAvFoJo7Dhw4AGCtIMvpRgKgDCF0QtvuxRDHyDci/dxC0Dwu6+CA/8/3b5VutKRexwBStWuqKHNnJECOEYV2lRObHexvtXC6lYba9sdrLc66Dig0E0Nmt0E22kq2vIeIKhwkjuR787leQYlo6UkIR9e8D51aefMewLn/nbPs94uqL+fKMPdHtOTDpG/lADH7QSbfKik9AB3SlAc5F5DsMyRAOFyHyDc+xV3xyvw3dF5IrjexCgudx/FrxfPYSl9FGk4AWsr0n2TanPaJZWbHdVK3VsXIl7RZOd2c6EHd+5xZweZS7d7uLs9z0HudfdrKT+KSVBy4g3Jb2FVhN/CLMmBMPUrh8J5PBJ/hJdmF3CmegND2EbMSoc7vr3+AQcdAQ8QaPKlzFE0KRxAEG+wHEGYxujjb6M2Qg4Co2n9CMJBx/tgx0uJo+rjqRqA8hEE1HmPRP4sQpf+yIzSyr7NszNqFLUgz6CTGWy1ulhrtrDR6gp3YbPVkf9ebSVophYEDGnGHg5OrdG1hdZyRk9mdMImEnYioe7WrnO6f+oN7+oEyZzzaj+58KKOU+5leQ+m+PP2ugoHG+adR6uoR9mM7TR/PXAiv1GVu9jL1TvcPVFJsYYVzIZX+gDhcEN4pN8SgECZZRtjIxjHJ9tn8Zulc1g352HCMVgCAyl1oAC+6l0rQPDCJNpAq//Z6Qupm6qtmwmqCBCYRLMIKCeeqctCWvUg5jEbfYLnZxbwaGMew9hCLNyF/ueoR0ABgqp60uHk3N1JUhQOgqQYCBD+3AEEVjH0AcJRv48d5zMljWzde2QzlXC3RhDEZ3fyyXkDWWnISJEWbdgk4IIERHnXzItS5AXoGIuusWiTpNghUOhiZTvDejPF2uY2NjY30Wx3RS2L+grSz55BQLmesrIl7CTFDE7JMRfuLzwln1rwznb5ISUYITd2BxfpFrfDe2RK3FT4tBNRFCjjQMfsBRB2RhJ2gAjVvNntfm5FO7fez633qkOSoBqs9gHCPV5p+zm9rjWFgGzvvG4m8NHmGfxh+Rw27TlYjMCweojiv+y5wFIw/i/MYKgOKNE+TQkq6N9t3nqQudcxB5tLfk3sZ74d2frpWYf7fR7aLI1WMsXA7Cd1XagKiyyTCEIlYA1+F7X0BqbiS3hhZhmPDS1gONhAzDLIIwbn+5kTJ/0YL+p1Z4BQQwdTGH38L1AbealPUrw/E0ObaPg9VwxU7n141mBhtJiEUBRBFUbm8lyZoyc4aoednOqossraKZKGjO09qdhIkmOHpMV2B9sdchNSNLtdbDbb2KbyYpahnRpp9JSkqXaEZEvQgC0/XaSAks8+6iE2Tbe7ovzRbeiyq9LTcj0Ybsn979j3/cCXvLAyLNjtvciV7qDWXD5Gh7AAHPktuZN4hbeyI+iSPUU7iVIvhJ33tP9wLo9MUQ3WMBsxgvANLjiSYpmDoMCrT1K812vSAwTi2W5Qw6qZxIfrp/Hh2qPYMmeQ2SEpL2b+XHlBOuEVIKQ9AOGgc/K2+Hk/c/sOg3O7OXl/7lU5VMplIm9DO2Y6XwgRAYK1iDOW/d7EdO0qnp5cwKND8xgRgKBVPf3P0Y5AGSB4scpdIwimhk7gAUK/zPFo38JeZ3P7fXlP9AGE3I+Qnclv8aUFIvk858G40L/nLSiTwaENJy4v/r4TOtJIhG7wLOfqZgZdAQ4pulkmkYdOYkU/oZ100E0Mmh2DrTYBgxHQkCQJukmCJEsF1LDtsHoo3jMi6dLdt6+CyIOExYPvNIx3yu/v+8WI1fNn622nxXHQUk69j97CTd8Q0j9LcUVfslq8heKYnfyM/d5nEKSoBOuYir7AxeGvcbbBXgxriB1J0SNGX4TqDao8Wd9e7neY93Uch1MU5VgtFNSwbiZxafMMPt9+HFvZLDLTgBX9kVjnjORq2fExg5EUg6oF9lMMuw13gJCy8XSITKKRuEqEuFpBpVJFo1LFQBxiIDIYa7QwFn2N4fRDDHQ+woBZQzXsRxD2NYkPeFBhIXurGMRXUs9EIsmJraGdAwSWOfaVFA841Ic8fIeR7/nrLVLD5a2p2OKKXvIEATk80Bvy8qa+rNF7z1I1kbktUjtHasta1y3YRQio8MhFzT+p8MjUhW8fKjUXvgWpAyRUhdRJR41IjXnQc3C0y3yQ/KbsJ6gmLDwR0qc30SsAACAASURBVN36IZsLFzDFQ4ACIMiUd4IgHnt5z4ThTu1nUQY7pffqht/Br7zEx4O5g88ABSfsZFdNP4NZ/SWirY/RwBqiIFU+im8j7kIzCgLdlfoA4eBDfptveIBA7ZHUVtEN5hBPvIF0+HV0QQVFVi70+rHCTXTA4khv5gSeTNKhLGd0DozyrjVNWglCxNR2C5hq2EScfYnOyrvoLv0GDVsCzCdwXB7oI5Xac6iN1gmdZ5I9QDBVtINpjFz4sZNant6lWdPBnuQEdXM82IM/2KN37holnzx33Lmru/IsmRI0eiRdqXyzj1hoO9aiK5QSGPX8JGrpUg+1A7UPuRNQUFpDdOozGMqkhrHoMgixy51f4Yg0lBAAwUYuErZlyZiLh2p77IN/XOBC71OiwAqGPFzhtZgPpXqlPgGZFykMlSTkXhlh4L0yPbMzplEmapajDMXi2v8d8+xUiVuH7VxG8+Y7MOsfoop1AQgigCX3rkhRpWopl90HCPsf4/0fmQOEMERqmEqYw9DMnyCa/C6yiAChjtBGCD1IcK2cdcNTxvcOeL7/i5/wIxWMq8Xwo+T7u+j614gnI2oI1hEkX6K59C6aN3+NOlMMPqJ2wsfpfj6e2kbVPZC0tSMr+ugYfy2ttk2AxDCCQIDwl3kvBvSQFA8e++0DhPv5tvd1Lelh67TjuavnWaddBF78v2WO8yC4UhpF6cbLqAKnD8u9SECyCDnThCip/63ggnr1/DU33EqJcOABgmv5Kv+m1QWaF1Oju1dzqNs9rmTrHR9DYhIuHq8AIROCp4Aaq5yKKLQII4q3sAUtn0fBgU+WFNfS7xdalDom+iMqL/t6C8VBHAOqyClA2J4nQPgI1WA3gKA57z5AOOAQH+BwAQj8CUNkonMwi8FZBQjGAYQIMULh1PgT+xSV3/oOcMFv0aE+BVcABB/d03WjAIERPMq9bQLp12gt/gLNpX9GDRuuiuEw7sK3aJAP+Ki3BQguQ90HCAcc1ON9uG7YGrr2/rVuckXY3G963kvVTV8iBq78Mgg9XdJv4owUsBlUIn8yx1+JG7oBu1pxelf0yrn5Slc3sQg0BiR38Q54bFwK27tIxZ7lD3u9CTXzSunjRw2QlKbJU5IzkWiEwFby34dhBn0uHzXQHaAXF/stxIdiXKjDFWjptQ6CpHmPfYDwsKwpjSBoFU8mEYRZDM2+hWjyDQcQqKJI/oEPl+k8KAI6t/JWHpZne/D3UaxL5StznIv1qYFJVnUlCINt2OQqWksECO+ihnXEIvjbBwhH+R77AOEoR/NEnKvQXehluOUFlL3esAMFknpwpBVuogHV4yjaHHSR2TbSbBtJuo7t1ipWV5dQrQxidvIC6tU5RNGgqjhItIIWIZaNWaIR4rF3HdPARxiKTbYXtBzkBZQBAu2Opk8UCDF0oKkNfSYXYWDUQwxWmcFQyvfrN3aAhsJgqVK89rvf/4ff7wOE/Y/XvT1SDaZLfhEghDMCEEIBCHOwGJAUgyR6HMAmu6Z3ZhwEIN7b53m4zu6ib1K1pekY5Txp1E1jcAoQgqAJ272G1tLP0Vr+pQCESABC/3OUI9AHCEc5mifkXEIw9Eic7Wpd2L3wuCNY4Qo4r9tVJ7qkgmzoNmghs9top6vYai9iY/M65pe+wPrGAja3N1CNhnHu9It44tG3MDL4COKg4rZdLvEYgaWCmhMrChOJJKj3zQiCXrv88aU4t30Fzpn3dEQf25C8prgqpecR1Uo+RxedpAUTWMSVGkKGjwP+6EbvaZM+ltDLiHCSuvlNqdHLIwg+uLDbTef3qvfRTzE8HIvLxwO4aaWmAhtOY2juDRdBOO0AQhFBKJJgHij6VJN7ntvNAf/I9+OY+3GN2z6PV4hlJ0dfC60gKwcIwj8wEoEMgxZscg2txZ+hvfIuqpYptz5AOOpV0gcIRz2ix/x8MiHKUToBCPSmRR4pL2kRgCAlkUQHTkqW6QPbRmY20UqWsbp1HYurX2Jp7SrWt25iq7WEJGtJhYNJYwzU5vDi0z/AxbOvY7g2gyioCV+B0QMFCAQDbNDCKILm9dVY8PdFFOEwJWOaTSjMvYAboV5oHTbTDBk2sNW5gWs3P0diu5iaOoOhxiTq8ZDeK0mVAma4ISgfISdvusiD5k7dvR4qusycaxeWHIT2ZWwLSdFxEIQ0WSYp9jkI93r5FTMmgDFVmHACA3PfRTzxJkx8BhZDCG2s5cUuglCUt/LbnF99P/fW9+TmseU6ZwRBBRB6AIKLMhrTRYgmbKoAgZUMFbuBKOj3Yjjq+d8HCEc9oifgfCWhRgm3K0BwBS7SMdII4RCRbl6ZYbSgjW66js3WAhaWv8DNxS+wsnkD2511dLMmMtsBmMOniLe1SFMyX2uYHH0ULzzxPTx5+nUMxDMIMIDANqRdrtSQK+vOAQTn++cVBK5c8pBpx7yNtjPkJCYKCJL0yBY2ml/is69/hStff4B22sLg8ATOnXkSZ2eexHBjFrV4DBZ1gN37groYtVAAlY6VYbWGCaW2WxtVOQBxoE6RTHeQu7EO0/oM2wvvwGx8rFUMBAh8F2JLNVrRJyne+wXIlBNLd41hN9RRVCdeRn3u+0B8FjYYQWAqyuwmCdepJSq10QmC9QPhu7wkT4xWwrNP4yl7w60daefMsusubLYOk3yN5s2fItv8PSp2S9ZeH3od7fzvA4SjHc9jfzZZm7kqm/IRlPGvi9aQ3c/yR7SRmE1kdh2t7iqW1q/ixtJXWFr7BpvNRWy315CYjgICGkqfdnU1+6rbxJaRVcyNncefvvTXmBl+BlEwiQpGEaDqyF0shfSuNz0KZ2i176t67YU0477HX3QbaOWd5oF6/yyf6iA1K0iym/j8+q/wx89+jrXtBaSiBxGhXhnGzOg5PDL3FM7OPo3B+ilU4jFEwRBCVCXl4O5KqiCk+YxTl5RLsIqjDxD2/Z4exgMFIGRcGSx3HUY4/iyGzvwQiM/DYkyiX9T60Cobl0/XGlQ3V/vb2G7vVfU8jAO5eoSWV6vxoHofo5UIu7DpCrLuFWzO/wTB9keIbbMPEO7BYukDhHswqMf5lN4Z97lTlvVpW2cf8suQ2S1str/BRvsrLK58ii+ufYSby9eQ2I6WIFFzPiZR0YdZHbiQJlMsF3Q1+yQhddn1pooLc8/jtaf/EjOjL6ASTiJADYYd3KQckgTCgncgOguu/FJjCAetDGBPCuYyCX64gUeiJ5CZDsJ4C53kG3y1+Cu89+lPsLB6FUFsYOMACZvFsGwziVELBzExdhrnzz6Hc3PPYahxGpVoFFEwiChoCOlRFPOE16DCSwJ0pO31bTSYb5k8BET9CMLDtKY8cTWzjOHUgZGnMHL2bYSVCzAYR2DJVdEqHC/J7UQqSgTfh+mJHo570fRmoYOgAEEbw5EjRI0Ea1lJ1AHsArrtj7F57SeI2l8gti21FQ/Ho5yYu+gDhBPzKo/uQTxFkakF9YCKvKkJumh1b+KPn/4dLl97F+utqzBRE0aAgRccUiDAEL4WBujmKBskDYCsYivOAA8wnQANO4xnzr+FF5/8c4wMPIYIw+KJq+qiBwgqosQoAslKGt3wlQEHYYZrKSMFmryxF0VHEivNAr5e+mf87uO/xfLGNzBR4vL8es9skBmTe8Fgg4lRi0cwM3EW5049g5mxCxgdegT16rQABZZwMnqgjXmKltkaEdnvpw8Q9jtS9/M4iSIYystWYIYuYPTs24hqT8GA4LaeAwQVypD/c/yUHSTF+3nTD/m1PP9JdRC03FpKimkDnE8gACJswuIGulu/xdq1d1BLbiC2nT5AuAfvtw8Q7sGgHu9TenigZCEFCCQOqidswibWm1fwj7/83/HNynuwlS3YqhFwIJ0lCQxEetlVf5eJec5x5jkjHms0Tx9mAYK0gpHaDJ574s9w8dxbGKyeRiUcBEVnlLhIkCIXUa/sLgGCsfTKSf7LkNoUBD6JWcXVxT/gg0v/iOtLl2DjLjWRJB1KGemQ7a5thkocwqQKcNgtE2mECAMYH5zD42dfxOmZpzE2eFYiCjGfIeSGwSoNlxZRhLTPTx8g7HOg7u9hwkMI0LUxTOMcRs78ENHg87CYFh6NjyD0AcL+X0sOELxaolgfNoBzwmgZbYADCPZLbK//DJvzv0EjXUOFaqPC/+l/jnIE+gDhKEfzRJxLPXOnF6cUKwcQpHNCsInN9iX8l3f+Ha6tfQhb7YiEgE8bqEdesAYlzeBChxIN4BrnZuv6MRAkCOM7ZVObGiaGzuPFi3+Gx069joHKHEI0BCBopYJDGy5Ur8Pt0wsHMQ0aqjS2C4OOlGO20kVcX/4Qv/v4H7Gy/TUSNBHENEa9AlHScEqQktNscJQIkdc1FdSjYYwPn8bp6YuYm7iI0eFH0ahNoxIOI5QqjQgBO/3te67wfSRS5rgXSdHIEPRJivse0iM4kHEt6ehoY3SrZzA496eoj74qwkkBBhU4eklwX64rbnA/grDX8Oc6KlKtkGiKxhIgqAQzBCCQx7ONzFzG+uJ/Rmf1QzTSLVSlxNELnx3BC+6fQkagDxD6E2HHCPjQnkYQZFPOAUIGE6xhvf0p/u6Xf4Nrax/B1lhqx06N7Lfgi8B8ub+G1cuAodjmFUSInLH8F6sauMk2cGbiabz05I9wZvIlVMMpRGBJIY/xQko0vmpoy1LLt266ej+F4FPOlNR0AUsy7Saa6Q18dfP3+PjzX+D6yhWkQVsqKaOKK7OyRkln3sXx0WI3cq4IQrkFUhEaCVCYGD6LM1PP45G5VzA1dlGqHqihoD0c9vvhRQkQNmBan2J74ecwmx+hwrpvsHcEUyOqOKd9GFTqyTcIyoXlSoNTHpES7NrvDeWGY7cv7B/4HOhyD+HBBAjsdFpBtzKL2tQbGJz8LhCdBiwJq4x2ufnqVUF9j5IDc2Yewse/F7eUdwf0/Rb4C64VJ7QiSJgAYQNp8hGWb/y/sNufo5G2BSAUOi334uaO9zl3W/P+iW63ZgVy+dY7OSfEQwd9NbdKLZebNdVz3ZeDpVb17vq9GB66ecep5EGCazAjZDtukAZZsI6N9mf423f/BtfXPoCtZsi8/o+vSNxtxrk0rLR9dv8uv/IiS/K7EKEJUbEjeHTmebx44YeYHXsWlZDEL2oOOFDhAYUY4RDWheyLjVoHlWWLsmNLUygtMTMkO7GlLAwybKKdXMfXC7/D+5d+ioX1z5FFbRgadt6kOCyOM+GfrbTSyo/pHk9AEjdqiShkdQxGs3jy3Pfx0lN/hcHarGgnFHUO+3n59KJSwGzCdD/D9uJPkW5+iJjd61Tf2in76WDS0yJskqCCX91+hROD7Sz6EAzI+82bRWtU3N9aT8mZG9dbOog6G+D7QOznsY7xMa72RVNpQQXdaALx+AsYnHoDqJ5HIJUMfr76tFL+QvpExT3efYG/lXAgQJfIVwVKnDgbBdOWkXbew/LX/x8q6TyqpoNY0hD9CMJuQ+ujAPlSdrYsBwj+7zt+z+MlaCNjy0iyLnz5w3kgtDHy+yxEghpawTTGHv9zVIdfRBDMAmj0AcIxtnW73HrhdesS1Y1DoqPSKGUb650r+Ntf/i/4Zv19mEpSiBpK7vAODH0XlMgv7Cec2/TFyUoiDERjePrsd/HcYz/A2ODjiDCCgIQAN4nVmPBaMcMXecg+F00S4EG9hkT6J2j1AAECKxZCBFEHrWwe3yz8Fh998VNcX/4UXbONqAZkromTqr2WVo2zP+U4RL6Pul9KnyvHNgjSEHE6hKfP/gBvvfDfYqB2StMlB+RaC9CxWzDJp9hc/AmSzQ9QydZQDd27kSoM4/QpjGz2XL+SunExBXkOAQcKKHwfd22c5Ro86RG9c0IGoUAVzkb0HLWzn+ZJjiJ4YysjJtGvCrrBEDD8OAZnvouw8TQQTAOMegnocsJefi7JyB206uZkWZi9nkYtT1E/pQCBZY+uxbpUBLUR2BtIN3+NtWv/gKpZkSZNbAEtaYj+p2cEesCBuOT6z3mr5pJ5KwTn9CABCJGFYaM68sSkkiSQv/NHTLmxlMOR6G8SNNAOZjD2+NuoDr6AIJyBFYDgIj8HImf7+9wZf+6/4Ac8AoWLXAAEJQkFVEwMW9hoX8F//sX/jG823kdW4Qbs9pD9AIRdns53eSC4kFpnOv0ZSYtzePrcm3j6/L/AYP0sYtac22peDeGNiZcvzjduB5VFMlruiZQBlkfpEalJkGEV11b+gA8u/xOuLn6IFFuwESsxyE5XwmWOjPxqcXoLfrMtb4SycYqz4yo2GEnIQtTtCJ479za+8+y/QaNySqSaD9zRkQbSbiHtfIqNhZ+is/4+qukKBpgGYYGHtM8WOOSiCKwZ12SDkWf2MMFFCTyB1O32XmaCctKKB5yhdSmLna9sp+xEGUOddBPtDa68eyHaRujaBtL6KQzMvI7ayMsI2JPBkjujaFg1PTgv/Ojou+l/bh0BbV/udzKCAzZr4/wnKZR2aBtBRoGkn6G9+muRWI65gXmeQn9QdwUIO4elcPr8HNUjynFEsSnc/QOLiAAh05QuwUEqhW0EDhaUuqFN65gaWpjFxGM/Rn34JSCcViE5n0TuA4STMDvvP0Bw80s8MslpiQccAUkFI9VZfOeFv8CFU2+gEs4gplKdhG+ps1BEO5Qr4Xsj8Dwu0E7ESy8kIOrtwtgmjN3C/NrHeO/yP+LqzQ/RxQYg4ABIUoMwKnl4fvcrQXG9bq+JL3vW7FRJBluUhRiOp/Di4z/GC4//V6jFM4cCCLL12yayzhfYWv5ntNfeR9i5iRo6iCV94ttyc+d3QjMi0BR6XlehFuFzOoVyVV4ZItFcRYKuNDOnhbqJ7cM/rmV3abr7vU+x2c6YwklYF8UzKBBUAisjUonRNENj6lUMTH0XQXwWJhhyCqQ0nTXJpReCXydrPI7uabT9u2ofcA3SRUm0xbo0g6Nd2IBpf4q1q3+PoPUpKthGFDnS80lHp4cc6CLqVdisHNSXxiy3amJKNULgnSQfQZB/CTX1QIeC51GAEKBtqmjhFCYe+yvUhwgQpmA59/sA4ZBv7qH82v0HCLmD7rq4abMWuvrkJNRwZvpJvPbcjzE3+hJCjGlFgGOGh0wfiNJjuTGSo+pJaSaBAjkFXaTZKkywguX1K/jDpZ/h8/n3kUXbKgHNsBnPJFEHr1ngUgz+PflN1e2Gt0QQ3OYoh2dUoo4wUT+N1576l3ji9I9QjaYPBRBIRQQ6CLIlpM3P5cdsfwPTXkaWbCBLthFGCaJImdwKsNRo+noU3qvg/3LMUUpGXZWJAwaqh1WQHHf2uVAuSilEmc/hwtL4cz6U0/sIboqmMyMQk7JXCmjFSDCM+vhzGJx5E0H9AkxIGW41jVri6smp/cjB7q/ALXpGKR2LRjYpyoz7du9s82xWkK7/HhvXfoI4+QZx2BW+Aud6kWg8gpd84k5RdmqK7iCleGGRXnRRRH5Ds6qhpixZfSbvxFWdi+FWZ4KAroMBtMNTGDv3F6hJiqEPEE7cNCqz/u9XikHxJze0EGlaTGQpgbQRIjuIs9PP4DvP/0uMD15ANRxHzJ4NIqBC0pIzxUKkUVIYp7JWIpJsSPXHdWR2AYvrH+ODyz/HVzc/wbZh5ID9IVyxhgXiKEQqEsyaYsjDwiUiT44TSm/fRxBEFEoUYS1iW8Xc8Hm8/ux/jUcm3xKFyMOkGGgyDeu8bROBWQeyVdhkBbZNstYSWlvzSNNVZOkGQrRRRUYRYIRC0izaWu+2NeWbuYs5it+wg0aS5yvFIJQiNcJfKLtt3us44REEqYCRPJQYxjQLkZkG4oHzGJh6DfHoCzCVOaTQngyRqCIwteRENU6g1bj7R3IlDKKeJjBXgCoF2Egnpmgb5ZSRfIPWzXeQrPweUbaMOMqklseLqt39fZy8M6hToMkDWe+OZCz2vccoaE1YrtIiRVmM3DD1q+lfKSV1ZGe1dWpnExuhEwyhHZ3B5NkfoT7yAsJwXBrv9SMIJ2pO7TOCICTFPx4JB0EwqmxKDNkChht06Er2KDlAsp8dwgsX38Iz5/8Ew/VHEGMEccjeB97zoInwraBJZlQFNoYnjfSNWMTyxkf48PJP8OX1D5BELWShKDvkZRWyR7o8Ge+Dm19P2sztheUt0a8vv+hULdIBBFPHI+NP4s3n/xvMjLyKOBzX8rcDkhS14JRhVkYIUkAEntoA87Hsh5GuIGktotu+KYABnXUESRNh1kYkCnPM47IjpidrenKjbyvlc4/Fk+VbvKdiuDCPrxTZ6XnsBppO1LIoP4wLwTLaRIJsloUwbC4WTqI6/jzq06/D1s4jC4ZlTlL1ggaWYEJJi/0owq1zoxcgSORPyPFcodymOojNMkzzE2xd+yeErS8QmyZCT5hjqPsQOe4TO0dLDyYAwRd4uJJophM1pag/ns4srWIcyZmnMDzeVTA4AVx9L9LJNxKditSEyIIaUJtGVjuHkZk3UR28IP1pREOnn2I4SdNsPwDhc/zdr/4dvl59D2nUFceIk0cJgQfpM6Dj5vVjfM8CAgRO3lDkDgJRLQyyCCP1aTx1/hWcm3lGuAjUR4hYwSCefoggpLQxxYhIZOQPyyDp7W1hZetzfHj557i68CHa6QaCil5DO+55Jj9JZ/oMqgnvAgmu0kqp/z4k7+7bvfpynk+c8Ayo2AE8OvUC3nj+X2Nq6AVE5E8cwov0RaeyjYsdZcVChiDoyg9sC6B3lW3AdFeQthaRbi8ja6/CpquA2QJMCwG6iAIyvjUVkYMbHxkgQFNOo6tvLqo4CuKigohcf8Jtlpp5yGsmcpb0SVoZ+bP4ihV5YlUYpaHM7CCCxnk0Tr+JaPBZ2HAGsHWnSaERB5mnfZCwy7RwJbskE3PzoWcqm5kWJId2E2H2NTorv0Zr4VeoZUuIWKHkNjrOP18+fSLn3F0+lIjTudCggAMnh6cWjfNSLyAgQCK3jnguaUodZOmlSbJoWEEW1WCjAYTRCBAOIqyOojp4CkFtDpXGedh4nK3tpPV5HyDc5ct7uL6+P4DwT7/9X/HF8u/RDdoSoo+EsHV4gJCnCfz+VCZ6G4gXRmbMQGUUM2NnEGRsr1xBXIkQxQGocBiGFcQRZY3rCIIaoriKkGU6aGJp/St88c3HSLENE2QigiS6Tr5u0r2EnnD6TkfPaTZ48k752Dy1Tw4D79eSmjaEJ+a+g9ef+VcYazyNKBgW3YaDepBczMqQUJzv35D8TsBCAlYhs3UQM4Ew27CddWTJKtLuArLOEhLyFTorEnGITAsRuoilPa4LPQr3wmcQxGSosSiV50mznFyLggY8zzjkaIljQm95J3fh4Zrjd383+r4dbJK/aBQhiSbRmHsdtfFXEYTnYeyoXoxsfAJeKcnVNFj/Ux4BBxAyRro46SJlzIv+AdNrjB58hK2bP0PQ/AxVbCFguRHpPpxzVHPtB2b2nFK+CZZHAl7x1rJ0MW8kpylEz2P2pFoeYwiAgxqyqAFUhxEOTCCqT6JSnUFUmUBUGUUQjwBsVBcMSvVCUdKtL6YvlHQiVvzBAEInaMvivBuA4KvqesL1PQxABrMYSeA+FCIiKhUFj1ArDrxxEKISj2TeK0YQkjlO1m2CdrqNdreJMBaBAEcw89ttL07YNVfvsIRsp76KwUXkvdPtHXHyD0iiZInjs+e+h1ee+msMVy8gxKDc08E+uikrQCgzRNy+4xa0qk8T62s4ltECRhZY/WDTdUk9pK2bSNs3YdpLQLKBwLQQ2g4i8jgYkZDKEKfa7DQwJHfJVAtTPrnSnYsguHClaCu4MVEyky+zPNiTHqejdZXoTFE5chJcI6ThEOKxp1CffgNR5WlYsBZc1QCpxyGdSfsAYZdX7eyOEIecKFLI0kaC4CaC9Bray7/S0sZsHpWgrRyj0vxnuqH/uXUECp6Bqz7yncdFMt7ztNRxYTqBNDCJGoRM09KWNhBVxhBWJxHWpxA2phA1xhESFITDCIIBaVBmbRXWxIBEbxnZVRK0//QBwomYnQ8GIIjokcxVjW2VCwYkre8lmXP32eX6nderaQb3AuTLzlN37PxM2sSqCJJsdtIUogAIPZGDHe/RcXwKz/92AEF2DAq8MI4xjpcu/AgvXvhLDMSPqEb/IQCCBgS99LUKy+mHY0AhBOVvKw+CK55IiuRNbvzkHyQICBSYgkhXYLqLyNpLaG/ehOmsIUi3EHqwwNyIKEm6enQRmNLwpK9gEKPs6I/KaDbQfhB8blZvFLLPJ2JJ7LmdeYCg74IjlZEiWp3F4PSrqI68DhucEU2EMGKolWBL0Gk/gnDLmHouEQFBiexqCXRXkW1fwtb8OzDbn6AWbkjFjqwDTkCXX+8DhF3AgRsirl21GwprtUJco52+rJRANrUxkqACG1YQVBqI6+OoDswirs0iqs4iiCeAaBhBWHPggRU67FgbKzjwnX9pj9nHpgTa+gDhRFjD+w8Q8oUudrbEoi9uRTcnSWNo7lz4Cvy782olI+GitjlOcDuptp62CNmFkZuXeMm7AISS5rh/lT4LwXyo35N9Pl49auoNqEHTNedqsrMQQ9EMXrv4Yzxz7keoRRRJamgE4aChUFnFrmBRLurBgSvjZGpHlWKcUmIGy43elTyK0IyUitHYdhxY2JKqB9NZhWkuort9E1lrGUG2JREIloWywiOiWiPPmxlHr3SeBk8vxsdd0wEKqR8RxbWDP+ZxWT4+vaAD4JUp9aWS3ZFgAPHQBQzN/imi2kXYYFy8LObVlStTzp8dl6e+1/epK6gMhNmDhMJIJmH04D20F3+PKL2OOG5r8T3HkeXEHjv3Iwi7wy7XyE1ItQJSXbifmnRMHyCCQRU2HISNRhDWJlBtTCEenJKoQcAeMtGwcA2oEGqlMiF2fBrnpDBy67w61T50XK5S3qcPEO71Grov538AAEHsrCsrdPmGspCHksW1pt/v6F010AAAIABJREFUjZ47IOhXogsa6FeWvXuGgKkPJZGlGQWFXJjB/ZETER0ukXx7KUqpG77el7J9PQnPsYLLUY8SQJBrJgHG66fx5jP/Co/P/gtUw1mEQd2hkwO+SI+ChC+R05FdC27HoIzU05e6DBdukY6CQmbUB9R/Y4RAy8ZC20XAagjp87CMbHse3a2b6DQXkaVrALYRSBVEIsRG6t0LDlEnL//4sRH9BCFSfhsAQvH8Oi91kgjD28RIwnGMzL6J2tgrQHxGuQi2Jk3NvKLnAWfBCT/cpdJkvjoKnW0hsCtItj9D8+ZvgI3PUcUGbJTAVqnyZyVQVklVAlhEvvqfnhHwNkz4VtK3RivFEgIDytRTWz4eRFgZR33wFKqDZxDVZxBEYwjCIRiqhJoagqgic1cE3Cn6xT95vpItUPMqJVwanSWPpMS56gOE+z45ywuih5Pu7mS/rurOhaV/31sH4Qv802//poekSKGSw1Yx+Eih84vl2qJ/5G5LAELEJkvqC2ec7aGCBkmjZZIFFnBQFFHol9VXC5AJk0l/kxuSAkfkx/rvFBEBF8mXuJxLg/jc3Q6AIN91hISsG2B64FF8/+V/izMTr6Fip4Q4eagIgq63PI/t/iuvqJBV6jx9KbEU4pGGU4xJpRqENyZmV8K3oT4KG+JYMsEZVWgB2RYM0xDJOrLmAtLtm0i7S8i6ywjslmgssMyy3ENT7IF76KKKwTGg7zAL/azb7yy978trjwv6+eojSerAclQcf8OG6JoGwsGLGJl7A9HA0zCYQcAuj3wvu/ITd1vLD8sTH9V97LQzPUQjx7RhpEtLeq1dR5jdQHv192je/AMqnQVU0YWtGCSxQRpZYRtVE25aubk4qpt9IOfZDeL0jlLvbe3JlyodxshVmjFKUJG0QBZWYQkK6hOIG5NSfVCpTyOMxoVTgGAARqrBKgiyqlToUEiOUUlPllZND57TRXFpS6TBFonPqfYhYWO6fhXDvZ5H5Zm/c6r4xHw5ZMkpVmqLnDNUdov5ikkrFcnqs/itVX1S4RLnnQJt0MZm50v89Hf/G75Y+i26QTPnXMndHaIW2d8iNxqZWG6V5FGEgBs8CXSFyIc4bO72Xa9JASgaPHBPwPPlIkoMw6txli58riTzdtyDfCxytr4rB+J38wYSxWYowQYJe1pk7QCzwxfx9nf/e0wPv4A4I8OXKLycYtinx8MSI62ScyEOF9bOcxWafhAyoZTdiRyi69Gg2gde/ljHzDdP0fNpIVMCa6it0NUUQ9aETZiCWES3NY9uex4mXZZSSpimRhYIPnLKXQHIfIjBE5TynGfZaOViK7upMt7rNXX35y+DBDf6MsY+giJtoKMJDE6+iNr4KwgqTwB2SpqLqZdVAGAtEdWGROLl5bDWYQnJp/m1ehzglH+4QmdDH9iNlPT4cHPUL37ZgFTzwKIrnBgk8zDtS2gt/Q7p+hVUs6ZU3qAaIAkzpKFBTAkq9gnY51K6+zd/D87gbp7RSlkzOXJ2a6rUoM53Y3XUKuUTOK/Gjzqb0ZFsKKA1YLVRFSYYRsaGd9EAovoo6kNTqAySV0BOwahUHhAYEHJZt/lT3isw5Dg5GxcStPH98MPoAG2ZOh75PkFbIqRni0hARlG11Y8g3IO5ozLCjomn/YedsXD6+7nbosIiNM40NkooI7J24EHltIo79K7uDoDg91eT12vz2swF6ncNOmh2r+IXf/w/cWX+XXSjprRH5sSNIk+EOfhAlEmJ5W/7he8hT6/y161oWu7SA4z9BFXyxbjjnndx6MrrVu/LrRwnaaz4SMs9bTfCmZEX8OM3/ieMN56QskyWbkmYLrfxPl1wh/Hy77BnYHZ6TJ5w6d53jit3s5zuBvL7cMbbNcMQUSWksFlHQEMA9q+gxsICuq3r6LZvIG0vISPBMWujGtBQ+5JJPhMNiRegUtAiIjYpz6spGy2R7M3pHC/egoJnPx9LkFxeL3O7XVuBqZ/C0PTrqAy9BkSPihGWpedoJfIKZFlnTpeD61hL/FSF0XcpFNJNQZQ9+BK7T9/QfiD84eYk2nu5rdHUFjsAirJkFim1ho8VcU5kSJkzsC3E2Qps8xJai79GunEJsdnQOca5Ix0GjRDgJJ0l4h0Kzo7FR/CeX4NaAaTWWVULlfCq5UDadE2Pl1omhxPlt+IfOn0D4WdxDENkqIAAlWWJUXVIOAW2OoeofgqNBksShxBELAVvyA+CugADyE9ZyM21ePaDKiWnJYPpnEH9jf+9dygV7Lq47qFfS2D73RzvMHg+yeMEsPOX4Rv05BpY7jyKxHVSlQ3KrQCh1xdxr5nEFcciZpiaBDwy4UkOVC+0i1b3Gn7x3r/HpevvwNQ6yAQgWNn8Tvzr9JggB2q60eVbvY9sdCt4bPJV/PC1/xGjtccQGl96WQYIO97JbWdCOUq014HeyzzMeiwbV865FDAJLKsgRIGREQaWTK6JciNTD90WiY1LCJJ1BNk2bNYWwBBRFjpSv0L2P+GTsRucHzwHEBgRyosFe4WnDvME9/M7UtYoZVxu3Thuhvfo+NvEBmgHw4gGn0Rj4juoDT8vaovS3VEY3/pOhQRKYM9qEHEg/YanIEGWs0cSD30AwQEE7S2qant58y6CSN9MLIRlS0AHkBQgpDCiErqGKL2KzvJv0V56D5V0BbHtKgDgWuOGKhEHxzk6YQAhj9wKp0c/AijKzoyU1bq5IvOQTcNC2KghokUgsbA6iUpjUtIHNhoH4lHEEQEqowQEAhUVlMsVaN1+IfOy7GXtjFzLHfUst8J6+OLfHFXc1bLsA4Q7DJ+vgldcUHaJyy/CgwT/7z71sNfJFdftzjNXnXl6NBIIJLnNGBgJ8YeiKSARhD/8H7g8/0ukcVvEjNkm+W62p7uaRff5y2K+fX7DLaUyQBDwn9bx1Om38L0X/jsMV89J+2rRZ9i1iqFA33s/yn4AwlENBHPAXW5xzMcU04TzgmIUlsChDZutw3SXJLKQSXRhEWlrCWG2gYi8BgpSSVWD2/ydVquSGss68L6/w07jclTPc/TnUe6FdrRTP86VdvrSWdGICNC2NXSCKdTHnsHw9KuIquelqgGm7kpUnTGW0lJXXipEEmXVSNVDHkE6uErp0T/5nc6o0SitmnHecO6ouBSiF/viDicaGtzsFISGaALpPDqbv0dz6beI2jdQtZQMNxIpkGNdGa7jJSvIkvE6bhEE5UXJevCbvavl8Puv4k9nrQURSB5TopGpZbQgEk6BCeuIGqOo1CcQNWYRV2cRVaakAoEVNIzxqdwc0wLuT2kg5tvP51DEEaHL1vzBRa76AOGOAEGLf7w35oJPLnRTRmnFC/Xh791Zvc5r2bPWzpcaKdJX8Qy2G3Ytk4MWtjtfSYrhs+u/RsaSIwlukETYm8W4kyk5rv8uy7WUF3R/9VhfQn/sHfHyhR/glSf+NYbi0wiMonXmoPfEZj2J6fJZPTi4X+4jY5WOLCYpKxfpkI2KzGX1EgOmIewWYNcBQ9XGRSTNr5GsX0HWvok46EhGMyTIkAi5bgbqDBXP4sOtx8XAK0DUdVmoSSpRpQCPfFYyO2J0qINQn8PA+DOojbyIoPoYrB0RYZl8QJjWCY2UlXpnQM4mm4Hf+B6cod7/WuW9Mk+d6MbmdDpUq0PfeV71wvnjqInkHlDdM0yXkLUvYXX+ZzCtLzAQthGbVNuIuDIjUVf0gbhjWjHjKSVO6D0HmRoVKcXVnFMoM0CiBrGUGRrqEMRDiGpjiBpTCGqTiGoTiKujCOMxgH1AqGhoCURjH6zSKgT5n+qn5NVjSnByhs0TrPye8uB0O/oA4UAAoRxjcht9TmBSI154GzqjenP2hRfqF+utl1dpUyG9iTVXUp0NurBBE91sVToi/urD/xvXVj6FraRa2sX6/2+J1mlur8uvw2Ej8WOyAPVgDG++8Nd4+vTbGIhmJKSsAIGphgJL7Db+5XyeI50Uwk/7t9R3caSXTNRIEsGhV3JU9rKqWOouSVIj+zy0AGzBdK+itfIHtFY+QiVbRxUpIjdHVTNBv+onpt9se+se7uLW78NXdwMIos7hvH7RTbSMq2kczoRVZKwxj6cxMPUKaiMvIYhPARiBsTWnBkjWtwIEDSe7tSqYjGCNH9d2dE9wfx8e/o6XUAfDRxCkJI5EN+/f5yXDTEsSYGojMYLN0GzANK+gufxbtDY/QGjWUI8yxASkUpnjdDdyKpYCjuMof6Bbcd7wwEUGvOexk5OgFWWZqaAbDCCuUbxoGpXGLMI6iYbTklKwotSqMvPsoigVBGxa59vXq/RLDkDVsDtakIvuuX7w5e5OD1T5sw8Q7ggQfPRgBzjo2fl9S1/fgMd5ercYklKY2nXw2nl5rQRgeJn2Pxb5WBouE26gY25gce0zfPrlu7hy/T10gw1xiAsf85iE+O5o5PZxwF5CQIKWIjSiKfzZq/8Gj01/D/VwkswqBQihzz3vuEbuUDtvfSfN/T43+BGSoUSO2E5XRU+0dJJZZEdWonZV3k6aoJLs80UkWx9i8+avgObXqIPhYVWx1PCwVpr4qMFx7EhQAAR9Hs8bENEs6dyoERbKBMtzB5E04O5kdYTD5zEw+TJqw88gjM4gM6w3V1KiKHDSg5Tx8apfSlZTn9JHEO5XJGkf6+CWQ1QWXPuEMD3iQkaCCb06py+5ZTlcB1HQVHDQuYbW0nvorH2EKFiWBmNVl4f3KR0l9LmUTol74Hzfw9zwg/uO9zQcapancmRySV+55yRzg9oaWTyOwbkXENfPIKxMIAjHYIMR2GAYlmRDclskbRDKHFS9EudISgWY67PgxeVcg6s8eJAT2TVNpB/dSx5U75A+QLjT9JRmPAzv+7K+3V4Wtf/9S3UvVnJVShDyi0sjDB6s8sW7Y2V16cYk/y/X0+gBr22CNrr2BpY3P8CHl3+By1//EUmwhaBCXV3qpTv1Q3+TD7P9utN47+ffSzjIZVmLkLkDCEOVWfzg9X+Ls+OvoxpMuRQD217q+1ORJhdyVe5ViRLi32UZcN3PzYGbeCaiSkY0lCnuo10zdTMs0lBO5DnvNx9hE6ZzGZsL76C7+j7qdgMxm+24aStFUp6ZLabM128en/SUr7aQt5R7xPoXtbHK5BZVzVhTMkZyxhHawRCqo49jcPJlVBpPw9rTauCF4EvODz1iHwn0gQTdOO6WEb6fqX0Ux8j88JuQS7soONBSTqlskEdKpUtjZMljuYr2+ifYvvkB6sGq6HJI11HvyDCI4NQ6pfoll/MuqheOlXtSnkQuYuSsgaYYZK0FSCU6GyI1gwjqj2LssR8iis9IWaJBHZmty5+sQmBZonxYYihVRS5CIOk9bbKSux+5PHWpMl1uoGx7+imGo1gP9/AczlBnGmLU9sVOwcotvILMoitSqwhcFQMXUi7r6oGDR4a+dtUpBLqcqiJObdFpmEcMO2hnS7ix8kd8ePkf8c3Cp9IR0cZusXuGspvwebn2PRyVB31qnw/UkHIpm+7dGBNiYugRvPXiX+Ps6HdRC2YRWJYU0VNUmWfBVB7Rk5smJcUeWT1ogKAeoJRUMUSZexIurSy3qc2dlE3gQ+I0US1YcwOttV9je+GXqHRuoEKSWWRU4MojIfG2iZfKhNoSU/tBv+TbXF9BgC/XdGkTh7clv+uIijo3CjImTXYXMZJ4CJXBxzAw8Sri+rPIMAMTaCMvFfpypWtWm+dI6j3nJxbb4GHqyo9iWH2l0l7Xl9lLGov3P8QJLaqrZFQInrIOgmxBAGVn4wO01y4hSpZQZRtzzi+Xj5ehdVULPnoga89zPlxM4fhQXJXEkkf7XWpKgaFLMEq0DehYsjnYG2EGI9NvoDb5FsCUpUsjSJWIEyzym7uPcCnXQPMxqiJbEKeK3jflculS9LKk2Cp8hQeU1upHEG67YhkjYg6YzHElLGkdbJ7Byrtm6YKh4fLpBg3FyQTJ65A9gHDa/Qo3XWMDRYvSh90Qf5JbsI6uWcSN5U/x0Rc/x9WFD5AE2xryzNm3blPzAOEoLNBDfo4yQBDgJqJLLpdHUafUohGN4qWLf4pnHvkBhqrnEVsVSsp7NRDs0ZOid8m68DASHQnnAjgk7xcsf3t/IwiqbKHenoguOWumzbT8fbmUVllvQ/LKK0jbH2Hz5s9gty6hQi9R6tu9R6JzVZ5IGs97U3k8AIKmjp035sPmfs66TUuMvV9fpbdKr7DLQtBgBJWhC2hMvIKocQEIZkQLH2yS447X2ncfMdQcfJnI+dACBNH4z2szC/vDTV5SV9qWPDTrQkTsrr+P7sanQGeBiZh8u8vnmSMlFqvBzxPd9HL9g17C1cNrRdwLLlw0XQLCpXCiaEylsBK2GwBt00C1cRGjs99HNPS8VsGwRNE5cjrTSuTyPILr8nq+nqS8zkqjU5ZN77U/ane8KuuDGNA+QLgTQHC16OrR64LIbBeZ6TjjSsMRC1+ASE912JxQkhDiPEHIGeGeOJzvf1BQxIgs2bcAYROJ+QbXV9/DHz/7Ba4vX1JwwPr2nnB46QFOemrBG3oXKRC071nUPprncqY2iTBSm8PLT/4QF06/icH4NCLmCUn6lPJReoseJGhUQfP8DrQVwUB31fsJEBiDckxmmS++hNUTL0qmOs+f6gBQ7EYqG8xVbC+9i9bK7xBni+IVkqzoqyZlCtFDzOeSAw/HJk7sw7W3klE8hvKP1tO3gtCbvUGCKrJoFEHjETTGn0Vt+CkE8RyAIQkXixKejAXnhTbGoZZE+fNwAgQFAUpUVEaqCgDxfXNOsWHYBkK7BtP+Gt21T5BsXEaQLCJmR1GnkyDPmdfHupJSHzLvqQEs6U4el7nj7IemW/QjQRbRGFPV1MwDhChG245gZPxNDE6/BVQegQ2GlGtAfpjnqsiZtEGbRGtyUKqzUM6fX6lnFimM3XXsaI/2Mvb3By70AcKdAIKLIAi4FD5AB+10DVdvfIK4alCtxQjDGuJwANW4gUoUIw4DRLIBDaoetmxErluBK1XTchcfXSgmAUPLmWmhk83jxtKv8fGX7+DrhSvIojbg0wrle/b28dsEDvyi9rqnpb1N4jbcIbIAYVrD1PCjePax7+HC6e9gsMqGTY289lgMf6ncqEDqpTKjvB7qcCVuh9tEPBPdtWzMTYw3Zb4KwbEoZE55YRxuDOztsILu9kdYv/kObOtzDARtRIYqeg5u+HCnz0640sHjMo18lqFn+fooSx4B6DXEqp3hCvvISQgq6GIAQX0OjfFnUB9+EkE8C8vqBskra806+zcIgOxRuSunpO6PsfZXub0YGg2CthrXgKbW31u+e/byCDYlBZU2v0Bn/RLSzasI0zVJQ4mGf+lRtEzbaQXIJubtVAmhOxq+D6vf35E45NVctN9pDiq/pBRBoAdG8bluCHSjOrLKGYzP/hC1kVdgSExETcaUCT12TtWPylizEVsu3lUiGPpo1g6IWYInO1fegwUGfmT7AOG2c0xggSs1438lSOw6bqx8jJ/9839EUGmhVo9RiWuoxsOoVYdQr9ZRq0SohhXU2LazMohabQC1Sh0xw5dk0QcRKtTJZsjbMdMLsJCi013EjZX38f6lf8D86hcwYYqgamXSqqCHJ5QVOfhycPyQy+bYfM051XljRTFXzBc7pjZTBVliENkQsWlgcvAcXrz4p3hs9lUMVE+Jkh6NfyiaCK6Hek8KwXvou6UYDjZMhwMIKpesP/lSLREQPDPdqXLIrk9goJwZKV2z7OVwDRtLv0Bn7Q9okKyYJlKyJt36JBLVK/DVw+c42GPe16MVHJRK1HaAm9x78x5/KcgQiLawquCReGLDClpsiFOdQWPsIuojTyKsPgIE4zC2DhvQAdC6da7XItX0MAOERMpf1bdnuR1tRgcwK7DpNXS2PkV38xKy5g1E2RYikyB0XUfFy3V7UzGO+nrzdsL6l+Kd56TX48NC0DFxCqwuaijZNleZQW5wm/GWeATx8LMYmfkhouqTsNIvQYWOJIHsjbG0d3cRBDmfylwXpbG50XbjVo5d+EHfsdZL8OG+LrCy1elLLd9u6J234erQE9NEO7uJ96/8PX774X9CGm4g4n4fRIhQk+YYURgjitgoI0Qc1BBKgyAFEfVaA436IOr1QYwMT6BabSCOavJvcczvVmBNF9/c+ASfffkbLG18BVtJlP4QUzpWAYLCfN/S14f49DmOS5Tv0BO+IOHn1A5PLJKRYMOe0Er3SPJDbTdA1TYwPfwYXn7ibZw/9R1U41FZ5FGgQIElkKJy5pooFSNZ7tXgIwgHG+HinOXv3c5P98c5jyT/mv+O3keRYS/AQdGFTz3IwKyis/k7bC3+EnH7JippCxXD0r9MAIJq9BdlcDtz7Id+R/fwiz5y4L003acKwlxeCdTjCru+E57aX5KrYWOdLIjQAVMOY6iNXkBj5BlUGo8D0aQK3cjAqI6GUjvdhtkzX25vR/b+V+eN72vM9NjecPRu85FKm4mLWXKuJLDZMlLyDZqforn+ifRaiG0LIVOoTGlyO/NkTC+kVeYU+PJPXy7pYw3C0/CY4pgBBDoVpX4kZTpOFgItGyGtzmBo5g00Rr8HG551zoVyy1xMWPvvSPrG//A9iYZpDih9BOH2FtpP2t3jDPuaIkd80Lc4gnA7Q1+8IGMouMIJkKFj17Gy/Ql+8Yf/gG+W34eN2gIQZFkQcvpwkyPNxRFFSkgY8tKtIcJQOwpW4zqiqII4rqJWraPKnwqjCgY3F65iY3sRKYlEFa2fFf9Qcsbu3rxhzJXj7w4g5MDDE933a+927nV7DetRxa53AgTnzORSqS6vyKoiy80wo3MdomIGcXbqJbzw+J/h9PSTiGO2/h1EiJqGYUn0Ew6CRo38QlYb6RTpcgimD+lNu3NAct0Tj9JyJT45uFzXvFf4sByx8GkEN6COTe/ZzLkX7bgSKqSkkQfZHCRk2kTW/QzrC79Atv4p6mYDlSwVgEDXh1NW+PpSHuievewZHrGxOYrTeYAgG2Xea8rdv+xUrlR4B0AQ8Cylyk5TQsphXf+SIEBigCSsIg1HEQ88isbo06gOPoYomgLCASBkUx0HKP3ak7SDW3eled8bNSpHo3aOgJ8HO977rgOluaAiu+0P0u/2vjadAyrXzYZfK0haX6G18RE6W1cQJMtoRF3EudZGETVQ0rSf836We0CU1zC4WefvSVeC74N5FO/5Xp+Dd+x1DnLA59IMfPyE5ETqGgw8jpFT30d14FWYYFo4Bxo18OlhF82S+VhUFZXBQe8o7nyy8rvf3S4clek8zJh+SwHC3gtS83ulhSv16Ik0MmmbRXx24x/w7vv/D1rZknACHG9x1905P4tbcPJHniLQf1XU7nKcrHWn75dxYXNn03vxZBoxiDsdjv1s6HeaGW7TdUVhxdFuZvYYn10AwJ7k5b3EjPIVeacb2+Pf/SvaZa3tvBeJRMveGSJKBzE38gS+++IPMDf5JGJMIcIYYLQtaiCkrMTlcL1AFiVRNcJQopKWqk/kLar8sWhXsJeGlb9HBIjS8tUTxKRsIBc+6R1Kb3w9OHHH3fJAxUMX3y+LeblQpzw3N4dFtNb/gI2bP0fdzqOatBASNUUqRczSP8ELnG7CabsdcD7k+zrirxUgwW1cu8wz/xTl4SuezDVgcoFgTnMZtSBAx7LV1QBQmUB96DwGRi+i2jiPIJ4ScpphPw/X20B5CRrRkQ6iWs+mjbFcdEEBSZZ3Y5U77iE77ljQhdSeHCprUl6Maw5E0OtrLuVyrgrK8Sv00AQ2bQLYgEmuo7N1Ca3NyzCdeVSwJY2XxL91AyLQ1aFcvZtCu6W89j1WzqGJ2I1i+9Ly0mPwcc/qoJWz3S4iy3GmDQ5idONh1Cdfw8D4mzAVVrqMK+/ATyT/7Pn5dtvsS+Oz59DkJ3zoBq8PEHa8kgIguN3csGwsgYk62Eyu4lcf/wd89OXPYeKOGFkvOkP07I2RBwJ7Lpb92OC9nMx7MYVygLDDdrlr3Q4g3Kmyqee7D9B6iKpZEiDO6jh/5lm89NT3MTv8AqJgEqEdQmAY3ZEuTwoSpAWW8xR8qFAe1iMOLWlV20qWOF8qeQ0qrcr/NtyHJTRdJMnJOXEKBDvSQT4jugMglELat3/1OqmKSILr52C3kTQvYX3hH4DWZ2hkZLAnTqJfUxV85EikdFVj/zh8ykvodtNq51LTIJ8rknQVnqI87SIMBAnsApmC7XqptX8KQyMXEY88jqg6C0TDAGowliWzFUkhklck79y363YAgb9jRYE6AftZ9L0jz+iliD5JPwjVZBDuhF+XMqnJN0kE9GlvDpazNpEli+hufontjStIO1cRmRVUgw5i6bngSvJdesCl3T002BGN2M+s02Me4PI+8JQtdwF1zSl04ye/GQG61Dmon8LAzFuoDr2KLKag1qCjJu51uZ3v+DiNyO7P9C0FCG7zdya1PDQ7GcJk/5Lgk4WbWNj8BD/57b/H9fVPEFTpchXGxqPrHgx5cJtQWv0HnvN39QUX5Nj1HLfYttJz3REg7HbGnVGQu7rz/X+ZBsCmAaKsgUdPPYvXnnkb4wMXEGJYOj1yc5cQfaAqhoWHoeH7ogbeV1BrtQGJb7IZUM4ZlMeOpa1rFNQdGdUVOEkHRaeNcYs55dVK1RMlBvT+n1DvS2rdpZsfWeltmO41bC//Cs3l32DALCJmqZtECzQ6JREEp5d0XADC/sekONKDgDw1IQDBEc1kILSVccpqpZCd+mIkpgaEIwgac2iMXUClPodKdQIQmd1hIGggDGou36xj7wWaVCTHEdXKe0WuY7HzKVyTgzzBRYDA+UicwPtR4psKGGmzLrInAnZgNFuw2RZMuoWsu4jW2iV0W9eQdlcRoYlaxLZVmaRVYqfu6ku3lfCpi1qFpg4zusfrO2rvVKtGPobzQFd4YkMk0TCqY09hYOpNhLWnYcJQ8whNAAAgAElEQVQpZLaKWMpdj9ez3s3dfosBggcJvauhFyDogjdoi2DR5eu/xLvv/19YT68jiIuOZmVnvxxFuKuF9gAmIUci37tL19/zOUp8gL1wwN1MzqP+rkYCA+EkxHYQT5x7HjNj5xGSiCZs75IUKtMETlNPiQwkfbm54l9yQI/N9UtgS+6UxrUmKYuhwRmcm3sKQ7VZOX/BR9DZUkRm82C492PdYx9Od0GU+Ol5Sjc/KuJ1hayYbH2KjRvvIGhfRj3qSFMiD0cYCBNnVHeIE/tRgFCo2XlxM24Mmt93ioMkuUqnSAppUWaXaYc6bGUctcEZ1IdOoVKbkyY9QTQORCMSVeAcylUBvJiTpKfYzc/3dvDRhN12YYJM/wI4R+jLeoCgok38ZwIDea92G4HdALIV18lzAZ0muzEuAd1F4aCEIB+F0MIgEo2QgtDpk1pavVhEw+7Kbh2j2VOkVjTlxHmg0YMYpnYKA9PfQXXkZdjoEQCMHNGJUMnzb8vnWw4QbgUJBUBQ/5GeZGa3sdX5Cr//7D/h46s/RydYE8EiJ4eUMxb82dw+dHdI/EFMwjukwnKT5u+trNtzmBVzn59R3qgFYjbv6TL0W0E1qsFm5AwUm4QKy6hBlpKmwIgksdbRu1007+KprbiFiUBZ5CyGNTVMjJ3B9179S5yZeBUVjBfaC0Ja0ZlSiDLtnIeHAwf5WQxLc9n9syONvyLbgk0W0Fp4F62ld9GIt1Dh/JXjyF53OecT7jmWAYLfBPPOjfLsbkKLZ8mUIV9UKKmihPMjqiIT2V129JtAZfAUKo1TCKtTiKqTqsQoOhsV11ac2zHBgSundRwFnfY7J7/zZj2XQN1alzZwjbtyoaM2YDdhUm3xnXZuoLs9j6S9ApOQY9BBTaILmqLwqTDlRni2pnINFBwU6pzflggCHzzHYqWUCytauuEAwpGnMDj9JwjrF2HsBALUJJWkvJNvz+dbBBB88L/s7/sXXXhxAhByxjm9sQRdsya9EH790X/E/MYnKloUETwUy7y0Z8pJC4b1ISbTA5iBO70Gby979oxdhi73d0rk554nvt2mcx+fk69VVAQdy1MD/XrTnvhZpIcUIKiQsRIPQz8nioPysKw2flKyIksmbVZBozaGl5/5Pl4691eoR2fUwDgVR5E3zgFCeQ5qDMf5eYeYOPoVEiTZHtzwRzaKFGG2iWTjfWxe+3tUzTzigJuMaicoUPFCXoe+7LH4YjEdS4u3HMQpIKBu4tLTwJXySUUo5dYjZLYCEzUQxCMIamOIGgQJo4hq44jiUQTREAJWPoTcWEiCdW26c7GlogROYzeM+vg/XT09uSJZGxCyKcFeEybdQJquIUvWJH2QdlaRddcRmCYix0WIjEFsTG8bZrd2e+sQSjjFGYBjwFE9mnnmAYJUwvgqkBBJUEVanUJ14lXUx98E4tMwhtVOVRZGl2UwjuY+HvKzfEsAQo9V3yOO6lvoauDVN12iJ9ZOFvHh53+P9678F2yZediIrC5PTHM+pY8+uxd+HAGCFlHprp2XDXq3NDcwvUxl74CUyqL3nPJlrHAfsUHxPAIG9L0JEdw588L8Lr0/f5958+6daMkd4FMO/C7FdDzZyWb0Mqo4M/Ek3n7tf8Bo4yICO4jAso5ea/MEfsjglaGl+PPFZn0Y4yFAiBoHCWyYuDdqEZsmTOcLbF//B9jmJYTZKkJJm6hyAMeF4dMTL6RRxgXyyvRl5nPTpQbUqWYpZIEYpIzNSd8SNGSMGAURTFiBCWtAZQBBdRhBPIowHkVU4c8I4sYQgogpLB9JoOCSKhwqGcRxRkRsh5EfEg1TICV/hJyCLaQJIwb82UCWbsKm24BpI4CKHDGFIGWGQSCS2kHq5d49j9pVQ+WeQCkalk9BnX3fig8jhHm66f9n772/40izK8EbX0SkgwcJgN4XyWJVsbzv7mm1WtJqZrQtaaQ5c/ac3f1l/7D9aY+mV2Y0GmmlkdSt7i6pLMuxit57AgRhM5EmzJ773vdFRoIgCYCsBFlMVPEQBDIzIj737nvvvvv0TCPwa3p9QGUvypvfRjD4MhJvBCm5BykBPiudNqzz8oZMSw8gOIMunRi1tJAHv+RxSVbzljBXu4yPj/81zt/6BFGwiNSPpX2n2g3daG7fZc5IVqO9jnnttvXMQ6acFW/bRS21omFlOZczruKA07um2bPMHcfYl1I/qfxzgENDtlknOu6zLifzckdiNilqINtf2feZBLFr8pADRss8zuwxXP93GReDgXAMv/v2/4mtw6/DZ4OXpKReiFVc86UHcxsgaJGEVpOLJsM6lo6Ww3GsIynNdaWrQVoHoluoT3+C6uSn8KMbCA25CCohruV55tHSYuu53y6/R1MK1i4Lz6A9Bdn6sBwT5RLqvOuPbKWS7WRo61dljFn9INEFSSkUkJIFb0qAz7/peaoSI9NaFOgyhmCR1Q9aDUOVVimnThj1aSJNIuEgmDRCGjfl5x7/pPzDZkvazdN2WtCIlH0AMfJci07wKCenLW2fs0fW1eEEPPS7/G7o8uR08XJ6Njl8Rnl77soAkb8J4cirqGx+G15xD2KvAnZt8pOilDj2AEIXJ6l7l3pwBEGNlv4hPUnklclG9mI00xlcvfMFPvnmbzC5cA5p2JQCuMwgtivY7CfoUz11EYT8ZCwDCc5D1jC9jpPkM8X7sc+bAQLdeGKk5HUs0Wob4fzxs9HeyvK0UAcHcbl1XknTwUUSctGH/PlaQD9ePfA7eHHv76IU7oBJB2Ckb7xWRcjYdAAEG0Fwok3r2SACThhBUHU3NQEMNzeUrLhwBrXJDxHXTqGABQQ23cE7Um247/eXSukKpBcPUo2oTiBV9cR4ZnNtQaGLMrDUMJeyz2fcHNB09QXapjtnvuWDtapBVfgYfXAjbuWvRbGV1Sfa7rs9GcoR4NVJKDXWiXHgxTkoHbGo7NlyxNv2o+seFqBjRdxsd8+HVSV9H1aHc+zE0TEUsuN55aGRhEhLO9E//iMUhl9GQiVNiiWlPkxSEI5RDyB8H1bAPc/wYIDAkKwjjMVJS8qIuAkTNFCLbuDE5V/iq7O/QDWekr4IkQ1R+85rzhOj7bWfNoCw0rSLBos4UQoIBPg4JTobl2de35GfrMMl4yfikTbkqefxCqZHYHyXFlyeUHmfay4/HDsiDg4MLL/d/NKyEFPND+DHISYGD+IHr/0pRvuPIBDNhRKzU6oCLxd07HYadEdUo7e5TmNtAYIaP4dcGG5uwqRVxI1baMx8iurUhyiwNt6np6riTpl0bJemZCMuo1EBzS1lboHNk2kvDzt7YjB10UjqjXSE3AJxugaZzc1FlRzxUcAI3ydUhjwJMd++286zE0Gz1l4Ah0pdajmeAwVWTVXmVpT/2gY+65VgX5+wjDWXNnTjbXdyRq4WBr9LLW7EpHT5mjaJnLWp1uqQAItxCYXBIxjc8hOY8n6JHmjPBSri5lIM3TqzujwuK9uAB7cGewJu8VFvoR0d0N12L0NcjZ6mGDS1QIMYo5VUMVM7jc/P/R3OX/8ckakhlv9sro88BIbc3SXyobxc2mHNT9DtBegIhplvZS2cI3Xbw0siCITbknNvh6OZbhF+HslxBBNyMLU/I3d2ynvbhvfJAggCgO4JK+ig3HdKVozIWvJjbFAxm/DWi/8ez+34MUJ/Aj76RWyFYWUnmKTXpcfoSittI5g1Lxz5JPlstYOOXMGyODLaG0jiGTQXvsLCzX9B0LqBsk8eAisa4vWDknXd58a9qZ0OtN61DRmoEqIugraqaH6NKqrQsXXRhY4gUFYQINLVNPASD3At2nUVOe6Lq2aRWcs2jAXhjgMhEthWxd2BPkln6F7jrUscQgIOWsLI38UEffkQneNW2N13D0hwS8eqNm7c7Hy3V87wvMyzqlCyUqmJAur+KAbG30Zl5D3An0DqlWzVAvdrQSqdrGbVd3uTT9CnPwMchOUAwXlt9sh3MUXZOBTI0eY3/L4VL+DS5If49NRf487iZaR+S3siSNRcZZJlk+Zk9jt0EJ6giX7QrbjDSYYiczPsASh59RQSLVE3SjeKeyX1ZUQqTvkJNE1MuWZysE7+x+oKyIZ03njea+rGWC0jqHVccpmhvyfD4GLIDwIL7gMtN4MeZBiXsX/ba3j7pT9BX2kPAm8IvnSQ5OFOGWebgsk6MtrSyo62QGsZHKbH3Ezypkl4U6YdQUiSziFtnEZt8jdI5s+giCq8hJoJrpphLdd6Cl/rwmKZ/+xSDJ1AQNUw82Ejux/sBlemkv7elQq6apjsh5arIFUrHQvK8ho01p0NYgf9V97b5jY5rkT+fHHvFTCyzCGRqt1sL1umvr0JxzNoZxzaKrAd+cCncHofdssugGRZicLViFIfjbQCb3A/hra+D1M6ghSjIoBF3gGBNpt6cX54Dnbbf3vYM32Xv39GAYJsp4yco7BeBW8E77PZjZdgqTmD4xf/P3x25r+jjll4IUOxSshTjoLm8LIIgnG10xkP6rucu8f22bJp8vF16x255yJmEoJOwqgBuyCG0miKoTcOoyHTjc2sWk3tI+GRo6HNSwRwuahu7tByM7CRu62jQVXuMHWOZM7e56kCHePuItK5U74du6Y6W2QwXN6JH73xX7B19FUUzCbhIUg4WLpIOoDAyBVJhTyIAgWga55hBcMKEDQ87VE2muQ31u/L+C/AxBfQmP0YjcmvETanYUh84618zwlq6qRbo+6Md45vYPsiW6qe06vQaIFmJbjXXW7ChQttKidnoTNyYJ58o7vApizavAcV53LRiJzpsX5Ne321f5dBF4sD8xBDl0ybaqjvt2W4No200jTLPcvr8shizQvwiX8Dx8qBLaqH8h+tJMCSN4TKxBvoG3sbqaEw0qAKqBHAG/ZmUE4Iu/Q+S0oIzwBAcAdfFlzq6OneDnkzzKr8A0cUujt/DZ+d+iucuflLtPyqtFyObd287E0axzxy72ALd7ZMfxJ3Tt5pzn8vnguNm2yFAGlkUCkNYKhvFOXiAIphHwphRVpVe8LOJgqP0GhUUW8uoLa0gFp9HrX6AprRktTii5av0fSDtYlqyLoMxzsCBbbZjBC17H1kXlXuhZnX0YEY7FuWRUFUjl8PWZLA+NhhOoxXD/0+juz7KSrhVgQoq6Kj6CK0AYKUtz0ugCBkON65Nv5KGCKVePQ8vNZFNGc/RX3qa/j1KQRMM2Qo90lcqY/nnnQe7cRKCiDfJtppTeejL9aHcIQ/a5llGAXg6X1ZyJH5HJJuUzutYkRaM6yme/l6dz/I0Gp7kcn82dfL9TKM4b7X36tx11/qZdoHkYAa+8zaTMmmSTKHwPIxGAG0lVdd3pKPZ3JX+SkWE8irfY5B7CFKC2gE4xjc+WOEg0eRmjEg6YcXszEXUQEQSTezFL7HBOHaofsqb++Je9kzAhDa29gh7PZMuDwUAQIJW9wlChYm717B56f+Chemfo3YX2S3VyEoyi4UHYR8uCmXk2ynMrs+4XK85Yxbh4dr/+EeIRPJsaFMx69mHX+AIgYqoxgd2Iqh8gQG+sYwODCGcnEIvq+tqrURkZZ7JjRCcRNRVEe9Po/F2l0sLk1jdvE2puduYmFpGnXWbptIOgZKzl1SEyrsI5EI0SSyOgV25JYLOGUz+SinmLMR9ixVT/s+U5W91r3gXh2IPMhxBTF8FY8R6t6jWcTOTa/h7aN/hNG+wwjSAW0bK7Kt7oDWluLq+SsHYX1VoNpJUr1V/k3QwZ8x2sPozjTiGlMMHyOdP4cwnoPxI8fb6zZe6+r+6AB6Nsefr1i478247JoDkYp1Vw645Ax2J+l1rQu2vYnz6YPsU9z1HRbIkS5lWTtAYv9h8YPbVR33Li9dFt3r6sR08WIZQGBZr2SSKSNWBPp3oW/H74hyYuptAtIK0PJ1HAMCBJ5bLGINLEBY63x28SEf46WeIYCw0qi5XaY9F5zBFAnaNEatPo3Tl/8ZJy7/PeabKpCUmERAQsy8fGA791mG8XLvcyNKhvIAIVvC7dJvMUgxpYXFIlvhoDiFLy1/mT4oSKRg29hebN10AJsGdqG/tAUB1eGgMrKula3zkJTYpaQfEt7Y/TJN64jTRVTrdzBbvY6p2cu4fPMM7szfQkSyHMWmAluKR6KnBQusiOjwuDpc/syJ6m7kQTChDuJy9vryVbX8dgkCkrrBaGU33n7xZ9g99i6K3mZ4SSCAiKF9J0+jAEEjCyqotL6drgAhQSonoAJarmcDNvS5jqW7X6I++TnCaBIFb0nSQ+TWZKWr67vsU/GujkiZu2P3wzYGbD/Lsjlw8QV5wQprU37edvYf25isdiksf5THdgPfkw+SnaHtNentwYsMmijCH9iDyvbfgikdksZMImwWaZou9VPEPK8YQegBhO/JSljVYziA0Nald1K8NFI0cnO18zh/8wOcvvwxZhZvIDZNpOQi0NcLDGLhf2kYLwMI9vDoOkCwzZMyr3uFU0U1cdi/XrkDUUSWjocSKhgqb8KOLfuwc+I5jA5sR6U4hoIZhm/6RBkQKRXgVErMHURJFr7UcK2EzsmY97QLZoIaWuk8llozmFm4gRt3L+HarQu4M3cF9XQenh/B+AIr5GQNfINGKxIBH25i5/mIF+VwyGpPy1WtgVW8aLkhWH79Zb8XPoe7WYaYmx5K3iBe2PU+3nr+D1ApUHqZYEsJUIxhak28le2T9IAt0l7F7d0DUgTscoVacmLKCoUGvHQarcVTWLx9DEn1IsreIgLDFESCiNK8TttiHdfsvaU3Ak/DCMiJL3afTdsYLDZoJj6iwjjKE++gNPo6Em+bchAsmVhad0lHM+5YphjcafQ0PPGj3WMvgmDb47oIAqMHUsLHFGPSRIQFVBvXcPLCv+L0pY8x17iJmAp0RWqZtesAXb4wM2gP6XT4aNN2n3fb7Ec+rdARURCjpREEGgO2N45bHpJGiB2bD+Hw3texY2I/KsVNCL0BGI8knYIqv2WiPro5lMWtWU+9BsEBQ3JOQIljEyFGQzohsnFQM11AvbWIuws3cO7qMVy4dgz1eEZU/4IiNe611lwIjk4oJhct73iuboOEB01YDiBk5Wp2rAnEaKdLXhE7Rg/hnRf+I8aHjsB4gwq6vEBIiQQJbBsthDIZ0LxW/+pXiwJb23bYEquSdAm+R3neq1i8/Snq0ycQpjMomCaMxxJIRn3U9X2ShnX1T917ZW8EVjcCLs3Evx2PpJX6qKf9CEeex+DEe0DxMFI2WJMmW7bnqaieahK2R1Jc3Vh/D16VTzHo91HMnC3g+0wfsII5klB5rXkD569+hC/P/ErSDQkP15Bh+lyJkPUaN+yQlVDyCkwjpVnI4S8kQZbER/w7QH9pBLu2vICjB36CgcpOlMyAaI8zZx0YrQNWZz5fCqXGRLeOqgJKxp2er/0j3dKkO1ICz1fpX5I/Y0RoJkw9XMO1qWM4deFjTM9fBwqx5PgilkqyQkRKJW3IQMoqLTfbhW+7PMgd0WcLCFaMEGUJ3fYNJlGKMDUYKozjtYM/weFdP0Ix3ALGbVJpEewAAseVY8lxcwBhbYQojp02j+L7WE0SI2WkJrmJuHYSc1c/BBo3RWaZWh+SMkkZPbDw4H5h8+/Bbu89Qm8ENPnmSre1DUZCHYSkiLg0gf6xd1CkDoI3hsRjV07taeFJ9PQRBMye0qHvRRCyYLl6XTxgXRRBD1q2BWWZ2KJEEk6c/wDfnv83LLRuA2FLSh9dxEnO1uXE/G4asmWGq13K7RhI1Gwgs96DF4XoL2zCC8+9iQM73kJ/cT9CMyy6455Hb9YXJTdyA6j8pyI+jvimF1I/X2GCyMdmGvWKtEVYSUpHlWMQp5G8XgBDOo966zrOX/0Upy9/gjvVa4hMg5R/NOMWPJ8kPdFslnt2+f+M9N3Ncc1pH7g5lufP30MeQbhSOHsosHbajw1KGMaLe3+IF/f/BH2FnTBsDMMqEenPoNEXBQg2090hxby6E0YaNZEfI+RRAo06vHQKceM0Gne/QOPOSYQEDBLVSeExl0MOyqP0DlndrfVe1RuBJ2IEuD/4R9VheaYxGhyi4fUhHHwR/eO/Ba+0BzEqkgI0JBSz0VoaZP0bnogH6cJN9ACCrRtXBUBFllntvlP0oVkjSEhrqDZv4syVj/Dt2V9jrnELXqEprZ8zx9Hln5d5vF2Yy05mclaurZZLS7NIDTDwogBjA9txZN9b2LvlFfQVd8EncS4tqimUfePoWIwgqBfrSql0UympM1dYZa9juQi5B3bljDK28nN6thGSdB6N1hSu3/kGX577FW7NXUTTqyH1CSJsLTdLBV2aISfm021+R4f9Xz6ZeaDgglKWhCAik0x6NnyU0s14fvcP8NJzv43Bym74ppIRFCV8aYFFlkpZRxmDa6glZE829PHmkcaXsDTzCep3vkLYmJLUAn8nKTKriHmPlk9XFmzvIr0R6P4IqICiZT0JX5Hqkz6aaRFJcSf6xn6AYOAoYvZioOYLwXscwEjVlq1t7/5tb8gVewAhE5axYXS7eCTgKic1PTI5SiXdQNJdrXETZ67+K85c/hR3F68IJwF+ImQ75fG7/gU517ML02s1iZQ/IR2WrNyu5Qh4sYcgKWCoNIGX9r+D/dteR1+4HT6GYLwByYcrUc5yAOSetbFMvhG61pI7gKAP5mykDTY4OmFb9952gpTiCRlYjmsDqVfDUjSJK5Nf4ouzv8LU4mW0sARjS5CziIytzRQQ14Wx7LhEXoExHzlYHkFwipq2K7DccgIEaQGDxQnsHH0BB3e/hy0jz6Pgb4LUzbbZjG2SpwOZa8su6C1b5UsFrCQmTiKuf4OFWx8gWTiPsleHL+wsBg4UsGnfByv61e2x7V2vNwIbMAKu6Zw7uKjnEic+GmYUheGjKG96ByjtReL1CVlRAQKbNa2/umgDHvORL/mMAwTxi5fVK9k2xS7XTT9LLC/lNlneyFryJdSa13D51uf4+sxvcHfxGlK/oekGidiq7LBKED/yHK36AxQgKNtWQmi2EkA12w38pICKvwnP734Th3a9g8HiLoTeMExalja0ioiUN6B/q+mXEDi94KyPhaMnaqVBBxFS7jaDScusuX2t6L1rKSnb3MZeFbXoFi7e+gKfn/onzNSuwyuwNj8vXqPz4gfsf7HqIXk8L7Q182p029GiLLXkOuHZ+7L4ScbOJEWM9O/AwZ1vYN+W1zBU3oXQEJBVtMDadhXU5k38eOVxKGHk4be/vJWKUAqEcEJxpEUgvoTG7Keo3voYxfguCoakRJsiWlY7L8Gj7mtXPfwhe6/ojcDjHgEhkbddDUbv2Dy7mVYQl3aiMv4uikOvIvVHARRhUqqfqnJsN8/0x/3Ya/28HkCwBm3lgXOG0B6oYvhjpMzfoopq4zou3TyG05c+weT8JSR+XXQSNJa/MZ6uy4rQCRWA4LjpkUHJDGPvxCt4af9vYdPAARTI1E1tlzIR7HGsQLd53HO0d4XmyV0j9c7mRhpxaRM/O3rLy/vaaEmMGPUmpKlMJCBhsXET31z8BU5d/ADV6DbSILbtWJUo5C67knjSWhf+ml5vqReuckMH1crv2sdKY60+EHU+ad/nI/Qq2DJ2AAd2vYXto0fRX9yC0OsTqWoypFNRUmR40xE9tT+DjLFtk/2w++wECHy/UwJtAOldtKrfoHr7I2DxHEIsInDT5wgqbUFALSsV3k3vqzcC3/MRsE2t5Jx0+zv10EIBDX8YhZGX0Tf2HrzCTqRev3AQtG+KFTf7ng+Pe7weQHjIRGe+ssSLVW6TEYU4YR63iqXoJi7e+Azfnv9XTC9eRew3hI2vsra2aVGXFhM9a0cdEGNttRmYA/daRWwZOYTXDv8eto28gpLZDB9liGGT++RNaiWCgBsBOI6UmHfZaUTs6xR9LGsoa8uCsmd2Kk2WaGghiwKETFZBqxviOczVzuLLc3+Ls9c+QhLUQZ0FRkMcx0M1J7pcjueUMZ1gkn02seMUT/E9RM1E6qr9lHrcIYpeP3Zuex6H97+H8aEXUDAT8NICQkMFRe3jkaYkKFILQXuAOK3/rMujkBQf/LUcICBlc6Y64M0jaV3D0p1jaNz5CsX0DgLKLktnQIUAwu2wERHHOOmBg4eNeO/334sRsGXoruiLe4EVYDErGkwJqOxF39i7CPqfB8xmIC0hSTz4fkF5CM8IjO4BhIesdtbm6+Gp7aBVEClFLG2hWbq3iMXGDVy+/SWOn/0AdxYuwZQiRGnLhom7d+QKQLA5beeA0jlNGgZ9wRhef+F38dyOH6Iv3AmTEBWzbIeEQQ1vt0WQ2u2aHd9ADZh+ZWFw8X4VNC2Pl2jMxQknuTHMcGlOQF6b3YgGArUSkpu4efczfPLNX2F68RoiNhsSISVeS8FIlzM37RXiykiFY0KOij6lRGriFEnLQxCX0R+OY9/Oo3hu9xsYGtyH0IwhSCtC9pTSQhpxo02ZFCCwtNaWU9mWvYou1w4Q0pSRg3nhHrQWvsXS5Bfwlq6hYKpyXY6hNKtx8tq5NEP3Vur3wsT0HuJpHoEVAIKUZnsGkQnQ9EdRHH4JldE34RX3IEE/4iRAaAgQbAT1aX7+Vd77MwQQXL5pbcegUPZc2NXWi7v8uWoDsAV0DYvNWzh37RMcP/sbzC5dhVdo2UjCKmfiMbzMgRltIGU7z8UGflzB7omjePvoH2Cosh8FbzMMUwuChCmKQOBjDZK0NbXm3vILXNpAYIOr6nRlBFRMVGWf7AkycLBiws6ma9isPpMudhAsQuTNo9Y4jxMX/wFfn/1XLCXzoFOeWnlUlcPegDC4NaraayG3hqyhTSKCgxJGKttxcNebeG7nW+jv2wbj9YtqYoACPKZUkob0oCAjWgCCPBeBZltLQgRcspTPWiIIjFwtAekdpM3zqE0eQzxzGoVkTjreE+CmJNLaqIFrEyyRBLFY+hMAACAASURBVIfnHsM67H1EbwSeihFwUVLXWtuycyKP8sslpKVd6J94H4WBl5CazUiEq+WaNa3NjjwV47HCTT4jACHv4a4+PKTvYgUDD3anokVTyBI9phhorGhQ+ao6qq0buHj7Exz79h8kh574TdsrvjvLQxnpeq2UOuMx6++LGKnswJsv/h52Tbxp2w2TmRtKNYGWdNIrb+fW9LkJBxQpZ+FnS3AQ8MHQRK4Lom0oq9LB1oCqjHD+qz0P0i/Afo4afA9RFEn5Yz2ZxPTcN/jk27/D9ekzSIKmdEamcXN3thHbs60rYZ/Jdn4xaSAgbGxwN47sexe7txxFORyHQZ9oShhQiTKARwMtKQAinkAiBMr9dABBkJDqSWTLtE2kao/kMi6HzrhWlkhZ4w0059lv4Rj86g2ErGYgEBRRr9RKzSrQUe0K0lC1VflKV+vO6u1dpTcC3R0BR1KU08eWgfN7xvNaCNDyR1EefR19m95BWtgJeOxHs7yb4/1OovxO2ojT6vGMZQ8gPHAcpUeh1d4y8BI20aER5s/YkIhMce24E5GNjwWpbjh77Tc4fvaXWIintc1xFpt/PJN230/Rm5NuftIskQChVcHuLa/j3Vd+hsHyHpi030onkySnhkXfpjfpdA2cwZc+AfaC+c53Wsyp1R0KItz7cwDMPXeuR4RW8LkogrRTs2plijeimOWiTSw1r+H4+X/EV2f/CQ0zj8S33m/H1b7j8XQfn5PNboMlm1lpMjYwiC3Dz+GFAz/AjvEjKIWbYFCRxlZSbep6HGStHqnSqTXVarBtDwbWW0v83wI9l7px71s21g4WaFkHU0VNIJlG0jiNxclPEc2dkW6NgatckIyFVcS0kRCZU7nHHkDo0mrqXeYJGAEXRdNbse3ZlZIj6c6IugheGagcwMDE+zDl5+H5E0IudgyoDi6WfIw9Ke2+bUdSn15x5mcEIGRH6RrJJa7pjTULrgRNYuMECMyds3cATV6C2GsiThewsHQWH33zV7gw+SUij4Qxa4AfBiTXlwXJbTdrpEVJj2qJBkFzAD98/U/w3PYfoRiQKFfKNQmycXNb6ZCz5w4S3DNenYmEfGrBAYS17H6nt0DMzlQH/6c2AKtFZnD51r/i42//ElPVy0iCFlAwiEW+eVUVgPfeyDrdY4mESN7RyhjLCUJ9gxDFdAj7tr+CQ6JvcARhMCI9FlR6msOn8qxtvQM+pCsZdQa7PfFaJeKAmpVdtkDOHWbSEjvfMCtl6WIDxq8Drcto3f0MtTvHgegOfL8u/RYYfGEPDm0j3SaMOtAnK2EjKm/Wslx6r+2NwOMYAVe5s6x3jWFEk4FR8rYMk3IhmsFmVMZeQ3nkfXj+DqSmIOe+RFwRSrVSysolRkGtM6jkbhViooMlPWq6W/H+OEZJoVO6vJD6sX309+GDnJdsc+QdAEH1ERQg8HCliDD/q2GxcQEffvXnOHf7E0SGAEGZ9w8lvj4iQGg33FF/PqQoUrgNv/32/4FNgy8hFO6BGmC1Q86XV978vfhlNYjmYa958DqQ9I2kcVoKU0TNkXdYxczicXx++q9x9sYxNJhbD/WV/Ho4fW+F664bIBAf2CvGCdKWB68VYrRvC/ZseQmH97yLkf49CM0m6a8g5YIiSMC/VUa582ul1Iv1ZOwL5ZCRCY11llx2xkZ6tOaBcta06i0gXYRv5hAvnsDSrQ8RkwfjLcIzLRiTSHfMJHI8Bw2p5mM/jlaxziH6Pmz23jM8KyNguQeydyz5WXaTBQjiqxiDlh+g7vXBq+zD0MSPEZQPIjVDsu/0nSG8hFFCPdslspxJ0vcAwjOwnB4EECLba0CdSwUINHdVLNTP49++/DkuTB3rKkCQzoHMkjHrkRAglPDc9tfw9pE/RV9xH0w6rC1MJVdtQY+FBhvFy20DBA2z0/vWaowq6tElnLz8j/jq3K+wGE0jYprBWC94PatvndZPOYOuyZVBkJSxqX8nXtj3DvZsOYq+4lYEZgAQcMPBVz6A9Keg5oEVRFrLLSvY44GjkRWNLLgQJqW/meTRfhkGLXjJXSC6ivrdL1Cf/BJBOgufJbdeS7Q9FbBYEJKRstrJoV70YC2z03vtUz0CKwAE4WHx/JGKYxWbi3wfdRTQNJswNP42yiOvwQt2IfUYheV+YnTA8oYyvpUlbWfROO5bBygezZnaiDHvRRAeOOoOIOiL0o4IggIEWVbCy9NGRAQIrOX/4Mv/iivTX2oDoi5GEERtkB5s4qGUDuLto/8Lntv22yj7O2HQb1X6CBBUhMARETcWIGgUQc1XKByKOFlEK72Nq5Mf49jp/4mp2hW0WMfvP4IOwnoBAnUY2OQqJd9gAFtHnsOh3W9h+9jzqBTGEYgcK8GBixS0e1RQoVKlqtd4OMjaUqChuReX+eQBRIDA2ILqUfvpEkxyC9HC11ia+gLx4iUUTB3G19QNpcIVJNhURw4gtEFH9t1GnEO9a/ZGoHsjIFuRZeu2Zb3dFsLFyVGr2PC26flopH0o9u/H4MS78MuvwvOH2+9PbCdWV5LcllFt73nrjGmc9un66gGEhwKELLarte+SPybC1LbQwv+WsJIy0clBmK2dwm8+/zmuzR5HROLYRgCE2MdQYQt+8NofYsfouyhgAgZlzUEzgkAxJ3v/BAobAhDE7mncpd30iWHzFHG8JGI/U/Pf4qMTf4Mr08etCNUGAIQ4lfbYfeGoVCgc2Pk2JoYPoRyMiviRz54K7PgmPaq1i6Wr8JQownoOBomiMBWkIlXKaXC5TfJdOGpUXUzgJzNA8wJqUx8imj2FIJpFwMgBoy2GPBntvcCKSskouq6bdgUrdlGSYq+M4ek6wHt3u/YRaLN8bN8cAQhaFq7q7hqti9IEkTGIvCJibxiDm99AceTH8MLtEhmUNB9BhrSC5v5X4bSMvO1UmGzL6Hw/m7Xf9ca8owcQHjjuOQ9OFoPtuOdCv5J48m3kQL21OJ3HTPUkfnXsv+Lm3ElEfvcAgkTG6McKQTHElsHn8N7Lf4yJwddhkmGtXhDjRYCg2XzW4m8sQMg3htIeDdLIKWHJYx1z9Uv48Js/x5kbHyIJG0isCuEa/XEbAlrfJuOhUUQFB7a/hiN7f4LhvoPSbImdMQN2QxRVRB4r2jOevBQFCNpSdl26j4mCg0xygWtPQlWaHoo9rbDx0jqClpY1UlLZb95E0WsKcJCmWK4SokPMygEBraJQwKswpAcQ1rdGeu96ekZAt6YUqSO2+1RLsrW1vOw0aWZGIE7sH6IRFWBK+zG09ffgVw7D84c0xSfYmn9bgGAJilrhYPdXDyA8PYtj7XfqpIOtEZAT2+aG8wCB9e1ehDidw93qt/j1sZ/j5txpRD4VFbtDUhSCvweExgdaBewYfQnvHf3PGO07Aj8dhGENrwAE5vId3W8DWba2YYqLHoiJcl5yQvPXQK11Gx8e/zlOXvsl4sISEuEgrDlg/0gAwUQeBgujePngT/Hczp+iaHbATyrC9RBpY3rzLC0lB8HTBkziuYPVA7ZF7JoWnraB1AiCFqIqOHDxH0JRRqzYrXEapnkOC7c+Qmv6OMqmhtAwpcB702iM1lpKbYjKVNuSBRlJV+do4xQ9gLCmieq9+Ckcgax62KmK2hJfBxD4SD4r02xLaEYFm1GIJYxiZMdvI+x/BV6wHTBlK1tuSYo28kBwrhE/qqTy01x6r5dieAqXy8NuuZ1i0Nm2UQUJ/XIRMb+cIGKXRwooeXOYrh7Hrz/7OW4tnEcsAMFe42Fu7yNWMbgnERQcl3Fg69t48/k/wnDfIYSp8g80HaYAQYPYJNlsQBmOS62LeA/j6Wr2JSvIToQJ0zVNNOJpfHLi/8W3V6iHsGA5CF0ECLStscFIaQKvHvx9HNjxOyiarVINImAmZSjf6kDIWtAUlAKwWAWS1pzAaZNjXRcMZU6LOyMcKgoued48vOQylmY+Q3XyM5Rad1A0TRgCWCe7naXErOCBXYMdWpQ2xdCLIDzsLOj9/vswAgoQ9CwX6fGsuZ5tVmb5Pu60l960SYAG+mGGXpAeDX54CJ4ZQcIIMuXTfReHtU3bBCAw5eiieA87/J/Mke2lGB46LzmAIAe05oG1Jp4Lx4i3SGMWp2SNz2F68Wv84uM/w/TSFSQBPcwuAQQBsp7U6NPDPbj9fbxx+A8xWDmAMO3LAQSmGFhWSIBAotsGAQTZpy7F4Ni+ihxoXJO0haVoGsdO/wWOX/oHNDBP8YEsGv7QqVv+gvWQFEn6jH2MlrfhtYP/Afu2/0QaL/nsEZ+ol6ElrC6zKV07AMOOn7H2kl9zFQPHwAG4trqhEEoldMl5bsLDbUT145i79QHSxYsoxlUUjatY0IiXW3yaG3XlrRqVyL7ct+sZnzVPQu8NvRHY2BFoAwR7/oiTYu/JVvq4Do8SiBMyo48WSojKW1EaeQOlgTfhma2IvQLSQLwI7bVCIC8flgcIG/u8j3L1HkBY1eg51pkDC2rE2N1Lcs8CEFqI0zoSzODO4pf45w//DLPNG0gCJYi5CO4DL/eoEYRlAOHwzh/h9UM/w0BxL0L2BLAhasnzU95XCIIbBBDsULpmUAroneIYf8mqEAKEO/j87F/i6wv/gDoYQbBNo9YDyNdjAAkQogCbK7vx+uH/iN1b30fBH4Vv+8NzKLV5i3IOMj0BRmmkw/z6Iwh8vxYi6pcOmdF67XQBaescanc/RvXOMZQwizBpwVjA0k4jyI3leAbtz+pYi85dWtV+6L2oNwJP7wh0AIQMHOQOBxdByImDUDE38gI0TD+C/sPo3/Q+THE/Un8Iqe9LxNCJ8bNlu4qhuQjC0zxWPaGkNcyeIy1q4Jc5fyEuUoSGUstpHXF6B5MLX+AXH/4Z5lq3uwsQnL9IieWkDAKE1w79rxgq7UGIgRyy5QsjW8mwQSkGsXbaG0A9W1UYbFeJ0ANvoBZN4ouz/w1fXfyfqKcLmuLP9YBYw+Stj4AnAKGA8f79eP35P8DO8TdR8AeEz+FJa2dGX+SmlPxpSwldq2xLeVoja8JFVRwglXiV/OGXSRsw8R20Fr7C4uRHSGsXUA7q8DmeEl1wpEMLDhy+zTtJaxq43ot7I/A9GgEbJchAvfPfloFkp2qqOmXs0eChQcegsA2VTW+iMPQKUNhmuQgKw9loTQCClDazBH4VAnlP8ND2Ighrmpw8QHARBF8BgsfmTQ20kincnPkEv/zo55iPp5AGa+jF8KgRhDxAiEs4sO09vHnkZxiu7EMoGggW2QrL3vEQ2JNhA1IMUgvoTF4OIEhTLIb+2Oiqjmp0E8dO/RW+ufQLNLwqJFq/AQBhy+AhGcutm19DYMqEB9IuW3oqUFFNbDHTAvwZyUmWFS1VDGv/kpGRSIGOE6s3+IfltCaZh9e8ivqdT9GY/gphcgchNQ/sQeYOPteOWqMPbXnlle+mF0JY+yz13vE0joCjIGS9ZQRP59Z/xtNpP53swhRoJT4Sfxh+33OojL+DoHIYqRkGWOosVUXcs0r8FsOQcRAsWH/KBuwZBgj5ePNqjvDO9IIT2kgSH1ThJUBIsIRmPInLtz7Ar4/9FWqY6SpAcHZTSIpRCbvGXsO7L/0xNg8cQCAAwXYRtABBQIItc3TNmrq3frUbpM6CyzdwIFk2SIDAksYaqq3r+OTbv8CJq79Gy69bJcU1OuTuodabYogL2DZ8GG8e+SNMjLwK35QEIPhSA01AU7QHjBWfInCw6f/1OBA2uKLFB0KEVDAXM+pDyeloEtH8SdQnP4W/dAmFtArjszSUZVtsJa3jo9Kv+vCOj6CH4rKBsCFV192ue2ugd6XeCHR/BDRzoGE1LeJxHWjtvrDIwQEJF3rkViTnrOWVEYUTEkUoj7wJ+Iwi9GnTOab4rLpiFj1wTZzWo4fS/eHpuOKzAxA6vHOndOdir20y1/L5aL9NGyC3jZk1bWIMWL1QRyudR7VxBWeu/ArHTv4CTVMV1n23OAgiISCa4gYejdrQC3j/FeogPA/fY4qhINrhYr3o7QrTXkNh7YZC3ViRNnrgFIXEQBEw5OSavAYis4CFxmV8dPwvcPr6R4goHUwlRW7t1WC6+03mWh5RSIohdow+j7de+E8YG3wVxiNAYKyAAIH3UmxLIduaaFeLuZ775OjEFiUwbSCcEYkg1AHMIapfRHXyU8RzJ1FOZxDEdWkUk3q+dG5Q0qRtyW2f1RWHZl5TDiRkDaKyg2wtA9R7bW8EnrIRsFLLWhXkAELuGewmoVqpWghrBaTTo4coDdA0AwgGXkT/5h/CLz2n6oo2XaopBu2VQn6aft3fxjzJo/dsAIS8XZfJd1LDrl2xK0/TpWD77MjfFMsQUrpRz0wENuRntk6dhs00UU/vYnbpMs5e/QRnrnyMhcZtyfFnC2Q9Bm2NK0d6MdhwmYkDjJZ34b1Xfobdm16H743CpGV4CVX/rOIXSx1J0snU/rq1iMUEWpERttG2FQByXyKGLh5zhDlMLpzER9/8Ja5Mfy2qlNL7aJ0BhHXV+KdAEIfYtekw3nrhT7Bp4FWkSQm+MSpIJQ2ZKJDkOi/yBlULYb1ngtYwaIrBp2AU11xMkLAI4CaWZr7E0tQxBK3bKHhL0q1RUhGJ1l2rRovtMOcAgnOO1rimei/vjcD3cgTyGbU8Zce6gB15wSwKx2OfST4PLRSRhrtRGfshiv0vwwsmYHx3OHEfqoy96I6s/8Ta8KF/hgGClpHpl2Wc5lroukiBnLvSJjeFT2Ucqmu1VPyIHQhNEKGVsHLhPE5e+RDnrn+JamsaXhBb2c31WrO1rw3aEClQ8Bi48FExm/EuezFs/SF8M4EgGYShLKgYNS3Nofi4ouQ2SFr7ldf6Di1jFC2zhGQ/qx0gDHwdW2KGejqNa1Of4tNTf4NbC+fgFWJEEcfVhtHXftm1vkP0BFjFsHvTEbz78n/GcPllGPZekHavVCt0ZCSup9gSlAgY7Kmi5IQ1XVc7U+h/oUQwOK/kGNxBXD+JpelPEC2cRYBF+OQk2EZMHpOkspyp4LamS/Ze3BuB3gg8ZATk1NIuaojTAJEZQ2HoVZQ3vQO/uEfIihraNNINkulbkpRVnO7pHN5nAyBIDtY1/7bhhKxftwIETqSGYZ00Tb6Uke9Xz1ZIKIITWmgli0gwi1szp3Hi0r/hyu2TqKfzSPwIfmAhahcXBgGCeJ2MdiTsOljBkb3v4PWDP0Mp2IkQI5Ji0BC97UxiG4m0dcK7ccM5gJBVLqiBVd+ZufRECIpnr/4Lvjz395iPbgNBglZE8aEuAgSJIBSwZ/xFvP3Cn2Ck72X4aQVxHCP0ldzJiIEn984JsAzmjrzj2iIzqsGoTZYI9PyECKGGNL6C2syHqM9+BT+aQpi2Mkgrq1fOLpWQfVoPpKfzGO3d9bMwAg4giLQ6DJpJH5LiLvRt/QGKgy8C3jBSFKTsmdonDiCs3UV4ckbzGQEINi2QRQycEbQpBWV02cNVQYA9bVW1zmUiWJufUmCoiUY0hyiZwfXJEzhz9TPcvHsOzXSBPZaFSCfpLdccoUvzLQ5kqvr/LLfx4wLGBvbiJ2/87xjqex5ByuZClP7ViIhW5Dnj1c12TVrGJ9K/NnrAIiJqH4j4lGdEV2KufgFfn/tbnLr6AZpmXnoP2E6sSsRb69c6SYoFlLBn/CXRlBjtexkGfRSt1rFmLwanVigS3GQucyydRPfaIzMcF3ZaEFCbkAzZkuhBs/YNFqZ+g6R+CQVUEbDfQi5UoNDgEdphr3U8e6/vjcAzMgLqVrLxmZ6vIlWWBKh7wyhvfh19Y28DhR1I0A+f7CRxxEKbZnSyZD2p5SdwuSghUdsJ6+GpZDhtpuG+1BN09efSp8uGkqwinXTPY6VCDa10BrXGTVy++TVOXvgMM4vXEZs6PF/BgbHRA+EEdPHLsd8lYcLcV2xQSIbx4zf/C3aNvY+C2SIpBo85a4G1HA07FmuWA36UB3NzQoBAcMaBagpbn944/9VKa7g5/QU+OfGXuDl/EknYlM2puf0OHcDV38h6AYJXwt6tL+KVg/8ew+UXUcAwvNiHbzQ9IqQkqRigKFYbIKjBXjtA0PJPAgTlv3hpFWnrMqp3PkRt9gv46TRCryn8V627JqhiWkZBn1OBWw+GWv1g9l7ZG4FnZwQyGlsGEFJEiYd6WkJa2YeBre8h6H8RidkEkxbhixQ7zwXZpDag100n7PHMzTMQQXDGiB4qp9ke6AIS9Cs7SOUbp4OvvxOPVgLfDSSoopncxUz1As5c/hRXb5/EbPUWUvZbMPT6nFfu0hm2Mc7jmauHfoqmx/Ta0mWQifxGEUf2/QivHPwPGCw/B59ERTGwBEF5gKDM227Fpt2saFicxlWliVk/zHK+pdZtnL78Sxw7+T9QS+9IZEZy6w4Frcf6rRMg+AixeWAHnt/zI+wefxvlYFyEqEJpn01PQQGCR06HDCED/m5tOQD20OnLvYAy3hESKiMSdFAUafFrLE5+grRxGT4W5efyyQIQdGXHRAwEh51tF9Zy4d5reyPQG4H7jIADCWo5GE2gI0N1xc0IR15G/8T7QLgTHns2JHmAkG/WtJ6Da+Om5BkCCJYUJxEER4zLMglt26gWqE14l8hBCzEWsdSaxM27J3H22qe4dOtbtJIF4RuoZLGG9+lAMvzN8HDXtQWkDCfHQ6DxiAKMVPbg3Vf+GNtH30RgRlQvXGSA1SPXXgHr8XQfbeFaB9kCBPasYBIBiNJF3F08hS9O/S3O3/gEcUD9A4FfK8oGr/ou1gMQ+OGxhyAtY3z4AA7vfg87x19Af0FJn37aJ6WiArqkARYDUyqQIjLc6xJKUoCQJnWJHiStK1i8/QHihVMI01kgbdgyRpa0asSAX5EdHvFTljGzVz1GvRf2RqA3AiuPgJytzunTaHOS+tLEqVXYgeHdv42gfAjwNgFJxUYQuBnpPLizqwcQnrDl5XxVh/80xaB9CazDLXbSef8KD9LElkJ6bMK0iFrzFq5MHsfJix9hauESmumitNxl86B2ow/mp5aBji6OhhhcC0zcfbBKIEgGsH/HO3jryB+ir7gbBlQCZCyFhojo1gEEGrouLWARHVFRRG1upB54LPyO2zh/49f4/NTfY75xA4nfUuqovTdNj6xjYNcLECSoZOAnfRip7MDRg+9i39aX0R9uh5eMII2LmfaAllYrp0USDO0+Tmu4YQUIklqI72Bp7jgWb32AYnQTbDqbEDzIB5MqlYpgE3kzCa/pOjiv4Wq9l/ZGoDcCqxgBK4ygJEXy2qg6wlO0IFyEwtgbqIy9BQS7gHRQy5+pqipBxe5Gk1fxNKt6yTMQQWjHA1y1iXIQ8wDBCSclUmevTXKIDpuI0hlUG9dx/voxnL70OWaXbqBFHgLLy8g1cCJc8q1t9dmOL69qEh7Xi1QoSVGP81zlOaMQw5XdePflP8bW0VcRepuFSCO3r6vXRhC4iLtEpLHkTwIauW2maAjGsICZhdPCPbgy+TWSYEl4HVKhYUF4Vnix1oFbL0Cw2NIkAby4iLGhbXjl0PvYM/YWisFOeMkAELcJSRLuT1gW68P31yO1HCNN2D68iqh+FbO3PkI8/wX6MAOTLGnfCt8TKg2VFpWLoJQafcT1oKe1Dmbv9b0ReLZGQFK20tmRnB+tKRdh+JS6CBVEpb0Y2P5D+P0vAmYUoFZCEiClOizbQXfpaH2cs/KMAARnNvXoFK85C8F6ttqAgEA7CLLTIZsZMdQ9s3AWpy5/gPNXj6PamkVKzfuA0QWgFccaOnKiNNYAbdTxrNdlaLsdX5b8dOShkA5i//Z38Nrz5CLsl5A589fsNigvJ2dBnqNLdy8RBFtdIlLVEZrJAlrRFE5e/gW+PPMPaKR3kVAEwAAx0/scanrO660OWSdA4HUpjJREWlUQegWUzSjePvr72D3xFgpmGwIMIU1UKMUYZTsLw8OO69o2bYwkacJL5xE3bmB+6jMsTR9DKb2Dot+USAvPKslkECu4NIN9PookrfNR13abvVf3RuAZGgEBCAmPAIOYKc9EI3isakjSEhbiUQxsewflsXfghRNIUUYaFVXrhTQlq6P0NA3ZMwgQNHckegYW/WnanhaIHuwSonQBcVLF9MJlnLn6Ic7f+AK15qzyC0J6bimarRiGxso5bLkTuUsm9t515gAKCzT4TFY4h1EEExfQH27F0f0/wXO73kM5HEdAkl1cEIQbBIS43QMISZIgiQnICAAoVb2EZjKNy7e/wBcn/hHTtQtAyA6Zmr8j6JGQvW8k/bMuJ3mdVlOAiTSI0MMgjWiUCxip7MTLz/8Uuza/jmIwof0uCBL4mkTv23isGlnrimCKoYUkWYBJ7yJaOoeF28fQWriAglmAT1IsSFLkAWWrFnJD0gMIT9MR3LvXp2UEpNgq4flv0HJOgJSU+4iSIlreOCpjr6E8/iYQjiNBBV5ckt9LYLYXQXgyp9rZBU0xaMnjPQCBjIJ0Ea1kFhGmcX36JE6e/RQ3Z84h8hc0pGTT4CwnY+g4yuLeK/AOVFahu1+OgyAsNafxYG1pbOC1ihgb3IfXDv8EO8eOouSPwUv6YFCCJzEwawi/87tmJ0x6yS1RToy9moz71PwZfPT13+LWzDlJLUj3QuspiwcvgMcO7FptLp/pEeZDoyuWn0JlzcQgaQYYLG3Dmy/9FLvGX0El3Ao/1aZYVFokQPMD8hPWWt7EaBYJjw2YdA5pegdRjSJJJ1GfvwCT3EXBa8D3KKRkS6gy6Y7vj4qiFa1bcTWuGXN952u6d4Hv+wjYVgsSvWNNXMvzRFExlfNzFP3DRxAOHoY/sB+pP4gYJZikqACB51UPIDyZS6QNELS8zykiKoFASSRR0kBiFrEU3ca1qc/x7bl/w627FxCZJS2xyzeyYa25nexM62Al47MeI/YoQ8h7YAjMllsKMUZKKqzEQMSsWB92jR/GC3v/HbaOxuwS8gAAIABJREFUvIhSMAGPSJepBiqAdeXkJQk0kvbY7E5Iqeqp+XP49sJvcOHG56inC/B8FWN2kQJGa0RQUPo1WNrEWsdqnQDBGSqnKcW/qXwsGg5RAZsGduLI3vewb+sb6Au3IvQGYNjRjdUNPiMIawUI5DAQIFBGeQkeakjiecT1K6jOfIvG3GkUkmkU0IThKFH223FqJC62Tp2ItY7nd/z6HkD4jge49/FrHAElIzFCF3s+lqiDQAAQjqPSdwD9w0fhF3cAhREkpowEoZwDFFXTBmprvNwT8PJnIsXgnEcNUt8LEBjGbsU1aQ50487X+PSbv8Xk/FmYUhMp2+hq1avmlW3pgwBChr5zYkgZELFlDSJn3M1FIes3x0HIepEzDKYtmSjKFyZ92DPxMl488GNMjBxG0R/NQILGwvRz2v0ELEtPfrEOGCyOf141ijl6Ch9VESWzuLt4EScu/hvOXTuGhncXidUTcAEDkbbmLcXWEG4AQKCxEvlsKV9MkcRWR4Lj3QwxWtmJl/b/ELsnXpWoQmgGYbwCPEOgsHzMlutNuNhW+0SI2c6RJCjDdALBVAteOouofh61O58jmTuDMJmFb5pSZiscTgsS9NOfPLpifhVJNM6WY+bPQSVaaomoUMDcepTF4ATMmOpxe9G++wEAPf+rh23HlT7Gxa0e9t4n4DzXrbvsRlZ73w/Cz/mAaP7ztI04I+8qP6xl064Nom0OY5Vb3W11zLum9bOv5Tvjux7TB62N/HqV+9Le0LKfWwiwhCJa/iaUBg6hf/AowsJeeGYEqRcg9UNJAgpHyJhMffG7fp7H/fnPDEBobxw37aL4L7tJmhyhiaVoEicu/As+Ov7XiMIZ+EUy69tlktIIiezxxLZ+vp+37Vbdanfm8lld7/uW7fCOxc+ohz2Q44ZByYxgx/hhPL//TWwbPoxysAU++kTJUKg30mHRtQ4moVBr/I2URFrBIv5ebF+mRW1JoPZI5cEgw03UrTWNUiLksdfAIurRFKbmLuDslc9w6caXWIruIAmawvPISiCZ4xOAQHCgp58Mz2Mao9VsKI0SeRkTWR/JqhNxLUSUS6pguLQNB3e+hX073sRQ3x6E3iBSltR6vi0/tfcviEe1EtQj4QX0Z84YCSXGpsPk96Q2YAlePIVo8RTq018hrl2CSWcp+irEWyGd2moaqbR0IGElyyyLw1bh2NcRROqXK82xxiY7tVcRgnHtczNroJoirsJCe6BqCkzuN9ESzax2iAQwL0TslZD6FRTLLBcziOo1JM1FmKQOHxTV0iZVKrmtcyHnd7YuyNzkWrMladZ0Ch8nZ0bzMMrdZ95cyTQ7dcqnIDKjI2nTi3ZsnE5Ge8t0AlK3FHRmOsy/7eyhlTiqscJXWLVQRisFyHmITRFJUIYfVlAIy8IqbjQWEEcLMF4LAQW/xEmhdodrs0ziHhsgaWdXbcKW637o9phbya5Ns6sYc/2Yc/6MexZZFXa55pevghcrhU9w4kqiLNFX/6kLyXbf0W0iFV+qHRPHBk30Iy5uRTB4EKWhF1Ao7YHnDcNDSVeXoVy83U3yXHTP1ntoreaU+m5e8wwBBJ2tdvCVy5qZJLJReZDEqMdTuHTzI/zi0/8HdW9aUgvKPLXvbe8ku4/a2gnZ9KziDH3oVH5H60gOz8RD3GKIP0RoKti5bR8ObHkZe8feEBKjx4OZ/RrY9VE8OF/7JtAQyn3R2FlPQTx5PjCNvx7E2pdAv+jX6lFF0h0rPvhv+sMN1FqTuDF7AqcufYqrt06ilc7CL6joFMdcG0+pkqWzV/JZeZ2Jhw7k43mBCjrpfbj23c4uyS0ROLKUKSJxcTsO7n5LdCcGKzvheawWCay8tx6ACY0iAolA6WHEA5IAgWOtoEGUm8U4JUjImJYLknNQBaJbiKpnUZ/7Bq3Fi/CSee3XECdgw1HXayOTpLbRIA1ouSsoEOCv9JDUkkl9Lisvnhl5ZzeWLe4cnsjhAb1CdjhbgG09xcxbtEqfZIZTuIvAoZV4SEwJKI7AK48jrGxFqbJZ6N/R0izi6iSSJXa0nEacUE2yBZ/rRUjHiWhOaFTPrjkLYFPbuMMV98gKFdCqY+DO7QxH2XvvEOay/CPlLj25XwpyHIC3a8GCavXts6e0kRqNy3iW76PbTdepgFdrpBWgu3XhI4GPhPn3NETiFZGWNyEc2IpCeTMKYT/SOEZzaQpLi5cRNafgpzV4SUM4M9LrlOMoE8K1rXPRjh7Yf9g28Bb/ZS/Q+bYpPvtsgjncn4xrpjNl1Y4t8LVzZzvGtle0Rll1SagzIuL8TvlOzjb1JuOkjDggOHgJxU0vwy/vhGcGAU+7NyoQ0AiYbidd40/yurnfin5GAILbFPnsLH/GngSsOdeDmkbqbvUk/vmT/xs3Zi8AxQRG5GuzE6PDh5CQkz1jnjiAsByo2NVJY8cFnCRqkHyvgJHSFhzZ+S52T7yIof6tCAwjCWUgDSVM7vLbYtDEaHMjcfFbwqfsA3IE1N2SsLCQNGj41NvjH3gNRHEd89U7uHL7OE5d+wR3F66iGS/AC9kBUw80aZAlTqHeNDeYClnpQ+XpIF05qrN7oZthr5iXM+Z4cA3FbKxUQl+wGc/teR2H976DwfIueBiQDpCMRKiHpB0f5RA22sNBn5XRGzVe6vXx4HQRLHc+MtWwoCChdh61mRNoLl6GIUhASzo/BrYZgzQN04/JUkba9VEreJwxcQAhG/Hsea2n53pfuIhQZlFdKFkHw86OhoydN2/XHdNzYrglDUIDRAPDUK2PmMDIFBEUh1Ho3wa/fydMcTv8YDM8U1FPMKohjWaRNKYR1W6hUb+BqDmNpDUHpEsomBZCwyNZ3Fp7h87142HdRjPOS1S8rxEMJaC6sXKbWkGvW3BtA9aVVbfui2QnlrNILuXpwuQuxmAtqoJwbbHOpel61YmMt40WahURwaSP2IRooojY60NQHEOJZ0bfNgTFcfj+CEAvWjJk84gal9CoXkCjdg0pK8GiGnwChSSGbwjq2rL0Oh+ZO2aXrkqJLz9n1ei3wZqr3Glrgdi3OHDk1Oz4WRYUy7f5fjwuPMnfswSbH5GJF+hgNpsGprAZ4cARFIZfgd9/AKk/hETAgfYFJkkZQl5UAM49rKL2Tx9EeIYBAqebSlhsiqMHQeJVUWtewufn/hpfnPkAkb8kB3he4MLl3PRseUIBwnJwkD9qaJMYxo14KPqIqc/b9DFUGMeuiYM4sOcoNg3tRCEche8NwEtL8D3+sUQbOeg1YqDpBY4hdyG9X6Mev4QgWcDI5lZ1aXAVp1W0mrOYnLuKC1dO4vrkGcwtUSWxKWNMcOCzhJRSAzFBgttMWlaqYb4NAghtiNiOwLbthkIlHihMC9AjTkJUCsM4vO8NvLD3t0S90kuHYFC0B4X2vZD/DFcewRMPxjxXIQsU65jaeKkGdJlSWJQeDVH1Ahanv0GzdhkhFoS46AuDMtdVNAv7KyzQVJMycjSC4MCIjV7kDk09s53pz4Gj7CSXsFTmvekntSsp5BPFWCg4MARGBASxh0YaYMkrwZSGUewfR3lgB8K+nfDCrSJXmyZlpGx4I2qfrHhpAFhCGs8hiSbRrF5HbfEa4vptqfbwkyWYtIXQo39r58St/Vw6MB8D0LXrRt4CGJteU6Pk6kd1vJ6GL+v721iBOkViomQPaWhODKx8a91uAgRZi3apiTonTZqvpX2S+jFoeQXEYQWmPIbCwC4UKzvgF8bFg/Y8VvD0I0XREgtqgDeNJL6NuHENjYXraCzeRNq8i0AiQA0EjIpJmskaUqONx8T1EOl6y2mw9+w2oJwyeYDgHiVbrfcHCPL5gom00Zmc/taQ61brPEC5arlCYoRoegMoDh5AeeRlmBLBwRhSU5A0Cc9Inq2sXCBAEKeJYypRLo0iPG1fzwhAaE9L59RreFLz3dwxDTTT27g68xF+fey/YWbpJlKjiokPPBryv3yQcV7t6niUc+gh1xcGvo3zSsQsAgqBHtqIAhSDQezedgj7d7+Cocp29BXGEZoBeF4BgWtMZCWSxfPiKSOeqoo305hxs1D4KKGmRDyHenQHUwsXce7SF7g+eRGtZBEwLSTSoEmNPxG76AZIlIIlpBbqi9uWd9c3IILgHPD8/Dk3zeX9eY8sf3ReSeyhaIbw0v5/hyN7f0dAAtIKfI9RGY6T5nLVQGklQh59qL6kRmokbZO5RiTLavsw49WRRFOIamdRu/s1WrWLKGABYdKAYWty13bc3ZM9DB0XRT1CG1KVg7ENysQ2Opc6iyC0D10N+zqf2qVArAsoKEHNlIUe9rOdZ1VAkhYQmWH4gztQHNqBQt8WeMEmxN4QUq8fxqvASEc8fgaRF8eIkSh2/WQUpSZS1HFEnYjrWFq4gqh6E4jmgagqKZcCu+hZxTu5W40fZ4Y+B0E7f8romrvzjrXXTp2sditvxOsc70c9ZTLu9W/+24FDMa7WMGuqyUaBpJ+LUwykFxwgTkNEaQmGEZ6BLQgHtiOw8wUzgBTsRxLAkLWPIpI0FINKUJemNfnj20qcZOk2mguX0aheRNy4BRNX+Q4Y0Tux9yC9bTS9cY9EsQszWICg6SKbVrE4OksduVRGx86yATW7J7SbrI3UcZzo24jf41Y3RZB8xAgQ+UMoDB1EaeQF+KW9SM04Eq8fLZ53iFAUgOCvABBs2mYjFsMjXvMZBwiKrelNy5eJEHkzmKufxEcn/gZnr36B1G8Ikea+COFxg4PcGbuuuV0GELRhkCX4ySFpqxzEw9JD3pdySEsliImAS+gvbsa28f3YOXEQQ5UtqIRDKBX6YEwBAY0cGzzJhlTvVw6ZNEWURmjF7KewgFpzBtML13Dt9hncnr6IpdYMWkkdJkglWsBIgQIWFSDiYUD2vnibWU2hAwjtXd71FMODAIJEkjRMLeAmocaD9Uib7Hoxjuf3/gRH9v8OKqUJhKYsh4j6Rfq3drNU1JZNnz0k5TUOIFifUFatvDyCQRVpcltBwuw3iBYuI4hn4HsNUVyUqIuAGfXS2mFyredxhkFvQ3/bDtC7CJmNZuTWujpZeUaDhlHVIW8Dar20hygN0EoKSA3D0qMoVsYRlLfDVHbBhKNA0IfIlKV2HCgIRyO0gEby4yKpxf90nGhQfK8JL6lLNCURoHALjep1NOZvSjoiQBU+1xtaMGkEI+kc+xD2/t0TZNqTNs+utA3HU3ARlFy4e12bsztv6gQIQCxeuRI2JYLE9ZlT38xC4VwCpGWRiGxCmjzEpgK/OIpCZSsKAzvglwjkRkFgwFQCGQUEBxrZ4n4OkTiiswwbQR05AzE86p6ki0jjKaSNq1haPIf6/HWgPoOQmh8mgsc55ZliP0+EyfKHr52XNm5rL8o2Zm//zKWPFGi2wYGcixIhSSVCyfkmkOI5yN4mChAIDgxalEsuDCPo34fy2GswRYKDTYhREeCgcRdGrjiuAQz5Wy7FYLG9RDy6M/2P9SrPLEBw/hoXiObOVZKOWgjV6ApOX/slPvr67xCZBekkuCJAWO7pP47owaMChA4rY/0g681RvZBGjCJPKjqkxk08SXkfvWAbc04C+GkRBVNBf2kYo0Pj2DwyjkpxAIVCCcWwjNAvSMiYZMRW3EIzWsJSo4r56gzmFqcwu3AH87W7iFEXiWoSQXnMi0QwaQrWoLgGU7ynVkRxoc6IjR7W7XW/EQAhv+vaRtyFY63capwK2CJOEDJiE0hqIfr8PXjrpT/GoX3vIPT7tFmYVEcTaCmX4571Rda3eL8MsTvePQ8ymxLLDH4LHuYAaLqBnITW/DkYzApIEDElITxqONV9WVn5XAhdAYK+xr2uEyC4X7nn74w4MGyt71MDpZ8Tk2NAHkswABRGYcoksm1HSA/UH4eHYXimjNT4iDhmNpMrzmTMErEMQgmjJeaBK+HxBIFUuKjqJDtfpkkVSBeQNKbQWrqO5uJ1JPVJmHgWPitA0qYlJiswlTB7ByTSKApNgwtDCz/DAcAcyHqsp/Bj/jAZfymM4XlmAUIWj7KkWvvcWk6qhDqSDoFQojsI+hH2jaHQvwNB31Z44WbADCNlNJESwjSClBCWXczNTD4XDbuRMj8lMboKFiXuSZRA5mBR1mwSk3B6C0uzV5DUbwunhIRbggXyaTjHvEK2zkS2xkUZ2ussBwdyINudb3ogdsAI11PBRlYIkl1WScrB3fgR1KIoka7C0F6UR47CVA4iMZuQemVEKRkvjBpwv7Onq75XidpKOHaRmx5AeMyL/Lv4uOxgy324bib1WjV93kTTm8T1u5/hN5//OWaXriM2zJOr8+GMmVSqLQcETwpAcM+Xux/JA8sNa9mgbhv1dimznJU4CcGLHqonOXUxYKkRVByYAKEfIgwJEIoICBCMlubFcYRWVMfSUg2NuI5EDFmkHS8Z6mWZHnsuKMtRgIo4tzZYkP3NYyaO9fcdeeMcQPguFseDPnN5VKYzEq+RGLHxCg5o1AjG/NggqRlUzC688+qf4sDudxAwgiBKi+ppuKI7taz2JmSabBmHpCOsfyueNMfVziPnJiHgasDzqkiiabSWLqE6/TXi2kV4sYop0aczBH7yNh5aNmNhPScxic7zzzxr627JPbUPZf5LlEQcdpBN4cir+hCMn4gXaYqAPwBTHEVQ3oKwfwdMaSs8fxSpRyIsVTz7BCzx4KcxFpEv4Sp4AhDaiQoN//LspeFh3lqY4dLHQ7uSEiiA4lFpDUhIaLyNiM3VajcQ16eQNGfgJVXhcIhJZN7Y5/XIcdD54+Do+Nj7ke/JK9FMms3adHsFrul6DkArv0S7fFodWB1b5xxIKZ5BlNqyUq9fiaKlEYR9E/DLEzAEBv4w4PUjRkEiBuQuCeBk5Y5EtwgQGK0i71+9bnfIKLdLE2aaLuNmaVo+SRVesoA0mkGryjTRVcT1GzDRXfhJFX7c1FiEHl4y+BlXwI2IW39umbpt1MEPy+jO+ltXIWX3gmSUZKE5A8+oJqNeRcTBGIL+/SiPvoCg8hw8fwyJV5Fxk2eyZZkOaDpesKZtLECQj+/Y6Wuaz4188TMTQXDGXHO9jnBkQ4bcMBlrNUZs5jFTO4Vjp/4GZ68dQ8vUpCOOMOzt5vIDHtx5C/wYp3F5ZOJRPnoZSJAjPB8qdv92hmFZykT2TWYALevXhv/bS96G7yTurfk8Z/D0Y+/1kLPL5I2vtWEyO3nlsRWR3aMMyhrfuxJAyEc0eN8kz1uDpqkGnpkeTLOIbSMv4Ydv/W8Y7t8nstbkezBFI2kaVxa6bNyzZIN8lGpHKBta1287xCrwDKlhvncJSO6iVb+I6vSXaM6dRSGeQyFtIrBlqnpoWWNrgwU2atumdy1LR2S4xZIX7HaxAFkNtXii5J8gQItlb34/gvI4Cn3bUKxs19B0uAnAANK0qGFpr2B1NRR2uDoIGROxbrl5stdmBEWXVDs9o0bQQlwB/GyVXZdwNrCANL6LhOmHxZuIlm4jbt1FGrHsrobAp7dKTQWN+ig6UMPqjJFQzCh4s/JSXuNi6tbLHfHakkbtZSXK4/gjhpUIFeF9eOGYgLjSwASC0jC8gKCAOh7kF5QAti7Oetlb2iMjYdTuYJRLWMTLnk0Ingpo9b92JIwcJfZAJFgwnKtkEWmLAPc6WotX0GL0p3EXRUPdC84nydAK5OSM4TOwpNUCgzxeyMfAOiIHlqNgTYBNK9gW6TK3knMVwnUrLSD2RxEMHEJp5BWE5f2A2SRlyyKElEsHuv3j9qWLCDqApvDAVTE8zsP9u19LzwxA0E2hdeV5QRBuGBU+UuMnHR39JdTj6zhz7Vc4dvqfsBhNIiVCppcjHQhJnnENfO4zSXnXZ63z+DjW0PLr541s/vNzr5MxyO2uzC5aAO8e457ISc71XUk7quNny43tWscmOwnW+8Z1vO8hEQTVNnBlfK6UkdUhFLHehDde+H0c3vNThMEYfBQlLaPelGvv1i6JkPPJ1ZvzhBHPWgW79KjXNIAjGmoFAUmhoiQAT0DCHbSq51C7+w3iuYsI4zkESQOBr2RC8SjFTthKiqy8yz7oMk85f+CqMpG231bHjhEkkrh8CbuiMARTHodf2iocg6BIL3QEqenX8jfyC6QMzEaIMpaZq2vXxelKa9sA0xIORXCHL1BSrD6/o3S2P0OarzGaYBgt4JjMI4nmEDfIVZhEVOefW0haNxF4JDxGQsGlcJOS3hTUapmpRkmkRHQdy6ebb9EzTk2S6hZkyMDW99OoBki8sgA2v7QdprQTfmkb/OJmmKAP8AkIWKpYRCLtinWsNQoogfN2WkwAh7L8ua7cWrHySYKcnRG3MkkWeHHeIq1QEc3BFgyl1+N5JM1JtKpX0KxeQat2HSaekzbnBApaK6XevkST2qyd3P5oYxWdr4xh0jbr9v1y+/I4KuBEAN1CAVGwSUSQyiOvIiwfROqNICVR03Zn1bRHBp31Cjay58CSaJi4qhFJKbpQRTdXxKNd69kACBbuqUdgGbK5w1bPR0dKYXlYCxHu4tbMV/j4xN/i2swJgB30BCBYL5mHKJVZlhkPux51Vlb63Wrm63GdQvcDCfl7sNeyqdYOLyDDFBZcuefRA6htqduPmTtAc4JG9zgWuRK7lcZpxVLS5eP2uMZoNfNxH4CQnb32wOJfTgmOZXxpI8T2wefx/uv/CZuHXkTgDYKaiyqaoiQp9TZ4WLbVKNWKK3gQA8VulzbqpWWCBBdCodLogRxE5HfwVZGE2D0pgbyIpakTSGuX4UXT8L0lGBISxHiouZMj3aoy6f6wZMascEQNpbPjepbq+0VXLg0QmxLSYBBBaTOKkrPeCVPYKmS2xKMHWlAxHsnXkttCo6NxPBez15B1+9DN1p78yFV0aLbceXkuASGfI/9bomRmyrXyga3btfqBBLgGvLiKpHEHUf0i6vPHES1dk9QD4xp+wnRa29V01SUC3Lq55lazLld4jQIEe6OJRnaUPMhzjVx7g2ZcQmVwj3jHfnk/vHAbPMOIQUmFgUQdjhEeX1ONFiBJUE9i6Hn/WUddZkYAggVSojpoUaREIbmCbJ7WHpuZ8czAr3IUkFY16tO6jWbtkgULt2BaCwipykjlRf6x+8YGFTJeSRukKDhoH8U6rxpEsetaMCbBPW/SIPIKaJohBEOHUB59DX75EGA2y76V9s4u9SncIHd4StLNzoZjJQq7Tfau/k6jhveGWdY50V162zMEENzCcCBB82XizTGC4JoqKCBGjEXM1S/hy3N/h+MXf43I1GSTscTM5fCVk7DCTLWB5fqmcb0HUf5e3GfkQcID7tVV2WW3nvuGOd/Ohd1Bh38gGMoIhQ4w5J7tnttxDmyOTKdRjc5X5n69vvFdz7tyaCAfWckMkwVNAhDI9Wx5COJBvPPCz/D8nt9CmQYzUQEZVjGIRyZaEmrUla/pyCF2EVrjrWF1nQPnfYsRE1SnEQTpFeI8O4Zu4xq8aBZx7QrqsyewNH8CAe4iNAzpWsVLIUtq3JzGw0UVVMzIRdX0aXWda7QgSihuFMD4ZfiFQQSVCfh9TCNshR9S3GhEctYkH7KpTaKdrQQ8SX8KAQg0H1YHwkkZ24ntMD+yAFxI2xHTMg6knUkXHsylsjLvX3kNbmwYKZCKBhIao1toLn6O+aljMNEUwrQplRPCYpfhduJcNrGz3n25nvW2zvc4gCDbPiOdKkCIDWNMFDkaxfCWtxEMvArP3wmgHyBfxMXeXRjR1vJ3VLU4a2zvT6JdwjNoyxYL/GWKLfOQnIfh3mSjDnY8XdpXxaoYIaLOB0mnC/DSeaStKbSq19BauIpWjRUq8xJtCHwrdCd9Udz6ajsp2XTlRddcks728tCsCSvZWJ7NyMEIDDkHm1+DXzmExBsXXQfyVYxx0t680XyPFY1i2dCTZRwoLJG9K+tXxdF6AGGdC/s7fZvMnQMIKqssh7IVrxCA4NCuwmTEXgu11m2cvfkv+PT0/8BCY0q8NR40AVn2FhwsF9W4Jwa5nijCeg8iiXLp4Z6L9XVGMpbfTw7MKClwGV9A0i6dsyNHQtvZ6wAIQjzMgZKOR8kDp/s94zKQoN5P5/W7DhCWAa82QLAeiU05ifHnrcYekpaPzf178Ltv/V8YHTyMkHlekanWw4IRBiE4SYmBatFnSooaOrB5Xec1q+fP8j89lPl712WUBD13V1yhDN0yr96CF8+iVb+EucmP0aqdRRHzCNMIga1sEAxiRZX0iLPXlY/TznX8lsQz1oNHzM2mFZhwGOX+CRQHtsEvb4UJx+CZIaSoAGlZ+AXC5JaInS1bk8HRLpdI+Ld1y2W9dA5yBhJya0aBjV1urp25M1jyfhf6dl6jVf+THeFSi0qhNEks4krx0jeYvfVrpI0LCNMaQiFAukiEI2eud0N+p6fafT9chohrS6pndTPSgEW+h6ZXRlLYg6EtP4ZfOorUjKlEMAEi9TMYQpd1yuFkKbMKpCkvSNdb5kxZAjPXqlZ72OStgOSVPAGtUckOp2wuXbiqrX+gqFTBggFVNO8iad5Eq3YZ9epVNKq34TN1lrJSh4ZbvXhHONWeJO6rnWKQ6JfjLgjc1RRDKw4QByPwWcq46TUE/YeReBNIUqbFOCLUbKFzaEuwJPrnqIl2tWYgQR8sOyIFbNr3PfFJqmVnfXqPhduYRf2dXjUDCM4T0Hwtvxju1agZw0xNqcVnSJTru5nO4Mb8p/js7H/HtcmziFm35lF+2Z5t8rZ7rOfKj7ISULjfubPe80gierZnQJ4YmDPYHWmP/HVkEWsOUW2TO4yVo/FQBUn31PI59h/ZAbB80VnMskJUQQ+G9utXAhjrwVyPtL5yF+wAJzYUzTXgNBDkYIwNimYQR/a9h1cP/CHK/naEfsUKsRJBaehWxltKaLke270YNKeuk6bNbSzTPnfsOCdXgwyO3cm1y3SEpsPkwKQeQjLZKcfsAAAgAElEQVSNqHEOMzc+hrd0EcVkQUCCfK7DAy6E5EKy9iOFGkZgQMEccgyCTZJGKPfvlYiB8UeE1e35FdHIUM/Kelc2N63zyXvRmvP2clQtCC64NotAj1YJk3cMtorpuMXB1IZ01pR1rm11NN/toi80cm1zpEHlCBFLbr0YYUJ10AhJ6yKqk/+CpbnPEKZzKLiyUHvCy9FgF+EKXNtHWlbf2ZsdtrTDIlvKAA3jo2lGUBh+Df3jP0Dq70OcDkjpsW9UXIsRHiQFIdxK9ZLk3DklrFJgJKgdzVIyqfWMc5U2XM8y13YFKxHX5t/tmnOpIkYMGJXVa1iZdVkhBCqBqLp5aUtEwWDmgZhr+TZatWuo3z0Frz4pPR6koFakm1X7wxXMurlzWzhjUEj1lAKZKKZ8dD8Kg8+hMHIUfuV5AU6eYXpMyxhpH2ICR5+pF13Pmph2vAK3qvlzRja0GseTVKF0WlOS51P29YylGNoAgZPoAIKSwtiQiACBSC9URUCvipnmCXx98e9x8vxnqLObnG9V70RXV0PC7WPIed9W2315qDxv/NyZbkPormFJ9hb3UdaIWvt9/+VlQeyKAGH5u/JG3Nlyu2H0gdoIWDbBshDCapb5ig5Eh/HXDSWfdb8PXF78YF/3IIDgfvewe3S4zgVNsiFa9kZ5nf1QDYHmAZD+QDwqFyZPPPhxCWND+/DW0T/A1uHXUfDIfmZjGw2DqsWxh4Z4d5qjVEOpAE8zmm1ZZC31yl07k0h2AEE/Vz1lVjXw2E/Es/IpphRR7vYC5gkSGtcQxsznMiPtoIg+ZyIAmcctj1gfCaV1yXSnilxlK/qG9iJgEyqfeVnK6pLQVlAv1IlwSRRLO4JqRMt2qSQ4kDpBDfpnKRMbDXFVDLp22ukWtXcuz6sy3yJEkwGE3O8EILhcb1vYiPtbCMgewRMjCCF85rGTW2jMf4bZ279CMZ1EkR6rlRIX8OEATa6V9hN/xltjmw0Z51NkkktoBhMY2vZjhAOvIsI4UlNSkiCBpKwFpsEIECxDhUbUGlytO22DNDX8NhdvG7jZsIWdYy4pRyvUWVSQpZtK+yUSFChA0ESS22BK5FWgwv3VEsKpAAWqM8bTiGsX0Fr4/9v77ue4zivL80J3A40MEADBIEZJpERKVLZkz9ijsme3PDvj/eO2tvaH3f1ta6e2/JO37Jl1lCzJCrYyFUiKFHNATp1f2Dr3ft97rxFIAgTABvkgwyS7X7xfOt+95557BfWlOwgaCyg4VfgCiFXvgtoE6eBViUTxx4nsN7uR6d9uL9zugygPvwC/9yQcdxyxUzZqkMqeCYVD4ckGUoeotYOlrq4ECFZ7hPaxAKHje86qB3w8AELmtbXL2A6qTludiyWSluzbtAs0UI1u4NLtD/Hlufcxv3gbrtdEFDcRxgE819OcYBNbEm6CqRmgIQgzKITkpWEJW7BD76bkskZYQzNsGLJZplMLEZITrcHinLzNIpFkEmZ3t3YBtovcvVbJbHfIrrorz9uI9+NuY2CLrmMfL9kVZJ431QjIzA1msbWWNX4SVqSFx7GbqX6XBQpWO8K0ouEJZF9Q1SNjVlF0HPg8sOWiEPXj9PF/wOmn/gP6SkfgMsZr5g8FJEayLfNcetUs2zq9TzqpZu6dAUvyPhYg2v5tF2HRgWeaGLUBptBc+hq1uS8QVC6jGC+DenlOoCEKFuKJXAobqbRs5PXALY3A79qHrv5j8Ev74LrDcDy+TymNqRpSW/J0ybZNLZd0S7twJSQ3+317i2bhaTt+zI4NPVdvZT+3CMqQL1f0bzvuheAmyopMs1tCs/YVZm/+AcXGNZSjmtqD49NT+V+jzaMeiw6f48USxs7icNFkfSMV3I+odBhDT/xHuMVjiNAvpEQBCGZioRIisxzSF7UzpA1nrZwoDOBtc7Ok7WTYI23bqLRHZNqzzXGY6RdyO3scvQNKzEXcQBzNIY5mpRZHffEKWsvXETcm4QSL8KnMyFRKAR+q0poRgJGwaZMS0t4ACgPHUB4+A7/rKZFPZk0J7bc8l32Bok8KhAQfJH1urTFrfRRmbREwa+IdG5mPO6SfPXYAIbX7WntNU940mdRCtLCE2cp13Jq6iMWlO6otzmI53H05HnyPEyV3TxRtMR1IqqBo5yGAUHKWK4uIOCi0FAlaMYsZNXFr+jKuTl5CPVhUYSH2ZWZIEFOL6I4iXiscJOEsM24S/l5md7njMfod7syrAEL7KqILUkZLnSGhhDUvJ+sVKOsslJNV9HTjurDugrZ/2n1u6tYnavOpDcPjmj76ivvwg9O/wOF9b6DLH4fD4jVtbpJtnClMtpVl7+tWSfucg4oww1uVb1GjLHP1GlxOppS2pUS0V0QgGgZl+MUR+JTXpYZBca9wDFxyDITpbvq75fKtS8Ba7z3vhkbv1ZnWGrd2EbHn3sW+MjQ56XMM1xCjhqh5GYt33kG48A3KYg/VWoiEqBFRAsUUE9o9AEG8HzSVyUJoxT6azhC6R15A7943AW+/tKXu6unGN+EeyWVMgV17a6wHj+61o7iffrCy3dc6J3v/EJF4CmoC8uJgCmH9GprUUKhcQ9iYUbEleh6ooWAqKspIYFiBKoluP/y+w+jecwaFHnIORqWuBL19WvFUieySFmo8WoIz7tVF143j3vPEjjvgMQYIa7dFllOgu/wQQdxEENUQxXRvsaKcli8WzwF1y02hIll6jFtLriN9XFgO8lf9NYVn4ghB1EDk1DGzdBlnL76Pa3e+RSNaEpKZyKFb9UGK8BjMYdcyO3wST0Ii/rQidNtxXe7BH8jOfeomTLCYNbB4XFhfwzfxU0pLawzReKetKJaZb8gfsAqZCXxIFj/dwLRNjXb3zptLdCGGT9QWOihEPTi893m8cOLnGOl/BgVnUCSV2wHCg9tg3StYxUyJFzeMK5+xYkrjkmdD9TrGcM+jMvcVastXpWCOT0+V3wOvOIISgUH3AXilCTjuMOD0SEYCO6TYm54z05tVkcFqEmwj8Nkqk1mA4DSkyiiBghtOojr3Map3/opi8w6KLNBGrQgtd5gIJLXvd7fqgbb2OlkPArkpEi1haiPrKhQm0Lf3DZSGXkXs0I3OmgFGtdKCYRV42dqH2oariccrUG0aegpilkCP56XKZ1i/jmblGlq12wjrM0CwLFUjfamVABAsBV4/in2HtPBS+SnAmxBxL+vjlXCLEDwZQjDhLKOU2vnW2TqD5wBhhS1Xkg4ZH+Nu36bgSHlo6ZAcdia+Jm46k/+q+1czMRNIaGqaFuaRfavG56JIqh6GThOteBZ3Zr/G1xffwY3pcwoSPFaR1FCsbASsUyKzHspiZlauJD6eXTS3rp901JUsQMhqtFsGtXXlS86ySTXxDFCgDemNoedAQIPY1RAMrdRuVkYrcSeqvG/i0lbnjv6Y3aVoE7R8DHYfwJmnf4ZD+95AubAfRZYzliVmh35UqEBz/10FCFqGmyVoSY4k72BRQEJt+SKW5i4iaM6jVCyhu28fCqVxFEqjcLwhUT0UcSOXpN1UL0F3nVojQvq9umF26AUf8DZC5GVaGsmKNa2KGS2IV2Xp5ntA7ZKq90npYwWWZMlLk68Eig/4KNt1uk2AEd4m0/dAcmIZhYGTKI+9Dq98CpEzKNBH+i0lky0ylrbcrifbwuuasvCSsyVhgCaABkDRq4jlwKcRNm5JSfDmEqW2Z+GGVVnuCYT9vkPoHn4GfvdxwJlA6PSDE67rUrQpNKqKBL86CYs+hGwA1/OubOG7ddClcoBwV4DAkIOlAluxUB1AOn3YAg12S2kLi/DfBAJNAxCI1C1A0F0JCVyy5jMP3q2jHt7CjanP8O2lv+D6zHnU40V4RSW/MYVI4+SmEmNGhMiO64RK0UGda7seJUl1s/nNljxo1m3hFRhuE2d1kRRiM4a+1I+wKn0inW2YXFHEuHRGRMvkSTueSWm1eCA7P1hwJpmKLtywjKMTL+HMiZ9juPdZ+M4gihJi2i5LrHFdy50iQGC5XWp3CBWRGQZk9tOdXIXr0C07i2ZtBlFQQ6FYRrFrDI7bD4dhBB5P1yrJZ7JoKBKSV7Hu6OzCcm+/6w4aYf1bSaiJncElK56iPMTrVUTNa6hMvofm/GcoOIvwqZwqMsISkTcqhB3xCvd+CG0kyRKkd4faB3WnH717X0PX8GtA4TBC9Epbuiy4lOhhJG7Oe9/jYR8huybDKqHuiCH7kjPA9F6KLYmGQjCDoHoL9cWrkhoZBXUUy3vQu+ckCr3HAGccYczQWcHwx6jWSO8wO4r1jpmsGsny2n1aBg/SVDlAuCtAMAVgpAgMFwp6AqjDrauE6g1kCDnqf02FANhRZazyPFXNs+lcoh1DQpgQWFqI3SU0wtuYWvgWX1x4F1cnv0HkLoEJ65K8RS6CESXJIvysB0GnhUf/J82Ft+5/RQiJoItLD4Fu+Tj5BWyGoAt7h4/iwMRT6Cp2o16voVJdQqNZ0SJT9WW0Wvx7A0HYlJRW9RyZIjFGcyDZnZktpcULceCjtzCGM0/9FE8+8RN0FQ7Bi8tacXCHAYKQvo1ynkAgKdaj1eUYb45J4AJZ6yw3ScBAlbciQinEUzSpvsoul3Okzn0mYydTGTLJjtw1AMGy5htagVCGb0ti2LXZD1GZ+Qv8aBI+Y9csCCXENKXa7ZqxZcR/NLzgo4kuBMW96Nv3dyj2v4DA3YuINUFEOZJCcQYEZ7mznT6NSFq6nX+BgC8rPETVGmH5ZSEpisz2EsLmrP4GDbh+n3Br6CWL0YsgKshcLDwFUYBk2Wmj2CkeCnoQdG43AZlOt86WPV8OEO4FEEhmkjxbTpIlkZbVvkhSohUPMds2o02v2uTsrCZXlrmwMrtYgSZ2bF92ta7H+BYvyCyGCurBFC7d+ARnL76LO7PngGJD+AhSkMaED8xcLU/+2AEEg8dstmBKcuZuTzkg3CWzZLS6WF3EQRHDvYdw6vhPcGjiOfhel7jao6iFIKoL2anRIlhYRhBWJZ21WlvA4tI8KsuLqDX5WU30BcgPIQNeFk/ZojGUEcOJSjiw5wReevbnGBs6A88ZlUWXkYyHAxCsyA83WiqDK8mFcQsOBZQculK5AJKQRQ+X9lmNZKk6o/QvAQeWY5DBw2YRElgmKGl3IATR9BB2Oj0sBAh0sbcQRUuoL32G5ak/wWldhR9X4Qs2pI0UGuwm7zLnBbZlK3TRdPrgDzyF3vEfwek+icDlwlhUaqmoLarWgexVdhLMPsAyJtlD3GVx/BnhI/GwGrln5YCZjAfRvGmI6JJ6FKka2S2ZCazKSFAh/ZcqmsJTMOdJ6EI5HCTm6qZwd1Zl3Kypc4BwV8upoBLLyCopi0Qv9SBozI6TI3kGynbW2LgVD7Fdyea9a1dLjk12++x8+jknrCiuodqaxJWbn+DjL/8fFhs34JdZjCdAK9KiPZKyY37E82uT+Y2642Y7w244j+OevAHLIUjIhfI5hGzHTJEooIvVgRt2Y3ToGE4d/zscHH0B3YUxqQdgGAUmtVUXTv5y8be/YdiSSYgk1SZTUYNlVKsLqNQWUKkuot5YQhDUUK+T+FfCkYNn8OTh11EuHkAc9MB1fSn9vKOTbpawIl1Ps9uVg2aydGTxV4Agi4Opxmf7pnqiMuQW8X7pBJp4DOR7qiVwDGSEcDq8E+nuUmtfiFW4YEQEewwzfIflmXdQX/wCfjQPLwrhC0BQi3Dc7WhbbtaWpunY9g0qBBbGUB57CaXhlxH5ByW8QM+CF7siK51EzZL0qM3eeKfOM3OpAej2DVgfJA216pysPVkNYmCe1kVguC2Zj2U7p8JQqr5g+gjndqWpaqBJwcHugMJb0xY5QLgnQNDJVDuQErOSXiizpWYltBXryIYZNNKX+v6TkITmFadcNysfQmWxCqrNW/j+2of48vzbmK/fAIothFK0J9NDraKyoGab5b01HaPTr5KdqFXMSC3pCWEUCBpAwenB+NCTOHn0Rzg4+jy6CmMooKdtiCc6GG3hIruXTkGdeBygGhj0PIT8M24gimpoNCoIAqC3awy9lB1mHjVJgfQ6mepvO2ZPYdLZlBdTWMns7hMXOdXmjNCLhqu1LoTtpLaQTaoxYJYQW5pawIZZNDMFknYDu43eJVk0DKiWMsKiFNpEHF5HdeEjLM9+CLd1C90U2yEYFTVJmxK7Yy25+RuZVNfQddGIS3DLR9Az9joKvc8g8EYRoVti6VJ2XN7L8qkyc9vm774DZ9pxaeddq55pn9+M36Qwnz6ShiBNmEB3CCbkyz6h87ukKht1TmUocWb1JETHs1Nf2g68ZgfcIgcId20Es7OXnYaVCs344OSvqqWfQQCZlDZ1gaVFOgxQEJ6j5SPYgqWMnZnvuZN1llFtXcOFq3/B59+9hYXGbaAYqIy9FdV7TAGCyGHTxWhWPHoThOFBKVTxDnpwwjLGB4/huaffxMTIKZS8UfjohkeyaOIOt3sn06ZtohJ2OTVOd3FZmqp40h9MjQRKG1NHQCYWpjPy1xcvhUxG4p7PMhu3edQnNQnMfZK6Ddl3tH3W7qJpPIJfq0BoYrusEZFVzrNgV2bWdDHZTcxuS0RVRhqb1DLWSVKdRqPyJRan3kNcu4QyapIBL4sL+9YuIfizLzKs1HI8NL0+FAdOoXf0DTjFQ4gcJeSJjLEQp/leBIzGk7QrQkW695fCTkaRU8eY8XLZVCZTn8HkgWUGXiqPnHoVtE+rPRRgKGVZC5Qpf0fDhbkHYZvnsN10edsVdUJcwQIUpGnlyuxbmY4qHVflnNPa9ZmFwnTCZFdnSHb6MUuhUURpAUuNi/jy8u/xzZUPUZf0R1OXTn3GIuihJYYfEw+C4WFImIG7cwoUiQOBIYUYTuCi5PTjwNizOH7gVewbfU7CCqD2Pv8zMUrjczex82zgNfXpJA1uZGCTf2dVjyWswwm2PQ6vHo6s632ngrsZD4Is5Pa+uusytP1MWUQLJFQrQTI8pJumcdiE6GLisbr12qUAwUz7NkyYAgRaZkFqVhAghEtfoyucR8Glm1lDM1qkezf8UP/ARR1FNEsjKO95Bb1Dr8Jhrj+6E3Y+pYaVQ2IAQsLQ7/y3tOEBnfUUxKkP1noJjAx64qNNs9HUc2ABRVbDQ8dHWkdCx7Bs3MxPexGo3dAXHuwZcw/CPeynk0P2oMwC0rbjZN+yA8sKKqsSlwIEs4TbQ8Sjazu0/bshOwqRit6CBhrxdVyb+QAfffPvmK3cQehSYd/KOGupUttp7RLwYF2i888WHkIMje+boS7a8ZGHQtyL/SNP48yJn2F04ITUQXDRpUx9w9I2+SeZiGImTzJ5fRO3tCEhA8jSr22evClmY3PkGduWoLUuzsoX2ckJ16qBWgBpUa2NyaYoV7urebak8E6m/W2cvo2/3/4+8qaG4d35PUc1FNUCpqCPpH1qMTKShCXMMPtX1Gc+QaF5G0WrJSF6CGtIOHfkSzMk4qOGMoKeg+gbex1dvc/BcUaBiIRUZVxqLQL1igkJu63wUEe+WGZ06rxM/pYqHmqxLuut03TErDZNWvlUQbIJqyRCX7ZXZN5bJtR2gC0ewZ0czg+5GXKAcB8NkIon2diWWdDbNp7Wc6CdSudeup4VIGgRHuNxkN2Zxn71V9CCCVWQJBchCkO4foxGfBsX77yNv37zb5iv30bkWU+B3lxdYirz+zgAhFSshouvelvINI8CF93+AI7tP4MjEy/jwPALKLgjiIMCfNbLMLoGqnWti5yFF/KnxX2rBr9mRagwpiWpUQteNdq1rTUDwO7OVeZWJ6hUu/0+OtoWHGKjs1mFTd1hpZOn1Ya381/ie7K1Q0xIRE1hnbBtKNn0Xxu22D30d607puWPhagpAIGA2xVVUyeeRFA9i8rt94Hl71F0q1JxU8t0a5Jbp/ys0SLqXGehORRRcwfgDZ5A7+gP4JeeghMPAiFDYCZs5rpSXZMnaWTe7pQ75x3Xs3VCMDSzXpptbtNxdYzbcuXS6slBaQ3G9PrZQlHG+yADJJsNwUsSIOyg8NlD7mw5QLhXA9hOkpDYrKRhdkUxu6osgdEu+HK+1Tc36WPCWVDgoOVAbeekOEILccjYL6kLsWgjnLvxW3xw9teosjgJheG56mScD3J3gzHWmjTu9YqZdUAPXWN+yNzu7pdb7wG2aM7R+V1T9tRz4sAJHZS8fhzZexrPHP577Ok7gaK7FwhKZuKzVQSlyIV5/tU7+zZPUdY71OY9UNe7Fo1RgBeLQiFLwepkIrbKAIT7sv8WHZR0V1MbL606ZxrW9NGkaqQJdemiYVs5VQZNHF4irpBp3KwgxE47SR7AVilAUO6BQDsp1OYilLTHeaB1EUu33kNr7iy6vSUpIWyd0hmafHYIPsAT3eXUFSVBsuMy3QyYgW97tcmkakVdqHtjKI+/jPLwi4B3EAh74ISmXLHoZMSQIoVMZZWy97uHZGEBgvZvzcZJN1vpEJf9mXEE2JlbptZk1jWbvmz4TGMQGmXLbNwUN1tp/S2a0Lan52zZVXOAcD+mTLCAHZYrV0Eb621zKZgKL3bFtV4COxHzc/UeqGSwdlSRcmbhHLrNvBCV1hV8/v2v8Nn5P6HpVNRVkGXJrLvzvZ8XM8fYshEZmea2Ggf2Umss/m3DxF5nnVu3FfmTRXQDz5g+arLbF+89zRQV8MTYSTx3/KeYGHwORW8MbtxrJK55otanV1ba2kzt9R9lJTSy7WQ/t+1nJxN7pYcXsU67xMr+2t5P7cSZ+p7Sd8pG29M2XgkQMu23C+bL1BoUxGHcnSDB6EVISWR6ixpwwxuozf0Nlcn3UYqm0GVSX61WgLa08eAlfX7FQp0xzSa6ueJ020ByK+P14JRhLmjz/qXVRORHV0IRR3J6EPhHMLDvx/B7ngTcYRFHouy79kxVeqU+Bsvbq0t+N3nPs33bbtBWhArtx4kfLIXAKaZNoVYbmThpNPu9Bcg7TDre+BS5pWfkAGHD5lxvuK81Q661eq8GF9kQhrg7BSAEiL06FuoX8ME3/xsXbnwsdRukPn02myeJfRuhk83MRmsBhPucLVa+dduiv2Jt3TKAIPOlpp9xnvPDEo7vfxlnnv4n7Ok9Ac8ZgBOzzr2qV9oCWgnTecNtvvKENQBicshWILYHfsC7LE/rreTZd9oFq/0mTKTQzizvsYYXNAuJiy9ENIcZKS6mEdTOYvbG7+HXrqNfygu3VBbdmKYdIKzYGLQttIarsonn1R0sQ2K6SImL3GZMi+PDaFxwTuCR5rMwLqDpDcItn0L/6I/hdh0EvB6EJstGSm1JhUMWnuOZrLXBMOiO5ttswiJ3G4cP0mfvNWbvNt634DU6+BI5QOiAxskWiBLClAgiBYjcKuaWv8Xv/vbfcWfxOyngxFnAhtE1/99Eia0S2mYAwhq7+ZWXWeV9tLsYA8VXeQM2gqM20AYJ3rcAIaAadZcAhBee/ieM9J6ALwBBdQgUIJjdvYmtb+B2+aGPkAWyHgQpAWyJbQIQSOyjRA7DDnOIWxcwc/33wNIF9DlNeJTeXhcgZNG0dvys18WCiY2a8r48CBJnN1oGxhvZirsQFsbRNfQyugZehVvYi8grIaRAmFMQgSS+KWs8Kl4qIKZE8a4DCBu1aH78Ri2QA4SNWmwbjl8FEKTaXAuBs4Spha/w6/f+GxZbNwGfAIESzso52E6AoMBjrapQGX+dJfmuOGyVibYQLOQAYRs64GN0SSW5amqfalmk4FEZCexhC0B4BcvT76E58wW6WnNS0YDZKap6mi7/wjtugwQrAYKleW7CyIYYq5e3xEobEMootApI1/gg0xtbTi8ciiPteR1+9ynErDngFRAIuY4Kiqy9wbdlUSNTkIiExV0VYtiEPfNTNmyBHCBs2GRbf0J7iWnNY49QR8uZx82ZT/Cb9/4n6pimL110x1WwZ4sBgn0tu5gnJAQzga7hwUsW67W8e/azTPjC3iLz1YaDnjlA2Pr+91hd0QAErTVhFnOhIZBLorLnjltFHN1EUP0cy7c+hLt8DV0sD53xICR9eR3ezeqgw+atbOkzysJfDRAkb1/mAwKEgtRaKAw+h+6R1+AWjiJ2+xB5UoJIwm4eeQjCdTZZVuQfSOgiUYfY/MPmZz5SFsgBQgc0ZztAUJZ8hBrq0TTOX38bf/7kl2h5C1LZUQCC2cPIdJF19W/Ru6hnIktTs2761buhNufAXcKAiZc/s0tpwyD3+ew5QLhPQ+WHrbZAEpKLEREgmEwUggMBCFah2muKqmIcXEDlzvtoTX+FbreiacgrYmmpB6H9dlsBEOzY0loQJmPa8vDM4BEWgtYlE4ATxEWE/j70jP8Qhb7n4bgTiLxuRK7Qn2X0+XHBcJ0tr59uyWwc/kHi+XnHe5QskAOEDmjN1QCBuv8VVFo38PG5X+PTC39A6FdINjaVAe2MkT78ZhbbrNNArmiI2Gst5lkzJRluWReC8U8m10ny59Mz09z8dMLbqPnXBgglHNv/inAQSFLMOQgbtepjcjw7D/V0WBnVYQE0fsAdNSs6Wj4PCcItOO4ynPgqmrMfY/nGByjGc/BcVsHMQGJT0fJuDrQMht+wkTPLd1IkSx8z9cFZBY5ISJYegriMqHQUA/t/Creo2QuxX5R3FYAQU2SZACFV75AHE4Cg9tiwW2/Db5afsFsskAOEjmopncGknDAWsdC4hHc/+yUu3PwbogLrmNtFfDXtKV2YN/5Cuvuw+gr0FqjuuE0FYqGaRExPPjT50pnwAeWe7RQjssc2qz6TWm2nNTvHbgbUJNe1c1rkwAtKODrxIl4kQOg/Cd8ZVPVEEUDSM5SoaN9o4zbKz3gELJB4EEgCjiStkRnxQtqzAIELaRzAcevwcAdh5SvMX3kLfusWfAopUZY46cjpcpqWXTOp8xn0vZl+ztMFIBh+j2Q2U0E0I/ut1INU9KgV+TDkzWYAABlqSURBVGg5gygMnEbv3jfheIcApwexSxEoVQ7gBT3WCrEeQgPsU8n4x61e4SPQr7fxFXKAsI3G3dylifObCOI5zNa+xZ8++lfcmDuHuNAS4aRMZee2yz8wQGBgg2I/zKKWksl0uariGOcgS4gU7oPRdtYJivnXjNu6CEKmjGWAQgZL2OVZ/nyAsEgWIEjWV+TADUo4svcFAQijA8+sAgiioy8zbA4QNtcnH6GzRMacAkGiNJJ4EAgQxIEmmbNcdJtwMYO4eRFLN95GuHwRpXgJLoXMMpkxCVZY4UZIlf0yar0bMKOJ8skZ0s/NmKFugUgDOZrES4DA/s1qgw2U0fLG0Lf3B+ga/AHgTiCOS4iEXGl9DyQoZkSRkshCVkYoDzFsoKke6UNzgNBhzauOwDpa0QzuLH2KP3zwr5itXUdcpLqieg7WWuYeBCAYz6vxHHCbYnZBknLJSUilVVRy37gETOl1goMoCKXmgExcPolSMQIBDY4uzGYS2moPgng5QnoQiji89wW8dIIA4dkcIHRYn+6ox4mYIcQQg/ZXjiYh7AkPQRdz3W234MaLcMKbqM98hOXJT9AVz8BHQ0oEK6HP1FWmQKfhBum76rUehB+UAAQDDuww0udmaiNLm3M4UpYdCKICmm4/4q6jGDjwY/hdJwEMiWiSkBsNKleB8bVEvHKA0FH9tEMeJgcIHdIQiUcyDhHGVQTxFK5Ov4c/fPRLVKNpoJimOa1HjNqsK1OKH3FnFTsoeh4iasLAl//o0xSVdkOOolSt1pPUH5eAJlZGOGWg+R13LBLfJYiwM1smFfJBPAg2HCI7KD5bGIsOwqHxM3jxxH/CWO5B6LAe3WGPIzU0TKkmR8v7ypKe8SCosCmFlCoAZhBUv8Hi9Xfh16+ggFoiriSLbsTiXEbqPHlVx8j0KiS22QcbscRaAIElnIVrQO+e1hkUkMDx2wgIEEZRHntF0hsdfz/iuMcILelzpH4BU2Cs7YESV8JGHjM/9hG3QA4QOqyBudiGcQWt8A6+uvrv+ODsb9B0F4GCpjJZZaSEK2VjiOY9NgUSTKE/lzrjLR/dxUEc3n8cQ72j8JwCgmYLYRgiikMEUSihCEYTCCpazRrCsA7Ha6EeVDC7NI3l5hLcgmq9q3/U7Ksy/K7Nmn0lQIAFCGPP4yUChMHcg7BZ2z7655k4vHBkuAuXal+ZMsGa6qeVGWK4cROIFxAFV1G5+Q7C+S9RiJf0HNO3eRwv00403l6AEAhA0NCeyht5qAddaBYOYOTQz1DofRZw6D0oqbdAJoUM+TDDoTAzSgbaPPq9IH/D+7dADhDu31Y7ciTLPEdxFbXmDbz/1f/B11ffQVioCf9AFlzr1cwQBIUX8CAAIYwRtxx0ed3o9oZxeN9pnDjyMvq798J3qEhIXBJICWruv2QnI1MTqxmGCMMaIqeKamsWV+98jXPff4HFxozUkpB8czM3tYGa9i3NfduWHgyprEcPAl+aUsv0IIw+h5dO/vM6AMGmh+YchPs29CN5oPReHStJYTVFx5b2q0Q+rfAoaovxMuJ4Es2ZD1G7/S78cF6qO0o2g8OCYVaTJIt+tx4gSPiD2o8OQIBAD51Lbo2UqvbRjPvg9DyNgSf+EW7xKBynLJ/rnoLj1NQQSIZAKuBgfCgrvAyPZAfIX2qDFsgBwgYNtt2H6yJcxVLte/z2g/+B63NfwOlqKtEoc/MkzMBx/iAAQRZZB27TR19xD04eeQXHD76KgZ7D8DAAj7sQmVQCAPzlFMsKhkVRZZM9V9xEgAoiZxHztSv4+tIH+Pbyx2jGS4g9xitWqMnYf26CC2UBArMmBHAEdK504SABwol/xvjQKcNB4O6JWQxK4kpJitlKV9vdmvn1O8sCEgBTZzt5NeJ9IydBQYP+6s6c5Bsuvk7cgOPOo7X0GapXfwcvmILDqo9GE0G0FzMCRop7FSBYJZFNhRgyY1oIlCsAAp0C4r2IgTD0EPqj6NrzErqGfwQUDsIRYG+eQEo2EiQkxKE2PQedV2yZ5M5qsfxpHq4FcoDwcO3fdnd1bgYIUcF85Tx+9dZ/wXzzEpxupmXF4tK3E5BlNeskt3bqcptHv32Dk6RqhQE3+iUMuPtxdOI5nHr6dfT37IfvDMGJy0DE8rAkKFphGfUgqPeAQIE7qAhBXAe8GsJoCXfmz+Pz82/hxszXaEQLQIG8cAIJnYQlZpvJZmgrL70iDLEqZGL4Eoy9esyYEA9CCQdGTuPFk7/A3qHn4YNpjrp7sgmXaZpjDhA6qMvv8KPYAIIKI2lnVIa/TQFMXHQCDrS6quPUEDa+Re3G7xAtX4QbVeC5/Fy9CKIvYIsoGYKi8GNksGqH3kzoL2EFZIupSZ82A4hcnxhohSWVVh5/A175FOCPw3E0zVdvbkoh239nSIvydWYC2QRm3+E2zG+3kxbIAcJOWnude2Xjl6zB0IoXcWfhC/zqT/8Vdecm3G5lVgs+MJOF7ip0kpNCSlnmYoaXkFSfs1WmubAaxjXZz1HLR9kdw+mDb+LE4dcwOLAXHicXmWAKxj2pE1IqEmMmPS7WoeaFywTrcn/WQiOYxrWpz3D2wlu4PfctQq+K0GWowSFlQK4lrO+k3npqGLtTSj5Z+V7iAdb0S3kP/j0s4cCwAoTx4RcNQBD/gZmk7dVsLLYDGj1/hA6yQKoRYFZUE7Ozg6aFOLiC5sw7qE1+DKc1haLbgqfV2gX8hsTLBg9wXBIgiCS6DNjNkW9S179Zwo0ktA54gI6BVuSggT50D55B957X4HYdQewNwhEdEC3hnKf3dlBX22WPkgOEDmiwdoDQRCOawaVb7+NPH/0vNLxJOEXNDNDYabr7TtTfRLgoI55kFmG7SdJ/6n90nXrcfgcxgqaDvtI4njz4Kk498VMM9RyE5xaZq6jgQEIJLA6r8cu0KqLNYohEK0EfSvceITkJTgXVxm1cuv4Bzl58C/P164j8hoRBRUg6SrMl77VjkXe2B1k/MPUaDNBxDEDYP3xKPQjDL5gQg+6fUoKWvc697tgBHSJ/hIduAR2Ttp+zZsFttJY+xtKd9xEuX5baDEWOSR7mOYzSKUg2AkQi3yylpM2rbAYjmHMFmCfjPt0UUD65EfpoOnvQN/ZDlAZfgFPaj8jpgYeiKXee9/eH3pl28QPkAKEDGi8FCHR3NtBo3cYXl36PD8/+Ck1vFihEEkK0KkmJe9647JmeaAFC21pqCr7JumryvH0ewHmr5cINy3jm6A/w3LE3MVA+DN/pg+MU4BAgxCQhUiyJKVGeCTMYhJKJ2HKGtKRBKi7Kfw4zMZaxWLuCby+/hfPX/oKl1pSEGqiPEJl5l14Eq0q3cpOVzKcrJlgTHpa0S5FkoGnCEvYNP4OXTv4L9o4QIAwlmd58j2QHlc+VHdDbd8cjtAMEhhpmEDTOY3HqPdRnv0R3vIwiVRXpLZBKiOTmpPt1GSnGla+evs10PutDMEWUzKCwlwsdF424G5H/BPomfoxi7ymE3gjgdEmKstkS7A6D50/ZkRbIAUIHNEsbQEANleYV/O3r/4uvv38bLX8RoccFl6lVjv7azXBGAdl4HYVgpSlc7cVdCBC8iDrsLqKGg263H08eeBGnjv0EI33H4aJHwIGLQhKTpOeABWDIQWj3INitvEmpoIaC4yJmzIK8ANGFbyJ0lrBQvYBPz/0Gl259jMCtiFZCyKwJ7ojMu9xvE1igo15bgosYDpUUoyImBk/ilWd/gQkBCOQgWLloCxAswLrfu+XHPc4WWAkQ4CwjDm9iafYDLE1+gK5wGsW4iYKRHUodBKayog39G0nwTUUZbEEm60Yzg5ycCXosAofSykPwe55B79iP4HU/iYZbhosiizrnVRUe5w68Re+eA4QtMuSDXCYLEFjFcb56ER+f/TW+u/Y+Gu484gIBQigSx7JrNhyl7H4+yz+ShdSE2zXMYNKuAgdo+ihFBAdncOapf8Bo/0l47oBxTuhJ4jYVERmry667nzTEkAUIKslMEBHTNSAqdKw2zzhCC0E8i5tzn+Djr36Nm/PnEbsNuJ6ma0mNh6wHNrvJMi7VhKhljxNMYljoTLYkUAiL2DvwNF459Qvs2/MSfNCDwOc3IQYJwUiVHqPc9CCtlZ/7OFigHSCwMzYQRzOoLn6Kpck/w29eRyGsosh0Q5MYkXV2ieKhKcOsSTyWFJkqLCZ2VDZtUizNFk2TcEXW80DSAblIbgQO5cApwfEPoGvoZQ0vFA+g4RThOgXZCKyll/g4tF3+jltngRwgbJ0tN32lNg4Cmqg1b+PitY9w/spfMLlwEU1nWTQFpAIdkwxdk3ttU7NMgYbY5juK98AS9My0RbHDZgFlbw8Ojz6P08d/jNH+YyjSHe+UtNY9mduSGsjduRVW4d/XAQji7zeuCgIEphRGgfH9u/IMIaqoBzdxffJj/PXsv2Gxdh0oMDeR7GuTky7oo32ObBd20Pe1dSgUIGgdCJkEgwLG+5/GK6f/M/YLQBhmjb4MQBBNZpPKlVer23RHfYxOXA0QAsTRAlpUVZx6F1HlO5SiJXgU4qDqYhLIkuRDCTdwPZd0RJN9tNEqiTLqLIhOMhF4XQIEFwHKKJSfRM/Ia/DLTwHeCAKPacns/YQImwlrPEaNnL/qPS2QA4R7mmj7D2hTYWP8Pqqi1prEzOJ3uH7nG0wuXMV8dQqV+hxaYQUOy84SJLjKoLba7NZbYGWTEhY/EwyCAgpxPw6NPYfTx97E2NDTKLqDcOOi7DV0o6ISrOIIMGEFvZZ+vsqDkDgSlFVtAQILNxGsKM2LaZvLqLdu4cLVd/HFuT+iHk8j9JmtYUhcgjFUHc5gBZ1upUiUfiaek5WELxIUGQJpFQUgvEqAMMoshiEhVqYeBAIETtntHpHtb9n8DrvVAqsAQhwhiiqIW1exPPMJ6gvfwI/m4MYNxLFmNEjNEhFg8mRMigeB49RUXFzLFtKl1/MgJAUdeA2iDYbLtDJjQGji9KHcdxK9wy8m5MTYLQpniAqoFtjv1jbIn/vhWyAHCA+/DdqegItsGLUQxVQnXEYrXMRScwa3pr/HjckLmJq5hEp9CnDrcHwVfuEkxAWWe2S67q3ggOxq+GHoodsdxBPjz+CZwz/E+PCzKHojcFDSNEGGE2RC0bQo4QeY1dgSENOHtKggUZYxX2nJR610pzwEuRZTwGJN3aw3r+Pc5T/j7IU/oxLPIvS1AJVd/anzII4LCWdoyEIxhKY12h2YBEIIGCQQ68EJu7Fv6Fm8cvpfMLHnFDynT3dPwiT3Mhs3y97Id1Yd1u075nGy4b5Un5QDi0WR6nCwgGblMuqL3wPhLFyvLtVXVbSIiJ31S3ztsVZJVAZhZtxk3jYpgrYKJVheo0ANc7qmHYtnLi4gdvvR1XMEpd6jgDeI2CmKiBlDDK5LgJx7yzqmY+3SB8kBQoc1nJRupbYAdQOcAKHTkgW21lrEYvUWpucuYnr2O8wuXMVC5Q7qrYpkObCMAlMhuWbKQhvFUufeaXoooB9HJk7j2WNvYGzgOEqFUZFi5WQTRoGEFTyXrskMoW9du6zI17K5lwJPGHKwk5LyuuX/uftimVwqLS5fwmff/BaXJj9HFXMIRYApk2hA74NUjzJhBUUZ8j7qkqDEMndqHopuN8rFIQz07MPEyCkcP/gaBnsPSMhEBG7kwlR7ZJK6dUHk4KDDunxHPc56AIE1UuKwCddhqIGehEWAxZy8higrMswQR8zjLeifIvZBjRCG3O6uhWALRrUbwvRTSXG0Y4t92R7NKo3dcL0hwB8EUFSisIBnTU3OAUJHda1d+TA5QOi0ZpO4vi6u4h0QTztJigQKNUTRIhrNScwtXsHNqfO4cuMc5qvTiN0mokKI2NNkKxKn3MCHF/bi6L4X8eyxH2J86EkUvD4jolLUkjTKSITrMi1qPZXB9RZVTXHUvEmTq52kFYrvAJHUcFBuIMtYN4NZTM6dw+eXfo/L01+g5dQUSJDs5ekEp16NFDfQixAHJCN6EhIpuN3o79mD8ZEnMDp0CCP9h9DXfRDl0jh8YXETXDQN6jCS0AlA6LQGz5+nMy2Q3fET5BIAEEwbKWZhGQSI3UCUGIUKLADB1z8F1VIcTMnF69MB1hdISP1m5DnQk2DkxYWEzDAGQQJ1S9jHbZyCdSTIG2IWQ+5B6My+tXueKgcIndZWIgOvCmwCDljvXcSHODkx77qFOK6LpHGtOYPZxeu4OfM9bk9fxlzlFmqtBZmU6D0oOf14Yi89B29ipP8oSj7T/5iYxQnMN7t947w3YktrmyNJrFzxtZWu5Q7HMq5Vc1YZBQoQkugASZZxA/XmNK7PfIpPv/sdJue/R+g2ELuhqCva8AYzJmV6E1U6D0WvjN6uEQz27MP+8acw0DuB/u5xdJcGUfD74MV9QFSSnHRXhPAbhvhIwRiN3eY/uQXu3wLtAEEElaUvGy+ZqWsgpc3NRcVjx1+N8wlKlxFidNHXgwJrw28GFpRFpLRHrTCpmwf1hpEaKZLnBn3oMTyLn9CDkHvL7r+98yPXskAOEDqtXyQAwSQIkOYXt8SLwI0Ihz3dnVoboSmx/WpzHvOVSdycPI9L177E4uKUTBDHDp7CqSf/HiMDz8BFvzD7hW9gdFpFREj4B7ISq9thzR+7uK6ccKxErT3JSrNwy6/AhhMay0OLKBJDtORXOE1UWzdx6dZH+OLc25hZugK32ILrs/BMjDjk/QriMejyuzEyMIZ9o0cwsecYBstPoNy9F47bAycuKFvbLcCJi3BM3Qh5F3oQSBKLya3Id1Kd1s07/3lWeBDo5eK4M9wWmwrMrspaDBxbAkNNdo2m+yonaH0fQZZV026R9O4KvKX8NMN49rqxgQISVlDPAu/tJfLO64H6zrd8/oSdY4EcIHROW+iTcIfANALVcJX/USQpiiJVD7Thehn/THtsIkQTQdxEM1jEcvU2bt+5giAI8cS+ExgYOAgXwwAXUE4yUiaW84xnXKG6cMuH5D3cEyC0g4QUIhhhIltikd4D4Q1w2vQQiYiSltblvYK4hmpzCl+d/yPOfvdH1KNJOB6PKaDo9aHbH8L46CEc3HsUYwMH0VMaRdEbhu/2IYoNr0AEJFlZj1MkPSJFOPIdbWM1GXQnZYWkOq258+fpVAu0kwqlxLlNq5XCY1rFkeRgggAV5uLYIojQz1WwzOqJbPw9tVSJFfzi1XhtEns5J1AtnaReeswYeuN4ZmjNJFmKWEoOEjZu9fyMrAVygNBh/UEmHkMcZBxRJhoJ4mtpV7sdUckDzXjQTAB+GUjp5SioG6GiEgpeL8KwAI8cAwmFkuesuxLu1KUUMmszSPUno/iyyiYWFKyecOwjWaU4LehEV2wk3gAFCL4ABM9nbDRSVUhOcqhheu48Pvvqd7gx+TW8QozBwT3YP3EcY8NH0FceR09xEAW3V3gTDCEw80IElmgPVuFjipmEfBnaII/CgAdT1ld2V1aqocPaOn+cTrZAO0BQ2XEdB0q3YchBOUKsJa78AM04sDTCiONXsgqMIsFKMaSMzMFalpAnMPxGhRsKsrM1VsQH4bgKEGSi0FLVUt88Bwid3MF2xbPlAKEDm0kFi2Qqas+Rlh1F9oFTBXhNK7SeB9UXoEyysgNNWCFD/EtmGXs5Wz/6rvZYHdPMPo5+aydWU8hG3oQuCj2SAEKIjU6AKG6iFSziztQ1TM/eQm9fGWMjEygUyyj6vXCNKpxKPjMTwTCzE0EEQw6zNa+tfOTK2Gseiu3AXr4bHqm9d9uEHdudrG5HtiCTSiTpD70HOoo33wHb72kJwSvDFmZ824OT4mmbv+9uaJ38GbffAjlA2H4bb/Md2iOcbaJLyZ1tytSDTFUbeY3VsCE9WwEEy0JHEUVmGIqIJCTi+x58vyg7NcmqsKIISeqkejBSAZi1orv5pLiRlsqP3WoL3K3vb8W98j6/FVbMr3F/FsgBwv3ZadcctTZASIWPOuNFyO4OEEZNKfDEOKrQsBjuoGuUVMwEHGTDGsavYr/rjJfJnyK3QG6B3AKPpAVygPBINmunvxR3QYzham0JQ7IwsvNaPle8BBIyWO0RyLMSOr198+fLLZBb4FGwQA4QHoVW3HXvQB6CVpEQ3oT82HwwLVXpJjyDtUIGOTt71zV5/sC5BXIL7DoL5ABh1zXZo/HA5B0ws0EyK6iRIPoO9Cyo9yDBB2tmkecA4dHoBflb5BbILdDJFsgBQie3ziP+bKKToFli8mMr27aTENcjZeVkxEe8e+Svl1sgt8BDtkAOEB5yAzzOt7dp22tlgbV7EFaChNyD8Dj3m/zdcwvkFtgZC+QAYWfsnN9lDQskAIHfrXAIpABBfAsrBCBygJB3qNwCuQVyC2y3BXKAsN0Wzq+/rgVsSKH9ACuotLruQyoPkwOEvFvlFsgtkFtguy2QA4TttnB+/btYwIYO7pdPkAg7r5n+mJs6t0BugdwCuQW2zgI5QNg6W+ZX2pAFVoYNbJzhXmDBCtpv6Gb5wbkFcgvkFsgtsEEL5ABhgwbLD98qCxhd+SSNca2wQR5K2Cpr59fJLZBbILfARi2QA4SNWiw/fosscD8A4X69Clv0SPllcgvkFsgtkFsgsUAOEPLO8BAtkFa+04dYTzXxIT5ifuvcArkFcgs8phbIAcJj2vD5a+cWyC2QWyC3QG6Bu1ng/wMGiT0VNu/G0AAAAABJRU5ErkJggg==;" parent="1" vertex="1">
          <mxGeometry x="448" y="429.8800000000001" width="29.25" height="29.25" as="geometry" />
        </mxCell>
        <mxCell id="AE_BiF9xxwOe74FV2K3E-35" value="Sensitive values are held as references to Azure Key Vault" style="text;html=1;strokeColor=none;fillColor=none;align=left;verticalAlign=middle;whiteSpace=wrap;rounded=0;" parent="1" vertex="1">
          <mxGeometry x="540" y="417.75" width="120" height="20" as="geometry" />
        </mxCell>
        <mxCell id="PHoRncIx_XCvd-MqkEX_-2" value="" style="edgeStyle=orthogonalEdgeStyle;rounded=0;orthogonalLoop=1;jettySize=auto;html=1;fontSize=12;" edge="1" parent="1" source="AE_BiF9xxwOe74FV2K3E-36" target="PHoRncIx_XCvd-MqkEX_-1">
          <mxGeometry relative="1" as="geometry" />
        </mxCell>
        <mxCell id="PHoRncIx_XCvd-MqkEX_-7" style="edgeStyle=orthogonalEdgeStyle;rounded=0;orthogonalLoop=1;jettySize=auto;html=1;entryX=0;entryY=0.5;entryDx=0;entryDy=0;fontSize=12;" edge="1" parent="1" source="AE_BiF9xxwOe74FV2K3E-36" target="AE_BiF9xxwOe74FV2K3E-28">
          <mxGeometry relative="1" as="geometry" />
        </mxCell>
        <mxCell id="AE_BiF9xxwOe74FV2K3E-36" value="Retrieve all environment values" style="rounded=1;whiteSpace=wrap;html=1;fillColor=#e1d5e7;strokeColor=#9673a6;" parent="1" vertex="1">
          <mxGeometry x="130" y="358.5" width="120" height="60" as="geometry" />
        </mxCell>
        <mxCell id="PHoRncIx_XCvd-MqkEX_-4" value="" style="edgeStyle=orthogonalEdgeStyle;rounded=0;orthogonalLoop=1;jettySize=auto;html=1;fontSize=12;" edge="1" parent="1" source="PHoRncIx_XCvd-MqkEX_-1" target="PHoRncIx_XCvd-MqkEX_-3">
          <mxGeometry relative="1" as="geometry" />
        </mxCell>
        <mxCell id="PHoRncIx_XCvd-MqkEX_-8" style="edgeStyle=orthogonalEdgeStyle;rounded=0;orthogonalLoop=1;jettySize=auto;html=1;entryX=0;entryY=0.5;entryDx=0;entryDy=0;fontSize=12;" edge="1" parent="1" source="PHoRncIx_XCvd-MqkEX_-1" target="AE_BiF9xxwOe74FV2K3E-28">
          <mxGeometry relative="1" as="geometry" />
        </mxCell>
        <mxCell id="PHoRncIx_XCvd-MqkEX_-1" value="Retrieve all common service values" style="rounded=1;whiteSpace=wrap;html=1;fillColor=#d5e8d4;strokeColor=#82b366;" vertex="1" parent="1">
          <mxGeometry x="130" y="438" width="120" height="60" as="geometry" />
        </mxCell>
        <mxCell id="PHoRncIx_XCvd-MqkEX_-6" value="" style="edgeStyle=orthogonalEdgeStyle;rounded=0;orthogonalLoop=1;jettySize=auto;html=1;fontSize=12;" edge="1" parent="1" source="PHoRncIx_XCvd-MqkEX_-3" target="PHoRncIx_XCvd-MqkEX_-5">
          <mxGeometry relative="1" as="geometry" />
        </mxCell>
        <mxCell id="PHoRncIx_XCvd-MqkEX_-9" style="edgeStyle=orthogonalEdgeStyle;rounded=0;orthogonalLoop=1;jettySize=auto;html=1;entryX=0;entryY=0.5;entryDx=0;entryDy=0;fontSize=12;" edge="1" parent="1" source="PHoRncIx_XCvd-MqkEX_-3" target="AE_BiF9xxwOe74FV2K3E-28">
          <mxGeometry relative="1" as="geometry" />
        </mxCell>
        <mxCell id="PHoRncIx_XCvd-MqkEX_-3" value="Retrieve all environment service values" style="rounded=1;whiteSpace=wrap;html=1;fillColor=#d5e8d4;strokeColor=#82b366;" vertex="1" parent="1">
          <mxGeometry x="130" y="520" width="120" height="60" as="geometry" />
        </mxCell>
        <mxCell id="PHoRncIx_XCvd-MqkEX_-5" value="Update Helm values&lt;br&gt;for deployment" style="rounded=1;whiteSpace=wrap;html=1;fillColor=#d5e8d4;strokeColor=#82b366;" vertex="1" parent="1">
          <mxGeometry x="130" y="600" width="120" height="60" as="geometry" />
        </mxCell>
        <mxCell id="AE_BiF9xxwOe74FV2K3E-34" style="edgeStyle=orthogonalEdgeStyle;rounded=0;orthogonalLoop=1;jettySize=auto;html=1;entryX=0;entryY=0.5;entryDx=0;entryDy=0;exitX=1;exitY=0.5;exitDx=0;exitDy=0;" parent="1" source="AE_BiF9xxwOe74FV2K3E-14" target="AE_BiF9xxwOe74FV2K3E-28" edge="1">
          <mxGeometry relative="1" as="geometry">
            <mxPoint x="300" y="270" as="sourcePoint" />
          </mxGeometry>
        </mxCell>
        <mxCell id="AE_BiF9xxwOe74FV2K3E-38" value="Azure CLI" style="edgeLabel;html=1;align=center;verticalAlign=middle;resizable=0;points=[];fontSize=10;" parent="AE_BiF9xxwOe74FV2K3E-34" vertex="1" connectable="0">
          <mxGeometry x="-0.4182" y="-2" relative="1" as="geometry">
            <mxPoint x="37" y="114.75" as="offset" />
          </mxGeometry>
        </mxCell>
        <mxCell id="PHoRncIx_XCvd-MqkEX_-11" value="Retrieve all environment service values" style="rounded=1;whiteSpace=wrap;html=1;fillColor=#d5e8d4;strokeColor=#82b366;" vertex="1" parent="1">
          <mxGeometry x="130" y="520" width="120" height="60" as="geometry" />
        </mxCell>
        <mxCell id="PHoRncIx_XCvd-MqkEX_-12" value="Retrieve all common service values" style="rounded=1;whiteSpace=wrap;html=1;fillColor=#d5e8d4;strokeColor=#82b366;" vertex="1" parent="1">
          <mxGeometry x="130" y="438" width="120" height="60" as="geometry" />
        </mxCell>
        <mxCell id="PHoRncIx_XCvd-MqkEX_-13" value="Retrieve all environment service values" style="rounded=1;whiteSpace=wrap;html=1;fillColor=#e1d5e7;strokeColor=#9673a6;" vertex="1" parent="1">
          <mxGeometry x="130" y="520" width="120" height="60" as="geometry" />
        </mxCell>
        <mxCell id="PHoRncIx_XCvd-MqkEX_-14" value="Retrieve all common service values" style="rounded=1;whiteSpace=wrap;html=1;fillColor=#e1d5e7;strokeColor=#9673a6;" vertex="1" parent="1">
          <mxGeometry x="130" y="438" width="120" height="60" as="geometry" />
        </mxCell>
      </root>
    </mxGraphModel>
  </diagram>
</mxfile>
